  0
SECTION
  2
HEADER
  9
$ANGBASE
  50
0.0
  9
$ANGDIR
  70
  1
  9
$MEASUREMENT
  70
0
  0
ENDSEC
  0
SECTION
  2
TABLES
  0
TABLE
  2
LTYPE
  70
1
  0
LTYPE
  2
CONTINUOUS
  70
0
  3
Solid line
  72
65
  73
0
  40
0.0
  0
ENDTAB
  0
TABLE
  2
STYLE
  70
4
  0
STYLE
  2
KICAD
  70
0
  40
0
  41
1
  42
1
  50
0
  71
0
  3
isocp.shx
  0
STYLE
  2
KICADB
  70
0
  40
0
  41
1
  42
1
  50
0
  71
0
  3
isocp.shx
  0
STYLE
  2
KICADI
  70
0
  40
0
  41
1
  42
1
  50
15
  71
0
  3
isocp.shx
  0
STYLE
  2
KICADBI
  70
0
  40
0
  41
1
  42
1
  50
15
  71
0
  3
isocp.shx
  0
ENDTAB
  0
TABLE
  2
LAYER
  70
30
  0
LAYER
  2
BLACK
  70
0
  62
7
  6
CONTINUOUS
  0
LAYER
  2
GRAY1
  70
0
  62
251
  6
CONTINUOUS
  0
LAYER
  2
GRAY2
  70
0
  62
8
  6
CONTINUOUS
  0
LAYER
  2
GRAY3
  70
0
  62
9
  6
CONTINUOUS
  0
LAYER
  2
WHITE
  70
0
  62
7
  6
CONTINUOUS
  0
LAYER
  2
LYELLOW
  70
0
  62
51
  6
CONTINUOUS
  0
LAYER
  2
BLUE1
  70
0
  62
178
  6
CONTINUOUS
  0
LAYER
  2
GREEN1
  70
0
  62
98
  6
CONTINUOUS
  0
LAYER
  2
CYAN1
  70
0
  62
138
  6
CONTINUOUS
  0
LAYER
  2
RED1
  70
0
  62
18
  6
CONTINUOUS
  0
LAYER
  2
MAGENTA1
  70
0
  62
228
  6
CONTINUOUS
  0
LAYER
  2
BROWN1
  70
0
  62
58
  6
CONTINUOUS
  0
LAYER
  2
BLUE2
  70
0
  62
5
  6
CONTINUOUS
  0
LAYER
  2
GREEN2
  70
0
  62
3
  6
CONTINUOUS
  0
LAYER
  2
CYAN2
  70
0
  62
4
  6
CONTINUOUS
  0
LAYER
  2
RED2
  70
0
  62
1
  6
CONTINUOUS
  0
LAYER
  2
MAGENTA2
  70
0
  62
6
  6
CONTINUOUS
  0
LAYER
  2
BROWN2
  70
0
  62
54
  6
CONTINUOUS
  0
LAYER
  2
BLUE3
  70
0
  62
171
  6
CONTINUOUS
  0
LAYER
  2
GREEN3
  70
0
  62
91
  6
CONTINUOUS
  0
LAYER
  2
CYAN3
  70
0
  62
131
  6
CONTINUOUS
  0
LAYER
  2
RED3
  70
0
  62
11
  6
CONTINUOUS
  0
LAYER
  2
MAGENTA3
  70
0
  62
221
  6
CONTINUOUS
  0
LAYER
  2
YELLOW3
  70
0
  62
2
  6
CONTINUOUS
  0
LAYER
  2
BLUE4
  70
0
  62
5
  6
CONTINUOUS
  0
LAYER
  2
GREEN4
  70
0
  62
3
  6
CONTINUOUS
  0
LAYER
  2
CYAN4
  70
0
  62
4
  6
CONTINUOUS
  0
LAYER
  2
RED4
  70
0
  62
1
  6
CONTINUOUS
  0
LAYER
  2
MAGENTA4
  70
0
  62
6
  6
CONTINUOUS
  0
LAYER
  2
YELLOW4
  70
0
  62
2
  6
CONTINUOUS
  0
ENDTAB
  0
ENDSEC
  0
SECTION
  2
ENTITIES
0
LINE
8
Black
10
152.096
20
-106.888
11
152.105
21
-106.887
0
LINE
8
Black
10
152.105
20
-106.887
11
152.122
21
-106.892
0
LINE
8
Black
10
152.122
20
-106.892
11
152.139
21
-106.895
0
LINE
8
Black
10
152.139
20
-106.895
11
152.146
21
-106.9
0
LINE
8
Black
10
152.146
20
-106.9
11
152.155
21
-106.902
0
LINE
8
Black
10
152.155
20
-106.902
11
152.279
21
-106.964
0
LINE
8
Black
10
152.279
20
-106.964
11
152.298
21
-106.978
0
LINE
8
Black
10
152.298
20
-106.978
11
152.317
21
-106.992
0
LINE
8
Black
10
152.317
20
-106.992
11
152.379
21
-107.054
0
LINE
8
Black
10
152.379
20
-107.054
11
152.393
21
-107.074
0
LINE
8
Black
10
152.393
20
-107.074
11
152.407
21
-107.093
0
LINE
8
Black
10
152.407
20
-107.093
11
152.469
21
-107.217
0
LINE
8
Black
10
152.469
20
-107.217
11
152.472
21
-107.225
0
LINE
8
Black
10
152.472
20
-107.225
11
152.476
21
-107.233
0
LINE
8
Black
10
152.476
20
-107.233
11
152.479
21
-107.25
0
LINE
8
Black
10
152.479
20
-107.25
11
152.484
21
-107.267
0
LINE
8
Black
10
152.484
20
-107.267
11
152.484
21
-107.276
0
LINE
8
Black
10
152.484
20
-107.276
11
152.485
21
-107.284
0
LINE
8
Black
10
152.485
20
-107.284
11
152.485
21
-107.655
0
LINE
8
Black
10
152.485
20
-107.655
11
152.484
21
-107.664
0
LINE
8
Black
10
152.484
20
-107.664
11
152.484
21
-107.673
0
LINE
8
Black
10
152.484
20
-107.673
11
152.479
21
-107.689
0
LINE
8
Black
10
152.479
20
-107.689
11
152.476
21
-107.707
0
LINE
8
Black
10
152.476
20
-107.707
11
152.472
21
-107.714
0
LINE
8
Black
10
152.472
20
-107.714
11
152.469
21
-107.723
0
LINE
8
Black
10
152.469
20
-107.723
11
152.407
21
-107.846
0
LINE
8
Black
10
152.407
20
-107.846
11
152.393
21
-107.866
0
LINE
8
Black
10
152.393
20
-107.866
11
152.379
21
-107.885
0
LINE
8
Black
10
152.379
20
-107.885
11
152.317
21
-107.947
0
LINE
8
Black
10
152.317
20
-107.947
11
152.298
21
-107.961
0
LINE
8
Black
10
152.298
20
-107.961
11
152.279
21
-107.975
0
LINE
8
Black
10
152.279
20
-107.975
11
152.155
21
-108.037
0
LINE
8
Black
10
152.155
20
-108.037
11
152.146
21
-108.04
0
LINE
8
Black
10
152.146
20
-108.04
11
152.139
21
-108.044
0
LINE
8
Black
10
152.139
20
-108.044
11
152.122
21
-108.047
0
LINE
8
Black
10
152.122
20
-108.047
11
152.105
21
-108.052
0
LINE
8
Black
10
152.105
20
-108.052
11
152.096
21
-108.052
0
LINE
8
Black
10
152.096
20
-108.052
11
152.088
21
-108.053
0
LINE
8
Black
10
152.088
20
-108.053
11
151.866
21
-108.053
0
LINE
8
Black
10
151.866
20
-108.053
11
151.866
21
-108.053
0
LINE
8
Black
10
151.866
20
-108.053
11
151.901
21
-108.124
0
LINE
8
Black
10
151.901
20
-108.124
11
151.929
21
-108.151
0
LINE
8
Black
10
151.929
20
-108.151
11
151.999
21
-108.186
0
LINE
8
Black
10
151.999
20
-108.186
11
152.114
21
-108.186
0
LINE
8
Black
10
152.114
20
-108.186
11
152.206
21
-108.14
0
LINE
8
Black
10
152.206
20
-108.14
11
152.256
21
-108.126
0
LINE
8
Black
10
152.256
20
-108.126
11
152.308
21
-108.129
0
LINE
8
Black
10
152.308
20
-108.129
11
152.356
21
-108.149
0
LINE
8
Black
10
152.356
20
-108.149
11
152.394
21
-108.185
0
LINE
8
Black
10
152.394
20
-108.185
11
152.417
21
-108.232
0
LINE
8
Black
10
152.417
20
-108.232
11
152.423
21
-108.284
0
LINE
8
Black
10
152.423
20
-108.284
11
152.411
21
-108.334
0
LINE
8
Black
10
152.411
20
-108.334
11
152.382
21
-108.378
0
LINE
8
Black
10
152.382
20
-108.378
11
152.34
21
-108.409
0
LINE
8
Black
10
152.34
20
-108.409
11
152.217
21
-108.471
0
LINE
8
Black
10
152.217
20
-108.471
11
152.208
21
-108.473
0
LINE
8
Black
10
152.208
20
-108.473
11
152.201
21
-108.477
0
LINE
8
Black
10
152.201
20
-108.477
11
152.184
21
-108.48
0
LINE
8
Black
10
152.184
20
-108.48
11
152.167
21
-108.485
0
LINE
8
Black
10
152.167
20
-108.485
11
152.158
21
-108.485
0
LINE
8
Black
10
152.158
20
-108.485
11
152.15
21
-108.486
0
LINE
8
Black
10
152.15
20
-108.486
11
151.964
21
-108.486
0
LINE
8
Black
10
151.964
20
-108.486
11
151.955
21
-108.485
0
LINE
8
Black
10
151.955
20
-108.485
11
151.947
21
-108.485
0
LINE
8
Black
10
151.947
20
-108.485
11
151.93
21
-108.48
0
LINE
8
Black
10
151.93
20
-108.48
11
151.913
21
-108.477
0
LINE
8
Black
10
151.913
20
-108.477
11
151.905
21
-108.473
0
LINE
8
Black
10
151.905
20
-108.473
11
151.897
21
-108.471
0
LINE
8
Black
10
151.897
20
-108.471
11
151.773
21
-108.409
0
LINE
8
Black
10
151.773
20
-108.409
11
151.754
21
-108.394
0
LINE
8
Black
10
151.754
20
-108.394
11
151.734
21
-108.381
0
LINE
8
Black
10
151.734
20
-108.381
11
151.672
21
-108.319
0
LINE
8
Black
10
151.672
20
-108.319
11
151.658
21
-108.299
0
LINE
8
Black
10
151.658
20
-108.299
11
151.644
21
-108.28
0
LINE
8
Black
10
151.644
20
-108.28
11
151.582
21
-108.156
0
LINE
8
Black
10
151.582
20
-108.156
11
151.58
21
-108.148
0
LINE
8
Black
10
151.58
20
-108.148
11
151.575
21
-108.14
0
LINE
8
Black
10
151.575
20
-108.14
11
151.572
21
-108.123
0
LINE
8
Black
10
151.572
20
-108.123
11
151.567
21
-108.106
0
LINE
8
Black
10
151.567
20
-108.106
11
151.568
21
-108.097
0
LINE
8
Black
10
151.568
20
-108.097
11
151.566
21
-108.089
0
LINE
8
Black
10
151.566
20
-108.089
11
151.566
21
-107.036
0
LINE
8
Black
10
151.566
20
-107.036
11
151.575
21
-106.985
0
LINE
8
Black
10
151.575
20
-106.985
11
151.601
21
-106.94
0
LINE
8
Black
10
151.601
20
-106.94
11
151.641
21
-106.907
0
LINE
8
Black
10
151.641
20
-106.907
11
151.69
21
-106.889
0
LINE
8
Black
10
151.69
20
-106.889
11
151.742
21
-106.889
0
LINE
8
Black
10
151.742
20
-106.889
11
151.777
21
-106.901
0
LINE
8
Black
10
151.777
20
-106.901
11
151.781
21
-106.9
0
LINE
8
Black
10
151.781
20
-106.9
11
151.789
21
-106.895
0
LINE
8
Black
10
151.789
20
-106.895
11
151.806
21
-106.892
0
LINE
8
Black
10
151.806
20
-106.892
11
151.823
21
-106.887
0
LINE
8
Black
10
151.823
20
-106.887
11
151.831
21
-106.888
0
LINE
8
Black
10
151.831
20
-106.888
11
151.84
21
-106.886
0
LINE
8
Black
10
151.84
20
-106.886
11
152.088
21
-106.886
0
LINE
8
Black
10
152.088
20
-106.886
11
152.096
21
-106.888
0
LINE
8
Black
10
151.875
20
-107.186
11
151.866
21
-107.191
0
LINE
8
Black
10
151.866
20
-107.191
11
151.866
21
-107.748
0
LINE
8
Black
10
151.866
20
-107.748
11
151.875
21
-107.753
0
LINE
8
Black
10
151.875
20
-107.753
11
152.052
21
-107.753
0
LINE
8
Black
10
152.052
20
-107.753
11
152.123
21
-107.718
0
LINE
8
Black
10
152.123
20
-107.718
11
152.15
21
-107.69
0
LINE
8
Black
10
152.15
20
-107.69
11
152.185
21
-107.62
0
LINE
8
Black
10
152.185
20
-107.62
11
152.185
21
-107.319
0
LINE
8
Black
10
152.185
20
-107.319
11
152.15
21
-107.249
0
LINE
8
Black
10
152.15
20
-107.249
11
152.123
21
-107.222
0
LINE
8
Black
10
152.123
20
-107.222
11
152.052
21
-107.186
0
LINE
8
Black
10
152.052
20
-107.186
11
151.875
21
-107.186
0
LINE
8
Black
10
156.182
20
-106.455
11
156.19
21
-106.454
0
LINE
8
Black
10
156.19
20
-106.454
11
156.207
21
-106.459
0
LINE
8
Black
10
156.207
20
-106.459
11
156.225
21
-106.462
0
LINE
8
Black
10
156.225
20
-106.462
11
156.232
21
-106.466
0
LINE
8
Black
10
156.232
20
-106.466
11
156.24
21
-106.469
0
LINE
8
Black
10
156.24
20
-106.469
11
156.364
21
-106.531
0
LINE
8
Black
10
156.364
20
-106.531
11
156.384
21
-106.545
0
LINE
8
Black
10
156.384
20
-106.545
11
156.403
21
-106.559
0
LINE
8
Black
10
156.403
20
-106.559
11
156.465
21
-106.621
0
LINE
8
Black
10
156.465
20
-106.621
11
156.479
21
-106.641
0
LINE
8
Black
10
156.479
20
-106.641
11
156.493
21
-106.66
0
LINE
8
Black
10
156.493
20
-106.66
11
156.555
21
-106.784
0
LINE
8
Black
10
156.555
20
-106.784
11
156.558
21
-106.792
0
LINE
8
Black
10
156.558
20
-106.792
11
156.562
21
-106.799
0
LINE
8
Black
10
156.562
20
-106.799
11
156.565
21
-106.817
0
LINE
8
Black
10
156.565
20
-106.817
11
156.57
21
-106.834
0
LINE
8
Black
10
156.57
20
-106.834
11
156.569
21
-106.842
0
LINE
8
Black
10
156.569
20
-106.842
11
156.571
21
-106.851
0
LINE
8
Black
10
156.571
20
-106.851
11
156.571
21
-107.16
0
LINE
8
Black
10
156.571
20
-107.16
11
156.569
21
-107.169
0
LINE
8
Black
10
156.569
20
-107.169
11
156.57
21
-107.177
0
LINE
8
Black
10
156.57
20
-107.177
11
156.565
21
-107.194
0
LINE
8
Black
10
156.565
20
-107.194
11
156.562
21
-107.212
0
LINE
8
Black
10
156.562
20
-107.212
11
156.558
21
-107.219
0
LINE
8
Black
10
156.558
20
-107.219
11
156.555
21
-107.227
0
LINE
8
Black
10
156.555
20
-107.227
11
156.493
21
-107.351
0
LINE
8
Black
10
156.493
20
-107.351
11
156.479
21
-107.37
0
LINE
8
Black
10
156.479
20
-107.37
11
156.465
21
-107.39
0
LINE
8
Black
10
156.465
20
-107.39
11
156.403
21
-107.452
0
LINE
8
Black
10
156.403
20
-107.452
11
156.384
21
-107.466
0
LINE
8
Black
10
156.384
20
-107.466
11
156.364
21
-107.48
0
LINE
8
Black
10
156.364
20
-107.48
11
156.24
21
-107.542
0
LINE
8
Black
10
156.24
20
-107.542
11
156.232
21
-107.544
0
LINE
8
Black
10
156.232
20
-107.544
11
156.225
21
-107.549
0
LINE
8
Black
10
156.225
20
-107.549
11
156.207
21
-107.552
0
LINE
8
Black
10
156.207
20
-107.552
11
156.19
21
-107.557
0
LINE
8
Black
10
156.19
20
-107.557
11
156.182
21
-107.556
0
LINE
8
Black
10
156.182
20
-107.556
11
156.173
21
-107.558
0
LINE
8
Black
10
156.173
20
-107.558
11
155.926
21
-107.558
0
LINE
8
Black
10
155.926
20
-107.558
11
155.917
21
-107.556
0
LINE
8
Black
10
155.917
20
-107.556
11
155.909
21
-107.557
0
LINE
8
Black
10
155.909
20
-107.557
11
155.893
21
-107.552
0
LINE
8
Black
10
155.893
20
-107.552
11
155.98
21
-107.684
0
LINE
8
Black
10
155.98
20
-107.684
11
156.015
21
-107.718
0
LINE
8
Black
10
156.015
20
-107.718
11
156.085
21
-107.753
0
LINE
8
Black
10
156.085
20
-107.753
11
156.297
21
-107.753
0
LINE
8
Black
10
156.297
20
-107.753
11
156.348
21
-107.762
0
LINE
8
Black
10
156.348
20
-107.762
11
156.394
21
-107.788
0
LINE
8
Black
10
156.394
20
-107.788
11
156.427
21
-107.828
0
LINE
8
Black
10
156.427
20
-107.828
11
156.445
21
-107.877
0
LINE
8
Black
10
156.445
20
-107.877
11
156.445
21
-107.929
0
LINE
8
Black
10
156.445
20
-107.929
11
156.427
21
-107.978
0
LINE
8
Black
10
156.427
20
-107.978
11
156.394
21
-108.018
0
LINE
8
Black
10
156.394
20
-108.018
11
156.348
21
-108.044
0
LINE
8
Black
10
156.348
20
-108.044
11
156.297
21
-108.053
0
LINE
8
Black
10
156.297
20
-108.053
11
156.05
21
-108.053
0
LINE
8
Black
10
156.05
20
-108.053
11
156.041
21
-108.052
0
LINE
8
Black
10
156.041
20
-108.052
11
156.032
21
-108.052
0
LINE
8
Black
10
156.032
20
-108.052
11
156.016
21
-108.047
0
LINE
8
Black
10
156.016
20
-108.047
11
155.998
21
-108.044
0
LINE
8
Black
10
155.998
20
-108.044
11
155.991
21
-108.04
0
LINE
8
Black
10
155.991
20
-108.04
11
155.982
21
-108.037
0
LINE
8
Black
10
155.982
20
-108.037
11
155.859
21
-107.975
0
LINE
8
Black
10
155.859
20
-107.975
11
155.839
21
-107.961
0
LINE
8
Black
10
155.839
20
-107.961
11
155.82
21
-107.947
0
LINE
8
Black
10
155.82
20
-107.947
11
155.758
21
-107.885
0
LINE
8
Black
10
155.758
20
-107.885
11
155.749
21
-107.873
0
LINE
8
Black
10
155.749
20
-107.873
11
155.739
21
-107.862
0
LINE
8
Black
10
155.739
20
-107.862
11
155.615
21
-107.677
0
LINE
8
Black
10
155.615
20
-107.677
11
155.605
21
-107.653
0
LINE
8
Black
10
155.605
20
-107.653
11
155.594
21
-107.63
0
LINE
8
Black
10
155.594
20
-107.63
11
155.533
21
-107.382
0
LINE
8
Black
10
155.533
20
-107.382
11
155.531
21
-107.364
0
LINE
8
Black
10
155.531
20
-107.364
11
155.528
21
-107.346
0
LINE
8
Black
10
155.528
20
-107.346
11
155.528
21
-106.851
0
LINE
8
Black
10
155.528
20
-106.851
11
155.53
21
-106.842
0
LINE
8
Black
10
155.53
20
-106.842
11
155.529
21
-106.834
0
LINE
8
Black
10
155.529
20
-106.834
11
155.534
21
-106.817
0
LINE
8
Black
10
155.534
20
-106.817
11
155.537
21
-106.799
0
LINE
8
Black
10
155.537
20
-106.799
11
155.541
21
-106.792
0
LINE
8
Black
10
155.541
20
-106.792
11
155.544
21
-106.784
0
LINE
8
Black
10
155.544
20
-106.784
11
155.606
21
-106.66
0
LINE
8
Black
10
155.606
20
-106.66
11
155.62
21
-106.641
0
LINE
8
Black
10
155.62
20
-106.641
11
155.634
21
-106.621
0
LINE
8
Black
10
155.634
20
-106.621
11
155.696
21
-106.559
0
LINE
8
Black
10
155.696
20
-106.559
11
155.716
21
-106.545
0
LINE
8
Black
10
155.716
20
-106.545
11
155.735
21
-106.531
0
LINE
8
Black
10
155.735
20
-106.531
11
155.859
21
-106.469
0
LINE
8
Black
10
155.859
20
-106.469
11
155.867
21
-106.466
0
LINE
8
Black
10
155.867
20
-106.466
11
155.874
21
-106.462
0
LINE
8
Black
10
155.874
20
-106.462
11
155.892
21
-106.459
0
LINE
8
Black
10
155.892
20
-106.459
11
155.909
21
-106.454
0
LINE
8
Black
10
155.909
20
-106.454
11
155.917
21
-106.455
0
LINE
8
Black
10
155.917
20
-106.455
11
155.926
21
-106.453
0
LINE
8
Black
10
155.926
20
-106.453
11
156.173
21
-106.453
0
LINE
8
Black
10
156.173
20
-106.453
11
156.182
21
-106.455
0
LINE
8
Black
10
155.961
20
-106.753
11
155.891
21
-106.788
0
LINE
8
Black
10
155.891
20
-106.788
11
155.863
21
-106.816
0
LINE
8
Black
10
155.863
20
-106.816
11
155.828
21
-106.886
0
LINE
8
Black
10
155.828
20
-106.886
11
155.828
21
-107.125
0
LINE
8
Black
10
155.828
20
-107.125
11
155.863
21
-107.195
0
LINE
8
Black
10
155.863
20
-107.195
11
155.891
21
-107.223
0
LINE
8
Black
10
155.891
20
-107.223
11
155.961
21
-107.258
0
LINE
8
Black
10
155.961
20
-107.258
11
156.138
21
-107.258
0
LINE
8
Black
10
156.138
20
-107.258
11
156.208
21
-107.223
0
LINE
8
Black
10
156.208
20
-107.223
11
156.236
21
-107.195
0
LINE
8
Black
10
156.236
20
-107.195
11
156.271
21
-107.125
0
LINE
8
Black
10
156.271
20
-107.125
11
156.271
21
-106.886
0
LINE
8
Black
10
156.271
20
-106.886
11
156.236
21
-106.816
0
LINE
8
Black
10
156.236
20
-106.816
11
156.208
21
-106.788
0
LINE
8
Black
10
156.208
20
-106.788
11
156.138
21
-106.753
0
LINE
8
Black
10
156.138
20
-106.753
11
155.961
21
-106.753
0
LINE
8
Black
10
145.477
20
-106.473
11
145.517
21
-106.507
0
LINE
8
Black
10
145.517
20
-106.507
11
145.543
21
-106.552
0
LINE
8
Black
10
145.543
20
-106.552
11
145.552
21
-106.603
0
LINE
8
Black
10
145.552
20
-106.603
11
145.552
21
-106.886
0
LINE
8
Black
10
145.552
20
-106.886
11
145.588
21
-106.886
0
LINE
8
Black
10
145.588
20
-106.886
11
145.639
21
-106.895
0
LINE
8
Black
10
145.639
20
-106.895
11
145.684
21
-106.922
0
LINE
8
Black
10
145.684
20
-106.922
11
145.718
21
-106.961
0
LINE
8
Black
10
145.718
20
-106.961
11
145.735
21
-107.01
0
LINE
8
Black
10
145.735
20
-107.01
11
145.735
21
-107.062
0
LINE
8
Black
10
145.735
20
-107.062
11
145.718
21
-107.111
0
LINE
8
Black
10
145.718
20
-107.111
11
145.684
21
-107.151
0
LINE
8
Black
10
145.684
20
-107.151
11
145.639
21
-107.177
0
LINE
8
Black
10
145.639
20
-107.177
11
145.588
21
-107.186
0
LINE
8
Black
10
145.588
20
-107.186
11
145.552
21
-107.186
0
LINE
8
Black
10
145.552
20
-107.186
11
145.552
21
-107.717
0
LINE
8
Black
10
145.552
20
-107.717
11
145.55
21
-107.726
0
LINE
8
Black
10
145.55
20
-107.726
11
145.551
21
-107.735
0
LINE
8
Black
10
145.551
20
-107.735
11
145.546
21
-107.751
0
LINE
8
Black
10
145.546
20
-107.751
11
145.543
21
-107.769
0
LINE
8
Black
10
145.543
20
-107.769
11
145.539
21
-107.776
0
LINE
8
Black
10
145.539
20
-107.776
11
145.536
21
-107.784
0
LINE
8
Black
10
145.536
20
-107.784
11
145.474
21
-107.908
0
LINE
8
Black
10
145.474
20
-107.908
11
145.461
21
-107.926
0
LINE
8
Black
10
145.461
20
-107.926
11
145.449
21
-107.944
0
LINE
8
Black
10
145.449
20
-107.944
11
145.446
21
-107.947
0
LINE
8
Black
10
145.446
20
-107.947
11
145.443
21
-107.95
0
LINE
8
Black
10
145.443
20
-107.95
11
145.425
21
-107.962
0
LINE
8
Black
10
145.425
20
-107.962
11
145.407
21
-107.975
0
LINE
8
Black
10
145.407
20
-107.975
11
145.283
21
-108.037
0
LINE
8
Black
10
145.283
20
-108.037
11
145.275
21
-108.04
0
LINE
8
Black
10
145.275
20
-108.04
11
145.267
21
-108.044
0
LINE
8
Black
10
145.267
20
-108.044
11
145.25
21
-108.047
0
LINE
8
Black
10
145.25
20
-108.047
11
145.233
21
-108.052
0
LINE
8
Black
10
145.233
20
-108.052
11
145.225
21
-108.052
0
LINE
8
Black
10
145.225
20
-108.052
11
145.216
21
-108.053
0
LINE
8
Black
10
145.216
20
-108.053
11
145.092
21
-108.053
0
LINE
8
Black
10
145.092
20
-108.053
11
145.041
21
-108.044
0
LINE
8
Black
10
145.041
20
-108.044
11
144.996
21
-108.018
0
LINE
8
Black
10
144.996
20
-108.018
11
144.962
21
-107.978
0
LINE
8
Black
10
144.962
20
-107.978
11
144.945
21
-107.929
0
LINE
8
Black
10
144.945
20
-107.929
11
144.945
21
-107.877
0
LINE
8
Black
10
144.945
20
-107.877
11
144.962
21
-107.828
0
LINE
8
Black
10
144.962
20
-107.828
11
144.996
21
-107.788
0
LINE
8
Black
10
144.996
20
-107.788
11
145.041
21
-107.762
0
LINE
8
Black
10
145.041
20
-107.762
11
145.092
21
-107.753
0
LINE
8
Black
10
145.092
20
-107.753
11
145.181
21
-107.753
0
LINE
8
Black
10
145.181
20
-107.753
11
145.228
21
-107.729
0
LINE
8
Black
10
145.228
20
-107.729
11
145.252
21
-107.682
0
LINE
8
Black
10
145.252
20
-107.682
11
145.252
21
-107.186
0
LINE
8
Black
10
145.252
20
-107.186
11
145.092
21
-107.186
0
LINE
8
Black
10
145.092
20
-107.186
11
145.041
21
-107.177
0
LINE
8
Black
10
145.041
20
-107.177
11
144.996
21
-107.151
0
LINE
8
Black
10
144.996
20
-107.151
11
144.962
21
-107.111
0
LINE
8
Black
10
144.962
20
-107.111
11
144.945
21
-107.062
0
LINE
8
Black
10
144.945
20
-107.062
11
144.945
21
-107.01
0
LINE
8
Black
10
144.945
20
-107.01
11
144.962
21
-106.961
0
LINE
8
Black
10
144.962
20
-106.961
11
144.996
21
-106.922
0
LINE
8
Black
10
144.996
20
-106.922
11
145.041
21
-106.895
0
LINE
8
Black
10
145.041
20
-106.895
11
145.092
21
-106.886
0
LINE
8
Black
10
145.092
20
-106.886
11
145.252
21
-106.886
0
LINE
8
Black
10
145.252
20
-106.886
11
145.252
21
-106.603
0
LINE
8
Black
10
145.252
20
-106.603
11
145.261
21
-106.552
0
LINE
8
Black
10
145.261
20
-106.552
11
145.287
21
-106.507
0
LINE
8
Black
10
145.287
20
-106.507
11
145.327
21
-106.473
0
LINE
8
Black
10
145.327
20
-106.473
11
145.376
21
-106.455
0
LINE
8
Black
10
145.376
20
-106.455
11
145.428
21
-106.455
0
LINE
8
Black
10
145.428
20
-106.455
11
145.477
21
-106.473
0
LINE
8
Black
10
142.129
20
-106.888
11
142.138
21
-106.887
0
LINE
8
Black
10
142.138
20
-106.887
11
142.155
21
-106.892
0
LINE
8
Black
10
142.155
20
-106.892
11
142.172
21
-106.895
0
LINE
8
Black
10
142.172
20
-106.895
11
142.18
21
-106.9
0
LINE
8
Black
10
142.18
20
-106.9
11
142.188
21
-106.902
0
LINE
8
Black
10
142.188
20
-106.902
11
142.312
21
-106.964
0
LINE
8
Black
10
142.312
20
-106.964
11
142.33
21
-106.977
0
LINE
8
Black
10
142.33
20
-106.977
11
142.348
21
-106.989
0
LINE
8
Black
10
142.348
20
-106.989
11
142.35
21
-106.993
0
LINE
8
Black
10
142.35
20
-106.993
11
142.354
21
-106.995
0
LINE
8
Black
10
142.354
20
-106.995
11
142.366
21
-107.014
0
LINE
8
Black
10
142.366
20
-107.014
11
142.379
21
-107.031
0
LINE
8
Black
10
142.379
20
-107.031
11
142.441
21
-107.155
0
LINE
8
Black
10
142.441
20
-107.155
11
142.443
21
-107.163
0
LINE
8
Black
10
142.443
20
-107.163
11
142.448
21
-107.171
0
LINE
8
Black
10
142.448
20
-107.171
11
142.451
21
-107.188
0
LINE
8
Black
10
142.451
20
-107.188
11
142.456
21
-107.205
0
LINE
8
Black
10
142.456
20
-107.205
11
142.455
21
-107.214
0
LINE
8
Black
10
142.455
20
-107.214
11
142.457
21
-107.222
0
LINE
8
Black
10
142.457
20
-107.222
11
142.457
21
-107.717
0
LINE
8
Black
10
142.457
20
-107.717
11
142.455
21
-107.726
0
LINE
8
Black
10
142.455
20
-107.726
11
142.456
21
-107.735
0
LINE
8
Black
10
142.456
20
-107.735
11
142.451
21
-107.751
0
LINE
8
Black
10
142.451
20
-107.751
11
142.448
21
-107.769
0
LINE
8
Black
10
142.448
20
-107.769
11
142.443
21
-107.776
0
LINE
8
Black
10
142.443
20
-107.776
11
142.441
21
-107.784
0
LINE
8
Black
10
142.441
20
-107.784
11
142.379
21
-107.908
0
LINE
8
Black
10
142.379
20
-107.908
11
142.366
21
-107.926
0
LINE
8
Black
10
142.366
20
-107.926
11
142.354
21
-107.944
0
LINE
8
Black
10
142.354
20
-107.944
11
142.35
21
-107.947
0
LINE
8
Black
10
142.35
20
-107.947
11
142.348
21
-107.95
0
LINE
8
Black
10
142.348
20
-107.95
11
142.33
21
-107.962
0
LINE
8
Black
10
142.33
20
-107.962
11
142.312
21
-107.975
0
LINE
8
Black
10
142.312
20
-107.975
11
142.188
21
-108.037
0
LINE
8
Black
10
142.188
20
-108.037
11
142.18
21
-108.04
0
LINE
8
Black
10
142.18
20
-108.04
11
142.172
21
-108.044
0
LINE
8
Black
10
142.172
20
-108.044
11
142.155
21
-108.047
0
LINE
8
Black
10
142.155
20
-108.047
11
142.138
21
-108.052
0
LINE
8
Black
10
142.138
20
-108.052
11
142.129
21
-108.052
0
LINE
8
Black
10
142.129
20
-108.052
11
142.121
21
-108.053
0
LINE
8
Black
10
142.121
20
-108.053
11
141.873
21
-108.053
0
LINE
8
Black
10
141.873
20
-108.053
11
141.865
21
-108.052
0
LINE
8
Black
10
141.865
20
-108.052
11
141.856
21
-108.052
0
LINE
8
Black
10
141.856
20
-108.052
11
141.839
21
-108.047
0
LINE
8
Black
10
141.839
20
-108.047
11
141.822
21
-108.044
0
LINE
8
Black
10
141.822
20
-108.044
11
141.815
21
-108.04
0
LINE
8
Black
10
141.815
20
-108.04
11
141.806
21
-108.037
0
LINE
8
Black
10
141.806
20
-108.037
11
141.682
21
-107.975
0
LINE
8
Black
10
141.682
20
-107.975
11
141.641
21
-107.944
0
LINE
8
Black
10
141.641
20
-107.944
11
141.612
21
-107.901
0
LINE
8
Black
10
141.612
20
-107.901
11
141.6
21
-107.85
0
LINE
8
Black
10
141.6
20
-107.85
11
141.606
21
-107.798
0
LINE
8
Black
10
141.606
20
-107.798
11
141.629
21
-107.752
0
LINE
8
Black
10
141.629
20
-107.752
11
141.667
21
-107.716
0
LINE
8
Black
10
141.667
20
-107.716
11
141.715
21
-107.695
0
LINE
8
Black
10
141.715
20
-107.695
11
141.767
21
-107.692
0
LINE
8
Black
10
141.767
20
-107.692
11
141.817
21
-107.707
0
LINE
8
Black
10
141.817
20
-107.707
11
141.909
21
-107.753
0
LINE
8
Black
10
141.909
20
-107.753
11
142.086
21
-107.753
0
LINE
8
Black
10
142.086
20
-107.753
11
142.133
21
-107.729
0
LINE
8
Black
10
142.133
20
-107.729
11
142.157
21
-107.682
0
LINE
8
Black
10
142.157
20
-107.682
11
142.157
21
-107.593
0
LINE
8
Black
10
142.157
20
-107.593
11
141.658
21
-107.493
0
LINE
8
Black
10
141.658
20
-107.493
11
141.636
21
-107.484
0
LINE
8
Black
10
141.636
20
-107.484
11
141.613
21
-107.476
0
LINE
8
Black
10
141.613
20
-107.476
11
141.611
21
-107.475
0
LINE
8
Black
10
141.611
20
-107.475
11
141.61
21
-107.474
0
LINE
8
Black
10
141.61
20
-107.474
11
141.591
21
-107.458
0
LINE
8
Black
10
141.591
20
-107.458
11
141.573
21
-107.442
0
LINE
8
Black
10
141.573
20
-107.442
11
141.572
21
-107.441
0
LINE
8
Black
10
141.572
20
-107.441
11
141.571
21
-107.44
0
LINE
8
Black
10
141.571
20
-107.44
11
141.559
21
-107.418
0
LINE
8
Black
10
141.559
20
-107.418
11
141.547
21
-107.397
0
LINE
8
Black
10
141.547
20
-107.397
11
141.546
21
-107.396
0
LINE
8
Black
10
141.546
20
-107.396
11
141.546
21
-107.394
0
LINE
8
Black
10
141.546
20
-107.394
11
141.542
21
-107.37
0
LINE
8
Black
10
141.542
20
-107.37
11
141.538
21
-107.346
0
LINE
8
Black
10
141.538
20
-107.346
11
141.538
21
-107.222
0
LINE
8
Black
10
141.538
20
-107.222
11
141.539
21
-107.214
0
LINE
8
Black
10
141.539
20
-107.214
11
141.539
21
-107.205
0
LINE
8
Black
10
141.539
20
-107.205
11
141.544
21
-107.188
0
LINE
8
Black
10
141.544
20
-107.188
11
141.547
21
-107.171
0
LINE
8
Black
10
141.547
20
-107.171
11
141.551
21
-107.163
0
LINE
8
Black
10
141.551
20
-107.163
11
141.553
21
-107.155
0
LINE
8
Black
10
141.553
20
-107.155
11
141.615
21
-107.031
0
LINE
8
Black
10
141.615
20
-107.031
11
141.628
21
-107.014
0
LINE
8
Black
10
141.628
20
-107.014
11
141.641
21
-106.995
0
LINE
8
Black
10
141.641
20
-106.995
11
141.644
21
-106.993
0
LINE
8
Black
10
141.644
20
-106.993
11
141.646
21
-106.989
0
LINE
8
Black
10
141.646
20
-106.989
11
141.665
21
-106.977
0
LINE
8
Black
10
141.665
20
-106.977
11
141.682
21
-106.964
0
LINE
8
Black
10
141.682
20
-106.964
11
141.806
21
-106.902
0
LINE
8
Black
10
141.806
20
-106.902
11
141.815
21
-106.9
0
LINE
8
Black
10
141.815
20
-106.9
11
141.822
21
-106.895
0
LINE
8
Black
10
141.822
20
-106.895
11
141.839
21
-106.892
0
LINE
8
Black
10
141.839
20
-106.892
11
141.856
21
-106.887
0
LINE
8
Black
10
141.856
20
-106.887
11
141.865
21
-106.888
0
LINE
8
Black
10
141.865
20
-106.888
11
141.873
21
-106.886
0
LINE
8
Black
10
141.873
20
-106.886
11
142.121
21
-106.886
0
LINE
8
Black
10
142.121
20
-106.886
11
142.129
21
-106.888
0
LINE
8
Black
10
141.909
20
-107.186
11
141.861
21
-107.21
0
LINE
8
Black
10
141.861
20
-107.21
11
141.853
21
-107.226
0
LINE
8
Black
10
141.853
20
-107.226
11
142.157
21
-107.287
0
LINE
8
Black
10
142.157
20
-107.287
11
142.157
21
-107.258
0
LINE
8
Black
10
142.157
20
-107.258
11
142.133
21
-107.21
0
LINE
8
Black
10
142.133
20
-107.21
11
142.086
21
-107.186
0
LINE
8
Black
10
142.086
20
-107.186
11
141.909
21
-107.186
0
LINE
8
Black
10
150.982
20
-106.888
11
150.99
21
-106.887
0
LINE
8
Black
10
150.99
20
-106.887
11
151.007
21
-106.892
0
LINE
8
Black
10
151.007
20
-106.892
11
151.025
21
-106.895
0
LINE
8
Black
10
151.025
20
-106.895
11
151.032
21
-106.9
0
LINE
8
Black
10
151.032
20
-106.9
11
151.04
21
-106.902
0
LINE
8
Black
10
151.04
20
-106.902
11
151.164
21
-106.964
0
LINE
8
Black
10
151.164
20
-106.964
11
151.206
21
-106.995
0
LINE
8
Black
10
151.206
20
-106.995
11
151.235
21
-107.039
0
LINE
8
Black
10
151.235
20
-107.039
11
151.247
21
-107.089
0
LINE
8
Black
10
151.247
20
-107.089
11
151.241
21
-107.141
0
LINE
8
Black
10
151.241
20
-107.141
11
151.218
21
-107.188
0
LINE
8
Black
10
151.218
20
-107.188
11
151.18
21
-107.224
0
LINE
8
Black
10
151.18
20
-107.224
11
151.132
21
-107.244
0
LINE
8
Black
10
151.132
20
-107.244
11
151.08
21
-107.247
0
LINE
8
Black
10
151.08
20
-107.247
11
151.03
21
-107.232
0
LINE
8
Black
10
151.03
20
-107.232
11
150.938
21
-107.186
0
LINE
8
Black
10
150.938
20
-107.186
11
150.761
21
-107.186
0
LINE
8
Black
10
150.761
20
-107.186
11
150.714
21
-107.21
0
LINE
8
Black
10
150.714
20
-107.21
11
150.692
21
-107.254
0
LINE
8
Black
10
150.692
20
-107.254
11
150.699
21
-107.258
0
LINE
8
Black
10
150.699
20
-107.258
11
150.973
21
-107.258
0
LINE
8
Black
10
150.973
20
-107.258
11
150.982
21
-107.259
0
LINE
8
Black
10
150.982
20
-107.259
11
150.99
21
-107.259
0
LINE
8
Black
10
150.99
20
-107.259
11
151.007
21
-107.264
0
LINE
8
Black
10
151.007
20
-107.264
11
151.025
21
-107.267
0
LINE
8
Black
10
151.025
20
-107.267
11
151.032
21
-107.271
0
LINE
8
Black
10
151.032
20
-107.271
11
151.04
21
-107.274
0
LINE
8
Black
10
151.04
20
-107.274
11
151.164
21
-107.336
0
LINE
8
Black
10
151.164
20
-107.336
11
151.182
21
-107.349
0
LINE
8
Black
10
151.182
20
-107.349
11
151.2
21
-107.361
0
LINE
8
Black
10
151.2
20
-107.361
11
151.203
21
-107.364
0
LINE
8
Black
10
151.203
20
-107.364
11
151.206
21
-107.367
0
LINE
8
Black
10
151.206
20
-107.367
11
151.218
21
-107.385
0
LINE
8
Black
10
151.218
20
-107.385
11
151.231
21
-107.403
0
LINE
8
Black
10
151.231
20
-107.403
11
151.293
21
-107.526
0
LINE
8
Black
10
151.293
20
-107.526
11
151.296
21
-107.535
0
LINE
8
Black
10
151.296
20
-107.535
11
151.3
21
-107.542
0
LINE
8
Black
10
151.3
20
-107.542
11
151.303
21
-107.56
0
LINE
8
Black
10
151.303
20
-107.56
11
151.308
21
-107.576
0
LINE
8
Black
10
151.308
20
-107.576
11
151.308
21
-107.585
0
LINE
8
Black
10
151.308
20
-107.585
11
151.309
21
-107.594
0
LINE
8
Black
10
151.309
20
-107.594
11
151.309
21
-107.717
0
LINE
8
Black
10
151.309
20
-107.717
11
151.308
21
-107.726
0
LINE
8
Black
10
151.308
20
-107.726
11
151.308
21
-107.735
0
LINE
8
Black
10
151.308
20
-107.735
11
151.303
21
-107.751
0
LINE
8
Black
10
151.303
20
-107.751
11
151.3
21
-107.769
0
LINE
8
Black
10
151.3
20
-107.769
11
151.296
21
-107.776
0
LINE
8
Black
10
151.296
20
-107.776
11
151.293
21
-107.784
0
LINE
8
Black
10
151.293
20
-107.784
11
151.231
21
-107.908
0
LINE
8
Black
10
151.231
20
-107.908
11
151.218
21
-107.926
0
LINE
8
Black
10
151.218
20
-107.926
11
151.206
21
-107.944
0
LINE
8
Black
10
151.206
20
-107.944
11
151.203
21
-107.947
0
LINE
8
Black
10
151.203
20
-107.947
11
151.2
21
-107.95
0
LINE
8
Black
10
151.2
20
-107.95
11
151.182
21
-107.962
0
LINE
8
Black
10
151.182
20
-107.962
11
151.164
21
-107.975
0
LINE
8
Black
10
151.164
20
-107.975
11
151.04
21
-108.037
0
LINE
8
Black
10
151.04
20
-108.037
11
151.032
21
-108.04
0
LINE
8
Black
10
151.032
20
-108.04
11
151.025
21
-108.044
0
LINE
8
Black
10
151.025
20
-108.044
11
151.007
21
-108.047
0
LINE
8
Black
10
151.007
20
-108.047
11
150.99
21
-108.052
0
LINE
8
Black
10
150.99
20
-108.052
11
150.982
21
-108.052
0
LINE
8
Black
10
150.982
20
-108.052
11
150.973
21
-108.053
0
LINE
8
Black
10
150.973
20
-108.053
11
150.664
21
-108.053
0
LINE
8
Black
10
150.664
20
-108.053
11
150.655
21
-108.052
0
LINE
8
Black
10
150.655
20
-108.052
11
150.647
21
-108.052
0
LINE
8
Black
10
150.647
20
-108.052
11
150.63
21
-108.047
0
LINE
8
Black
10
150.63
20
-108.047
11
150.613
21
-108.044
0
LINE
8
Black
10
150.613
20
-108.044
11
150.605
21
-108.04
0
LINE
8
Black
10
150.605
20
-108.04
11
150.6
21
-108.038
0
LINE
8
Black
10
150.6
20
-108.038
11
150.566
21
-108.051
0
LINE
8
Black
10
150.566
20
-108.051
11
150.514
21
-108.051
0
LINE
8
Black
10
150.514
20
-108.051
11
150.465
21
-108.033
0
LINE
8
Black
10
150.465
20
-108.033
11
150.425
21
-108
0
LINE
8
Black
10
150.425
20
-108
11
150.399
21
-107.954
0
LINE
8
Black
10
150.399
20
-107.954
11
150.39
21
-107.903
0
LINE
8
Black
10
150.39
20
-107.903
11
150.39
21
-107.222
0
LINE
8
Black
10
150.39
20
-107.222
11
150.392
21
-107.214
0
LINE
8
Black
10
150.392
20
-107.214
11
150.391
21
-107.205
0
LINE
8
Black
10
150.391
20
-107.205
11
150.396
21
-107.188
0
LINE
8
Black
10
150.396
20
-107.188
11
150.399
21
-107.171
0
LINE
8
Black
10
150.399
20
-107.171
11
150.403
21
-107.163
0
LINE
8
Black
10
150.403
20
-107.163
11
150.406
21
-107.155
0
LINE
8
Black
10
150.406
20
-107.155
11
150.468
21
-107.031
0
LINE
8
Black
10
150.468
20
-107.031
11
150.481
21
-107.014
0
LINE
8
Black
10
150.481
20
-107.014
11
150.493
21
-106.995
0
LINE
8
Black
10
150.493
20
-106.995
11
150.496
21
-106.993
0
LINE
8
Black
10
150.496
20
-106.993
11
150.499
21
-106.989
0
LINE
8
Black
10
150.499
20
-106.989
11
150.517
21
-106.977
0
LINE
8
Black
10
150.517
20
-106.977
11
150.535
21
-106.964
0
LINE
8
Black
10
150.535
20
-106.964
11
150.659
21
-106.902
0
LINE
8
Black
10
150.659
20
-106.902
11
150.667
21
-106.9
0
LINE
8
Black
10
150.667
20
-106.9
11
150.674
21
-106.895
0
LINE
8
Black
10
150.674
20
-106.895
11
150.692
21
-106.892
0
LINE
8
Black
10
150.692
20
-106.892
11
150.709
21
-106.887
0
LINE
8
Black
10
150.709
20
-106.887
11
150.717
21
-106.888
0
LINE
8
Black
10
150.717
20
-106.888
11
150.726
21
-106.886
0
LINE
8
Black
10
150.726
20
-106.886
11
150.973
21
-106.886
0
LINE
8
Black
10
150.973
20
-106.886
11
150.982
21
-106.888
0
LINE
8
Black
10
150.69
20
-107.558
11
150.69
21
-107.748
0
LINE
8
Black
10
150.69
20
-107.748
11
150.699
21
-107.753
0
LINE
8
Black
10
150.699
20
-107.753
11
150.938
21
-107.753
0
LINE
8
Black
10
150.938
20
-107.753
11
150.985
21
-107.729
0
LINE
8
Black
10
150.985
20
-107.729
11
151.009
21
-107.682
0
LINE
8
Black
10
151.009
20
-107.682
11
151.009
21
-107.629
0
LINE
8
Black
10
151.009
20
-107.629
11
150.985
21
-107.582
0
LINE
8
Black
10
150.985
20
-107.582
11
150.938
21
-107.558
0
LINE
8
Black
10
150.938
20
-107.558
11
150.69
21
-107.558
0
LINE
8
Black
10
157.311
20
-106.457
11
157.335
21
-106.461
0
LINE
8
Black
10
157.335
20
-106.461
11
157.521
21
-106.523
0
LINE
8
Black
10
157.521
20
-106.523
11
157.528
21
-106.527
0
LINE
8
Black
10
157.528
20
-106.527
11
157.537
21
-106.529
0
LINE
8
Black
10
157.537
20
-106.529
11
157.551
21
-106.539
0
LINE
8
Black
10
157.551
20
-106.539
11
157.567
21
-106.548
0
LINE
8
Black
10
157.567
20
-106.548
11
157.572
21
-106.554
0
LINE
8
Black
10
157.572
20
-106.554
11
157.579
21
-106.559
0
LINE
8
Black
10
157.579
20
-106.559
11
157.703
21
-106.683
0
LINE
8
Black
10
157.703
20
-106.683
11
157.717
21
-106.702
0
LINE
8
Black
10
157.717
20
-106.702
11
157.731
21
-106.722
0
LINE
8
Black
10
157.731
20
-106.722
11
157.793
21
-106.846
0
LINE
8
Black
10
157.793
20
-106.846
11
157.798
21
-106.861
0
LINE
8
Black
10
157.798
20
-106.861
11
157.805
21
-106.876
0
LINE
8
Black
10
157.805
20
-106.876
11
157.866
21
-107.124
0
LINE
8
Black
10
157.866
20
-107.124
11
157.868
21
-107.142
0
LINE
8
Black
10
157.868
20
-107.142
11
157.871
21
-107.16
0
LINE
8
Black
10
157.871
20
-107.16
11
157.871
21
-107.346
0
LINE
8
Black
10
157.871
20
-107.346
11
157.868
21
-107.364
0
LINE
8
Black
10
157.868
20
-107.364
11
157.866
21
-107.382
0
LINE
8
Black
10
157.866
20
-107.382
11
157.805
21
-107.63
0
LINE
8
Black
10
157.805
20
-107.63
11
157.798
21
-107.645
0
LINE
8
Black
10
157.798
20
-107.645
11
157.793
21
-107.661
0
LINE
8
Black
10
157.793
20
-107.661
11
157.731
21
-107.784
0
LINE
8
Black
10
157.731
20
-107.784
11
157.717
21
-107.804
0
LINE
8
Black
10
157.717
20
-107.804
11
157.703
21
-107.823
0
LINE
8
Black
10
157.703
20
-107.823
11
157.579
21
-107.947
0
LINE
8
Black
10
157.579
20
-107.947
11
157.572
21
-107.952
0
LINE
8
Black
10
157.572
20
-107.952
11
157.567
21
-107.959
0
LINE
8
Black
10
157.567
20
-107.959
11
157.551
21
-107.967
0
LINE
8
Black
10
157.551
20
-107.967
11
157.537
21
-107.977
0
LINE
8
Black
10
157.537
20
-107.977
11
157.528
21
-107.979
0
LINE
8
Black
10
157.528
20
-107.979
11
157.521
21
-107.983
0
LINE
8
Black
10
157.521
20
-107.983
11
157.335
21
-108.045
0
LINE
8
Black
10
157.335
20
-108.045
11
157.311
21
-108.049
0
LINE
8
Black
10
157.311
20
-108.049
11
157.288
21
-108.053
0
LINE
8
Black
10
157.288
20
-108.053
11
157.164
21
-108.053
0
LINE
8
Black
10
157.164
20
-108.053
11
157.14
21
-108.049
0
LINE
8
Black
10
157.14
20
-108.049
11
157.116
21
-108.045
0
LINE
8
Black
10
157.116
20
-108.045
11
156.931
21
-107.983
0
LINE
8
Black
10
156.931
20
-107.983
11
156.923
21
-107.979
0
LINE
8
Black
10
156.923
20
-107.979
11
156.915
21
-107.977
0
LINE
8
Black
10
156.915
20
-107.977
11
156.9
21
-107.967
0
LINE
8
Black
10
156.9
20
-107.967
11
156.885
21
-107.959
0
LINE
8
Black
10
156.885
20
-107.959
11
156.879
21
-107.952
0
LINE
8
Black
10
156.879
20
-107.952
11
156.872
21
-107.947
0
LINE
8
Black
10
156.872
20
-107.947
11
156.81
21
-107.885
0
LINE
8
Black
10
156.81
20
-107.885
11
156.78
21
-107.843
0
LINE
8
Black
10
156.78
20
-107.843
11
156.767
21
-107.792
0
LINE
8
Black
10
156.767
20
-107.792
11
156.771
21
-107.74
0
LINE
8
Black
10
156.771
20
-107.74
11
156.793
21
-107.693
0
LINE
8
Black
10
156.793
20
-107.693
11
156.83
21
-107.656
0
LINE
8
Black
10
156.83
20
-107.656
11
156.877
21
-107.634
0
LINE
8
Black
10
156.877
20
-107.634
11
156.929
21
-107.63
0
LINE
8
Black
10
156.929
20
-107.63
11
156.98
21
-107.643
0
LINE
8
Black
10
156.98
20
-107.643
11
157.022
21
-107.673
0
LINE
8
Black
10
157.022
20
-107.673
11
157.059
21
-107.71
0
LINE
8
Black
10
157.059
20
-107.71
11
157.188
21
-107.753
0
LINE
8
Black
10
157.188
20
-107.753
11
157.263
21
-107.753
0
LINE
8
Black
10
157.263
20
-107.753
11
157.392
21
-107.71
0
LINE
8
Black
10
157.392
20
-107.71
11
157.474
21
-107.629
0
LINE
8
Black
10
157.474
20
-107.629
11
157.518
21
-107.541
0
LINE
8
Black
10
157.518
20
-107.541
11
157.571
21
-107.327
0
LINE
8
Black
10
157.571
20
-107.327
11
157.571
21
-107.179
0
LINE
8
Black
10
157.571
20
-107.179
11
157.518
21
-106.965
0
LINE
8
Black
10
157.518
20
-106.965
11
157.474
21
-106.878
0
LINE
8
Black
10
157.474
20
-106.878
11
157.392
21
-106.796
0
LINE
8
Black
10
157.392
20
-106.796
11
157.263
21
-106.753
0
LINE
8
Black
10
157.263
20
-106.753
11
157.188
21
-106.753
0
LINE
8
Black
10
157.188
20
-106.753
11
157.059
21
-106.796
0
LINE
8
Black
10
157.059
20
-106.796
11
157.022
21
-106.833
0
LINE
8
Black
10
157.022
20
-106.833
11
156.98
21
-106.863
0
LINE
8
Black
10
156.98
20
-106.863
11
156.929
21
-106.876
0
LINE
8
Black
10
156.929
20
-106.876
11
156.877
21
-106.872
0
LINE
8
Black
10
156.877
20
-106.872
11
156.83
21
-106.85
0
LINE
8
Black
10
156.83
20
-106.85
11
156.793
21
-106.813
0
LINE
8
Black
10
156.793
20
-106.813
11
156.771
21
-106.766
0
LINE
8
Black
10
156.771
20
-106.766
11
156.767
21
-106.714
0
LINE
8
Black
10
156.767
20
-106.714
11
156.78
21
-106.664
0
LINE
8
Black
10
156.78
20
-106.664
11
156.81
21
-106.621
0
LINE
8
Black
10
156.81
20
-106.621
11
156.872
21
-106.559
0
LINE
8
Black
10
156.872
20
-106.559
11
156.879
21
-106.554
0
LINE
8
Black
10
156.879
20
-106.554
11
156.885
21
-106.548
0
LINE
8
Black
10
156.885
20
-106.548
11
156.9
21
-106.539
0
LINE
8
Black
10
156.9
20
-106.539
11
156.915
21
-106.529
0
LINE
8
Black
10
156.915
20
-106.529
11
156.923
21
-106.527
0
LINE
8
Black
10
156.923
20
-106.527
11
156.931
21
-106.523
0
LINE
8
Black
10
156.931
20
-106.523
11
157.116
21
-106.461
0
LINE
8
Black
10
157.116
20
-106.461
11
157.14
21
-106.457
0
LINE
8
Black
10
157.14
20
-106.457
11
157.164
21
-106.453
0
LINE
8
Black
10
157.164
20
-106.453
11
157.288
21
-106.453
0
LINE
8
Black
10
157.288
20
-106.453
11
157.311
21
-106.457
0
LINE
8
Black
10
148.072
20
-106.888
11
148.081
21
-106.887
0
LINE
8
Black
10
148.081
20
-106.887
11
148.098
21
-106.892
0
LINE
8
Black
10
148.098
20
-106.892
11
148.115
21
-106.895
0
LINE
8
Black
10
148.115
20
-106.895
11
148.123
21
-106.9
0
LINE
8
Black
10
148.123
20
-106.9
11
148.131
21
-106.902
0
LINE
8
Black
10
148.131
20
-106.902
11
148.255
21
-106.964
0
LINE
8
Black
10
148.255
20
-106.964
11
148.272
21
-106.977
0
LINE
8
Black
10
148.272
20
-106.977
11
148.291
21
-106.989
0
LINE
8
Black
10
148.291
20
-106.989
11
148.293
21
-106.993
0
LINE
8
Black
10
148.293
20
-106.993
11
148.297
21
-106.995
0
LINE
8
Black
10
148.297
20
-106.995
11
148.309
21
-107.014
0
LINE
8
Black
10
148.309
20
-107.014
11
148.322
21
-107.031
0
LINE
8
Black
10
148.322
20
-107.031
11
148.384
21
-107.155
0
LINE
8
Black
10
148.384
20
-107.155
11
148.386
21
-107.163
0
LINE
8
Black
10
148.386
20
-107.163
11
148.39
21
-107.171
0
LINE
8
Black
10
148.39
20
-107.171
11
148.394
21
-107.188
0
LINE
8
Black
10
148.394
20
-107.188
11
148.399
21
-107.205
0
LINE
8
Black
10
148.399
20
-107.205
11
148.398
21
-107.214
0
LINE
8
Black
10
148.398
20
-107.214
11
148.4
21
-107.222
0
LINE
8
Black
10
148.4
20
-107.222
11
148.4
21
-107.717
0
LINE
8
Black
10
148.4
20
-107.717
11
148.398
21
-107.726
0
LINE
8
Black
10
148.398
20
-107.726
11
148.399
21
-107.735
0
LINE
8
Black
10
148.399
20
-107.735
11
148.394
21
-107.751
0
LINE
8
Black
10
148.394
20
-107.751
11
148.39
21
-107.769
0
LINE
8
Black
10
148.39
20
-107.769
11
148.386
21
-107.776
0
LINE
8
Black
10
148.386
20
-107.776
11
148.384
21
-107.784
0
LINE
8
Black
10
148.384
20
-107.784
11
148.322
21
-107.908
0
LINE
8
Black
10
148.322
20
-107.908
11
148.309
21
-107.926
0
LINE
8
Black
10
148.309
20
-107.926
11
148.297
21
-107.944
0
LINE
8
Black
10
148.297
20
-107.944
11
148.293
21
-107.947
0
LINE
8
Black
10
148.293
20
-107.947
11
148.291
21
-107.95
0
LINE
8
Black
10
148.291
20
-107.95
11
148.272
21
-107.962
0
LINE
8
Black
10
148.272
20
-107.962
11
148.255
21
-107.975
0
LINE
8
Black
10
148.255
20
-107.975
11
148.131
21
-108.037
0
LINE
8
Black
10
148.131
20
-108.037
11
148.123
21
-108.04
0
LINE
8
Black
10
148.123
20
-108.04
11
148.115
21
-108.044
0
LINE
8
Black
10
148.115
20
-108.044
11
148.098
21
-108.047
0
LINE
8
Black
10
148.098
20
-108.047
11
148.081
21
-108.052
0
LINE
8
Black
10
148.081
20
-108.052
11
148.072
21
-108.052
0
LINE
8
Black
10
148.072
20
-108.052
11
148.064
21
-108.053
0
LINE
8
Black
10
148.064
20
-108.053
11
147.816
21
-108.053
0
LINE
8
Black
10
147.816
20
-108.053
11
147.808
21
-108.052
0
LINE
8
Black
10
147.808
20
-108.052
11
147.799
21
-108.052
0
LINE
8
Black
10
147.799
20
-108.052
11
147.782
21
-108.047
0
LINE
8
Black
10
147.782
20
-108.047
11
147.765
21
-108.044
0
LINE
8
Black
10
147.765
20
-108.044
11
147.757
21
-108.04
0
LINE
8
Black
10
147.757
20
-108.04
11
147.749
21
-108.037
0
LINE
8
Black
10
147.749
20
-108.037
11
147.625
21
-107.975
0
LINE
8
Black
10
147.625
20
-107.975
11
147.583
21
-107.944
0
LINE
8
Black
10
147.583
20
-107.944
11
147.555
21
-107.901
0
LINE
8
Black
10
147.555
20
-107.901
11
147.543
21
-107.85
0
LINE
8
Black
10
147.543
20
-107.85
11
147.549
21
-107.798
0
LINE
8
Black
10
147.549
20
-107.798
11
147.572
21
-107.752
0
LINE
8
Black
10
147.572
20
-107.752
11
147.61
21
-107.716
0
LINE
8
Black
10
147.61
20
-107.716
11
147.658
21
-107.695
0
LINE
8
Black
10
147.658
20
-107.695
11
147.71
21
-107.692
0
LINE
8
Black
10
147.71
20
-107.692
11
147.759
21
-107.707
0
LINE
8
Black
10
147.759
20
-107.707
11
147.852
21
-107.753
0
LINE
8
Black
10
147.852
20
-107.753
11
148.028
21
-107.753
0
LINE
8
Black
10
148.028
20
-107.753
11
148.076
21
-107.729
0
LINE
8
Black
10
148.076
20
-107.729
11
148.1
21
-107.682
0
LINE
8
Black
10
148.1
20
-107.682
11
148.1
21
-107.593
0
LINE
8
Black
10
148.1
20
-107.593
11
147.601
21
-107.493
0
LINE
8
Black
10
147.601
20
-107.493
11
147.578
21
-107.484
0
LINE
8
Black
10
147.578
20
-107.484
11
147.555
21
-107.476
0
LINE
8
Black
10
147.555
20
-107.476
11
147.554
21
-107.475
0
LINE
8
Black
10
147.554
20
-107.475
11
147.553
21
-107.474
0
LINE
8
Black
10
147.553
20
-107.474
11
147.534
21
-107.458
0
LINE
8
Black
10
147.534
20
-107.458
11
147.516
21
-107.442
0
LINE
8
Black
10
147.516
20
-107.442
11
147.515
21
-107.441
0
LINE
8
Black
10
147.515
20
-107.441
11
147.513
21
-107.44
0
LINE
8
Black
10
147.513
20
-107.44
11
147.502
21
-107.418
0
LINE
8
Black
10
147.502
20
-107.418
11
147.49
21
-107.397
0
LINE
8
Black
10
147.49
20
-107.397
11
147.489
21
-107.396
0
LINE
8
Black
10
147.489
20
-107.396
11
147.488
21
-107.394
0
LINE
8
Black
10
147.488
20
-107.394
11
147.485
21
-107.37
0
LINE
8
Black
10
147.485
20
-107.37
11
147.48
21
-107.346
0
LINE
8
Black
10
147.48
20
-107.346
11
147.48
21
-107.222
0
LINE
8
Black
10
147.48
20
-107.222
11
147.482
21
-107.214
0
LINE
8
Black
10
147.482
20
-107.214
11
147.481
21
-107.205
0
LINE
8
Black
10
147.481
20
-107.205
11
147.486
21
-107.188
0
LINE
8
Black
10
147.486
20
-107.188
11
147.49
21
-107.171
0
LINE
8
Black
10
147.49
20
-107.171
11
147.494
21
-107.163
0
LINE
8
Black
10
147.494
20
-107.163
11
147.496
21
-107.155
0
LINE
8
Black
10
147.496
20
-107.155
11
147.558
21
-107.031
0
LINE
8
Black
10
147.558
20
-107.031
11
147.571
21
-107.014
0
LINE
8
Black
10
147.571
20
-107.014
11
147.583
21
-106.995
0
LINE
8
Black
10
147.583
20
-106.995
11
147.587
21
-106.993
0
LINE
8
Black
10
147.587
20
-106.993
11
147.589
21
-106.989
0
LINE
8
Black
10
147.589
20
-106.989
11
147.608
21
-106.977
0
LINE
8
Black
10
147.608
20
-106.977
11
147.625
21
-106.964
0
LINE
8
Black
10
147.625
20
-106.964
11
147.749
21
-106.902
0
LINE
8
Black
10
147.749
20
-106.902
11
147.757
21
-106.9
0
LINE
8
Black
10
147.757
20
-106.9
11
147.765
21
-106.895
0
LINE
8
Black
10
147.765
20
-106.895
11
147.782
21
-106.892
0
LINE
8
Black
10
147.782
20
-106.892
11
147.799
21
-106.887
0
LINE
8
Black
10
147.799
20
-106.887
11
147.808
21
-106.888
0
LINE
8
Black
10
147.808
20
-106.888
11
147.816
21
-106.886
0
LINE
8
Black
10
147.816
20
-106.886
11
148.064
21
-106.886
0
LINE
8
Black
10
148.064
20
-106.886
11
148.072
21
-106.888
0
LINE
8
Black
10
147.852
20
-107.186
11
147.804
21
-107.21
0
LINE
8
Black
10
147.804
20
-107.21
11
147.796
21
-107.226
0
LINE
8
Black
10
147.796
20
-107.226
11
148.1
21
-107.287
0
LINE
8
Black
10
148.1
20
-107.287
11
148.1
21
-107.258
0
LINE
8
Black
10
148.1
20
-107.258
11
148.076
21
-107.21
0
LINE
8
Black
10
148.076
20
-107.21
11
148.028
21
-107.186
0
LINE
8
Black
10
148.028
20
-107.186
11
147.852
21
-107.186
0
LINE
8
Black
10
154.82
20
-106.455
11
154.837
21
-106.455
0
LINE
8
Black
10
154.837
20
-106.455
11
154.845
21
-106.458
0
LINE
8
Black
10
154.845
20
-106.458
11
154.854
21
-106.459
0
LINE
8
Black
10
154.854
20
-106.459
11
154.87
21
-106.467
0
LINE
8
Black
10
154.87
20
-106.467
11
154.886
21
-106.473
0
LINE
8
Black
10
154.886
20
-106.473
11
154.893
21
-106.479
0
LINE
8
Black
10
154.893
20
-106.479
11
154.9
21
-106.482
0
LINE
8
Black
10
154.9
20
-106.482
11
154.913
21
-106.495
0
LINE
8
Black
10
154.913
20
-106.495
11
154.926
21
-106.507
0
LINE
8
Black
10
154.926
20
-106.507
11
154.93
21
-106.514
0
LINE
8
Black
10
154.93
20
-106.514
11
154.936
21
-106.52
0
LINE
8
Black
10
154.936
20
-106.52
11
155.052
21
-106.693
0
LINE
8
Black
10
155.052
20
-106.693
11
155.148
21
-106.789
0
LINE
8
Black
10
155.148
20
-106.789
11
155.25
21
-106.84
0
LINE
8
Black
10
155.25
20
-106.84
11
155.292
21
-106.871
0
LINE
8
Black
10
155.292
20
-106.871
11
155.32
21
-106.915
0
LINE
8
Black
10
155.32
20
-106.915
11
155.333
21
-106.966
0
LINE
8
Black
10
155.333
20
-106.966
11
155.327
21
-107.017
0
LINE
8
Black
10
155.327
20
-107.017
11
155.303
21
-107.064
0
LINE
8
Black
10
155.303
20
-107.064
11
155.266
21
-107.1
0
LINE
8
Black
10
155.266
20
-107.1
11
155.218
21
-107.12
0
LINE
8
Black
10
155.218
20
-107.12
11
155.166
21
-107.124
0
LINE
8
Black
10
155.166
20
-107.124
11
155.116
21
-107.109
0
LINE
8
Black
10
155.116
20
-107.109
11
154.992
21
-107.047
0
LINE
8
Black
10
154.992
20
-107.047
11
154.973
21
-107.032
0
LINE
8
Black
10
154.973
20
-107.032
11
154.961
21
-107.025
0
LINE
8
Black
10
154.961
20
-107.025
11
154.961
21
-107.753
0
LINE
8
Black
10
154.961
20
-107.753
11
155.183
21
-107.753
0
LINE
8
Black
10
155.183
20
-107.753
11
155.234
21
-107.762
0
LINE
8
Black
10
155.234
20
-107.762
11
155.279
21
-107.788
0
LINE
8
Black
10
155.279
20
-107.788
11
155.313
21
-107.828
0
LINE
8
Black
10
155.313
20
-107.828
11
155.331
21
-107.877
0
LINE
8
Black
10
155.331
20
-107.877
11
155.331
21
-107.929
0
LINE
8
Black
10
155.331
20
-107.929
11
155.313
21
-107.978
0
LINE
8
Black
10
155.313
20
-107.978
11
155.279
21
-108.018
0
LINE
8
Black
10
155.279
20
-108.018
11
155.234
21
-108.044
0
LINE
8
Black
10
155.234
20
-108.044
11
155.183
21
-108.053
0
LINE
8
Black
10
155.183
20
-108.053
11
154.44
21
-108.053
0
LINE
8
Black
10
154.44
20
-108.053
11
154.389
21
-108.044
0
LINE
8
Black
10
154.389
20
-108.044
11
154.344
21
-108.018
0
LINE
8
Black
10
154.344
20
-108.018
11
154.31
21
-107.978
0
LINE
8
Black
10
154.31
20
-107.978
11
154.292
21
-107.929
0
LINE
8
Black
10
154.292
20
-107.929
11
154.292
21
-107.877
0
LINE
8
Black
10
154.292
20
-107.877
11
154.31
21
-107.828
0
LINE
8
Black
10
154.31
20
-107.828
11
154.344
21
-107.788
0
LINE
8
Black
10
154.344
20
-107.788
11
154.389
21
-107.762
0
LINE
8
Black
10
154.389
20
-107.762
11
154.44
21
-107.753
0
LINE
8
Black
10
154.44
20
-107.753
11
154.661
21
-107.753
0
LINE
8
Black
10
154.661
20
-107.753
11
154.661
21
-106.603
0
LINE
8
Black
10
154.661
20
-106.603
11
154.663
21
-106.595
0
LINE
8
Black
10
154.663
20
-106.595
11
154.662
21
-106.587
0
LINE
8
Black
10
154.662
20
-106.587
11
154.667
21
-106.569
0
LINE
8
Black
10
154.667
20
-106.569
11
154.67
21
-106.552
0
LINE
8
Black
10
154.67
20
-106.552
11
154.675
21
-106.545
0
LINE
8
Black
10
154.675
20
-106.545
11
154.677
21
-106.537
0
LINE
8
Black
10
154.677
20
-106.537
11
154.688
21
-106.522
0
LINE
8
Black
10
154.688
20
-106.522
11
154.697
21
-106.507
0
LINE
8
Black
10
154.697
20
-106.507
11
154.703
21
-106.501
0
LINE
8
Black
10
154.703
20
-106.501
11
154.708
21
-106.495
0
LINE
8
Black
10
154.708
20
-106.495
11
154.723
21
-106.485
0
LINE
8
Black
10
154.723
20
-106.485
11
154.736
21
-106.473
0
LINE
8
Black
10
154.736
20
-106.473
11
154.744
21
-106.47
0
LINE
8
Black
10
154.744
20
-106.47
11
154.751
21
-106.466
0
LINE
8
Black
10
154.751
20
-106.466
11
154.769
21
-106.461
0
LINE
8
Black
10
154.769
20
-106.461
11
154.785
21
-106.455
0
LINE
8
Black
10
154.785
20
-106.455
11
154.794
21
-106.455
0
LINE
8
Black
10
154.794
20
-106.455
11
154.802
21
-106.453
0
LINE
8
Black
10
154.802
20
-106.453
11
154.82
21
-106.455
0
LINE
8
Black
10
139.839
20
-106.455
11
139.857
21
-106.455
0
LINE
8
Black
10
139.857
20
-106.455
11
139.864
21
-106.458
0
LINE
8
Black
10
139.864
20
-106.458
11
139.873
21
-106.459
0
LINE
8
Black
10
139.873
20
-106.459
11
139.889
21
-106.467
0
LINE
8
Black
10
139.889
20
-106.467
11
139.905
21
-106.473
0
LINE
8
Black
10
139.905
20
-106.473
11
139.912
21
-106.479
0
LINE
8
Black
10
139.912
20
-106.479
11
139.919
21
-106.482
0
LINE
8
Black
10
139.919
20
-106.482
11
139.932
21
-106.495
0
LINE
8
Black
10
139.932
20
-106.495
11
139.945
21
-106.507
0
LINE
8
Black
10
139.945
20
-106.507
11
139.95
21
-106.514
0
LINE
8
Black
10
139.95
20
-106.514
11
139.955
21
-106.52
0
LINE
8
Black
10
139.955
20
-106.52
11
140.071
21
-106.693
0
LINE
8
Black
10
140.071
20
-106.693
11
140.167
21
-106.789
0
LINE
8
Black
10
140.167
20
-106.789
11
140.269
21
-106.84
0
LINE
8
Black
10
140.269
20
-106.84
11
140.311
21
-106.871
0
LINE
8
Black
10
140.311
20
-106.871
11
140.34
21
-106.915
0
LINE
8
Black
10
140.34
20
-106.915
11
140.352
21
-106.966
0
LINE
8
Black
10
140.352
20
-106.966
11
140.346
21
-107.017
0
LINE
8
Black
10
140.346
20
-107.017
11
140.322
21
-107.064
0
LINE
8
Black
10
140.322
20
-107.064
11
140.285
21
-107.1
0
LINE
8
Black
10
140.285
20
-107.1
11
140.237
21
-107.12
0
LINE
8
Black
10
140.237
20
-107.12
11
140.185
21
-107.124
0
LINE
8
Black
10
140.185
20
-107.124
11
140.135
21
-107.109
0
LINE
8
Black
10
140.135
20
-107.109
11
140.011
21
-107.047
0
LINE
8
Black
10
140.011
20
-107.047
11
139.992
21
-107.032
0
LINE
8
Black
10
139.992
20
-107.032
11
139.98
21
-107.025
0
LINE
8
Black
10
139.98
20
-107.025
11
139.98
21
-107.753
0
LINE
8
Black
10
139.98
20
-107.753
11
140.202
21
-107.753
0
LINE
8
Black
10
140.202
20
-107.753
11
140.253
21
-107.762
0
LINE
8
Black
10
140.253
20
-107.762
11
140.298
21
-107.788
0
LINE
8
Black
10
140.298
20
-107.788
11
140.332
21
-107.828
0
LINE
8
Black
10
140.332
20
-107.828
11
140.35
21
-107.877
0
LINE
8
Black
10
140.35
20
-107.877
11
140.35
21
-107.929
0
LINE
8
Black
10
140.35
20
-107.929
11
140.332
21
-107.978
0
LINE
8
Black
10
140.332
20
-107.978
11
140.298
21
-108.018
0
LINE
8
Black
10
140.298
20
-108.018
11
140.253
21
-108.044
0
LINE
8
Black
10
140.253
20
-108.044
11
140.202
21
-108.053
0
LINE
8
Black
10
140.202
20
-108.053
11
139.459
21
-108.053
0
LINE
8
Black
10
139.459
20
-108.053
11
139.408
21
-108.044
0
LINE
8
Black
10
139.408
20
-108.044
11
139.363
21
-108.018
0
LINE
8
Black
10
139.363
20
-108.018
11
139.329
21
-107.978
0
LINE
8
Black
10
139.329
20
-107.978
11
139.311
21
-107.929
0
LINE
8
Black
10
139.311
20
-107.929
11
139.311
21
-107.877
0
LINE
8
Black
10
139.311
20
-107.877
11
139.329
21
-107.828
0
LINE
8
Black
10
139.329
20
-107.828
11
139.363
21
-107.788
0
LINE
8
Black
10
139.363
20
-107.788
11
139.408
21
-107.762
0
LINE
8
Black
10
139.408
20
-107.762
11
139.459
21
-107.753
0
LINE
8
Black
10
139.459
20
-107.753
11
139.68
21
-107.753
0
LINE
8
Black
10
139.68
20
-107.753
11
139.68
21
-106.603
0
LINE
8
Black
10
139.68
20
-106.603
11
139.682
21
-106.595
0
LINE
8
Black
10
139.682
20
-106.595
11
139.681
21
-106.587
0
LINE
8
Black
10
139.681
20
-106.587
11
139.686
21
-106.569
0
LINE
8
Black
10
139.686
20
-106.569
11
139.69
21
-106.552
0
LINE
8
Black
10
139.69
20
-106.552
11
139.694
21
-106.545
0
LINE
8
Black
10
139.694
20
-106.545
11
139.696
21
-106.537
0
LINE
8
Black
10
139.696
20
-106.537
11
139.707
21
-106.522
0
LINE
8
Black
10
139.707
20
-106.522
11
139.716
21
-106.507
0
LINE
8
Black
10
139.716
20
-106.507
11
139.722
21
-106.501
0
LINE
8
Black
10
139.722
20
-106.501
11
139.727
21
-106.495
0
LINE
8
Black
10
139.727
20
-106.495
11
139.742
21
-106.485
0
LINE
8
Black
10
139.742
20
-106.485
11
139.755
21
-106.473
0
LINE
8
Black
10
139.755
20
-106.473
11
139.763
21
-106.47
0
LINE
8
Black
10
139.763
20
-106.47
11
139.77
21
-106.466
0
LINE
8
Black
10
139.77
20
-106.466
11
139.788
21
-106.461
0
LINE
8
Black
10
139.788
20
-106.461
11
139.804
21
-106.455
0
LINE
8
Black
10
139.804
20
-106.455
11
139.813
21
-106.455
0
LINE
8
Black
10
139.813
20
-106.455
11
139.821
21
-106.453
0
LINE
8
Black
10
139.821
20
-106.453
11
139.839
21
-106.455
0
LINE
8
Black
10
147.148
20
-106.473
11
147.188
21
-106.507
0
LINE
8
Black
10
147.188
20
-106.507
11
147.214
21
-106.552
0
LINE
8
Black
10
147.214
20
-106.552
11
147.223
21
-106.603
0
LINE
8
Black
10
147.223
20
-106.603
11
147.223
21
-107.903
0
LINE
8
Black
10
147.223
20
-107.903
11
147.214
21
-107.954
0
LINE
8
Black
10
147.214
20
-107.954
11
147.188
21
-108
0
LINE
8
Black
10
147.188
20
-108
11
147.148
21
-108.033
0
LINE
8
Black
10
147.148
20
-108.033
11
147.099
21
-108.051
0
LINE
8
Black
10
147.099
20
-108.051
11
147.047
21
-108.051
0
LINE
8
Black
10
147.047
20
-108.051
11
146.998
21
-108.033
0
LINE
8
Black
10
146.998
20
-108.033
11
146.958
21
-108
0
LINE
8
Black
10
146.958
20
-108
11
146.932
21
-107.954
0
LINE
8
Black
10
146.932
20
-107.954
11
146.923
21
-107.903
0
LINE
8
Black
10
146.923
20
-107.903
11
146.923
21
-107.693
0
LINE
8
Black
10
146.923
20
-107.693
11
146.698
21
-107.993
0
LINE
8
Black
10
146.698
20
-107.993
11
146.66
21
-108.029
0
LINE
8
Black
10
146.66
20
-108.029
11
146.612
21
-108.049
0
LINE
8
Black
10
146.612
20
-108.049
11
146.56
21
-108.052
0
LINE
8
Black
10
146.56
20
-108.052
11
146.51
21
-108.037
0
LINE
8
Black
10
146.51
20
-108.037
11
146.469
21
-108.006
0
LINE
8
Black
10
146.469
20
-108.006
11
146.44
21
-107.962
0
LINE
8
Black
10
146.44
20
-107.962
11
146.428
21
-107.911
0
LINE
8
Black
10
146.428
20
-107.911
11
146.435
21
-107.86
0
LINE
8
Black
10
146.435
20
-107.86
11
146.458
21
-107.813
0
LINE
8
Black
10
146.458
20
-107.813
11
146.751
21
-107.422
0
LINE
8
Black
10
146.751
20
-107.422
11
146.472
21
-107.142
0
LINE
8
Black
10
146.472
20
-107.142
11
146.442
21
-107.1
0
LINE
8
Black
10
146.442
20
-107.1
11
146.429
21
-107.05
0
LINE
8
Black
10
146.429
20
-107.05
11
146.433
21
-106.998
0
LINE
8
Black
10
146.433
20
-106.998
11
146.455
21
-106.95
0
LINE
8
Black
10
146.455
20
-106.95
11
146.492
21
-106.914
0
LINE
8
Black
10
146.492
20
-106.914
11
146.539
21
-106.892
0
LINE
8
Black
10
146.539
20
-106.892
11
146.591
21
-106.887
0
LINE
8
Black
10
146.591
20
-106.887
11
146.641
21
-106.9
0
LINE
8
Black
10
146.641
20
-106.9
11
146.684
21
-106.93
0
LINE
8
Black
10
146.684
20
-106.93
11
146.923
21
-107.17
0
LINE
8
Black
10
146.923
20
-107.17
11
146.923
21
-106.603
0
LINE
8
Black
10
146.923
20
-106.603
11
146.932
21
-106.552
0
LINE
8
Black
10
146.932
20
-106.552
11
146.958
21
-106.507
0
LINE
8
Black
10
146.958
20
-106.507
11
146.998
21
-106.473
0
LINE
8
Black
10
146.998
20
-106.473
11
147.047
21
-106.455
0
LINE
8
Black
10
147.047
20
-106.455
11
147.099
21
-106.455
0
LINE
8
Black
10
147.099
20
-106.455
11
147.148
21
-106.473
0
LINE
8
Black
10
141.328
20
-106.906
11
141.369
21
-106.939
0
LINE
8
Black
10
141.369
20
-106.939
11
141.395
21
-106.984
0
LINE
8
Black
10
141.395
20
-106.984
11
141.404
21
-107.036
0
LINE
8
Black
10
141.404
20
-107.036
11
141.396
21
-107.087
0
LINE
8
Black
10
141.396
20
-107.087
11
141.086
21
-107.954
0
LINE
8
Black
10
141.086
20
-107.954
11
141.086
21
-107.954
0
LINE
8
Black
10
141.086
20
-107.954
11
141.085
21
-107.955
0
LINE
8
Black
10
141.085
20
-107.955
11
141.073
21
-107.977
0
LINE
8
Black
10
141.073
20
-107.977
11
141.06
21
-107.999
0
LINE
8
Black
10
141.06
20
-107.999
11
141.06
21
-107.999
0
LINE
8
Black
10
141.06
20
-107.999
11
141.059
21
-108
0
LINE
8
Black
10
141.059
20
-108
11
141.04
21
-108.016
0
LINE
8
Black
10
141.04
20
-108.016
11
141.021
21
-108.033
0
LINE
8
Black
10
141.021
20
-108.033
11
141.02
21
-108.033
0
LINE
8
Black
10
141.02
20
-108.033
11
141.019
21
-108.033
0
LINE
8
Black
10
141.019
20
-108.033
11
140.995
21
-108.042
0
LINE
8
Black
10
140.995
20
-108.042
11
140.972
21
-108.051
0
LINE
8
Black
10
140.972
20
-108.051
11
140.971
21
-108.051
0
LINE
8
Black
10
140.971
20
-108.051
11
140.97
21
-108.051
0
LINE
8
Black
10
140.97
20
-108.051
11
140.945
21
-108.051
0
LINE
8
Black
10
140.945
20
-108.051
11
140.92
21
-108.051
0
LINE
8
Black
10
140.92
20
-108.051
11
140.919
21
-108.051
0
LINE
8
Black
10
140.919
20
-108.051
11
140.918
21
-108.051
0
LINE
8
Black
10
140.918
20
-108.051
11
140.894
21
-108.042
0
LINE
8
Black
10
140.894
20
-108.042
11
140.871
21
-108.033
0
LINE
8
Black
10
140.871
20
-108.033
11
140.87
21
-108.033
0
LINE
8
Black
10
140.87
20
-108.033
11
140.869
21
-108.033
0
LINE
8
Black
10
140.869
20
-108.033
11
140.85
21
-108.016
0
LINE
8
Black
10
140.85
20
-108.016
11
140.83
21
-108
0
LINE
8
Black
10
140.83
20
-108
11
140.83
21
-107.999
0
LINE
8
Black
10
140.83
20
-107.999
11
140.829
21
-107.999
0
LINE
8
Black
10
140.829
20
-107.999
11
140.817
21
-107.977
0
LINE
8
Black
10
140.817
20
-107.977
11
140.804
21
-107.955
0
LINE
8
Black
10
140.804
20
-107.955
11
140.804
21
-107.954
0
LINE
8
Black
10
140.804
20
-107.954
11
140.804
21
-107.954
0
LINE
8
Black
10
140.804
20
-107.954
11
140.494
21
-107.087
0
LINE
8
Black
10
140.494
20
-107.087
11
140.485
21
-107.036
0
LINE
8
Black
10
140.485
20
-107.036
11
140.495
21
-106.984
0
LINE
8
Black
10
140.495
20
-106.984
11
140.521
21
-106.939
0
LINE
8
Black
10
140.521
20
-106.939
11
140.561
21
-106.906
0
LINE
8
Black
10
140.561
20
-106.906
11
140.61
21
-106.889
0
LINE
8
Black
10
140.61
20
-106.889
11
140.662
21
-106.889
0
LINE
8
Black
10
140.662
20
-106.889
11
140.711
21
-106.907
0
LINE
8
Black
10
140.711
20
-106.907
11
140.751
21
-106.941
0
LINE
8
Black
10
140.751
20
-106.941
11
140.776
21
-106.986
0
LINE
8
Black
10
140.776
20
-106.986
11
140.945
21
-107.457
0
LINE
8
Black
10
140.945
20
-107.457
11
141.113
21
-106.986
0
LINE
8
Black
10
141.113
20
-106.986
11
141.139
21
-106.941
0
LINE
8
Black
10
141.139
20
-106.941
11
141.179
21
-106.907
0
LINE
8
Black
10
141.179
20
-106.907
11
141.227
21
-106.889
0
LINE
8
Black
10
141.227
20
-106.889
11
141.279
21
-106.889
0
LINE
8
Black
10
141.279
20
-106.889
11
141.328
21
-106.906
0
LINE
8
Black
10
149.187
20
-106.888
11
149.195
21
-106.887
0
LINE
8
Black
10
149.195
20
-106.887
11
149.212
21
-106.892
0
LINE
8
Black
10
149.212
20
-106.892
11
149.229
21
-106.895
0
LINE
8
Black
10
149.229
20
-106.895
11
149.237
21
-106.9
0
LINE
8
Black
10
149.237
20
-106.9
11
149.245
21
-106.902
0
LINE
8
Black
10
149.245
20
-106.902
11
149.364
21
-106.962
0
LINE
8
Black
10
149.364
20
-106.962
11
149.482
21
-106.902
0
LINE
8
Black
10
149.482
20
-106.902
11
149.491
21
-106.9
0
LINE
8
Black
10
149.491
20
-106.9
11
149.498
21
-106.895
0
LINE
8
Black
10
149.498
20
-106.895
11
149.516
21
-106.892
0
LINE
8
Black
10
149.516
20
-106.892
11
149.532
21
-106.887
0
LINE
8
Black
10
149.532
20
-106.887
11
149.541
21
-106.888
0
LINE
8
Black
10
149.541
20
-106.888
11
149.55
21
-106.886
0
LINE
8
Black
10
149.55
20
-106.886
11
149.735
21
-106.886
0
LINE
8
Black
10
149.735
20
-106.886
11
149.744
21
-106.888
0
LINE
8
Black
10
149.744
20
-106.888
11
149.752
21
-106.887
0
LINE
8
Black
10
149.752
20
-106.887
11
149.769
21
-106.892
0
LINE
8
Black
10
149.769
20
-106.892
11
149.787
21
-106.895
0
LINE
8
Black
10
149.787
20
-106.895
11
149.794
21
-106.9
0
LINE
8
Black
10
149.794
20
-106.9
11
149.802
21
-106.902
0
LINE
8
Black
10
149.802
20
-106.902
11
149.833
21
-106.918
0
LINE
8
Black
10
149.833
20
-106.918
11
149.846
21
-106.907
0
LINE
8
Black
10
149.846
20
-106.907
11
149.895
21
-106.889
0
LINE
8
Black
10
149.895
20
-106.889
11
149.947
21
-106.889
0
LINE
8
Black
10
149.947
20
-106.889
11
149.996
21
-106.907
0
LINE
8
Black
10
149.996
20
-106.907
11
150.036
21
-106.94
0
LINE
8
Black
10
150.036
20
-106.94
11
150.062
21
-106.985
0
LINE
8
Black
10
150.062
20
-106.985
11
150.071
21
-107.036
0
LINE
8
Black
10
150.071
20
-107.036
11
150.071
21
-107.903
0
LINE
8
Black
10
150.071
20
-107.903
11
150.062
21
-107.954
0
LINE
8
Black
10
150.062
20
-107.954
11
150.036
21
-108
0
LINE
8
Black
10
150.036
20
-108
11
149.996
21
-108.033
0
LINE
8
Black
10
149.996
20
-108.033
11
149.947
21
-108.051
0
LINE
8
Black
10
149.947
20
-108.051
11
149.895
21
-108.051
0
LINE
8
Black
10
149.895
20
-108.051
11
149.846
21
-108.033
0
LINE
8
Black
10
149.846
20
-108.033
11
149.806
21
-108
0
LINE
8
Black
10
149.806
20
-108
11
149.78
21
-107.954
0
LINE
8
Black
10
149.78
20
-107.954
11
149.771
21
-107.903
0
LINE
8
Black
10
149.771
20
-107.903
11
149.771
21
-107.222
0
LINE
8
Black
10
149.771
20
-107.222
11
149.77
21
-107.222
0
LINE
8
Black
10
149.77
20
-107.222
11
149.7
21
-107.186
0
LINE
8
Black
10
149.7
20
-107.186
11
149.585
21
-107.186
0
LINE
8
Black
10
149.585
20
-107.186
11
149.538
21
-107.21
0
LINE
8
Black
10
149.538
20
-107.21
11
149.514
21
-107.258
0
LINE
8
Black
10
149.514
20
-107.258
11
149.514
21
-107.903
0
LINE
8
Black
10
149.514
20
-107.903
11
149.505
21
-107.954
0
LINE
8
Black
10
149.505
20
-107.954
11
149.479
21
-108
0
LINE
8
Black
10
149.479
20
-108
11
149.439
21
-108.033
0
LINE
8
Black
10
149.439
20
-108.033
11
149.39
21
-108.051
0
LINE
8
Black
10
149.39
20
-108.051
11
149.338
21
-108.051
0
LINE
8
Black
10
149.338
20
-108.051
11
149.289
21
-108.033
0
LINE
8
Black
10
149.289
20
-108.033
11
149.249
21
-108
0
LINE
8
Black
10
149.249
20
-108
11
149.223
21
-107.954
0
LINE
8
Black
10
149.223
20
-107.954
11
149.214
21
-107.903
0
LINE
8
Black
10
149.214
20
-107.903
11
149.214
21
-107.258
0
LINE
8
Black
10
149.214
20
-107.258
11
149.19
21
-107.21
0
LINE
8
Black
10
149.19
20
-107.21
11
149.143
21
-107.186
0
LINE
8
Black
10
149.143
20
-107.186
11
149.028
21
-107.186
0
LINE
8
Black
10
149.028
20
-107.186
11
148.98
21
-107.21
0
LINE
8
Black
10
148.98
20
-107.21
11
148.957
21
-107.258
0
LINE
8
Black
10
148.957
20
-107.258
11
148.957
21
-107.903
0
LINE
8
Black
10
148.957
20
-107.903
11
148.948
21
-107.954
0
LINE
8
Black
10
148.948
20
-107.954
11
148.922
21
-108
0
LINE
8
Black
10
148.922
20
-108
11
148.882
21
-108.033
0
LINE
8
Black
10
148.882
20
-108.033
11
148.833
21
-108.051
0
LINE
8
Black
10
148.833
20
-108.051
11
148.781
21
-108.051
0
LINE
8
Black
10
148.781
20
-108.051
11
148.732
21
-108.033
0
LINE
8
Black
10
148.732
20
-108.033
11
148.692
21
-108
0
LINE
8
Black
10
148.692
20
-108
11
148.666
21
-107.954
0
LINE
8
Black
10
148.666
20
-107.954
11
148.657
21
-107.903
0
LINE
8
Black
10
148.657
20
-107.903
11
148.657
21
-107.222
0
LINE
8
Black
10
148.657
20
-107.222
11
148.658
21
-107.214
0
LINE
8
Black
10
148.658
20
-107.214
11
148.658
21
-107.205
0
LINE
8
Black
10
148.658
20
-107.205
11
148.663
21
-107.188
0
LINE
8
Black
10
148.663
20
-107.188
11
148.666
21
-107.171
0
LINE
8
Black
10
148.666
20
-107.171
11
148.67
21
-107.163
0
LINE
8
Black
10
148.67
20
-107.163
11
148.673
21
-107.155
0
LINE
8
Black
10
148.673
20
-107.155
11
148.734
21
-107.031
0
LINE
8
Black
10
148.734
20
-107.031
11
148.748
21
-107.014
0
LINE
8
Black
10
148.748
20
-107.014
11
148.76
21
-106.995
0
LINE
8
Black
10
148.76
20
-106.995
11
148.763
21
-106.993
0
LINE
8
Black
10
148.763
20
-106.993
11
148.765
21
-106.989
0
LINE
8
Black
10
148.765
20
-106.989
11
148.784
21
-106.977
0
LINE
8
Black
10
148.784
20
-106.977
11
148.801
21
-106.964
0
LINE
8
Black
10
148.801
20
-106.964
11
148.925
21
-106.902
0
LINE
8
Black
10
148.925
20
-106.902
11
148.934
21
-106.9
0
LINE
8
Black
10
148.934
20
-106.9
11
148.941
21
-106.895
0
LINE
8
Black
10
148.941
20
-106.895
11
148.958
21
-106.892
0
LINE
8
Black
10
148.958
20
-106.892
11
148.975
21
-106.887
0
LINE
8
Black
10
148.975
20
-106.887
11
148.984
21
-106.888
0
LINE
8
Black
10
148.984
20
-106.888
11
148.992
21
-106.886
0
LINE
8
Black
10
148.992
20
-106.886
11
149.178
21
-106.886
0
LINE
8
Black
10
149.178
20
-106.886
11
149.187
21
-106.888
0
LINE
8
Black
10
146.096
20
-106.907
11
146.136
21
-106.94
0
LINE
8
Black
10
146.136
20
-106.94
11
146.162
21
-106.985
0
LINE
8
Black
10
146.162
20
-106.985
11
146.171
21
-107.036
0
LINE
8
Black
10
146.171
20
-107.036
11
146.171
21
-107.903
0
LINE
8
Black
10
146.171
20
-107.903
11
146.162
21
-107.954
0
LINE
8
Black
10
146.162
20
-107.954
11
146.136
21
-108
0
LINE
8
Black
10
146.136
20
-108
11
146.096
21
-108.033
0
LINE
8
Black
10
146.096
20
-108.033
11
146.047
21
-108.051
0
LINE
8
Black
10
146.047
20
-108.051
11
145.995
21
-108.051
0
LINE
8
Black
10
145.995
20
-108.051
11
145.946
21
-108.033
0
LINE
8
Black
10
145.946
20
-108.033
11
145.906
21
-108
0
LINE
8
Black
10
145.906
20
-108
11
145.88
21
-107.954
0
LINE
8
Black
10
145.88
20
-107.954
11
145.871
21
-107.903
0
LINE
8
Black
10
145.871
20
-107.903
11
145.871
21
-107.036
0
LINE
8
Black
10
145.871
20
-107.036
11
145.88
21
-106.985
0
LINE
8
Black
10
145.88
20
-106.985
11
145.906
21
-106.94
0
LINE
8
Black
10
145.906
20
-106.94
11
145.946
21
-106.907
0
LINE
8
Black
10
145.946
20
-106.907
11
145.995
21
-106.889
0
LINE
8
Black
10
145.995
20
-106.889
11
146.047
21
-106.889
0
LINE
8
Black
10
146.047
20
-106.889
11
146.096
21
-106.907
0
LINE
8
Black
10
142.81
20
-106.888
11
142.819
21
-106.887
0
LINE
8
Black
10
142.819
20
-106.887
11
142.836
21
-106.892
0
LINE
8
Black
10
142.836
20
-106.892
11
142.853
21
-106.895
0
LINE
8
Black
10
142.853
20
-106.895
11
142.861
21
-106.9
0
LINE
8
Black
10
142.861
20
-106.9
11
142.869
21
-106.902
0
LINE
8
Black
10
142.869
20
-106.902
11
142.938
21
-106.937
0
LINE
8
Black
10
142.938
20
-106.937
11
142.975
21
-106.907
0
LINE
8
Black
10
142.975
20
-106.907
11
143.023
21
-106.889
0
LINE
8
Black
10
143.023
20
-106.889
11
143.076
21
-106.889
0
LINE
8
Black
10
143.076
20
-106.889
11
143.125
21
-106.907
0
LINE
8
Black
10
143.125
20
-106.907
11
143.164
21
-106.94
0
LINE
8
Black
10
143.164
20
-106.94
11
143.19
21
-106.985
0
LINE
8
Black
10
143.19
20
-106.985
11
143.2
21
-107.036
0
LINE
8
Black
10
143.2
20
-107.036
11
143.2
21
-107.903
0
LINE
8
Black
10
143.2
20
-107.903
11
143.19
21
-107.954
0
LINE
8
Black
10
143.19
20
-107.954
11
143.164
21
-108
0
LINE
8
Black
10
143.164
20
-108
11
143.125
21
-108.033
0
LINE
8
Black
10
143.125
20
-108.033
11
143.076
21
-108.051
0
LINE
8
Black
10
143.076
20
-108.051
11
143.023
21
-108.051
0
LINE
8
Black
10
143.023
20
-108.051
11
142.975
21
-108.033
0
LINE
8
Black
10
142.975
20
-108.033
11
142.935
21
-108
0
LINE
8
Black
10
142.935
20
-108
11
142.909
21
-107.954
0
LINE
8
Black
10
142.909
20
-107.954
11
142.9
21
-107.903
0
LINE
8
Black
10
142.9
20
-107.903
11
142.9
21
-107.319
0
LINE
8
Black
10
142.9
20
-107.319
11
142.864
21
-107.249
0
LINE
8
Black
10
142.864
20
-107.249
11
142.837
21
-107.222
0
LINE
8
Black
10
142.837
20
-107.222
11
142.766
21
-107.186
0
LINE
8
Black
10
142.766
20
-107.186
11
142.678
21
-107.186
0
LINE
8
Black
10
142.678
20
-107.186
11
142.627
21
-107.177
0
LINE
8
Black
10
142.627
20
-107.177
11
142.582
21
-107.151
0
LINE
8
Black
10
142.582
20
-107.151
11
142.548
21
-107.111
0
LINE
8
Black
10
142.548
20
-107.111
11
142.53
21
-107.062
0
LINE
8
Black
10
142.53
20
-107.062
11
142.53
21
-107.01
0
LINE
8
Black
10
142.53
20
-107.01
11
142.548
21
-106.961
0
LINE
8
Black
10
142.548
20
-106.961
11
142.582
21
-106.922
0
LINE
8
Black
10
142.582
20
-106.922
11
142.627
21
-106.895
0
LINE
8
Black
10
142.627
20
-106.895
11
142.678
21
-106.886
0
LINE
8
Black
10
142.678
20
-106.886
11
142.802
21
-106.886
0
LINE
8
Black
10
142.802
20
-106.886
11
142.81
21
-106.888
0
LINE
8
Black
10
144.71
20
-107.267
11
144.755
21
-107.293
0
LINE
8
Black
10
144.755
20
-107.293
11
144.789
21
-107.333
0
LINE
8
Black
10
144.789
20
-107.333
11
144.807
21
-107.382
0
LINE
8
Black
10
144.807
20
-107.382
11
144.807
21
-107.434
0
LINE
8
Black
10
144.807
20
-107.434
11
144.789
21
-107.483
0
LINE
8
Black
10
144.789
20
-107.483
11
144.755
21
-107.523
0
LINE
8
Black
10
144.755
20
-107.523
11
144.71
21
-107.549
0
LINE
8
Black
10
144.71
20
-107.549
11
144.659
21
-107.558
0
LINE
8
Black
10
144.659
20
-107.558
11
143.669
21
-107.558
0
LINE
8
Black
10
143.669
20
-107.558
11
143.617
21
-107.549
0
LINE
8
Black
10
143.617
20
-107.549
11
143.572
21
-107.523
0
LINE
8
Black
10
143.572
20
-107.523
11
143.539
21
-107.483
0
LINE
8
Black
10
143.539
20
-107.483
11
143.521
21
-107.434
0
LINE
8
Black
10
143.521
20
-107.434
11
143.521
21
-107.382
0
LINE
8
Black
10
143.521
20
-107.382
11
143.539
21
-107.333
0
LINE
8
Black
10
143.539
20
-107.333
11
143.572
21
-107.293
0
LINE
8
Black
10
143.572
20
-107.293
11
143.617
21
-107.267
0
LINE
8
Black
10
143.617
20
-107.267
11
143.669
21
-107.258
0
LINE
8
Black
10
143.669
20
-107.258
11
144.659
21
-107.258
0
LINE
8
Black
10
144.659
20
-107.258
11
144.71
21
-107.267
0
LINE
8
Black
10
153.934
20
-107.267
11
153.979
21
-107.293
0
LINE
8
Black
10
153.979
20
-107.293
11
154.013
21
-107.333
0
LINE
8
Black
10
154.013
20
-107.333
11
154.031
21
-107.382
0
LINE
8
Black
10
154.031
20
-107.382
11
154.031
21
-107.434
0
LINE
8
Black
10
154.031
20
-107.434
11
154.013
21
-107.483
0
LINE
8
Black
10
154.013
20
-107.483
11
153.979
21
-107.523
0
LINE
8
Black
10
153.979
20
-107.523
11
153.934
21
-107.549
0
LINE
8
Black
10
153.934
20
-107.549
11
153.883
21
-107.558
0
LINE
8
Black
10
153.883
20
-107.558
11
152.892
21
-107.558
0
LINE
8
Black
10
152.892
20
-107.558
11
152.841
21
-107.549
0
LINE
8
Black
10
152.841
20
-107.549
11
152.796
21
-107.523
0
LINE
8
Black
10
152.796
20
-107.523
11
152.762
21
-107.483
0
LINE
8
Black
10
152.762
20
-107.483
11
152.745
21
-107.434
0
LINE
8
Black
10
152.745
20
-107.434
11
152.745
21
-107.382
0
LINE
8
Black
10
152.745
20
-107.382
11
152.762
21
-107.333
0
LINE
8
Black
10
152.762
20
-107.333
11
152.796
21
-107.293
0
LINE
8
Black
10
152.796
20
-107.293
11
152.841
21
-107.267
0
LINE
8
Black
10
152.841
20
-107.267
11
152.892
21
-107.258
0
LINE
8
Black
10
152.892
20
-107.258
11
153.883
21
-107.258
0
LINE
8
Black
10
153.883
20
-107.258
11
153.934
21
-107.267
0
LINE
8
Black
10
146.04
20
-106.455
11
146.047
21
-106.455
0
LINE
8
Black
10
146.047
20
-106.455
11
146.053
21
-106.458
0
LINE
8
Black
10
146.053
20
-106.458
11
146.06
21
-106.458
0
LINE
8
Black
10
146.06
20
-106.458
11
146.072
21
-106.464
0
LINE
8
Black
10
146.072
20
-106.464
11
146.084
21
-106.467
0
LINE
8
Black
10
146.084
20
-106.467
11
146.09
21
-106.471
0
LINE
8
Black
10
146.09
20
-106.471
11
146.096
21
-106.473
0
LINE
8
Black
10
146.096
20
-106.473
11
146.101
21
-106.477
0
LINE
8
Black
10
146.101
20
-106.477
11
146.107
21
-106.48
0
LINE
8
Black
10
146.107
20
-106.48
11
146.116
21
-106.49
0
LINE
8
Black
10
146.116
20
-106.49
11
146.127
21
-106.497
0
LINE
8
Black
10
146.127
20
-106.497
11
146.189
21
-106.559
0
LINE
8
Black
10
146.189
20
-106.559
11
146.196
21
-106.57
0
LINE
8
Black
10
146.196
20
-106.57
11
146.206
21
-106.579
0
LINE
8
Black
10
146.206
20
-106.579
11
146.211
21
-106.591
0
LINE
8
Black
10
146.211
20
-106.591
11
146.219
21
-106.602
0
LINE
8
Black
10
146.219
20
-106.602
11
146.222
21
-106.614
0
LINE
8
Black
10
146.222
20
-106.614
11
146.228
21
-106.626
0
LINE
8
Black
10
146.228
20
-106.626
11
146.229
21
-106.639
0
LINE
8
Black
10
146.229
20
-106.639
11
146.232
21
-106.652
0
LINE
8
Black
10
146.232
20
-106.652
11
146.231
21
-106.665
0
LINE
8
Black
10
146.231
20
-106.665
11
146.232
21
-106.678
0
LINE
8
Black
10
146.232
20
-106.678
11
146.229
21
-106.691
0
LINE
8
Black
10
146.229
20
-106.691
11
146.228
21
-106.704
0
LINE
8
Black
10
146.228
20
-106.704
11
146.222
21
-106.716
0
LINE
8
Black
10
146.222
20
-106.716
11
146.219
21
-106.728
0
LINE
8
Black
10
146.219
20
-106.728
11
146.211
21
-106.739
0
LINE
8
Black
10
146.211
20
-106.739
11
146.206
21
-106.751
0
LINE
8
Black
10
146.206
20
-106.751
11
146.196
21
-106.76
0
LINE
8
Black
10
146.196
20
-106.76
11
146.189
21
-106.771
0
LINE
8
Black
10
146.189
20
-106.771
11
146.127
21
-106.833
0
LINE
8
Black
10
146.127
20
-106.833
11
146.116
21
-106.84
0
LINE
8
Black
10
146.116
20
-106.84
11
146.107
21
-106.85
0
LINE
8
Black
10
146.107
20
-106.85
11
146.101
21
-106.853
0
LINE
8
Black
10
146.101
20
-106.853
11
146.096
21
-106.857
0
LINE
8
Black
10
146.096
20
-106.857
11
146.09
21
-106.859
0
LINE
8
Black
10
146.09
20
-106.859
11
146.084
21
-106.863
0
LINE
8
Black
10
146.084
20
-106.863
11
146.072
21
-106.866
0
LINE
8
Black
10
146.072
20
-106.866
11
146.06
21
-106.872
0
LINE
8
Black
10
146.06
20
-106.872
11
146.053
21
-106.872
0
LINE
8
Black
10
146.053
20
-106.872
11
146.047
21
-106.875
0
LINE
8
Black
10
146.047
20
-106.875
11
146.04
21
-106.875
0
LINE
8
Black
10
146.04
20
-106.875
11
146.034
21
-106.876
0
LINE
8
Black
10
146.034
20
-106.876
11
146.021
21
-106.875
0
LINE
8
Black
10
146.021
20
-106.875
11
146.008
21
-106.876
0
LINE
8
Black
10
146.008
20
-106.876
11
146.002
21
-106.875
0
LINE
8
Black
10
146.002
20
-106.875
11
145.995
21
-106.875
0
LINE
8
Black
10
145.995
20
-106.875
11
145.989
21
-106.872
0
LINE
8
Black
10
145.989
20
-106.872
11
145.982
21
-106.872
0
LINE
8
Black
10
145.982
20
-106.872
11
145.97
21
-106.866
0
LINE
8
Black
10
145.97
20
-106.866
11
145.958
21
-106.863
0
LINE
8
Black
10
145.958
20
-106.863
11
145.952
21
-106.859
0
LINE
8
Black
10
145.952
20
-106.859
11
145.946
21
-106.857
0
LINE
8
Black
10
145.946
20
-106.857
11
145.941
21
-106.853
0
LINE
8
Black
10
145.941
20
-106.853
11
145.935
21
-106.85
0
LINE
8
Black
10
145.935
20
-106.85
11
145.926
21
-106.84
0
LINE
8
Black
10
145.926
20
-106.84
11
145.915
21
-106.833
0
LINE
8
Black
10
145.915
20
-106.833
11
145.853
21
-106.771
0
LINE
8
Black
10
145.853
20
-106.771
11
145.845
21
-106.76
0
LINE
8
Black
10
145.845
20
-106.76
11
145.836
21
-106.751
0
LINE
8
Black
10
145.836
20
-106.751
11
145.831
21
-106.739
0
LINE
8
Black
10
145.831
20
-106.739
11
145.823
21
-106.728
0
LINE
8
Black
10
145.823
20
-106.728
11
145.82
21
-106.716
0
LINE
8
Black
10
145.82
20
-106.716
11
145.814
21
-106.704
0
LINE
8
Black
10
145.814
20
-106.704
11
145.813
21
-106.691
0
LINE
8
Black
10
145.813
20
-106.691
11
145.81
21
-106.678
0
LINE
8
Black
10
145.81
20
-106.678
11
145.811
21
-106.665
0
LINE
8
Black
10
145.811
20
-106.665
11
145.81
21
-106.652
0
LINE
8
Black
10
145.81
20
-106.652
11
145.813
21
-106.639
0
LINE
8
Black
10
145.813
20
-106.639
11
145.814
21
-106.626
0
LINE
8
Black
10
145.814
20
-106.626
11
145.82
21
-106.614
0
LINE
8
Black
10
145.82
20
-106.614
11
145.823
21
-106.602
0
LINE
8
Black
10
145.823
20
-106.602
11
145.831
21
-106.591
0
LINE
8
Black
10
145.831
20
-106.591
11
145.836
21
-106.579
0
LINE
8
Black
10
145.836
20
-106.579
11
145.845
21
-106.57
0
LINE
8
Black
10
145.845
20
-106.57
11
145.853
21
-106.559
0
LINE
8
Black
10
145.853
20
-106.559
11
145.915
21
-106.497
0
LINE
8
Black
10
145.915
20
-106.497
11
145.926
21
-106.49
0
LINE
8
Black
10
145.926
20
-106.49
11
145.935
21
-106.48
0
LINE
8
Black
10
145.935
20
-106.48
11
145.941
21
-106.477
0
LINE
8
Black
10
145.941
20
-106.477
11
145.946
21
-106.473
0
LINE
8
Black
10
145.946
20
-106.473
11
145.952
21
-106.471
0
LINE
8
Black
10
145.952
20
-106.471
11
145.958
21
-106.467
0
LINE
8
Black
10
145.958
20
-106.467
11
145.97
21
-106.464
0
LINE
8
Black
10
145.97
20
-106.464
11
145.982
21
-106.458
0
LINE
8
Black
10
145.982
20
-106.458
11
145.989
21
-106.458
0
LINE
8
Black
10
145.989
20
-106.458
11
145.995
21
-106.455
0
LINE
8
Black
10
145.995
20
-106.455
11
146.002
21
-106.455
0
LINE
8
Black
10
146.002
20
-106.455
11
146.008
21
-106.454
0
LINE
8
Black
10
146.008
20
-106.454
11
146.021
21
-106.455
0
LINE
8
Black
10
146.021
20
-106.455
11
146.034
21
-106.454
0
LINE
8
Black
10
146.034
20
-106.454
11
146.04
21
-106.455
0
LINE
8
Black
10
165.175
20
-94.0208
11
165.215
21
-94.0543
0
LINE
8
Black
10
165.215
20
-94.0543
11
165.241
21
-94.0994
0
LINE
8
Black
10
165.241
20
-94.0994
11
165.25
21
-94.1507
0
LINE
8
Black
10
165.25
20
-94.1507
11
165.25
21
-94.5721
0
LINE
8
Black
10
165.25
20
-94.5721
11
165.671
21
-94.5721
0
LINE
8
Black
10
165.671
20
-94.5721
11
165.723
21
-94.5812
0
LINE
8
Black
10
165.723
20
-94.5812
11
165.768
21
-94.6072
0
LINE
8
Black
10
165.768
20
-94.6072
11
165.801
21
-94.6471
0
LINE
8
Black
10
165.801
20
-94.6471
11
165.819
21
-94.6961
0
LINE
8
Black
10
165.819
20
-94.6961
11
165.819
21
-94.7482
0
LINE
8
Black
10
165.819
20
-94.7482
11
165.801
21
-94.7971
0
LINE
8
Black
10
165.801
20
-94.7971
11
165.768
21
-94.837
0
LINE
8
Black
10
165.768
20
-94.837
11
165.723
21
-94.8631
0
LINE
8
Black
10
165.723
20
-94.8631
11
165.671
21
-94.8721
0
LINE
8
Black
10
165.671
20
-94.8721
11
165.25
21
-94.8721
0
LINE
8
Black
10
165.25
20
-94.8721
11
165.25
21
-95.2936
0
LINE
8
Black
10
165.25
20
-95.2936
11
165.241
21
-95.3449
0
LINE
8
Black
10
165.241
20
-95.3449
11
165.215
21
-95.39
0
LINE
8
Black
10
165.215
20
-95.39
11
165.175
21
-95.4235
0
LINE
8
Black
10
165.175
20
-95.4235
11
165.126
21
-95.4413
0
LINE
8
Black
10
165.126
20
-95.4413
11
165.074
21
-95.4413
0
LINE
8
Black
10
165.074
20
-95.4413
11
165.025
21
-95.4235
0
LINE
8
Black
10
165.025
20
-95.4235
11
164.985
21
-95.39
0
LINE
8
Black
10
164.985
20
-95.39
11
164.959
21
-95.3449
0
LINE
8
Black
10
164.959
20
-95.3449
11
164.95
21
-95.2936
0
LINE
8
Black
10
164.95
20
-95.2936
11
164.95
21
-94.8721
0
LINE
8
Black
10
164.95
20
-94.8721
11
164.529
21
-94.8721
0
LINE
8
Black
10
164.529
20
-94.8721
11
164.477
21
-94.8631
0
LINE
8
Black
10
164.477
20
-94.8631
11
164.432
21
-94.837
0
LINE
8
Black
10
164.432
20
-94.837
11
164.399
21
-94.7971
0
LINE
8
Black
10
164.399
20
-94.7971
11
164.381
21
-94.7482
0
LINE
8
Black
10
164.381
20
-94.7482
11
164.381
21
-94.6961
0
LINE
8
Black
10
164.381
20
-94.6961
11
164.399
21
-94.6471
0
LINE
8
Black
10
164.399
20
-94.6471
11
164.432
21
-94.6072
0
LINE
8
Black
10
164.432
20
-94.6072
11
164.477
21
-94.5812
0
LINE
8
Black
10
164.477
20
-94.5812
11
164.529
21
-94.5721
0
LINE
8
Black
10
164.529
20
-94.5721
11
164.95
21
-94.5721
0
LINE
8
Black
10
164.95
20
-94.5721
11
164.95
21
-94.1507
0
LINE
8
Black
10
164.95
20
-94.1507
11
164.959
21
-94.0994
0
LINE
8
Black
10
164.959
20
-94.0994
11
164.985
21
-94.0543
0
LINE
8
Black
10
164.985
20
-94.0543
11
165.025
21
-94.0208
0
LINE
8
Black
10
165.025
20
-94.0208
11
165.074
21
-94.003
0
LINE
8
Black
10
165.074
20
-94.003
11
165.126
21
-94.003
0
LINE
8
Black
10
165.126
20
-94.003
11
165.175
21
-94.0208
0
LINE
8
Black
10
163.183
20
-94.5812
11
163.228
21
-94.6072
0
LINE
8
Black
10
163.228
20
-94.6072
11
163.261
21
-94.6471
0
LINE
8
Black
10
163.261
20
-94.6471
11
163.279
21
-94.6961
0
LINE
8
Black
10
163.279
20
-94.6961
11
163.279
21
-94.7482
0
LINE
8
Black
10
163.279
20
-94.7482
11
163.261
21
-94.7971
0
LINE
8
Black
10
163.261
20
-94.7971
11
163.228
21
-94.837
0
LINE
8
Black
10
163.228
20
-94.837
11
163.183
21
-94.8631
0
LINE
8
Black
10
163.183
20
-94.8631
11
163.131
21
-94.8721
0
LINE
8
Black
10
163.131
20
-94.8721
11
161.989
21
-94.8721
0
LINE
8
Black
10
161.989
20
-94.8721
11
161.937
21
-94.8631
0
LINE
8
Black
10
161.937
20
-94.8631
11
161.892
21
-94.837
0
LINE
8
Black
10
161.892
20
-94.837
11
161.859
21
-94.7971
0
LINE
8
Black
10
161.859
20
-94.7971
11
161.841
21
-94.7482
0
LINE
8
Black
10
161.841
20
-94.7482
11
161.841
21
-94.6961
0
LINE
8
Black
10
161.841
20
-94.6961
11
161.859
21
-94.6471
0
LINE
8
Black
10
161.859
20
-94.6471
11
161.892
21
-94.6072
0
LINE
8
Black
10
161.892
20
-94.6072
11
161.937
21
-94.5812
0
LINE
8
Black
10
161.937
20
-94.5812
11
161.989
21
-94.5721
0
LINE
8
Black
10
161.989
20
-94.5721
11
163.131
21
-94.5721
0
LINE
8
Black
10
163.131
20
-94.5721
11
163.183
21
-94.5812
0
LINE
8
Black
10
166.656
20
-90.4511
11
166.663
21
-90.4511
0
LINE
8
Black
10
166.663
20
-90.4511
11
166.669
21
-90.4534
0
LINE
8
Black
10
166.669
20
-90.4534
11
166.676
21
-90.4545
0
LINE
8
Black
10
166.676
20
-90.4545
11
166.681
21
-90.4578
0
LINE
8
Black
10
166.681
20
-90.4578
11
166.688
21
-90.46
0
LINE
8
Black
10
166.688
20
-90.46
11
166.693
21
-90.4643
0
LINE
8
Black
10
166.693
20
-90.4643
11
166.698
21
-90.4675
0
LINE
8
Black
10
166.698
20
-90.4675
11
166.702
21
-90.4726
0
LINE
8
Black
10
166.702
20
-90.4726
11
166.707
21
-90.4768
0
LINE
8
Black
10
166.707
20
-90.4768
11
166.711
21
-90.4825
0
LINE
8
Black
10
166.711
20
-90.4825
11
166.715
21
-90.4875
0
LINE
8
Black
10
166.715
20
-90.4875
11
166.717
21
-90.4937
0
LINE
8
Black
10
166.717
20
-90.4937
11
166.72
21
-90.4993
0
LINE
8
Black
10
166.72
20
-90.4993
11
166.722
21
-90.5058
0
LINE
8
Black
10
166.722
20
-90.5058
11
166.724
21
-90.512
0
LINE
8
Black
10
166.724
20
-90.512
11
166.724
21
-90.5185
0
LINE
8
Black
10
166.724
20
-90.5185
11
166.725
21
-90.525
0
LINE
8
Black
10
166.725
20
-90.525
11
166.725
21
-93.625
0
LINE
8
Black
10
166.725
20
-93.625
11
166.724
21
-93.6315
0
LINE
8
Black
10
166.724
20
-93.6315
11
166.724
21
-93.638
0
LINE
8
Black
10
166.724
20
-93.638
11
166.722
21
-93.6442
0
LINE
8
Black
10
166.722
20
-93.6442
11
166.72
21
-93.6507
0
LINE
8
Black
10
166.72
20
-93.6507
11
166.717
21
-93.6563
0
LINE
8
Black
10
166.717
20
-93.6563
11
166.715
21
-93.6625
0
LINE
8
Black
10
166.715
20
-93.6625
11
166.711
21
-93.6675
0
LINE
8
Black
10
166.711
20
-93.6675
11
166.707
21
-93.6732
0
LINE
8
Black
10
166.707
20
-93.6732
11
166.702
21
-93.6774
0
LINE
8
Black
10
166.702
20
-93.6774
11
166.698
21
-93.6825
0
LINE
8
Black
10
166.698
20
-93.6825
11
166.693
21
-93.6857
0
LINE
8
Black
10
166.693
20
-93.6857
11
166.688
21
-93.69
0
LINE
8
Black
10
166.688
20
-93.69
11
166.681
21
-93.6922
0
LINE
8
Black
10
166.681
20
-93.6922
11
166.676
21
-93.6955
0
LINE
8
Black
10
166.676
20
-93.6955
11
166.669
21
-93.6966
0
LINE
8
Black
10
166.669
20
-93.6966
11
166.663
21
-93.6989
0
LINE
8
Black
10
166.663
20
-93.6989
11
166.656
21
-93.6989
0
LINE
8
Black
10
166.656
20
-93.6989
11
166.65
21
-93.7
0
LINE
8
Black
10
166.65
20
-93.7
11
165.1
21
-93.7
0
LINE
8
Black
10
165.1
20
-93.7
11
165.074
21
-93.6955
0
LINE
8
Black
10
165.074
20
-93.6955
11
165.052
21
-93.6825
0
LINE
8
Black
10
165.052
20
-93.6825
11
165.035
21
-93.6625
0
LINE
8
Black
10
165.035
20
-93.6625
11
165.026
21
-93.638
0
LINE
8
Black
10
165.026
20
-93.638
11
165.026
21
-93.612
0
LINE
8
Black
10
165.026
20
-93.612
11
165.035
21
-93.5875
0
LINE
8
Black
10
165.035
20
-93.5875
11
165.052
21
-93.5675
0
LINE
8
Black
10
165.052
20
-93.5675
11
165.074
21
-93.5545
0
LINE
8
Black
10
165.074
20
-93.5545
11
165.1
21
-93.55
0
LINE
8
Black
10
165.1
20
-93.55
11
166.575
21
-93.55
0
LINE
8
Black
10
166.575
20
-93.55
11
166.575
21
-90.6
0
LINE
8
Black
10
166.575
20
-90.6
11
165.1
21
-90.6
0
LINE
8
Black
10
165.1
20
-90.6
11
165.074
21
-90.5955
0
LINE
8
Black
10
165.074
20
-90.5955
11
165.052
21
-90.5825
0
LINE
8
Black
10
165.052
20
-90.5825
11
165.035
21
-90.5625
0
LINE
8
Black
10
165.035
20
-90.5625
11
165.026
21
-90.538
0
LINE
8
Black
10
165.026
20
-90.538
11
165.026
21
-90.512
0
LINE
8
Black
10
165.026
20
-90.512
11
165.035
21
-90.4875
0
LINE
8
Black
10
165.035
20
-90.4875
11
165.052
21
-90.4675
0
LINE
8
Black
10
165.052
20
-90.4675
11
165.074
21
-90.4545
0
LINE
8
Black
10
165.074
20
-90.4545
11
165.1
21
-90.45
0
LINE
8
Black
10
165.1
20
-90.45
11
166.65
21
-90.45
0
LINE
8
Black
10
166.65
20
-90.45
11
166.656
21
-90.4511
0
LINE
8
Black
10
163.836
20
-90.7311
11
163.843
21
-90.7311
0
LINE
8
Black
10
163.843
20
-90.7311
11
163.849
21
-90.7334
0
LINE
8
Black
10
163.849
20
-90.7334
11
163.856
21
-90.7345
0
LINE
8
Black
10
163.856
20
-90.7345
11
163.861
21
-90.7378
0
LINE
8
Black
10
163.861
20
-90.7378
11
163.867
21
-90.74
0
LINE
8
Black
10
163.867
20
-90.74
11
163.873
21
-90.7443
0
LINE
8
Black
10
163.873
20
-90.7443
11
163.878
21
-90.7475
0
LINE
8
Black
10
163.878
20
-90.7475
11
163.882
21
-90.7526
0
LINE
8
Black
10
163.882
20
-90.7526
11
163.887
21
-90.7568
0
LINE
8
Black
10
163.887
20
-90.7568
11
163.891
21
-90.7625
0
LINE
8
Black
10
163.891
20
-90.7625
11
163.895
21
-90.7675
0
LINE
8
Black
10
163.895
20
-90.7675
11
163.897
21
-90.7737
0
LINE
8
Black
10
163.897
20
-90.7737
11
163.9
21
-90.7793
0
LINE
8
Black
10
163.9
20
-90.7793
11
163.902
21
-90.7858
0
LINE
8
Black
10
163.902
20
-90.7858
11
163.904
21
-90.792
0
LINE
8
Black
10
163.904
20
-90.792
11
163.904
21
-90.7985
0
LINE
8
Black
10
163.904
20
-90.7985
11
163.905
21
-90.805
0
LINE
8
Black
10
163.905
20
-90.805
11
163.905
21
-93.345
0
LINE
8
Black
10
163.905
20
-93.345
11
163.904
21
-93.3515
0
LINE
8
Black
10
163.904
20
-93.3515
11
163.904
21
-93.358
0
LINE
8
Black
10
163.904
20
-93.358
11
163.902
21
-93.3642
0
LINE
8
Black
10
163.902
20
-93.3642
11
163.9
21
-93.3707
0
LINE
8
Black
10
163.9
20
-93.3707
11
163.897
21
-93.3763
0
LINE
8
Black
10
163.897
20
-93.3763
11
163.895
21
-93.3825
0
LINE
8
Black
10
163.895
20
-93.3825
11
163.891
21
-93.3875
0
LINE
8
Black
10
163.891
20
-93.3875
11
163.887
21
-93.3932
0
LINE
8
Black
10
163.887
20
-93.3932
11
163.882
21
-93.3974
0
LINE
8
Black
10
163.882
20
-93.3974
11
163.878
21
-93.4025
0
LINE
8
Black
10
163.878
20
-93.4025
11
163.873
21
-93.4057
0
LINE
8
Black
10
163.873
20
-93.4057
11
163.867
21
-93.41
0
LINE
8
Black
10
163.867
20
-93.41
11
163.861
21
-93.4122
0
LINE
8
Black
10
163.861
20
-93.4122
11
163.856
21
-93.4155
0
LINE
8
Black
10
163.856
20
-93.4155
11
163.849
21
-93.4166
0
LINE
8
Black
10
163.849
20
-93.4166
11
163.843
21
-93.4189
0
LINE
8
Black
10
163.843
20
-93.4189
11
163.836
21
-93.4189
0
LINE
8
Black
10
163.836
20
-93.4189
11
163.83
21
-93.42
0
LINE
8
Black
10
163.83
20
-93.42
11
161.29
21
-93.42
0
LINE
8
Black
10
161.29
20
-93.42
11
161.284
21
-93.4189
0
LINE
8
Black
10
161.284
20
-93.4189
11
161.277
21
-93.4189
0
LINE
8
Black
10
161.277
20
-93.4189
11
161.271
21
-93.4166
0
LINE
8
Black
10
161.271
20
-93.4166
11
161.264
21
-93.4155
0
LINE
8
Black
10
161.264
20
-93.4155
11
161.259
21
-93.4122
0
LINE
8
Black
10
161.259
20
-93.4122
11
161.252
21
-93.41
0
LINE
8
Black
10
161.252
20
-93.41
11
161.247
21
-93.4057
0
LINE
8
Black
10
161.247
20
-93.4057
11
161.242
21
-93.4025
0
LINE
8
Black
10
161.242
20
-93.4025
11
161.238
21
-93.3974
0
LINE
8
Black
10
161.238
20
-93.3974
11
161.233
21
-93.3932
0
LINE
8
Black
10
161.233
20
-93.3932
11
161.229
21
-93.3875
0
LINE
8
Black
10
161.229
20
-93.3875
11
161.225
21
-93.3825
0
LINE
8
Black
10
161.225
20
-93.3825
11
161.223
21
-93.3763
0
LINE
8
Black
10
161.223
20
-93.3763
11
161.22
21
-93.3707
0
LINE
8
Black
10
161.22
20
-93.3707
11
161.218
21
-93.3642
0
LINE
8
Black
10
161.218
20
-93.3642
11
161.216
21
-93.358
0
LINE
8
Black
10
161.216
20
-93.358
11
161.216
21
-93.3515
0
LINE
8
Black
10
161.216
20
-93.3515
11
161.215
21
-93.345
0
LINE
8
Black
10
161.215
20
-93.345
11
161.215
21
-90.805
0
LINE
8
Black
10
161.215
20
-90.805
11
161.216
21
-90.7985
0
LINE
8
Black
10
161.216
20
-90.7985
11
161.216
21
-90.792
0
LINE
8
Black
10
161.216
20
-90.792
11
161.218
21
-90.7858
0
LINE
8
Black
10
161.218
20
-90.7858
11
161.22
21
-90.7793
0
LINE
8
Black
10
161.22
20
-90.7793
11
161.223
21
-90.7737
0
LINE
8
Black
10
161.223
20
-90.7737
11
161.225
21
-90.7675
0
LINE
8
Black
10
161.225
20
-90.7675
11
161.229
21
-90.7625
0
LINE
8
Black
10
161.229
20
-90.7625
11
161.233
21
-90.7568
0
LINE
8
Black
10
161.233
20
-90.7568
11
161.238
21
-90.7526
0
LINE
8
Black
10
161.238
20
-90.7526
11
161.242
21
-90.7475
0
LINE
8
Black
10
161.242
20
-90.7475
11
161.247
21
-90.7443
0
LINE
8
Black
10
161.247
20
-90.7443
11
161.252
21
-90.74
0
LINE
8
Black
10
161.252
20
-90.74
11
161.259
21
-90.7378
0
LINE
8
Black
10
161.259
20
-90.7378
11
161.264
21
-90.7345
0
LINE
8
Black
10
161.264
20
-90.7345
11
161.271
21
-90.7334
0
LINE
8
Black
10
161.271
20
-90.7334
11
161.277
21
-90.7311
0
LINE
8
Black
10
161.277
20
-90.7311
11
161.284
21
-90.7311
0
LINE
8
Black
10
161.284
20
-90.7311
11
161.29
21
-90.73
0
LINE
8
Black
10
161.29
20
-90.73
11
163.83
21
-90.73
0
LINE
8
Black
10
163.83
20
-90.73
11
163.836
21
-90.7311
0
LINE
8
Black
10
161.365
20
-90.88
11
161.365
21
-93.27
0
LINE
8
Black
10
161.365
20
-93.27
11
163.755
21
-93.27
0
LINE
8
Black
10
163.755
20
-93.27
11
163.755
21
-90.88
0
LINE
8
Black
10
163.755
20
-90.88
11
161.365
21
-90.88
0
LINE
8
Black
10
168.034
20
-92.2174
11
168.058
21
-92.229
0
LINE
8
Black
10
168.058
20
-92.229
11
168.076
21
-92.248
0
LINE
8
Black
10
168.076
20
-92.248
11
168.086
21
-92.2719
0
LINE
8
Black
10
168.086
20
-92.2719
11
168.088
21
-92.2979
0
LINE
8
Black
10
168.088
20
-92.2979
11
168.08
21
-92.3228
0
LINE
8
Black
10
168.08
20
-92.3228
11
168.033
21
-92.4181
0
LINE
8
Black
10
168.033
20
-92.4181
11
168.025
21
-92.4277
0
LINE
8
Black
10
168.025
20
-92.4277
11
168.019
21
-92.4376
0
LINE
8
Black
10
168.019
20
-92.4376
11
167.956
21
-92.5
0
LINE
8
Black
10
167.956
20
-92.5
11
168.652
21
-92.5
0
LINE
8
Black
10
168.652
20
-92.5
11
168.652
21
-92.2893
0
LINE
8
Black
10
168.652
20
-92.2893
11
168.657
21
-92.2636
0
LINE
8
Black
10
168.657
20
-92.2636
11
168.67
21
-92.2411
0
LINE
8
Black
10
168.67
20
-92.2411
11
168.69
21
-92.2243
0
LINE
8
Black
10
168.69
20
-92.2243
11
168.714
21
-92.2154
0
LINE
8
Black
10
168.714
20
-92.2154
11
168.74
21
-92.2154
0
LINE
8
Black
10
168.74
20
-92.2154
11
168.765
21
-92.2243
0
LINE
8
Black
10
168.765
20
-92.2243
11
168.785
21
-92.2411
0
LINE
8
Black
10
168.785
20
-92.2411
11
168.798
21
-92.2636
0
LINE
8
Black
10
168.798
20
-92.2636
11
168.802
21
-92.2893
0
LINE
8
Black
10
168.802
20
-92.2893
11
168.802
21
-92.8607
0
LINE
8
Black
10
168.802
20
-92.8607
11
168.798
21
-92.8864
0
LINE
8
Black
10
168.798
20
-92.8864
11
168.785
21
-92.9089
0
LINE
8
Black
10
168.785
20
-92.9089
11
168.765
21
-92.9257
0
LINE
8
Black
10
168.765
20
-92.9257
11
168.74
21
-92.9346
0
LINE
8
Black
10
168.74
20
-92.9346
11
168.714
21
-92.9346
0
LINE
8
Black
10
168.714
20
-92.9346
11
168.69
21
-92.9257
0
LINE
8
Black
10
168.69
20
-92.9257
11
168.67
21
-92.9089
0
LINE
8
Black
10
168.67
20
-92.9089
11
168.657
21
-92.8864
0
LINE
8
Black
10
168.657
20
-92.8864
11
168.652
21
-92.8607
0
LINE
8
Black
10
168.652
20
-92.8607
11
168.652
21
-92.65
0
LINE
8
Black
10
168.652
20
-92.65
11
167.727
21
-92.65
0
LINE
8
Black
10
167.727
20
-92.65
11
167.723
21
-92.6493
0
LINE
8
Black
10
167.723
20
-92.6493
11
167.719
21
-92.6495
0
LINE
8
Black
10
167.719
20
-92.6495
11
167.711
21
-92.647
0
LINE
8
Black
10
167.711
20
-92.647
11
167.702
21
-92.6455
0
LINE
8
Black
10
167.702
20
-92.6455
11
167.698
21
-92.6434
0
LINE
8
Black
10
167.698
20
-92.6434
11
167.694
21
-92.6422
0
LINE
8
Black
10
167.694
20
-92.6422
11
167.687
21
-92.6369
0
LINE
8
Black
10
167.687
20
-92.6369
11
167.679
21
-92.6325
0
LINE
8
Black
10
167.679
20
-92.6325
11
167.677
21
-92.6293
0
LINE
8
Black
10
167.677
20
-92.6293
11
167.673
21
-92.6268
0
LINE
8
Black
10
167.673
20
-92.6268
11
167.668
21
-92.6194
0
LINE
8
Black
10
167.668
20
-92.6194
11
167.662
21
-92.6125
0
LINE
8
Black
10
167.662
20
-92.6125
11
167.661
21
-92.6086
0
LINE
8
Black
10
167.661
20
-92.6086
11
167.659
21
-92.6051
0
LINE
8
Black
10
167.659
20
-92.6051
11
167.657
21
-92.5964
0
LINE
8
Black
10
167.657
20
-92.5964
11
167.654
21
-92.588
0
LINE
8
Black
10
167.654
20
-92.588
11
167.654
21
-92.5839
0
LINE
8
Black
10
167.654
20
-92.5839
11
167.653
21
-92.5798
0
LINE
8
Black
10
167.653
20
-92.5798
11
167.654
21
-92.5709
0
LINE
8
Black
10
167.654
20
-92.5709
11
167.654
21
-92.562
0
LINE
8
Black
10
167.654
20
-92.562
11
167.655
21
-92.5581
0
LINE
8
Black
10
167.655
20
-92.5581
11
167.655
21
-92.5539
0
LINE
8
Black
10
167.655
20
-92.5539
11
167.659
21
-92.5459
0
LINE
8
Black
10
167.659
20
-92.5459
11
167.662
21
-92.5375
0
LINE
8
Black
10
167.662
20
-92.5375
11
167.665
21
-92.5343
0
LINE
8
Black
10
167.665
20
-92.5343
11
167.667
21
-92.5306
0
LINE
8
Black
10
167.667
20
-92.5306
11
167.673
21
-92.5244
0
LINE
8
Black
10
167.673
20
-92.5244
11
167.679
21
-92.5175
0
LINE
8
Black
10
167.679
20
-92.5175
11
167.683
21
-92.5155
0
LINE
8
Black
10
167.683
20
-92.5155
11
167.686
21
-92.5126
0
LINE
8
Black
10
167.686
20
-92.5126
11
167.822
21
-92.4215
0
LINE
8
Black
10
167.822
20
-92.4215
11
167.904
21
-92.3401
0
LINE
8
Black
10
167.904
20
-92.3401
11
167.946
21
-92.2557
0
LINE
8
Black
10
167.946
20
-92.2557
11
167.962
21
-92.2348
0
LINE
8
Black
10
167.962
20
-92.2348
11
167.983
21
-92.2205
0
LINE
8
Black
10
167.983
20
-92.2205
11
168.009
21
-92.2144
0
LINE
8
Black
10
168.009
20
-92.2144
11
168.034
21
-92.2174
0
LINE
8
Black
10
168.753
20
-91.2664
11
168.776
21
-91.2795
0
LINE
8
Black
10
168.776
20
-91.2795
11
168.792
21
-91.2994
0
LINE
8
Black
10
168.792
20
-91.2994
11
168.801
21
-91.3239
0
LINE
8
Black
10
168.801
20
-91.3239
11
168.801
21
-91.3499
0
LINE
8
Black
10
168.801
20
-91.3499
11
168.792
21
-91.3744
0
LINE
8
Black
10
168.792
20
-91.3744
11
168.776
21
-91.3944
0
LINE
8
Black
10
168.776
20
-91.3944
11
168.753
21
-91.4074
0
LINE
8
Black
10
168.753
20
-91.4074
11
168.727
21
-91.4119
0
LINE
8
Black
10
168.727
20
-91.4119
11
168.326
21
-91.4119
0
LINE
8
Black
10
168.326
20
-91.4119
11
168.326
21
-91.7179
0
LINE
8
Black
10
168.326
20
-91.7179
11
168.325
21
-91.7221
0
LINE
8
Black
10
168.325
20
-91.7221
11
168.326
21
-91.7264
0
LINE
8
Black
10
168.326
20
-91.7264
11
168.323
21
-91.7349
0
LINE
8
Black
10
168.323
20
-91.7349
11
168.322
21
-91.7435
0
LINE
8
Black
10
168.322
20
-91.7435
11
168.32
21
-91.7473
0
LINE
8
Black
10
168.32
20
-91.7473
11
168.318
21
-91.7514
0
LINE
8
Black
10
168.318
20
-91.7514
11
168.271
21
-91.8466
0
LINE
8
Black
10
168.271
20
-91.8466
11
168.263
21
-91.8563
0
LINE
8
Black
10
168.263
20
-91.8563
11
168.257
21
-91.8661
0
LINE
8
Black
10
168.257
20
-91.8661
11
168.209
21
-91.9137
0
LINE
8
Black
10
168.209
20
-91.9137
11
168.199
21
-91.9206
0
LINE
8
Black
10
168.199
20
-91.9206
11
168.189
21
-91.9278
0
LINE
8
Black
10
168.189
20
-91.9278
11
168.094
21
-91.9754
0
LINE
8
Black
10
168.094
20
-91.9754
11
168.09
21
-91.9766
0
LINE
8
Black
10
168.09
20
-91.9766
11
168.086
21
-91.9788
0
LINE
8
Black
10
168.086
20
-91.9788
11
168.078
21
-91.9803
0
LINE
8
Black
10
168.078
20
-91.9803
11
168.069
21
-91.9828
0
LINE
8
Black
10
168.069
20
-91.9828
11
168.065
21
-91.9826
0
LINE
8
Black
10
168.065
20
-91.9826
11
168.061
21
-91.9833
0
LINE
8
Black
10
168.061
20
-91.9833
11
167.918
21
-91.9833
0
LINE
8
Black
10
167.918
20
-91.9833
11
167.914
21
-91.9826
0
LINE
8
Black
10
167.914
20
-91.9826
11
167.909
21
-91.9828
0
LINE
8
Black
10
167.909
20
-91.9828
11
167.901
21
-91.9803
0
LINE
8
Black
10
167.901
20
-91.9803
11
167.892
21
-91.9788
0
LINE
8
Black
10
167.892
20
-91.9788
11
167.888
21
-91.9766
0
LINE
8
Black
10
167.888
20
-91.9766
11
167.884
21
-91.9754
0
LINE
8
Black
10
167.884
20
-91.9754
11
167.789
21
-91.9278
0
LINE
8
Black
10
167.789
20
-91.9278
11
167.779
21
-91.9206
0
LINE
8
Black
10
167.779
20
-91.9206
11
167.77
21
-91.9137
0
LINE
8
Black
10
167.77
20
-91.9137
11
167.722
21
-91.8661
0
LINE
8
Black
10
167.722
20
-91.8661
11
167.715
21
-91.8563
0
LINE
8
Black
10
167.715
20
-91.8563
11
167.708
21
-91.8466
0
LINE
8
Black
10
167.708
20
-91.8466
11
167.66
21
-91.7514
0
LINE
8
Black
10
167.66
20
-91.7514
11
167.659
21
-91.7473
0
LINE
8
Black
10
167.659
20
-91.7473
11
167.657
21
-91.7435
0
LINE
8
Black
10
167.657
20
-91.7435
11
167.655
21
-91.7349
0
LINE
8
Black
10
167.655
20
-91.7349
11
167.653
21
-91.7264
0
LINE
8
Black
10
167.653
20
-91.7264
11
167.653
21
-91.7221
0
LINE
8
Black
10
167.653
20
-91.7221
11
167.652
21
-91.7179
0
LINE
8
Black
10
167.652
20
-91.7179
11
167.652
21
-91.3369
0
LINE
8
Black
10
167.652
20
-91.3369
11
167.654
21
-91.3304
0
LINE
8
Black
10
167.654
20
-91.3304
11
167.654
21
-91.3239
0
LINE
8
Black
10
167.654
20
-91.3239
11
167.656
21
-91.3177
0
LINE
8
Black
10
167.656
20
-91.3177
11
167.657
21
-91.3113
0
LINE
8
Black
10
167.657
20
-91.3113
11
167.66
21
-91.3056
0
LINE
8
Black
10
167.66
20
-91.3056
11
167.662
21
-91.2994
0
LINE
8
Black
10
167.662
20
-91.2994
11
167.667
21
-91.2944
0
LINE
8
Black
10
167.667
20
-91.2944
11
167.67
21
-91.2887
0
LINE
8
Black
10
167.67
20
-91.2887
11
167.675
21
-91.2845
0
LINE
8
Black
10
167.675
20
-91.2845
11
167.679
21
-91.2795
0
LINE
8
Black
10
167.679
20
-91.2795
11
167.685
21
-91.2762
0
LINE
8
Black
10
167.685
20
-91.2762
11
167.69
21
-91.272
0
LINE
8
Black
10
167.69
20
-91.272
11
167.696
21
-91.2697
0
LINE
8
Black
10
167.696
20
-91.2697
11
167.702
21
-91.2664
0
LINE
8
Black
10
167.702
20
-91.2664
11
167.708
21
-91.2653
0
LINE
8
Black
10
167.708
20
-91.2653
11
167.714
21
-91.263
0
LINE
8
Black
10
167.714
20
-91.263
11
167.721
21
-91.263
0
LINE
8
Black
10
167.721
20
-91.263
11
167.727
21
-91.2619
0
LINE
8
Black
10
167.727
20
-91.2619
11
168.727
21
-91.2619
0
LINE
8
Black
10
168.727
20
-91.2619
11
168.753
21
-91.2664
0
LINE
8
Black
10
167.802
20
-91.4119
11
167.802
21
-91.7002
0
LINE
8
Black
10
167.802
20
-91.7002
11
167.837
21
-91.7687
0
LINE
8
Black
10
167.837
20
-91.7687
11
167.867
21
-91.7991
0
LINE
8
Black
10
167.867
20
-91.7991
11
167.936
21
-91.8333
0
LINE
8
Black
10
167.936
20
-91.8333
11
168.043
21
-91.8333
0
LINE
8
Black
10
168.043
20
-91.8333
11
168.112
21
-91.7991
0
LINE
8
Black
10
168.112
20
-91.7991
11
168.142
21
-91.7687
0
LINE
8
Black
10
168.142
20
-91.7687
11
168.176
21
-91.7002
0
LINE
8
Black
10
168.176
20
-91.7002
11
168.176
21
-91.4119
0
LINE
8
Black
10
168.176
20
-91.4119
11
167.802
21
-91.4119
  0
ENDSEC
  0
EOF
