  0
SECTION
  2
HEADER
  9
$ANGBASE
  50
0.0
  9
$ANGDIR
  70
  1
  9
$MEASUREMENT
  70
0
  0
ENDSEC
  0
SECTION
  2
TABLES
  0
TABLE
  2
LTYPE
  70
1
  0
LTYPE
  2
CONTINUOUS
  70
0
  3
Solid line
  72
65
  73
0
  40
0.0
  0
ENDTAB
  0
TABLE
  2
STYLE
  70
4
  0
STYLE
  2
KICAD
  70
0
  40
0
  41
1
  42
1
  50
0
  71
0
  3
isocp.shx
  0
STYLE
  2
KICADB
  70
0
  40
0
  41
1
  42
1
  50
0
  71
0
  3
isocp.shx
  0
STYLE
  2
KICADI
  70
0
  40
0
  41
1
  42
1
  50
15
  71
0
  3
isocp.shx
  0
STYLE
  2
KICADBI
  70
0
  40
0
  41
1
  42
1
  50
15
  71
0
  3
isocp.shx
  0
ENDTAB
  0
TABLE
  2
LAYER
  70
30
  0
LAYER
  2
BLACK
  70
0
  62
7
  6
CONTINUOUS
  0
LAYER
  2
GRAY1
  70
0
  62
251
  6
CONTINUOUS
  0
LAYER
  2
GRAY2
  70
0
  62
8
  6
CONTINUOUS
  0
LAYER
  2
GRAY3
  70
0
  62
9
  6
CONTINUOUS
  0
LAYER
  2
WHITE
  70
0
  62
7
  6
CONTINUOUS
  0
LAYER
  2
LYELLOW
  70
0
  62
51
  6
CONTINUOUS
  0
LAYER
  2
BLUE1
  70
0
  62
178
  6
CONTINUOUS
  0
LAYER
  2
GREEN1
  70
0
  62
98
  6
CONTINUOUS
  0
LAYER
  2
CYAN1
  70
0
  62
138
  6
CONTINUOUS
  0
LAYER
  2
RED1
  70
0
  62
18
  6
CONTINUOUS
  0
LAYER
  2
MAGENTA1
  70
0
  62
228
  6
CONTINUOUS
  0
LAYER
  2
BROWN1
  70
0
  62
58
  6
CONTINUOUS
  0
LAYER
  2
BLUE2
  70
0
  62
5
  6
CONTINUOUS
  0
LAYER
  2
GREEN2
  70
0
  62
3
  6
CONTINUOUS
  0
LAYER
  2
CYAN2
  70
0
  62
4
  6
CONTINUOUS
  0
LAYER
  2
RED2
  70
0
  62
1
  6
CONTINUOUS
  0
LAYER
  2
MAGENTA2
  70
0
  62
6
  6
CONTINUOUS
  0
LAYER
  2
BROWN2
  70
0
  62
54
  6
CONTINUOUS
  0
LAYER
  2
BLUE3
  70
0
  62
171
  6
CONTINUOUS
  0
LAYER
  2
GREEN3
  70
0
  62
91
  6
CONTINUOUS
  0
LAYER
  2
CYAN3
  70
0
  62
131
  6
CONTINUOUS
  0
LAYER
  2
RED3
  70
0
  62
11
  6
CONTINUOUS
  0
LAYER
  2
MAGENTA3
  70
0
  62
221
  6
CONTINUOUS
  0
LAYER
  2
YELLOW3
  70
0
  62
2
  6
CONTINUOUS
  0
LAYER
  2
BLUE4
  70
0
  62
5
  6
CONTINUOUS
  0
LAYER
  2
GREEN4
  70
0
  62
3
  6
CONTINUOUS
  0
LAYER
  2
CYAN4
  70
0
  62
4
  6
CONTINUOUS
  0
LAYER
  2
RED4
  70
0
  62
1
  6
CONTINUOUS
  0
LAYER
  2
MAGENTA4
  70
0
  62
6
  6
CONTINUOUS
  0
LAYER
  2
YELLOW4
  70
0
  62
2
  6
CONTINUOUS
  0
ENDTAB
  0
ENDSEC
  0
SECTION
  2
ENTITIES
0
LINE
8
Black
10
164.16
20
-112.758
11
164.451
21
-112.925
0
LINE
8
Black
10
164.451
20
-112.925
11
164.666
21
-113.182
0
LINE
8
Black
10
164.666
20
-113.182
11
164.781
21
-113.497
0
LINE
8
Black
10
164.781
20
-113.497
11
164.781
21
-113.833
0
LINE
8
Black
10
164.781
20
-113.833
11
164.666
21
-114.148
0
LINE
8
Black
10
164.666
20
-114.148
11
164.451
21
-114.405
0
LINE
8
Black
10
164.451
20
-114.405
11
164.16
21
-114.572
0
LINE
8
Black
10
164.16
20
-114.572
11
163.83
21
-114.631
0
LINE
8
Black
10
163.83
20
-114.631
11
163.5
21
-114.572
0
LINE
8
Black
10
163.5
20
-114.572
11
163.209
21
-114.405
0
LINE
8
Black
10
163.209
20
-114.405
11
162.994
21
-114.148
0
LINE
8
Black
10
162.994
20
-114.148
11
162.879
21
-113.833
0
LINE
8
Black
10
162.879
20
-113.833
11
162.879
21
-113.497
0
LINE
8
Black
10
162.879
20
-113.497
11
162.994
21
-113.182
0
LINE
8
Black
10
162.994
20
-113.182
11
163.209
21
-112.925
0
LINE
8
Black
10
163.209
20
-112.925
11
163.5
21
-112.758
0
LINE
8
Black
10
163.5
20
-112.758
11
163.83
21
-112.699
0
LINE
8
Black
10
163.83
20
-112.699
11
164.16
21
-112.758
0
LINE
8
Black
10
161.62
20
-112.758
11
161.911
21
-112.925
0
LINE
8
Black
10
161.911
20
-112.925
11
162.126
21
-113.182
0
LINE
8
Black
10
162.126
20
-113.182
11
162.241
21
-113.497
0
LINE
8
Black
10
162.241
20
-113.497
11
162.241
21
-113.833
0
LINE
8
Black
10
162.241
20
-113.833
11
162.126
21
-114.148
0
LINE
8
Black
10
162.126
20
-114.148
11
161.911
21
-114.405
0
LINE
8
Black
10
161.911
20
-114.405
11
161.62
21
-114.572
0
LINE
8
Black
10
161.62
20
-114.572
11
161.29
21
-114.631
0
LINE
8
Black
10
161.29
20
-114.631
11
160.96
21
-114.572
0
LINE
8
Black
10
160.96
20
-114.572
11
160.669
21
-114.405
0
LINE
8
Black
10
160.669
20
-114.405
11
160.454
21
-114.148
0
LINE
8
Black
10
160.454
20
-114.148
11
160.339
21
-113.833
0
LINE
8
Black
10
160.339
20
-113.833
11
160.339
21
-113.497
0
LINE
8
Black
10
160.339
20
-113.497
11
160.454
21
-113.182
0
LINE
8
Black
10
160.454
20
-113.182
11
160.669
21
-112.925
0
LINE
8
Black
10
160.669
20
-112.925
11
160.96
21
-112.758
0
LINE
8
Black
10
160.96
20
-112.758
11
161.29
21
-112.699
0
LINE
8
Black
10
161.29
20
-112.699
11
161.62
21
-112.758
0
LINE
8
Black
10
159.08
20
-112.758
11
159.371
21
-112.925
0
LINE
8
Black
10
159.371
20
-112.925
11
159.586
21
-113.182
0
LINE
8
Black
10
159.586
20
-113.182
11
159.701
21
-113.497
0
LINE
8
Black
10
159.701
20
-113.497
11
159.701
21
-113.833
0
LINE
8
Black
10
159.701
20
-113.833
11
159.586
21
-114.148
0
LINE
8
Black
10
159.586
20
-114.148
11
159.371
21
-114.405
0
LINE
8
Black
10
159.371
20
-114.405
11
159.08
21
-114.572
0
LINE
8
Black
10
159.08
20
-114.572
11
158.75
21
-114.631
0
LINE
8
Black
10
158.75
20
-114.631
11
158.42
21
-114.572
0
LINE
8
Black
10
158.42
20
-114.572
11
158.129
21
-114.405
0
LINE
8
Black
10
158.129
20
-114.405
11
157.914
21
-114.148
0
LINE
8
Black
10
157.914
20
-114.148
11
157.799
21
-113.833
0
LINE
8
Black
10
157.799
20
-113.833
11
157.799
21
-113.497
0
LINE
8
Black
10
157.799
20
-113.497
11
157.914
21
-113.182
0
LINE
8
Black
10
157.914
20
-113.182
11
158.129
21
-112.925
0
LINE
8
Black
10
158.129
20
-112.925
11
158.42
21
-112.758
0
LINE
8
Black
10
158.42
20
-112.758
11
158.75
21
-112.699
0
LINE
8
Black
10
158.75
20
-112.699
11
159.08
21
-112.758
0
LINE
8
Black
10
156.54
20
-112.758
11
156.831
21
-112.925
0
LINE
8
Black
10
156.831
20
-112.925
11
157.046
21
-113.182
0
LINE
8
Black
10
157.046
20
-113.182
11
157.161
21
-113.497
0
LINE
8
Black
10
157.161
20
-113.497
11
157.161
21
-113.833
0
LINE
8
Black
10
157.161
20
-113.833
11
157.046
21
-114.148
0
LINE
8
Black
10
157.046
20
-114.148
11
156.831
21
-114.405
0
LINE
8
Black
10
156.831
20
-114.405
11
156.54
21
-114.572
0
LINE
8
Black
10
156.54
20
-114.572
11
156.21
21
-114.631
0
LINE
8
Black
10
156.21
20
-114.631
11
155.88
21
-114.572
0
LINE
8
Black
10
155.88
20
-114.572
11
155.589
21
-114.405
0
LINE
8
Black
10
155.589
20
-114.405
11
155.374
21
-114.148
0
LINE
8
Black
10
155.374
20
-114.148
11
155.259
21
-113.833
0
LINE
8
Black
10
155.259
20
-113.833
11
155.259
21
-113.497
0
LINE
8
Black
10
155.259
20
-113.497
11
155.374
21
-113.182
0
LINE
8
Black
10
155.374
20
-113.182
11
155.589
21
-112.925
0
LINE
8
Black
10
155.589
20
-112.925
11
155.88
21
-112.758
0
LINE
8
Black
10
155.88
20
-112.758
11
156.21
21
-112.699
0
LINE
8
Black
10
156.21
20
-112.699
11
156.54
21
-112.758
0
LINE
8
Black
10
154
20
-112.758
11
154.291
21
-112.925
0
LINE
8
Black
10
154.291
20
-112.925
11
154.506
21
-113.182
0
LINE
8
Black
10
154.506
20
-113.182
11
154.621
21
-113.497
0
LINE
8
Black
10
154.621
20
-113.497
11
154.621
21
-113.833
0
LINE
8
Black
10
154.621
20
-113.833
11
154.506
21
-114.148
0
LINE
8
Black
10
154.506
20
-114.148
11
154.291
21
-114.405
0
LINE
8
Black
10
154.291
20
-114.405
11
154
21
-114.572
0
LINE
8
Black
10
154
20
-114.572
11
153.67
21
-114.631
0
LINE
8
Black
10
153.67
20
-114.631
11
153.34
21
-114.572
0
LINE
8
Black
10
153.34
20
-114.572
11
153.049
21
-114.405
0
LINE
8
Black
10
153.049
20
-114.405
11
152.834
21
-114.148
0
LINE
8
Black
10
152.834
20
-114.148
11
152.719
21
-113.833
0
LINE
8
Black
10
152.719
20
-113.833
11
152.719
21
-113.497
0
LINE
8
Black
10
152.719
20
-113.497
11
152.834
21
-113.182
0
LINE
8
Black
10
152.834
20
-113.182
11
153.049
21
-112.925
0
LINE
8
Black
10
153.049
20
-112.925
11
153.34
21
-112.758
0
LINE
8
Black
10
153.34
20
-112.758
11
153.67
21
-112.699
0
LINE
8
Black
10
153.67
20
-112.699
11
154
21
-112.758
0
LINE
8
Black
10
136.22
20
-112.758
11
136.511
21
-112.925
0
LINE
8
Black
10
136.511
20
-112.925
11
136.726
21
-113.182
0
LINE
8
Black
10
136.726
20
-113.182
11
136.841
21
-113.497
0
LINE
8
Black
10
136.841
20
-113.497
11
136.841
21
-113.833
0
LINE
8
Black
10
136.841
20
-113.833
11
136.726
21
-114.148
0
LINE
8
Black
10
136.726
20
-114.148
11
136.511
21
-114.405
0
LINE
8
Black
10
136.511
20
-114.405
11
136.22
21
-114.572
0
LINE
8
Black
10
136.22
20
-114.572
11
135.89
21
-114.631
0
LINE
8
Black
10
135.89
20
-114.631
11
135.56
21
-114.572
0
LINE
8
Black
10
135.56
20
-114.572
11
135.269
21
-114.405
0
LINE
8
Black
10
135.269
20
-114.405
11
135.054
21
-114.148
0
LINE
8
Black
10
135.054
20
-114.148
11
134.939
21
-113.833
0
LINE
8
Black
10
134.939
20
-113.833
11
134.939
21
-113.497
0
LINE
8
Black
10
134.939
20
-113.497
11
135.054
21
-113.182
0
LINE
8
Black
10
135.054
20
-113.182
11
135.269
21
-112.925
0
LINE
8
Black
10
135.269
20
-112.925
11
135.56
21
-112.758
0
LINE
8
Black
10
135.56
20
-112.758
11
135.89
21
-112.699
0
LINE
8
Black
10
135.89
20
-112.699
11
136.22
21
-112.758
0
LINE
8
Black
10
138.76
20
-112.758
11
139.051
21
-112.925
0
LINE
8
Black
10
139.051
20
-112.925
11
139.266
21
-113.182
0
LINE
8
Black
10
139.266
20
-113.182
11
139.381
21
-113.497
0
LINE
8
Black
10
139.381
20
-113.497
11
139.381
21
-113.833
0
LINE
8
Black
10
139.381
20
-113.833
11
139.266
21
-114.148
0
LINE
8
Black
10
139.266
20
-114.148
11
139.051
21
-114.405
0
LINE
8
Black
10
139.051
20
-114.405
11
138.76
21
-114.572
0
LINE
8
Black
10
138.76
20
-114.572
11
138.43
21
-114.631
0
LINE
8
Black
10
138.43
20
-114.631
11
138.1
21
-114.572
0
LINE
8
Black
10
138.1
20
-114.572
11
137.809
21
-114.405
0
LINE
8
Black
10
137.809
20
-114.405
11
137.594
21
-114.148
0
LINE
8
Black
10
137.594
20
-114.148
11
137.479
21
-113.833
0
LINE
8
Black
10
137.479
20
-113.833
11
137.479
21
-113.497
0
LINE
8
Black
10
137.479
20
-113.497
11
137.594
21
-113.182
0
LINE
8
Black
10
137.594
20
-113.182
11
137.809
21
-112.925
0
LINE
8
Black
10
137.809
20
-112.925
11
138.1
21
-112.758
0
LINE
8
Black
10
138.1
20
-112.758
11
138.43
21
-112.699
0
LINE
8
Black
10
138.43
20
-112.699
11
138.76
21
-112.758
0
LINE
8
Black
10
141.3
20
-112.758
11
141.591
21
-112.925
0
LINE
8
Black
10
141.591
20
-112.925
11
141.806
21
-113.182
0
LINE
8
Black
10
141.806
20
-113.182
11
141.921
21
-113.497
0
LINE
8
Black
10
141.921
20
-113.497
11
141.921
21
-113.833
0
LINE
8
Black
10
141.921
20
-113.833
11
141.806
21
-114.148
0
LINE
8
Black
10
141.806
20
-114.148
11
141.591
21
-114.405
0
LINE
8
Black
10
141.591
20
-114.405
11
141.3
21
-114.572
0
LINE
8
Black
10
141.3
20
-114.572
11
140.97
21
-114.631
0
LINE
8
Black
10
140.97
20
-114.631
11
140.64
21
-114.572
0
LINE
8
Black
10
140.64
20
-114.572
11
140.349
21
-114.405
0
LINE
8
Black
10
140.349
20
-114.405
11
140.134
21
-114.148
0
LINE
8
Black
10
140.134
20
-114.148
11
140.019
21
-113.833
0
LINE
8
Black
10
140.019
20
-113.833
11
140.019
21
-113.497
0
LINE
8
Black
10
140.019
20
-113.497
11
140.134
21
-113.182
0
LINE
8
Black
10
140.134
20
-113.182
11
140.349
21
-112.925
0
LINE
8
Black
10
140.349
20
-112.925
11
140.64
21
-112.758
0
LINE
8
Black
10
140.64
20
-112.758
11
140.97
21
-112.699
0
LINE
8
Black
10
140.97
20
-112.699
11
141.3
21
-112.758
0
LINE
8
Black
10
143.84
20
-112.758
11
144.131
21
-112.925
0
LINE
8
Black
10
144.131
20
-112.925
11
144.346
21
-113.182
0
LINE
8
Black
10
144.346
20
-113.182
11
144.461
21
-113.497
0
LINE
8
Black
10
144.461
20
-113.497
11
144.461
21
-113.833
0
LINE
8
Black
10
144.461
20
-113.833
11
144.346
21
-114.148
0
LINE
8
Black
10
144.346
20
-114.148
11
144.131
21
-114.405
0
LINE
8
Black
10
144.131
20
-114.405
11
143.84
21
-114.572
0
LINE
8
Black
10
143.84
20
-114.572
11
143.51
21
-114.631
0
LINE
8
Black
10
143.51
20
-114.631
11
143.18
21
-114.572
0
LINE
8
Black
10
143.18
20
-114.572
11
142.889
21
-114.405
0
LINE
8
Black
10
142.889
20
-114.405
11
142.674
21
-114.148
0
LINE
8
Black
10
142.674
20
-114.148
11
142.559
21
-113.833
0
LINE
8
Black
10
142.559
20
-113.833
11
142.559
21
-113.497
0
LINE
8
Black
10
142.559
20
-113.497
11
142.674
21
-113.182
0
LINE
8
Black
10
142.674
20
-113.182
11
142.889
21
-112.925
0
LINE
8
Black
10
142.889
20
-112.925
11
143.18
21
-112.758
0
LINE
8
Black
10
143.18
20
-112.758
11
143.51
21
-112.699
0
LINE
8
Black
10
143.51
20
-112.699
11
143.84
21
-112.758
0
LINE
8
Black
10
146.38
20
-112.758
11
146.671
21
-112.925
0
LINE
8
Black
10
146.671
20
-112.925
11
146.886
21
-113.182
0
LINE
8
Black
10
146.886
20
-113.182
11
147.001
21
-113.497
0
LINE
8
Black
10
147.001
20
-113.497
11
147.001
21
-113.833
0
LINE
8
Black
10
147.001
20
-113.833
11
146.886
21
-114.148
0
LINE
8
Black
10
146.886
20
-114.148
11
146.671
21
-114.405
0
LINE
8
Black
10
146.671
20
-114.405
11
146.38
21
-114.572
0
LINE
8
Black
10
146.38
20
-114.572
11
146.05
21
-114.631
0
LINE
8
Black
10
146.05
20
-114.631
11
145.72
21
-114.572
0
LINE
8
Black
10
145.72
20
-114.572
11
145.429
21
-114.405
0
LINE
8
Black
10
145.429
20
-114.405
11
145.214
21
-114.148
0
LINE
8
Black
10
145.214
20
-114.148
11
145.099
21
-113.833
0
LINE
8
Black
10
145.099
20
-113.833
11
145.099
21
-113.497
0
LINE
8
Black
10
145.099
20
-113.497
11
145.214
21
-113.182
0
LINE
8
Black
10
145.214
20
-113.182
11
145.429
21
-112.925
0
LINE
8
Black
10
145.429
20
-112.925
11
145.72
21
-112.758
0
LINE
8
Black
10
145.72
20
-112.758
11
146.05
21
-112.699
0
LINE
8
Black
10
146.05
20
-112.699
11
146.38
21
-112.758
0
LINE
8
Black
10
148.92
20
-112.758
11
149.211
21
-112.925
0
LINE
8
Black
10
149.211
20
-112.925
11
149.426
21
-113.182
0
LINE
8
Black
10
149.426
20
-113.182
11
149.541
21
-113.497
0
LINE
8
Black
10
149.541
20
-113.497
11
149.541
21
-113.833
0
LINE
8
Black
10
149.541
20
-113.833
11
149.426
21
-114.148
0
LINE
8
Black
10
149.426
20
-114.148
11
149.211
21
-114.405
0
LINE
8
Black
10
149.211
20
-114.405
11
148.92
21
-114.572
0
LINE
8
Black
10
148.92
20
-114.572
11
148.59
21
-114.631
0
LINE
8
Black
10
148.59
20
-114.631
11
148.26
21
-114.572
0
LINE
8
Black
10
148.26
20
-114.572
11
147.969
21
-114.405
0
LINE
8
Black
10
147.969
20
-114.405
11
147.754
21
-114.148
0
LINE
8
Black
10
147.754
20
-114.148
11
147.639
21
-113.833
0
LINE
8
Black
10
147.639
20
-113.833
11
147.639
21
-113.497
0
LINE
8
Black
10
147.639
20
-113.497
11
147.754
21
-113.182
0
LINE
8
Black
10
147.754
20
-113.182
11
147.969
21
-112.925
0
LINE
8
Black
10
147.969
20
-112.925
11
148.26
21
-112.758
0
LINE
8
Black
10
148.26
20
-112.758
11
148.59
21
-112.699
0
LINE
8
Black
10
148.59
20
-112.699
11
148.92
21
-112.758
0
LINE
8
Black
10
151.46
20
-112.758
11
151.751
21
-112.925
0
LINE
8
Black
10
151.751
20
-112.925
11
151.966
21
-113.182
0
LINE
8
Black
10
151.966
20
-113.182
11
152.081
21
-113.497
0
LINE
8
Black
10
152.081
20
-113.497
11
152.081
21
-113.833
0
LINE
8
Black
10
152.081
20
-113.833
11
151.966
21
-114.148
0
LINE
8
Black
10
151.966
20
-114.148
11
151.751
21
-114.405
0
LINE
8
Black
10
151.751
20
-114.405
11
151.46
21
-114.572
0
LINE
8
Black
10
151.46
20
-114.572
11
151.13
21
-114.631
0
LINE
8
Black
10
151.13
20
-114.631
11
150.8
21
-114.572
0
LINE
8
Black
10
150.8
20
-114.572
11
150.509
21
-114.405
0
LINE
8
Black
10
150.509
20
-114.405
11
150.294
21
-114.148
0
LINE
8
Black
10
150.294
20
-114.148
11
150.179
21
-113.833
0
LINE
8
Black
10
150.179
20
-113.833
11
150.179
21
-113.497
0
LINE
8
Black
10
150.179
20
-113.497
11
150.294
21
-113.182
0
LINE
8
Black
10
150.294
20
-113.182
11
150.509
21
-112.925
0
LINE
8
Black
10
150.509
20
-112.925
11
150.8
21
-112.758
0
LINE
8
Black
10
150.8
20
-112.758
11
151.13
21
-112.699
0
LINE
8
Black
10
151.13
20
-112.699
11
151.46
21
-112.758
0
LINE
8
Black
10
128.081
20
-111.804
11
128.474
21
-112.03
0
LINE
8
Black
10
128.474
20
-112.03
11
128.765
21
-112.378
0
LINE
8
Black
10
128.765
20
-112.378
11
128.92
21
-112.803
0
LINE
8
Black
10
128.92
20
-112.803
11
128.92
21
-113.257
0
LINE
8
Black
10
128.92
20
-113.257
11
128.765
21
-113.682
0
LINE
8
Black
10
128.765
20
-113.682
11
128.474
21
-114.03
0
LINE
8
Black
10
128.474
20
-114.03
11
128.081
21
-114.256
0
LINE
8
Black
10
128.081
20
-114.256
11
127.635
21
-114.335
0
LINE
8
Black
10
127.635
20
-114.335
11
127.189
21
-114.256
0
LINE
8
Black
10
127.189
20
-114.256
11
126.796
21
-114.03
0
LINE
8
Black
10
126.796
20
-114.03
11
126.505
21
-113.682
0
LINE
8
Black
10
126.505
20
-113.682
11
126.35
21
-113.257
0
LINE
8
Black
10
126.35
20
-113.257
11
126.35
21
-112.803
0
LINE
8
Black
10
126.35
20
-112.803
11
126.505
21
-112.378
0
LINE
8
Black
10
126.505
20
-112.378
11
126.796
21
-112.03
0
LINE
8
Black
10
126.796
20
-112.03
11
127.189
21
-111.804
0
LINE
8
Black
10
127.189
20
-111.804
11
127.635
21
-111.725
0
LINE
8
Black
10
127.635
20
-111.725
11
128.081
21
-111.804
0
LINE
8
Black
10
169.356
20
-111.804
11
169.749
21
-112.03
0
LINE
8
Black
10
169.749
20
-112.03
11
170.04
21
-112.378
0
LINE
8
Black
10
170.04
20
-112.378
11
170.195
21
-112.803
0
LINE
8
Black
10
170.195
20
-112.803
11
170.195
21
-113.257
0
LINE
8
Black
10
170.195
20
-113.257
11
170.04
21
-113.682
0
LINE
8
Black
10
170.04
20
-113.682
11
169.749
21
-114.03
0
LINE
8
Black
10
169.749
20
-114.03
11
169.356
21
-114.256
0
LINE
8
Black
10
169.356
20
-114.256
11
168.91
21
-114.335
0
LINE
8
Black
10
168.91
20
-114.335
11
168.464
21
-114.256
0
LINE
8
Black
10
168.464
20
-114.256
11
168.071
21
-114.03
0
LINE
8
Black
10
168.071
20
-114.03
11
167.78
21
-113.682
0
LINE
8
Black
10
167.78
20
-113.682
11
167.625
21
-113.257
0
LINE
8
Black
10
167.625
20
-113.257
11
167.625
21
-112.803
0
LINE
8
Black
10
167.625
20
-112.803
11
167.78
21
-112.378
0
LINE
8
Black
10
167.78
20
-112.378
11
168.071
21
-112.03
0
LINE
8
Black
10
168.071
20
-112.03
11
168.464
21
-111.804
0
LINE
8
Black
10
168.464
20
-111.804
11
168.91
21
-111.725
0
LINE
8
Black
10
168.91
20
-111.725
11
169.356
21
-111.804
0
LINE
8
Black
10
166.782
20
-107.453
11
167.144
21
-107.662
0
LINE
8
Black
10
167.144
20
-107.662
11
167.413
21
-107.983
0
LINE
8
Black
10
167.413
20
-107.983
11
167.556
21
-108.376
0
LINE
8
Black
10
167.556
20
-108.376
11
167.556
21
-108.794
0
LINE
8
Black
10
167.556
20
-108.794
11
167.413
21
-109.187
0
LINE
8
Black
10
167.413
20
-109.187
11
167.144
21
-109.508
0
LINE
8
Black
10
167.144
20
-109.508
11
166.782
21
-109.717
0
LINE
8
Black
10
166.782
20
-109.717
11
166.37
21
-109.79
0
LINE
8
Black
10
166.37
20
-109.79
11
165.958
21
-109.717
0
LINE
8
Black
10
165.958
20
-109.717
11
165.596
21
-109.508
0
LINE
8
Black
10
165.596
20
-109.508
11
165.327
21
-109.187
0
LINE
8
Black
10
165.327
20
-109.187
11
165.184
21
-108.794
0
LINE
8
Black
10
165.184
20
-108.794
11
165.184
21
-108.376
0
LINE
8
Black
10
165.184
20
-108.376
11
165.327
21
-107.983
0
LINE
8
Black
10
165.327
20
-107.983
11
165.596
21
-107.662
0
LINE
8
Black
10
165.596
20
-107.662
11
165.958
21
-107.453
0
LINE
8
Black
10
165.958
20
-107.453
11
166.37
21
-107.38
0
LINE
8
Black
10
166.37
20
-107.38
11
166.782
21
-107.453
0
LINE
8
Black
10
171.282
20
-107.453
11
171.644
21
-107.662
0
LINE
8
Black
10
171.644
20
-107.662
11
171.913
21
-107.983
0
LINE
8
Black
10
171.913
20
-107.983
11
172.056
21
-108.376
0
LINE
8
Black
10
172.056
20
-108.376
11
172.056
21
-108.794
0
LINE
8
Black
10
172.056
20
-108.794
11
171.913
21
-109.187
0
LINE
8
Black
10
171.913
20
-109.187
11
171.644
21
-109.508
0
LINE
8
Black
10
171.644
20
-109.508
11
171.282
21
-109.717
0
LINE
8
Black
10
171.282
20
-109.717
11
170.87
21
-109.79
0
LINE
8
Black
10
170.87
20
-109.79
11
170.458
21
-109.717
0
LINE
8
Black
10
170.458
20
-109.717
11
170.096
21
-109.508
0
LINE
8
Black
10
170.096
20
-109.508
11
169.827
21
-109.187
0
LINE
8
Black
10
169.827
20
-109.187
11
169.684
21
-108.794
0
LINE
8
Black
10
169.684
20
-108.794
11
169.684
21
-108.376
0
LINE
8
Black
10
169.684
20
-108.376
11
169.827
21
-107.983
0
LINE
8
Black
10
169.827
20
-107.983
11
170.096
21
-107.662
0
LINE
8
Black
10
170.096
20
-107.662
11
170.458
21
-107.453
0
LINE
8
Black
10
170.458
20
-107.453
11
170.87
21
-107.38
0
LINE
8
Black
10
170.87
20
-107.38
11
171.282
21
-107.453
0
LINE
8
Black
10
126.142
20
-107.453
11
126.504
21
-107.662
0
LINE
8
Black
10
126.504
20
-107.662
11
126.773
21
-107.983
0
LINE
8
Black
10
126.773
20
-107.983
11
126.916
21
-108.376
0
LINE
8
Black
10
126.916
20
-108.376
11
126.916
21
-108.794
0
LINE
8
Black
10
126.916
20
-108.794
11
126.773
21
-109.187
0
LINE
8
Black
10
126.773
20
-109.187
11
126.504
21
-109.508
0
LINE
8
Black
10
126.504
20
-109.508
11
126.142
21
-109.717
0
LINE
8
Black
10
126.142
20
-109.717
11
125.73
21
-109.79
0
LINE
8
Black
10
125.73
20
-109.79
11
125.318
21
-109.717
0
LINE
8
Black
10
125.318
20
-109.717
11
124.956
21
-109.508
0
LINE
8
Black
10
124.956
20
-109.508
11
124.687
21
-109.187
0
LINE
8
Black
10
124.687
20
-109.187
11
124.544
21
-108.794
0
LINE
8
Black
10
124.544
20
-108.794
11
124.544
21
-108.376
0
LINE
8
Black
10
124.544
20
-108.376
11
124.687
21
-107.983
0
LINE
8
Black
10
124.687
20
-107.983
11
124.956
21
-107.662
0
LINE
8
Black
10
124.956
20
-107.662
11
125.318
21
-107.453
0
LINE
8
Black
10
125.318
20
-107.453
11
125.73
21
-107.38
0
LINE
8
Black
10
125.73
20
-107.38
11
126.142
21
-107.453
0
LINE
8
Black
10
130.642
20
-107.453
11
131.004
21
-107.662
0
LINE
8
Black
10
131.004
20
-107.662
11
131.273
21
-107.983
0
LINE
8
Black
10
131.273
20
-107.983
11
131.416
21
-108.376
0
LINE
8
Black
10
131.416
20
-108.376
11
131.416
21
-108.794
0
LINE
8
Black
10
131.416
20
-108.794
11
131.273
21
-109.187
0
LINE
8
Black
10
131.273
20
-109.187
11
131.004
21
-109.508
0
LINE
8
Black
10
131.004
20
-109.508
11
130.642
21
-109.717
0
LINE
8
Black
10
130.642
20
-109.717
11
130.23
21
-109.79
0
LINE
8
Black
10
130.23
20
-109.79
11
129.818
21
-109.717
0
LINE
8
Black
10
129.818
20
-109.717
11
129.456
21
-109.508
0
LINE
8
Black
10
129.456
20
-109.508
11
129.187
21
-109.187
0
LINE
8
Black
10
129.187
20
-109.187
11
129.044
21
-108.794
0
LINE
8
Black
10
129.044
20
-108.794
11
129.044
21
-108.376
0
LINE
8
Black
10
129.044
20
-108.376
11
129.187
21
-107.983
0
LINE
8
Black
10
129.187
20
-107.983
11
129.456
21
-107.662
0
LINE
8
Black
10
129.456
20
-107.662
11
129.818
21
-107.453
0
LINE
8
Black
10
129.818
20
-107.453
11
130.23
21
-107.38
0
LINE
8
Black
10
130.23
20
-107.38
11
130.642
21
-107.453
0
LINE
8
Black
10
130.642
20
-100.953
11
131.004
21
-101.162
0
LINE
8
Black
10
131.004
20
-101.162
11
131.273
21
-101.483
0
LINE
8
Black
10
131.273
20
-101.483
11
131.416
21
-101.876
0
LINE
8
Black
10
131.416
20
-101.876
11
131.416
21
-102.294
0
LINE
8
Black
10
131.416
20
-102.294
11
131.273
21
-102.687
0
LINE
8
Black
10
131.273
20
-102.687
11
131.004
21
-103.008
0
LINE
8
Black
10
131.004
20
-103.008
11
130.642
21
-103.217
0
LINE
8
Black
10
130.642
20
-103.217
11
130.23
21
-103.29
0
LINE
8
Black
10
130.23
20
-103.29
11
129.818
21
-103.217
0
LINE
8
Black
10
129.818
20
-103.217
11
129.456
21
-103.008
0
LINE
8
Black
10
129.456
20
-103.008
11
129.187
21
-102.687
0
LINE
8
Black
10
129.187
20
-102.687
11
129.044
21
-102.294
0
LINE
8
Black
10
129.044
20
-102.294
11
129.044
21
-101.876
0
LINE
8
Black
10
129.044
20
-101.876
11
129.187
21
-101.483
0
LINE
8
Black
10
129.187
20
-101.483
11
129.456
21
-101.162
0
LINE
8
Black
10
129.456
20
-101.162
11
129.818
21
-100.953
0
LINE
8
Black
10
129.818
20
-100.953
11
130.23
21
-100.88
0
LINE
8
Black
10
130.23
20
-100.88
11
130.642
21
-100.953
0
LINE
8
Black
10
171.282
20
-100.953
11
171.644
21
-101.162
0
LINE
8
Black
10
171.644
20
-101.162
11
171.913
21
-101.483
0
LINE
8
Black
10
171.913
20
-101.483
11
172.056
21
-101.876
0
LINE
8
Black
10
172.056
20
-101.876
11
172.056
21
-102.294
0
LINE
8
Black
10
172.056
20
-102.294
11
171.913
21
-102.687
0
LINE
8
Black
10
171.913
20
-102.687
11
171.644
21
-103.008
0
LINE
8
Black
10
171.644
20
-103.008
11
171.282
21
-103.217
0
LINE
8
Black
10
171.282
20
-103.217
11
170.87
21
-103.29
0
LINE
8
Black
10
170.87
20
-103.29
11
170.458
21
-103.217
0
LINE
8
Black
10
170.458
20
-103.217
11
170.096
21
-103.008
0
LINE
8
Black
10
170.096
20
-103.008
11
169.827
21
-102.687
0
LINE
8
Black
10
169.827
20
-102.687
11
169.684
21
-102.294
0
LINE
8
Black
10
169.684
20
-102.294
11
169.684
21
-101.876
0
LINE
8
Black
10
169.684
20
-101.876
11
169.827
21
-101.483
0
LINE
8
Black
10
169.827
20
-101.483
11
170.096
21
-101.162
0
LINE
8
Black
10
170.096
20
-101.162
11
170.458
21
-100.953
0
LINE
8
Black
10
170.458
20
-100.953
11
170.87
21
-100.88
0
LINE
8
Black
10
170.87
20
-100.88
11
171.282
21
-100.953
0
LINE
8
Black
10
126.142
20
-100.953
11
126.504
21
-101.162
0
LINE
8
Black
10
126.504
20
-101.162
11
126.773
21
-101.483
0
LINE
8
Black
10
126.773
20
-101.483
11
126.916
21
-101.876
0
LINE
8
Black
10
126.916
20
-101.876
11
126.916
21
-102.294
0
LINE
8
Black
10
126.916
20
-102.294
11
126.773
21
-102.687
0
LINE
8
Black
10
126.773
20
-102.687
11
126.504
21
-103.008
0
LINE
8
Black
10
126.504
20
-103.008
11
126.142
21
-103.217
0
LINE
8
Black
10
126.142
20
-103.217
11
125.73
21
-103.29
0
LINE
8
Black
10
125.73
20
-103.29
11
125.318
21
-103.217
0
LINE
8
Black
10
125.318
20
-103.217
11
124.956
21
-103.008
0
LINE
8
Black
10
124.956
20
-103.008
11
124.687
21
-102.687
0
LINE
8
Black
10
124.687
20
-102.687
11
124.544
21
-102.294
0
LINE
8
Black
10
124.544
20
-102.294
11
124.544
21
-101.876
0
LINE
8
Black
10
124.544
20
-101.876
11
124.687
21
-101.483
0
LINE
8
Black
10
124.687
20
-101.483
11
124.956
21
-101.162
0
LINE
8
Black
10
124.956
20
-101.162
11
125.318
21
-100.953
0
LINE
8
Black
10
125.318
20
-100.953
11
125.73
21
-100.88
0
LINE
8
Black
10
125.73
20
-100.88
11
126.142
21
-100.953
0
LINE
8
Black
10
166.782
20
-100.953
11
167.144
21
-101.162
0
LINE
8
Black
10
167.144
20
-101.162
11
167.413
21
-101.483
0
LINE
8
Black
10
167.413
20
-101.483
11
167.556
21
-101.876
0
LINE
8
Black
10
167.556
20
-101.876
11
167.556
21
-102.294
0
LINE
8
Black
10
167.556
20
-102.294
11
167.413
21
-102.687
0
LINE
8
Black
10
167.413
20
-102.687
11
167.144
21
-103.008
0
LINE
8
Black
10
167.144
20
-103.008
11
166.782
21
-103.217
0
LINE
8
Black
10
166.782
20
-103.217
11
166.37
21
-103.29
0
LINE
8
Black
10
166.37
20
-103.29
11
165.958
21
-103.217
0
LINE
8
Black
10
165.958
20
-103.217
11
165.596
21
-103.008
0
LINE
8
Black
10
165.596
20
-103.008
11
165.327
21
-102.687
0
LINE
8
Black
10
165.327
20
-102.687
11
165.184
21
-102.294
0
LINE
8
Black
10
165.184
20
-102.294
11
165.184
21
-101.876
0
LINE
8
Black
10
165.184
20
-101.876
11
165.327
21
-101.483
0
LINE
8
Black
10
165.327
20
-101.483
11
165.596
21
-101.162
0
LINE
8
Black
10
165.596
20
-101.162
11
165.958
21
-100.953
0
LINE
8
Black
10
165.958
20
-100.953
11
166.37
21
-100.88
0
LINE
8
Black
10
166.37
20
-100.88
11
166.782
21
-100.953
0
LINE
8
Black
10
170.812
20
-97.9632
11
171.068
21
-98.1114
0
LINE
8
Black
10
171.068
20
-98.1114
11
171.259
21
-98.3384
0
LINE
8
Black
10
171.259
20
-98.3384
11
171.36
21
-98.6168
0
LINE
8
Black
10
171.36
20
-98.6168
11
171.36
21
-98.9132
0
LINE
8
Black
10
171.36
20
-98.9132
11
171.259
21
-99.1916
0
LINE
8
Black
10
171.259
20
-99.1916
11
171.068
21
-99.4186
0
LINE
8
Black
10
171.068
20
-99.4186
11
170.812
21
-99.5668
0
LINE
8
Black
10
170.812
20
-99.5668
11
170.52
21
-99.6182
0
LINE
8
Black
10
170.52
20
-99.6182
11
170.228
21
-99.5668
0
LINE
8
Black
10
170.228
20
-99.5668
11
169.972
21
-99.4186
0
LINE
8
Black
10
169.972
20
-99.4186
11
169.781
21
-99.1916
0
LINE
8
Black
10
169.781
20
-99.1916
11
169.68
21
-98.9132
0
LINE
8
Black
10
169.68
20
-98.9132
11
169.68
21
-98.6168
0
LINE
8
Black
10
169.68
20
-98.6168
11
169.781
21
-98.3384
0
LINE
8
Black
10
169.781
20
-98.3384
11
169.972
21
-98.1114
0
LINE
8
Black
10
169.972
20
-98.1114
11
170.228
21
-97.9632
0
LINE
8
Black
10
170.228
20
-97.9632
11
170.52
21
-97.9118
0
LINE
8
Black
10
170.52
20
-97.9118
11
170.812
21
-97.9632
0
LINE
8
Black
10
161.62
20
-97.5176
11
161.911
21
-97.6852
0
LINE
8
Black
10
161.911
20
-97.6852
11
162.126
21
-97.9422
0
LINE
8
Black
10
162.126
20
-97.9422
11
162.241
21
-98.2573
0
LINE
8
Black
10
162.241
20
-98.2573
11
162.241
21
-98.5927
0
LINE
8
Black
10
162.241
20
-98.5927
11
162.126
21
-98.9078
0
LINE
8
Black
10
162.126
20
-98.9078
11
161.911
21
-99.1647
0
LINE
8
Black
10
161.911
20
-99.1647
11
161.62
21
-99.3324
0
LINE
8
Black
10
161.62
20
-99.3324
11
161.29
21
-99.3907
0
LINE
8
Black
10
161.29
20
-99.3907
11
160.96
21
-99.3324
0
LINE
8
Black
10
160.96
20
-99.3324
11
160.669
21
-99.1647
0
LINE
8
Black
10
160.669
20
-99.1647
11
160.454
21
-98.9078
0
LINE
8
Black
10
160.454
20
-98.9078
11
160.339
21
-98.5927
0
LINE
8
Black
10
160.339
20
-98.5927
11
160.339
21
-98.2573
0
LINE
8
Black
10
160.339
20
-98.2573
11
160.454
21
-97.9422
0
LINE
8
Black
10
160.454
20
-97.9422
11
160.669
21
-97.6852
0
LINE
8
Black
10
160.669
20
-97.6852
11
160.96
21
-97.5176
0
LINE
8
Black
10
160.96
20
-97.5176
11
161.29
21
-97.4593
0
LINE
8
Black
10
161.29
20
-97.4593
11
161.62
21
-97.5176
0
LINE
8
Black
10
136.22
20
-97.5176
11
136.511
21
-97.6852
0
LINE
8
Black
10
136.511
20
-97.6852
11
136.726
21
-97.9422
0
LINE
8
Black
10
136.726
20
-97.9422
11
136.841
21
-98.2573
0
LINE
8
Black
10
136.841
20
-98.2573
11
136.841
21
-98.5927
0
LINE
8
Black
10
136.841
20
-98.5927
11
136.726
21
-98.9078
0
LINE
8
Black
10
136.726
20
-98.9078
11
136.511
21
-99.1647
0
LINE
8
Black
10
136.511
20
-99.1647
11
136.22
21
-99.3324
0
LINE
8
Black
10
136.22
20
-99.3324
11
135.89
21
-99.3907
0
LINE
8
Black
10
135.89
20
-99.3907
11
135.56
21
-99.3324
0
LINE
8
Black
10
135.56
20
-99.3324
11
135.269
21
-99.1647
0
LINE
8
Black
10
135.269
20
-99.1647
11
135.054
21
-98.9078
0
LINE
8
Black
10
135.054
20
-98.9078
11
134.939
21
-98.5927
0
LINE
8
Black
10
134.939
20
-98.5927
11
134.939
21
-98.2573
0
LINE
8
Black
10
134.939
20
-98.2573
11
135.054
21
-97.9422
0
LINE
8
Black
10
135.054
20
-97.9422
11
135.269
21
-97.6852
0
LINE
8
Black
10
135.269
20
-97.6852
11
135.56
21
-97.5176
0
LINE
8
Black
10
135.56
20
-97.5176
11
135.89
21
-97.4593
0
LINE
8
Black
10
135.89
20
-97.4593
11
136.22
21
-97.5176
0
LINE
8
Black
10
138.76
20
-97.5176
11
139.051
21
-97.6852
0
LINE
8
Black
10
139.051
20
-97.6852
11
139.266
21
-97.9422
0
LINE
8
Black
10
139.266
20
-97.9422
11
139.381
21
-98.2573
0
LINE
8
Black
10
139.381
20
-98.2573
11
139.381
21
-98.5927
0
LINE
8
Black
10
139.381
20
-98.5927
11
139.266
21
-98.9078
0
LINE
8
Black
10
139.266
20
-98.9078
11
139.051
21
-99.1647
0
LINE
8
Black
10
139.051
20
-99.1647
11
138.76
21
-99.3324
0
LINE
8
Black
10
138.76
20
-99.3324
11
138.43
21
-99.3907
0
LINE
8
Black
10
138.43
20
-99.3907
11
138.1
21
-99.3324
0
LINE
8
Black
10
138.1
20
-99.3324
11
137.809
21
-99.1647
0
LINE
8
Black
10
137.809
20
-99.1647
11
137.594
21
-98.9078
0
LINE
8
Black
10
137.594
20
-98.9078
11
137.479
21
-98.5927
0
LINE
8
Black
10
137.479
20
-98.5927
11
137.479
21
-98.2573
0
LINE
8
Black
10
137.479
20
-98.2573
11
137.594
21
-97.9422
0
LINE
8
Black
10
137.594
20
-97.9422
11
137.809
21
-97.6852
0
LINE
8
Black
10
137.809
20
-97.6852
11
138.1
21
-97.5176
0
LINE
8
Black
10
138.1
20
-97.5176
11
138.43
21
-97.4593
0
LINE
8
Black
10
138.43
20
-97.4593
11
138.76
21
-97.5176
0
LINE
8
Black
10
141.3
20
-97.5176
11
141.591
21
-97.6852
0
LINE
8
Black
10
141.591
20
-97.6852
11
141.806
21
-97.9422
0
LINE
8
Black
10
141.806
20
-97.9422
11
141.921
21
-98.2573
0
LINE
8
Black
10
141.921
20
-98.2573
11
141.921
21
-98.5927
0
LINE
8
Black
10
141.921
20
-98.5927
11
141.806
21
-98.9078
0
LINE
8
Black
10
141.806
20
-98.9078
11
141.591
21
-99.1647
0
LINE
8
Black
10
141.591
20
-99.1647
11
141.3
21
-99.3324
0
LINE
8
Black
10
141.3
20
-99.3324
11
140.97
21
-99.3907
0
LINE
8
Black
10
140.97
20
-99.3907
11
140.64
21
-99.3324
0
LINE
8
Black
10
140.64
20
-99.3324
11
140.349
21
-99.1647
0
LINE
8
Black
10
140.349
20
-99.1647
11
140.134
21
-98.9078
0
LINE
8
Black
10
140.134
20
-98.9078
11
140.019
21
-98.5927
0
LINE
8
Black
10
140.019
20
-98.5927
11
140.019
21
-98.2573
0
LINE
8
Black
10
140.019
20
-98.2573
11
140.134
21
-97.9422
0
LINE
8
Black
10
140.134
20
-97.9422
11
140.349
21
-97.6852
0
LINE
8
Black
10
140.349
20
-97.6852
11
140.64
21
-97.5176
0
LINE
8
Black
10
140.64
20
-97.5176
11
140.97
21
-97.4593
0
LINE
8
Black
10
140.97
20
-97.4593
11
141.3
21
-97.5176
0
LINE
8
Black
10
143.84
20
-97.5176
11
144.131
21
-97.6852
0
LINE
8
Black
10
144.131
20
-97.6852
11
144.346
21
-97.9422
0
LINE
8
Black
10
144.346
20
-97.9422
11
144.461
21
-98.2573
0
LINE
8
Black
10
144.461
20
-98.2573
11
144.461
21
-98.5927
0
LINE
8
Black
10
144.461
20
-98.5927
11
144.346
21
-98.9078
0
LINE
8
Black
10
144.346
20
-98.9078
11
144.131
21
-99.1647
0
LINE
8
Black
10
144.131
20
-99.1647
11
143.84
21
-99.3324
0
LINE
8
Black
10
143.84
20
-99.3324
11
143.51
21
-99.3907
0
LINE
8
Black
10
143.51
20
-99.3907
11
143.18
21
-99.3324
0
LINE
8
Black
10
143.18
20
-99.3324
11
142.889
21
-99.1647
0
LINE
8
Black
10
142.889
20
-99.1647
11
142.674
21
-98.9078
0
LINE
8
Black
10
142.674
20
-98.9078
11
142.559
21
-98.5927
0
LINE
8
Black
10
142.559
20
-98.5927
11
142.559
21
-98.2573
0
LINE
8
Black
10
142.559
20
-98.2573
11
142.674
21
-97.9422
0
LINE
8
Black
10
142.674
20
-97.9422
11
142.889
21
-97.6852
0
LINE
8
Black
10
142.889
20
-97.6852
11
143.18
21
-97.5176
0
LINE
8
Black
10
143.18
20
-97.5176
11
143.51
21
-97.4593
0
LINE
8
Black
10
143.51
20
-97.4593
11
143.84
21
-97.5176
0
LINE
8
Black
10
148.92
20
-97.5176
11
149.211
21
-97.6852
0
LINE
8
Black
10
149.211
20
-97.6852
11
149.426
21
-97.9422
0
LINE
8
Black
10
149.426
20
-97.9422
11
149.541
21
-98.2573
0
LINE
8
Black
10
149.541
20
-98.2573
11
149.541
21
-98.5927
0
LINE
8
Black
10
149.541
20
-98.5927
11
149.426
21
-98.9078
0
LINE
8
Black
10
149.426
20
-98.9078
11
149.211
21
-99.1647
0
LINE
8
Black
10
149.211
20
-99.1647
11
148.92
21
-99.3324
0
LINE
8
Black
10
148.92
20
-99.3324
11
148.59
21
-99.3907
0
LINE
8
Black
10
148.59
20
-99.3907
11
148.26
21
-99.3324
0
LINE
8
Black
10
148.26
20
-99.3324
11
147.969
21
-99.1647
0
LINE
8
Black
10
147.969
20
-99.1647
11
147.754
21
-98.9078
0
LINE
8
Black
10
147.754
20
-98.9078
11
147.639
21
-98.5927
0
LINE
8
Black
10
147.639
20
-98.5927
11
147.639
21
-98.2573
0
LINE
8
Black
10
147.639
20
-98.2573
11
147.754
21
-97.9422
0
LINE
8
Black
10
147.754
20
-97.9422
11
147.969
21
-97.6852
0
LINE
8
Black
10
147.969
20
-97.6852
11
148.26
21
-97.5176
0
LINE
8
Black
10
148.26
20
-97.5176
11
148.59
21
-97.4593
0
LINE
8
Black
10
148.59
20
-97.4593
11
148.92
21
-97.5176
0
LINE
8
Black
10
164.16
20
-97.5176
11
164.451
21
-97.6852
0
LINE
8
Black
10
164.451
20
-97.6852
11
164.666
21
-97.9422
0
LINE
8
Black
10
164.666
20
-97.9422
11
164.781
21
-98.2573
0
LINE
8
Black
10
164.781
20
-98.2573
11
164.781
21
-98.5927
0
LINE
8
Black
10
164.781
20
-98.5927
11
164.666
21
-98.9078
0
LINE
8
Black
10
164.666
20
-98.9078
11
164.451
21
-99.1647
0
LINE
8
Black
10
164.451
20
-99.1647
11
164.16
21
-99.3324
0
LINE
8
Black
10
164.16
20
-99.3324
11
163.83
21
-99.3907
0
LINE
8
Black
10
163.83
20
-99.3907
11
163.5
21
-99.3324
0
LINE
8
Black
10
163.5
20
-99.3324
11
163.209
21
-99.1647
0
LINE
8
Black
10
163.209
20
-99.1647
11
162.994
21
-98.9078
0
LINE
8
Black
10
162.994
20
-98.9078
11
162.879
21
-98.5927
0
LINE
8
Black
10
162.879
20
-98.5927
11
162.879
21
-98.2573
0
LINE
8
Black
10
162.879
20
-98.2573
11
162.994
21
-97.9422
0
LINE
8
Black
10
162.994
20
-97.9422
11
163.209
21
-97.6852
0
LINE
8
Black
10
163.209
20
-97.6852
11
163.5
21
-97.5176
0
LINE
8
Black
10
163.5
20
-97.5176
11
163.83
21
-97.4593
0
LINE
8
Black
10
163.83
20
-97.4593
11
164.16
21
-97.5176
0
LINE
8
Black
10
159.08
20
-97.5176
11
159.371
21
-97.6852
0
LINE
8
Black
10
159.371
20
-97.6852
11
159.586
21
-97.9422
0
LINE
8
Black
10
159.586
20
-97.9422
11
159.701
21
-98.2573
0
LINE
8
Black
10
159.701
20
-98.2573
11
159.701
21
-98.5927
0
LINE
8
Black
10
159.701
20
-98.5927
11
159.586
21
-98.9078
0
LINE
8
Black
10
159.586
20
-98.9078
11
159.371
21
-99.1647
0
LINE
8
Black
10
159.371
20
-99.1647
11
159.08
21
-99.3324
0
LINE
8
Black
10
159.08
20
-99.3324
11
158.75
21
-99.3907
0
LINE
8
Black
10
158.75
20
-99.3907
11
158.42
21
-99.3324
0
LINE
8
Black
10
158.42
20
-99.3324
11
158.129
21
-99.1647
0
LINE
8
Black
10
158.129
20
-99.1647
11
157.914
21
-98.9078
0
LINE
8
Black
10
157.914
20
-98.9078
11
157.799
21
-98.5927
0
LINE
8
Black
10
157.799
20
-98.5927
11
157.799
21
-98.2573
0
LINE
8
Black
10
157.799
20
-98.2573
11
157.914
21
-97.9422
0
LINE
8
Black
10
157.914
20
-97.9422
11
158.129
21
-97.6852
0
LINE
8
Black
10
158.129
20
-97.6852
11
158.42
21
-97.5176
0
LINE
8
Black
10
158.42
20
-97.5176
11
158.75
21
-97.4593
0
LINE
8
Black
10
158.75
20
-97.4593
11
159.08
21
-97.5176
0
LINE
8
Black
10
156.54
20
-97.5176
11
156.831
21
-97.6852
0
LINE
8
Black
10
156.831
20
-97.6852
11
157.046
21
-97.9422
0
LINE
8
Black
10
157.046
20
-97.9422
11
157.161
21
-98.2573
0
LINE
8
Black
10
157.161
20
-98.2573
11
157.161
21
-98.5927
0
LINE
8
Black
10
157.161
20
-98.5927
11
157.046
21
-98.9078
0
LINE
8
Black
10
157.046
20
-98.9078
11
156.831
21
-99.1647
0
LINE
8
Black
10
156.831
20
-99.1647
11
156.54
21
-99.3324
0
LINE
8
Black
10
156.54
20
-99.3324
11
156.21
21
-99.3907
0
LINE
8
Black
10
156.21
20
-99.3907
11
155.88
21
-99.3324
0
LINE
8
Black
10
155.88
20
-99.3324
11
155.589
21
-99.1647
0
LINE
8
Black
10
155.589
20
-99.1647
11
155.374
21
-98.9078
0
LINE
8
Black
10
155.374
20
-98.9078
11
155.259
21
-98.5927
0
LINE
8
Black
10
155.259
20
-98.5927
11
155.259
21
-98.2573
0
LINE
8
Black
10
155.259
20
-98.2573
11
155.374
21
-97.9422
0
LINE
8
Black
10
155.374
20
-97.9422
11
155.589
21
-97.6852
0
LINE
8
Black
10
155.589
20
-97.6852
11
155.88
21
-97.5176
0
LINE
8
Black
10
155.88
20
-97.5176
11
156.21
21
-97.4593
0
LINE
8
Black
10
156.21
20
-97.4593
11
156.54
21
-97.5176
0
LINE
8
Black
10
146.38
20
-97.5176
11
146.671
21
-97.6852
0
LINE
8
Black
10
146.671
20
-97.6852
11
146.886
21
-97.9422
0
LINE
8
Black
10
146.886
20
-97.9422
11
147.001
21
-98.2573
0
LINE
8
Black
10
147.001
20
-98.2573
11
147.001
21
-98.5927
0
LINE
8
Black
10
147.001
20
-98.5927
11
146.886
21
-98.9078
0
LINE
8
Black
10
146.886
20
-98.9078
11
146.671
21
-99.1647
0
LINE
8
Black
10
146.671
20
-99.1647
11
146.38
21
-99.3324
0
LINE
8
Black
10
146.38
20
-99.3324
11
146.05
21
-99.3907
0
LINE
8
Black
10
146.05
20
-99.3907
11
145.72
21
-99.3324
0
LINE
8
Black
10
145.72
20
-99.3324
11
145.429
21
-99.1647
0
LINE
8
Black
10
145.429
20
-99.1647
11
145.214
21
-98.9078
0
LINE
8
Black
10
145.214
20
-98.9078
11
145.099
21
-98.5927
0
LINE
8
Black
10
145.099
20
-98.5927
11
145.099
21
-98.2573
0
LINE
8
Black
10
145.099
20
-98.2573
11
145.214
21
-97.9422
0
LINE
8
Black
10
145.214
20
-97.9422
11
145.429
21
-97.6852
0
LINE
8
Black
10
145.429
20
-97.6852
11
145.72
21
-97.5176
0
LINE
8
Black
10
145.72
20
-97.5176
11
146.05
21
-97.4593
0
LINE
8
Black
10
146.05
20
-97.4593
11
146.38
21
-97.5176
0
LINE
8
Black
10
151.46
20
-97.5176
11
151.751
21
-97.6852
0
LINE
8
Black
10
151.751
20
-97.6852
11
151.966
21
-97.9422
0
LINE
8
Black
10
151.966
20
-97.9422
11
152.081
21
-98.2573
0
LINE
8
Black
10
152.081
20
-98.2573
11
152.081
21
-98.5927
0
LINE
8
Black
10
152.081
20
-98.5927
11
151.966
21
-98.9078
0
LINE
8
Black
10
151.966
20
-98.9078
11
151.751
21
-99.1647
0
LINE
8
Black
10
151.751
20
-99.1647
11
151.46
21
-99.3324
0
LINE
8
Black
10
151.46
20
-99.3324
11
151.13
21
-99.3907
0
LINE
8
Black
10
151.13
20
-99.3907
11
150.8
21
-99.3324
0
LINE
8
Black
10
150.8
20
-99.3324
11
150.509
21
-99.1647
0
LINE
8
Black
10
150.509
20
-99.1647
11
150.294
21
-98.9078
0
LINE
8
Black
10
150.294
20
-98.9078
11
150.179
21
-98.5927
0
LINE
8
Black
10
150.179
20
-98.5927
11
150.179
21
-98.2573
0
LINE
8
Black
10
150.179
20
-98.2573
11
150.294
21
-97.9422
0
LINE
8
Black
10
150.294
20
-97.9422
11
150.509
21
-97.6852
0
LINE
8
Black
10
150.509
20
-97.6852
11
150.8
21
-97.5176
0
LINE
8
Black
10
150.8
20
-97.5176
11
151.13
21
-97.4593
0
LINE
8
Black
10
151.13
20
-97.4593
11
151.46
21
-97.5176
0
LINE
8
Black
10
154
20
-97.5176
11
154.291
21
-97.6852
0
LINE
8
Black
10
154.291
20
-97.6852
11
154.506
21
-97.9422
0
LINE
8
Black
10
154.506
20
-97.9422
11
154.621
21
-98.2573
0
LINE
8
Black
10
154.621
20
-98.2573
11
154.621
21
-98.5927
0
LINE
8
Black
10
154.621
20
-98.5927
11
154.506
21
-98.9078
0
LINE
8
Black
10
154.506
20
-98.9078
11
154.291
21
-99.1647
0
LINE
8
Black
10
154.291
20
-99.1647
11
154
21
-99.3324
0
LINE
8
Black
10
154
20
-99.3324
11
153.67
21
-99.3907
0
LINE
8
Black
10
153.67
20
-99.3907
11
153.34
21
-99.3324
0
LINE
8
Black
10
153.34
20
-99.3324
11
153.049
21
-99.1647
0
LINE
8
Black
10
153.049
20
-99.1647
11
152.834
21
-98.9078
0
LINE
8
Black
10
152.834
20
-98.9078
11
152.719
21
-98.5927
0
LINE
8
Black
10
152.719
20
-98.5927
11
152.719
21
-98.2573
0
LINE
8
Black
10
152.719
20
-98.2573
11
152.834
21
-97.9422
0
LINE
8
Black
10
152.834
20
-97.9422
11
153.049
21
-97.6852
0
LINE
8
Black
10
153.049
20
-97.6852
11
153.34
21
-97.5176
0
LINE
8
Black
10
153.34
20
-97.5176
11
153.67
21
-97.4593
0
LINE
8
Black
10
153.67
20
-97.4593
11
154
21
-97.5176
0
LINE
8
Black
10
170.85
20
-95.7076
11
171.141
21
-95.8752
0
LINE
8
Black
10
171.141
20
-95.8752
11
171.356
21
-96.1322
0
LINE
8
Black
10
171.356
20
-96.1322
11
171.471
21
-96.4473
0
LINE
8
Black
10
171.471
20
-96.4473
11
171.471
21
-96.7827
0
LINE
8
Black
10
171.471
20
-96.7827
11
171.356
21
-97.0978
0
LINE
8
Black
10
171.356
20
-97.0978
11
171.141
21
-97.3547
0
LINE
8
Black
10
171.141
20
-97.3547
11
170.85
21
-97.5224
0
LINE
8
Black
10
170.85
20
-97.5224
11
170.52
21
-97.5807
0
LINE
8
Black
10
170.52
20
-97.5807
11
170.19
21
-97.5224
0
LINE
8
Black
10
170.19
20
-97.5224
11
169.899
21
-97.3547
0
LINE
8
Black
10
169.899
20
-97.3547
11
169.684
21
-97.0978
0
LINE
8
Black
10
169.684
20
-97.0978
11
169.569
21
-96.7827
0
LINE
8
Black
10
169.569
20
-96.7827
11
169.569
21
-96.4473
0
LINE
8
Black
10
169.569
20
-96.4473
11
169.684
21
-96.1322
0
LINE
8
Black
10
169.684
20
-96.1322
11
169.899
21
-95.8752
0
LINE
8
Black
10
169.899
20
-95.8752
11
170.19
21
-95.7076
0
LINE
8
Black
10
170.19
20
-95.7076
11
170.52
21
-95.6493
0
LINE
8
Black
10
170.52
20
-95.6493
11
170.85
21
-95.7076
0
LINE
8
Black
10
170.85
20
-93.7076
11
171.141
21
-93.8752
0
LINE
8
Black
10
171.141
20
-93.8752
11
171.356
21
-94.1322
0
LINE
8
Black
10
171.356
20
-94.1322
11
171.471
21
-94.4473
0
LINE
8
Black
10
171.471
20
-94.4473
11
171.471
21
-94.7827
0
LINE
8
Black
10
171.471
20
-94.7827
11
171.356
21
-95.0978
0
LINE
8
Black
10
171.356
20
-95.0978
11
171.141
21
-95.3547
0
LINE
8
Black
10
171.141
20
-95.3547
11
170.85
21
-95.5224
0
LINE
8
Black
10
170.85
20
-95.5224
11
170.52
21
-95.5807
0
LINE
8
Black
10
170.52
20
-95.5807
11
170.19
21
-95.5224
0
LINE
8
Black
10
170.19
20
-95.5224
11
169.899
21
-95.3547
0
LINE
8
Black
10
169.899
20
-95.3547
11
169.684
21
-95.0978
0
LINE
8
Black
10
169.684
20
-95.0978
11
169.569
21
-94.7827
0
LINE
8
Black
10
169.569
20
-94.7827
11
169.569
21
-94.4473
0
LINE
8
Black
10
169.569
20
-94.4473
11
169.684
21
-94.1322
0
LINE
8
Black
10
169.684
20
-94.1322
11
169.899
21
-93.8752
0
LINE
8
Black
10
169.899
20
-93.8752
11
170.19
21
-93.7076
0
LINE
8
Black
10
170.19
20
-93.7076
11
170.52
21
-93.6493
0
LINE
8
Black
10
170.52
20
-93.6493
11
170.85
21
-93.7076
0
LINE
8
Black
10
128.081
20
-92.1187
11
128.474
21
-92.3453
0
LINE
8
Black
10
128.474
20
-92.3453
11
128.765
21
-92.6925
0
LINE
8
Black
10
128.765
20
-92.6925
11
128.92
21
-93.1184
0
LINE
8
Black
10
128.92
20
-93.1184
11
128.92
21
-93.5716
0
LINE
8
Black
10
128.92
20
-93.5716
11
128.765
21
-93.9975
0
LINE
8
Black
10
128.765
20
-93.9975
11
128.474
21
-94.3447
0
LINE
8
Black
10
128.474
20
-94.3447
11
128.081
21
-94.5713
0
LINE
8
Black
10
128.081
20
-94.5713
11
127.635
21
-94.65
0
LINE
8
Black
10
127.635
20
-94.65
11
127.189
21
-94.5713
0
LINE
8
Black
10
127.189
20
-94.5713
11
126.796
21
-94.3447
0
LINE
8
Black
10
126.796
20
-94.3447
11
126.505
21
-93.9975
0
LINE
8
Black
10
126.505
20
-93.9975
11
126.35
21
-93.5716
0
LINE
8
Black
10
126.35
20
-93.5716
11
126.35
21
-93.1184
0
LINE
8
Black
10
126.35
20
-93.1184
11
126.505
21
-92.6925
0
LINE
8
Black
10
126.505
20
-92.6925
11
126.796
21
-92.3453
0
LINE
8
Black
10
126.796
20
-92.3453
11
127.189
21
-92.1187
0
LINE
8
Black
10
127.189
20
-92.1187
11
127.635
21
-92.04
0
LINE
8
Black
10
127.635
20
-92.04
11
128.081
21
-92.1187
0
LINE
8
Black
10
144.793
20
-92.0566
11
145.084
21
-92.2242
0
LINE
8
Black
10
145.084
20
-92.2242
11
145.299
21
-92.4812
0
LINE
8
Black
10
145.299
20
-92.4812
11
145.414
21
-92.7963
0
LINE
8
Black
10
145.414
20
-92.7963
11
145.414
21
-93.1317
0
LINE
8
Black
10
145.414
20
-93.1317
11
145.299
21
-93.4468
0
LINE
8
Black
10
145.299
20
-93.4468
11
145.084
21
-93.7037
0
LINE
8
Black
10
145.084
20
-93.7037
11
144.793
21
-93.8714
0
LINE
8
Black
10
144.793
20
-93.8714
11
144.463
21
-93.9297
0
LINE
8
Black
10
144.463
20
-93.9297
11
144.133
21
-93.8714
0
LINE
8
Black
10
144.133
20
-93.8714
11
143.842
21
-93.7037
0
LINE
8
Black
10
143.842
20
-93.7037
11
143.627
21
-93.4468
0
LINE
8
Black
10
143.627
20
-93.4468
11
143.512
21
-93.1317
0
LINE
8
Black
10
143.512
20
-93.1317
11
143.512
21
-92.7963
0
LINE
8
Black
10
143.512
20
-92.7963
11
143.627
21
-92.4812
0
LINE
8
Black
10
143.627
20
-92.4812
11
143.842
21
-92.2242
0
LINE
8
Black
10
143.842
20
-92.2242
11
144.133
21
-92.0566
0
LINE
8
Black
10
144.133
20
-92.0566
11
144.463
21
-91.9983
0
LINE
8
Black
10
144.463
20
-91.9983
11
144.793
21
-92.0566
0
LINE
8
Black
10
157.493
20
-92.0566
11
157.784
21
-92.2242
0
LINE
8
Black
10
157.784
20
-92.2242
11
157.999
21
-92.4812
0
LINE
8
Black
10
157.999
20
-92.4812
11
158.114
21
-92.7963
0
LINE
8
Black
10
158.114
20
-92.7963
11
158.114
21
-93.1317
0
LINE
8
Black
10
158.114
20
-93.1317
11
157.999
21
-93.4468
0
LINE
8
Black
10
157.999
20
-93.4468
11
157.784
21
-93.7037
0
LINE
8
Black
10
157.784
20
-93.7037
11
157.493
21
-93.8714
0
LINE
8
Black
10
157.493
20
-93.8714
11
157.163
21
-93.9297
0
LINE
8
Black
10
157.163
20
-93.9297
11
156.833
21
-93.8714
0
LINE
8
Black
10
156.833
20
-93.8714
11
156.542
21
-93.7037
0
LINE
8
Black
10
156.542
20
-93.7037
11
156.327
21
-93.4468
0
LINE
8
Black
10
156.327
20
-93.4468
11
156.212
21
-93.1317
0
LINE
8
Black
10
156.212
20
-93.1317
11
156.212
21
-92.7963
0
LINE
8
Black
10
156.212
20
-92.7963
11
156.327
21
-92.4812
0
LINE
8
Black
10
156.327
20
-92.4812
11
156.542
21
-92.2242
0
LINE
8
Black
10
156.542
20
-92.2242
11
156.833
21
-92.0566
0
LINE
8
Black
10
156.833
20
-92.0566
11
157.163
21
-91.9983
0
LINE
8
Black
10
157.163
20
-91.9983
11
157.493
21
-92.0566
0
LINE
8
Black
10
154.953
20
-92.0566
11
155.244
21
-92.2242
0
LINE
8
Black
10
155.244
20
-92.2242
11
155.459
21
-92.4812
0
LINE
8
Black
10
155.459
20
-92.4812
11
155.574
21
-92.7963
0
LINE
8
Black
10
155.574
20
-92.7963
11
155.574
21
-93.1317
0
LINE
8
Black
10
155.574
20
-93.1317
11
155.459
21
-93.4468
0
LINE
8
Black
10
155.459
20
-93.4468
11
155.244
21
-93.7037
0
LINE
8
Black
10
155.244
20
-93.7037
11
154.953
21
-93.8714
0
LINE
8
Black
10
154.953
20
-93.8714
11
154.623
21
-93.9297
0
LINE
8
Black
10
154.623
20
-93.9297
11
154.293
21
-93.8714
0
LINE
8
Black
10
154.293
20
-93.8714
11
154.002
21
-93.7037
0
LINE
8
Black
10
154.002
20
-93.7037
11
153.787
21
-93.4468
0
LINE
8
Black
10
153.787
20
-93.4468
11
153.672
21
-93.1317
0
LINE
8
Black
10
153.672
20
-93.1317
11
153.672
21
-92.7963
0
LINE
8
Black
10
153.672
20
-92.7963
11
153.787
21
-92.4812
0
LINE
8
Black
10
153.787
20
-92.4812
11
154.002
21
-92.2242
0
LINE
8
Black
10
154.002
20
-92.2242
11
154.293
21
-92.0566
0
LINE
8
Black
10
154.293
20
-92.0566
11
154.623
21
-91.9983
0
LINE
8
Black
10
154.623
20
-91.9983
11
154.953
21
-92.0566
0
LINE
8
Black
10
152.413
20
-92.0566
11
152.704
21
-92.2242
0
LINE
8
Black
10
152.704
20
-92.2242
11
152.919
21
-92.4812
0
LINE
8
Black
10
152.919
20
-92.4812
11
153.034
21
-92.7963
0
LINE
8
Black
10
153.034
20
-92.7963
11
153.034
21
-93.1317
0
LINE
8
Black
10
153.034
20
-93.1317
11
152.919
21
-93.4468
0
LINE
8
Black
10
152.919
20
-93.4468
11
152.704
21
-93.7037
0
LINE
8
Black
10
152.704
20
-93.7037
11
152.413
21
-93.8714
0
LINE
8
Black
10
152.413
20
-93.8714
11
152.083
21
-93.9297
0
LINE
8
Black
10
152.083
20
-93.9297
11
151.753
21
-93.8714
0
LINE
8
Black
10
151.753
20
-93.8714
11
151.462
21
-93.7037
0
LINE
8
Black
10
151.462
20
-93.7037
11
151.247
21
-93.4468
0
LINE
8
Black
10
151.247
20
-93.4468
11
151.132
21
-93.1317
0
LINE
8
Black
10
151.132
20
-93.1317
11
151.132
21
-92.7963
0
LINE
8
Black
10
151.132
20
-92.7963
11
151.247
21
-92.4812
0
LINE
8
Black
10
151.247
20
-92.4812
11
151.462
21
-92.2242
0
LINE
8
Black
10
151.462
20
-92.2242
11
151.753
21
-92.0566
0
LINE
8
Black
10
151.753
20
-92.0566
11
152.083
21
-91.9983
0
LINE
8
Black
10
152.083
20
-91.9983
11
152.413
21
-92.0566
0
LINE
8
Black
10
149.873
20
-92.0566
11
150.164
21
-92.2242
0
LINE
8
Black
10
150.164
20
-92.2242
11
150.379
21
-92.4812
0
LINE
8
Black
10
150.379
20
-92.4812
11
150.494
21
-92.7963
0
LINE
8
Black
10
150.494
20
-92.7963
11
150.494
21
-93.1317
0
LINE
8
Black
10
150.494
20
-93.1317
11
150.379
21
-93.4468
0
LINE
8
Black
10
150.379
20
-93.4468
11
150.164
21
-93.7037
0
LINE
8
Black
10
150.164
20
-93.7037
11
149.873
21
-93.8714
0
LINE
8
Black
10
149.873
20
-93.8714
11
149.543
21
-93.9297
0
LINE
8
Black
10
149.543
20
-93.9297
11
149.213
21
-93.8714
0
LINE
8
Black
10
149.213
20
-93.8714
11
148.922
21
-93.7037
0
LINE
8
Black
10
148.922
20
-93.7037
11
148.707
21
-93.4468
0
LINE
8
Black
10
148.707
20
-93.4468
11
148.592
21
-93.1317
0
LINE
8
Black
10
148.592
20
-93.1317
11
148.592
21
-92.7963
0
LINE
8
Black
10
148.592
20
-92.7963
11
148.707
21
-92.4812
0
LINE
8
Black
10
148.707
20
-92.4812
11
148.922
21
-92.2242
0
LINE
8
Black
10
148.922
20
-92.2242
11
149.213
21
-92.0566
0
LINE
8
Black
10
149.213
20
-92.0566
11
149.543
21
-91.9983
0
LINE
8
Black
10
149.543
20
-91.9983
11
149.873
21
-92.0566
0
LINE
8
Black
10
147.333
20
-92.0566
11
147.624
21
-92.2242
0
LINE
8
Black
10
147.624
20
-92.2242
11
147.839
21
-92.4812
0
LINE
8
Black
10
147.839
20
-92.4812
11
147.954
21
-92.7963
0
LINE
8
Black
10
147.954
20
-92.7963
11
147.954
21
-93.1317
0
LINE
8
Black
10
147.954
20
-93.1317
11
147.839
21
-93.4468
0
LINE
8
Black
10
147.839
20
-93.4468
11
147.624
21
-93.7037
0
LINE
8
Black
10
147.624
20
-93.7037
11
147.333
21
-93.8714
0
LINE
8
Black
10
147.333
20
-93.8714
11
147.003
21
-93.9297
0
LINE
8
Black
10
147.003
20
-93.9297
11
146.673
21
-93.8714
0
LINE
8
Black
10
146.673
20
-93.8714
11
146.382
21
-93.7037
0
LINE
8
Black
10
146.382
20
-93.7037
11
146.167
21
-93.4468
0
LINE
8
Black
10
146.167
20
-93.4468
11
146.052
21
-93.1317
0
LINE
8
Black
10
146.052
20
-93.1317
11
146.052
21
-92.7963
0
LINE
8
Black
10
146.052
20
-92.7963
11
146.167
21
-92.4812
0
LINE
8
Black
10
146.167
20
-92.4812
11
146.382
21
-92.2242
0
LINE
8
Black
10
146.382
20
-92.2242
11
146.673
21
-92.0566
0
LINE
8
Black
10
146.673
20
-92.0566
11
147.003
21
-91.9983
0
LINE
8
Black
10
147.003
20
-91.9983
11
147.333
21
-92.0566
0
LINE
8
Black
10
142.253
20
-92.0566
11
142.544
21
-92.2242
0
LINE
8
Black
10
142.544
20
-92.2242
11
142.759
21
-92.4812
0
LINE
8
Black
10
142.759
20
-92.4812
11
142.874
21
-92.7963
0
LINE
8
Black
10
142.874
20
-92.7963
11
142.874
21
-93.1317
0
LINE
8
Black
10
142.874
20
-93.1317
11
142.759
21
-93.4468
0
LINE
8
Black
10
142.759
20
-93.4468
11
142.544
21
-93.7037
0
LINE
8
Black
10
142.544
20
-93.7037
11
142.253
21
-93.8714
0
LINE
8
Black
10
142.253
20
-93.8714
11
141.923
21
-93.9297
0
LINE
8
Black
10
141.923
20
-93.9297
11
141.593
21
-93.8714
0
LINE
8
Black
10
141.593
20
-93.8714
11
141.302
21
-93.7037
0
LINE
8
Black
10
141.302
20
-93.7037
11
141.087
21
-93.4468
0
LINE
8
Black
10
141.087
20
-93.4468
11
140.972
21
-93.1317
0
LINE
8
Black
10
140.972
20
-93.1317
11
140.972
21
-92.7963
0
LINE
8
Black
10
140.972
20
-92.7963
11
141.087
21
-92.4812
0
LINE
8
Black
10
141.087
20
-92.4812
11
141.302
21
-92.2242
0
LINE
8
Black
10
141.302
20
-92.2242
11
141.593
21
-92.0566
0
LINE
8
Black
10
141.593
20
-92.0566
11
141.923
21
-91.9983
0
LINE
8
Black
10
141.923
20
-91.9983
11
142.253
21
-92.0566
0
LINE
8
Black
10
139.713
20
-92.0566
11
140.004
21
-92.2242
0
LINE
8
Black
10
140.004
20
-92.2242
11
140.219
21
-92.4812
0
LINE
8
Black
10
140.219
20
-92.4812
11
140.334
21
-92.7963
0
LINE
8
Black
10
140.334
20
-92.7963
11
140.334
21
-93.1317
0
LINE
8
Black
10
140.334
20
-93.1317
11
140.219
21
-93.4468
0
LINE
8
Black
10
140.219
20
-93.4468
11
140.004
21
-93.7037
0
LINE
8
Black
10
140.004
20
-93.7037
11
139.713
21
-93.8714
0
LINE
8
Black
10
139.713
20
-93.8714
11
139.383
21
-93.9297
0
LINE
8
Black
10
139.383
20
-93.9297
11
139.053
21
-93.8714
0
LINE
8
Black
10
139.053
20
-93.8714
11
138.762
21
-93.7037
0
LINE
8
Black
10
138.762
20
-93.7037
11
138.547
21
-93.4468
0
LINE
8
Black
10
138.547
20
-93.4468
11
138.432
21
-93.1317
0
LINE
8
Black
10
138.432
20
-93.1317
11
138.432
21
-92.7963
0
LINE
8
Black
10
138.432
20
-92.7963
11
138.547
21
-92.4812
0
LINE
8
Black
10
138.547
20
-92.4812
11
138.762
21
-92.2242
0
LINE
8
Black
10
138.762
20
-92.2242
11
139.053
21
-92.0566
0
LINE
8
Black
10
139.053
20
-92.0566
11
139.383
21
-91.9983
0
LINE
8
Black
10
139.383
20
-91.9983
11
139.713
21
-92.0566
0
LINE
8
Black
10
170.85
20
-91.7076
11
171.141
21
-91.8752
0
LINE
8
Black
10
171.141
20
-91.8752
11
171.356
21
-92.1322
0
LINE
8
Black
10
171.356
20
-92.1322
11
171.471
21
-92.4473
0
LINE
8
Black
10
171.471
20
-92.4473
11
171.471
21
-92.7827
0
LINE
8
Black
10
171.471
20
-92.7827
11
171.356
21
-93.0978
0
LINE
8
Black
10
171.356
20
-93.0978
11
171.141
21
-93.3547
0
LINE
8
Black
10
171.141
20
-93.3547
11
170.85
21
-93.5224
0
LINE
8
Black
10
170.85
20
-93.5224
11
170.52
21
-93.5807
0
LINE
8
Black
10
170.52
20
-93.5807
11
170.19
21
-93.5224
0
LINE
8
Black
10
170.19
20
-93.5224
11
169.899
21
-93.3547
0
LINE
8
Black
10
169.899
20
-93.3547
11
169.684
21
-93.0978
0
LINE
8
Black
10
169.684
20
-93.0978
11
169.569
21
-92.7827
0
LINE
8
Black
10
169.569
20
-92.7827
11
169.569
21
-92.4473
0
LINE
8
Black
10
169.569
20
-92.4473
11
169.684
21
-92.1322
0
LINE
8
Black
10
169.684
20
-92.1322
11
169.899
21
-91.8752
0
LINE
8
Black
10
169.899
20
-91.8752
11
170.19
21
-91.7076
0
LINE
8
Black
10
170.19
20
-91.7076
11
170.52
21
-91.6493
0
LINE
8
Black
10
170.52
20
-91.6493
11
170.85
21
-91.7076
0
LINE
8
Black
10
166.316
20
-93.291
11
163.884
21
-93.291
0
LINE
8
Black
10
163.884
20
-93.291
11
163.884
21
-90.859
0
LINE
8
Black
10
163.884
20
-90.859
11
166.316
21
-90.859
0
LINE
8
Black
10
166.316
20
-90.859
11
166.316
21
-93.291
0
LINE
8
Black
10
163.168
20
-91.0173
11
163.492
21
-91.2887
0
LINE
8
Black
10
163.492
20
-91.2887
11
163.703
21
-91.6545
0
LINE
8
Black
10
163.703
20
-91.6545
11
163.776
21
-92.0704
0
LINE
8
Black
10
163.776
20
-92.0704
11
163.776
21
-92.0796
0
LINE
8
Black
10
163.776
20
-92.0796
11
163.703
21
-92.4955
0
LINE
8
Black
10
163.703
20
-92.4955
11
163.492
21
-92.8613
0
LINE
8
Black
10
163.492
20
-92.8613
11
163.168
21
-93.1327
0
LINE
8
Black
10
163.168
20
-93.1327
11
162.771
21
-93.2772
0
LINE
8
Black
10
162.771
20
-93.2772
11
162.349
21
-93.2772
0
LINE
8
Black
10
162.349
20
-93.2772
11
161.952
21
-93.1327
0
LINE
8
Black
10
161.952
20
-93.1327
11
161.628
21
-92.8613
0
LINE
8
Black
10
161.628
20
-92.8613
11
161.417
21
-92.4955
0
LINE
8
Black
10
161.417
20
-92.4955
11
161.344
21
-92.0796
0
LINE
8
Black
10
161.344
20
-92.0796
11
161.344
21
-92.0704
0
LINE
8
Black
10
161.344
20
-92.0704
11
161.417
21
-91.6545
0
LINE
8
Black
10
161.417
20
-91.6545
11
161.628
21
-91.2887
0
LINE
8
Black
10
161.628
20
-91.2887
11
161.952
21
-91.0173
0
LINE
8
Black
10
161.952
20
-91.0173
11
162.349
21
-90.8728
0
LINE
8
Black
10
162.349
20
-90.8728
11
162.771
21
-90.8728
0
LINE
8
Black
10
162.771
20
-90.8728
11
163.168
21
-91.0173
0
LINE
8
Black
10
170.812
20
-89.6632
11
171.068
21
-89.8114
0
LINE
8
Black
10
171.068
20
-89.8114
11
171.259
21
-90.0384
0
LINE
8
Black
10
171.259
20
-90.0384
11
171.36
21
-90.3168
0
LINE
8
Black
10
171.36
20
-90.3168
11
171.36
21
-90.6132
0
LINE
8
Black
10
171.36
20
-90.6132
11
171.259
21
-90.8916
0
LINE
8
Black
10
171.259
20
-90.8916
11
171.068
21
-91.1186
0
LINE
8
Black
10
171.068
20
-91.1186
11
170.812
21
-91.2668
0
LINE
8
Black
10
170.812
20
-91.2668
11
170.52
21
-91.3182
0
LINE
8
Black
10
170.52
20
-91.3182
11
170.228
21
-91.2668
0
LINE
8
Black
10
170.228
20
-91.2668
11
169.972
21
-91.1186
0
LINE
8
Black
10
169.972
20
-91.1186
11
169.781
21
-90.8916
0
LINE
8
Black
10
169.781
20
-90.8916
11
169.68
21
-90.6132
0
LINE
8
Black
10
169.68
20
-90.6132
11
169.68
21
-90.3168
0
LINE
8
Black
10
169.68
20
-90.3168
11
169.781
21
-90.0384
0
LINE
8
Black
10
169.781
20
-90.0384
11
169.972
21
-89.8114
0
LINE
8
Black
10
169.972
20
-89.8114
11
170.228
21
-89.6632
0
LINE
8
Black
10
170.228
20
-89.6632
11
170.52
21
-89.6118
0
LINE
8
Black
10
170.52
20
-89.6118
11
170.812
21
-89.6632
  0
ENDSEC
  0
EOF
