  0
SECTION
  2
HEADER
  9
$ANGBASE
  50
0.0
  9
$ANGDIR
  70
  1
  9
$MEASUREMENT
  70
0
  0
ENDSEC
  0
SECTION
  2
TABLES
  0
TABLE
  2
LTYPE
  70
1
  0
LTYPE
  2
CONTINUOUS
  70
0
  3
Solid line
  72
65
  73
0
  40
0.0
  0
ENDTAB
  0
TABLE
  2
STYLE
  70
4
  0
STYLE
  2
KICAD
  70
0
  40
0
  41
1
  42
1
  50
0
  71
0
  3
isocp.shx
  0
STYLE
  2
KICADB
  70
0
  40
0
  41
1
  42
1
  50
0
  71
0
  3
isocp.shx
  0
STYLE
  2
KICADI
  70
0
  40
0
  41
1
  42
1
  50
15
  71
0
  3
isocp.shx
  0
STYLE
  2
KICADBI
  70
0
  40
0
  41
1
  42
1
  50
15
  71
0
  3
isocp.shx
  0
ENDTAB
  0
TABLE
  2
LAYER
  70
30
  0
LAYER
  2
BLACK
  70
0
  62
7
  6
CONTINUOUS
  0
LAYER
  2
GRAY1
  70
0
  62
251
  6
CONTINUOUS
  0
LAYER
  2
GRAY2
  70
0
  62
8
  6
CONTINUOUS
  0
LAYER
  2
GRAY3
  70
0
  62
9
  6
CONTINUOUS
  0
LAYER
  2
WHITE
  70
0
  62
7
  6
CONTINUOUS
  0
LAYER
  2
LYELLOW
  70
0
  62
51
  6
CONTINUOUS
  0
LAYER
  2
BLUE1
  70
0
  62
178
  6
CONTINUOUS
  0
LAYER
  2
GREEN1
  70
0
  62
98
  6
CONTINUOUS
  0
LAYER
  2
CYAN1
  70
0
  62
138
  6
CONTINUOUS
  0
LAYER
  2
RED1
  70
0
  62
18
  6
CONTINUOUS
  0
LAYER
  2
MAGENTA1
  70
0
  62
228
  6
CONTINUOUS
  0
LAYER
  2
BROWN1
  70
0
  62
58
  6
CONTINUOUS
  0
LAYER
  2
BLUE2
  70
0
  62
5
  6
CONTINUOUS
  0
LAYER
  2
GREEN2
  70
0
  62
3
  6
CONTINUOUS
  0
LAYER
  2
CYAN2
  70
0
  62
4
  6
CONTINUOUS
  0
LAYER
  2
RED2
  70
0
  62
1
  6
CONTINUOUS
  0
LAYER
  2
MAGENTA2
  70
0
  62
6
  6
CONTINUOUS
  0
LAYER
  2
BROWN2
  70
0
  62
54
  6
CONTINUOUS
  0
LAYER
  2
BLUE3
  70
0
  62
171
  6
CONTINUOUS
  0
LAYER
  2
GREEN3
  70
0
  62
91
  6
CONTINUOUS
  0
LAYER
  2
CYAN3
  70
0
  62
131
  6
CONTINUOUS
  0
LAYER
  2
RED3
  70
0
  62
11
  6
CONTINUOUS
  0
LAYER
  2
MAGENTA3
  70
0
  62
221
  6
CONTINUOUS
  0
LAYER
  2
YELLOW3
  70
0
  62
2
  6
CONTINUOUS
  0
LAYER
  2
BLUE4
  70
0
  62
5
  6
CONTINUOUS
  0
LAYER
  2
GREEN4
  70
0
  62
3
  6
CONTINUOUS
  0
LAYER
  2
CYAN4
  70
0
  62
4
  6
CONTINUOUS
  0
LAYER
  2
RED4
  70
0
  62
1
  6
CONTINUOUS
  0
LAYER
  2
MAGENTA4
  70
0
  62
6
  6
CONTINUOUS
  0
LAYER
  2
YELLOW4
  70
0
  62
2
  6
CONTINUOUS
  0
ENDTAB
  0
ENDSEC
  0
SECTION
  2
ENTITIES
0
LINE
8
Black
10
172.795
20
-115.57
11
172.795
21
-90.17
0
LINE
8
Black
10
172.645
20
-115.57
11
172.645
21
-90.17
0
ARC
8
Black
10
172.72
20
-90.17
40
0.075
50
360
51
540
0
ARC
8
Black
10
172.72
20
-115.57
40
0.075
50
180
51
360
0
LINE
8
Black
10
123.825
20
-90.245
11
172.72
21
-90.245
0
LINE
8
Black
10
123.825
20
-90.095
11
172.72
21
-90.095
0
ARC
8
Black
10
172.72
20
-90.17
40
0.075
50
270
51
450
0
ARC
8
Black
10
123.825
20
-90.17
40
0.075
50
90
51
270
0
LINE
8
Black
10
123.9
20
-115.57
11
123.9
21
-90.17
0
LINE
8
Black
10
123.75
20
-115.57
11
123.75
21
-90.17
0
ARC
8
Black
10
123.825
20
-90.17
40
0.075
50
360
51
540
0
ARC
8
Black
10
123.825
20
-115.57
40
0.075
50
180
51
360
0
LINE
8
Black
10
123.825
20
-115.645
11
172.72
21
-115.645
0
LINE
8
Black
10
123.825
20
-115.495
11
172.72
21
-115.495
0
ARC
8
Black
10
172.72
20
-115.57
40
0.075
50
270
51
450
0
ARC
8
Black
10
123.825
20
-115.57
40
0.075
50
90
51
270
0
LINE
8
Black
10
169.87
20
-89.815
11
171.17
21
-91.115
0
LINE
8
Black
10
171.17
20
-89.815
11
169.87
21
-91.115
0
LINE
8
Black
10
169.87
20
-98.115
11
171.17
21
-99.415
0
LINE
8
Black
10
171.17
20
-98.115
11
169.87
21
-99.415
0
CIRCLE
8
Black
10
127.635
20
-93.345
40
1.1
0
CIRCLE
8
Black
10
127.635
20
-113.03
40
1.1
0
CIRCLE
8
Black
10
168.91
20
-113.03
40
1.1
0
LINE
8
Black
10
126.464
20
-120.302
11
126.464
21
-117.302
0
LINE
8
Black
10
126.464
20
-117.302
11
127.179
21
-117.302
0
LINE
8
Black
10
127.179
20
-117.302
11
127.607
21
-117.445
0
LINE
8
Black
10
127.607
20
-117.445
11
127.893
21
-117.731
0
LINE
8
Black
10
127.893
20
-117.731
11
128.036
21
-118.016
0
LINE
8
Black
10
128.036
20
-118.016
11
128.179
21
-118.588
0
LINE
8
Black
10
128.179
20
-118.588
11
128.179
21
-119.016
0
LINE
8
Black
10
128.179
20
-119.016
11
128.036
21
-119.588
0
LINE
8
Black
10
128.036
20
-119.588
11
127.893
21
-119.874
0
LINE
8
Black
10
127.893
20
-119.874
11
127.607
21
-120.159
0
LINE
8
Black
10
127.607
20
-120.159
11
127.179
21
-120.302
0
LINE
8
Black
10
127.179
20
-120.302
11
126.464
21
-120.302
0
LINE
8
Black
10
129.464
20
-120.302
11
129.464
21
-118.302
0
LINE
8
Black
10
129.464
20
-118.874
11
129.607
21
-118.588
0
LINE
8
Black
10
129.607
20
-118.588
11
129.75
21
-118.445
0
LINE
8
Black
10
129.75
20
-118.445
11
130.036
21
-118.302
0
LINE
8
Black
10
130.036
20
-118.302
11
130.321
21
-118.302
0
LINE
8
Black
10
131.321
20
-120.302
11
131.321
21
-118.302
0
LINE
8
Black
10
131.321
20
-117.302
11
131.179
21
-117.445
0
LINE
8
Black
10
131.179
20
-117.445
11
131.321
21
-117.588
0
LINE
8
Black
10
131.321
20
-117.588
11
131.464
21
-117.445
0
LINE
8
Black
10
131.464
20
-117.445
11
131.321
21
-117.302
0
LINE
8
Black
10
131.321
20
-117.302
11
131.321
21
-117.588
0
LINE
8
Black
10
133.179
20
-120.302
11
132.893
21
-120.159
0
LINE
8
Black
10
132.893
20
-120.159
11
132.75
21
-119.874
0
LINE
8
Black
10
132.75
20
-119.874
11
132.75
21
-117.302
0
LINE
8
Black
10
134.75
20
-120.302
11
134.464
21
-120.159
0
LINE
8
Black
10
134.464
20
-120.159
11
134.321
21
-119.874
0
LINE
8
Black
10
134.321
20
-119.874
11
134.321
21
-117.302
0
LINE
8
Black
10
138.179
20
-120.302
11
138.179
21
-117.302
0
LINE
8
Black
10
138.179
20
-117.302
11
139.179
21
-119.445
0
LINE
8
Black
10
139.179
20
-119.445
11
140.179
21
-117.302
0
LINE
8
Black
10
140.179
20
-117.302
11
140.179
21
-120.302
0
LINE
8
Black
10
142.893
20
-120.302
11
142.893
21
-118.731
0
LINE
8
Black
10
142.893
20
-118.731
11
142.75
21
-118.445
0
LINE
8
Black
10
142.75
20
-118.445
11
142.464
21
-118.302
0
LINE
8
Black
10
142.464
20
-118.302
11
141.893
21
-118.302
0
LINE
8
Black
10
141.893
20
-118.302
11
141.607
21
-118.445
0
LINE
8
Black
10
142.893
20
-120.159
11
142.607
21
-120.302
0
LINE
8
Black
10
142.607
20
-120.302
11
141.893
21
-120.302
0
LINE
8
Black
10
141.893
20
-120.302
11
141.607
21
-120.159
0
LINE
8
Black
10
141.607
20
-120.159
11
141.464
21
-119.874
0
LINE
8
Black
10
141.464
20
-119.874
11
141.464
21
-119.588
0
LINE
8
Black
10
141.464
20
-119.588
11
141.607
21
-119.302
0
LINE
8
Black
10
141.607
20
-119.302
11
141.893
21
-119.159
0
LINE
8
Black
10
141.893
20
-119.159
11
142.607
21
-119.159
0
LINE
8
Black
10
142.607
20
-119.159
11
142.893
21
-119.016
0
LINE
8
Black
10
144.321
20
-118.302
11
144.321
21
-121.302
0
LINE
8
Black
10
144.321
20
-118.445
11
144.607
21
-118.302
0
LINE
8
Black
10
144.607
20
-118.302
11
145.179
21
-118.302
0
LINE
8
Black
10
145.179
20
-118.302
11
145.464
21
-118.445
0
LINE
8
Black
10
145.464
20
-118.445
11
145.607
21
-118.588
0
LINE
8
Black
10
145.607
20
-118.588
11
145.75
21
-118.874
0
LINE
8
Black
10
145.75
20
-118.874
11
145.75
21
-119.731
0
LINE
8
Black
10
145.75
20
-119.731
11
145.607
21
-120.016
0
LINE
8
Black
10
145.607
20
-120.016
11
145.464
21
-120.159
0
LINE
8
Black
10
145.464
20
-120.159
11
145.179
21
-120.302
0
LINE
8
Black
10
145.179
20
-120.302
11
144.607
21
-120.302
0
LINE
8
Black
10
144.607
20
-120.302
11
144.321
21
-120.159
0
LINE
8
Black
10
147.036
20
-120.016
11
147.179
21
-120.159
0
LINE
8
Black
10
147.179
20
-120.159
11
147.036
21
-120.302
0
LINE
8
Black
10
147.036
20
-120.302
11
146.893
21
-120.159
0
LINE
8
Black
10
146.893
20
-120.159
11
147.036
21
-120.016
0
LINE
8
Black
10
147.036
20
-120.016
11
147.036
21
-120.302
0
LINE
8
Black
10
147.036
20
-118.445
11
147.179
21
-118.588
0
LINE
8
Black
10
147.179
20
-118.588
11
147.036
21
-118.731
0
LINE
8
Black
10
147.036
20
-118.731
11
146.893
21
-118.588
0
LINE
8
Black
10
146.893
20
-118.588
11
147.036
21
-118.445
0
LINE
8
Black
10
147.036
20
-118.445
11
147.036
21
-118.731
0
LINE
8
Black
10
122.45
20
-124.595
11
123.75
21
-125.895
0
LINE
8
Black
10
123.75
20
-124.595
11
122.45
21
-125.895
0
LINE
8
Black
10
128.036
20
-126.602
11
126.321
21
-126.602
0
LINE
8
Black
10
127.179
20
-126.602
11
127.179
21
-123.602
0
LINE
8
Black
10
127.179
20
-123.602
11
126.893
21
-124.031
0
LINE
8
Black
10
126.893
20
-124.031
11
126.607
21
-124.316
0
LINE
8
Black
10
126.607
20
-124.316
11
126.321
21
-124.459
0
LINE
8
Black
10
129.321
20
-126.316
11
129.464
21
-126.459
0
LINE
8
Black
10
129.464
20
-126.459
11
129.321
21
-126.602
0
LINE
8
Black
10
129.321
20
-126.602
11
129.179
21
-126.459
0
LINE
8
Black
10
129.179
20
-126.459
11
129.321
21
-126.316
0
LINE
8
Black
10
129.321
20
-126.316
11
129.321
21
-126.602
0
LINE
8
Black
10
130.464
20
-123.602
11
132.321
21
-123.602
0
LINE
8
Black
10
132.321
20
-123.602
11
131.321
21
-124.745
0
LINE
8
Black
10
131.321
20
-124.745
11
131.75
21
-124.745
0
LINE
8
Black
10
131.75
20
-124.745
11
132.036
21
-124.888
0
LINE
8
Black
10
132.036
20
-124.888
11
132.179
21
-125.031
0
LINE
8
Black
10
132.179
20
-125.031
11
132.321
21
-125.316
0
LINE
8
Black
10
132.321
20
-125.316
11
132.321
21
-126.031
0
LINE
8
Black
10
132.321
20
-126.031
11
132.179
21
-126.316
0
LINE
8
Black
10
132.179
20
-126.316
11
132.036
21
-126.459
0
LINE
8
Black
10
132.036
20
-126.459
11
131.75
21
-126.602
0
LINE
8
Black
10
131.75
20
-126.602
11
130.893
21
-126.602
0
LINE
8
Black
10
130.893
20
-126.602
11
130.607
21
-126.459
0
LINE
8
Black
10
130.607
20
-126.459
11
130.464
21
-126.316
0
LINE
8
Black
10
134.179
20
-123.602
11
134.464
21
-123.602
0
LINE
8
Black
10
134.464
20
-123.602
11
134.75
21
-123.745
0
LINE
8
Black
10
134.75
20
-123.745
11
134.893
21
-123.888
0
LINE
8
Black
10
134.893
20
-123.888
11
135.036
21
-124.174
0
LINE
8
Black
10
135.036
20
-124.174
11
135.179
21
-124.745
0
LINE
8
Black
10
135.179
20
-124.745
11
135.179
21
-125.459
0
LINE
8
Black
10
135.179
20
-125.459
11
135.036
21
-126.031
0
LINE
8
Black
10
135.036
20
-126.031
11
134.893
21
-126.316
0
LINE
8
Black
10
134.893
20
-126.316
11
134.75
21
-126.459
0
LINE
8
Black
10
134.75
20
-126.459
11
134.464
21
-126.602
0
LINE
8
Black
10
134.464
20
-126.602
11
134.179
21
-126.602
0
LINE
8
Black
10
134.179
20
-126.602
11
133.893
21
-126.459
0
LINE
8
Black
10
133.893
20
-126.459
11
133.75
21
-126.316
0
LINE
8
Black
10
133.75
20
-126.316
11
133.607
21
-126.031
0
LINE
8
Black
10
133.607
20
-126.031
11
133.464
21
-125.459
0
LINE
8
Black
10
133.464
20
-125.459
11
133.464
21
-124.745
0
LINE
8
Black
10
133.464
20
-124.745
11
133.607
21
-124.174
0
LINE
8
Black
10
133.607
20
-124.174
11
133.75
21
-123.888
0
LINE
8
Black
10
133.75
20
-123.888
11
133.893
21
-123.745
0
LINE
8
Black
10
133.893
20
-123.745
11
134.179
21
-123.602
0
LINE
8
Black
10
136.464
20
-126.602
11
136.464
21
-124.602
0
LINE
8
Black
10
136.464
20
-124.888
11
136.607
21
-124.745
0
LINE
8
Black
10
136.607
20
-124.745
11
136.893
21
-124.602
0
LINE
8
Black
10
136.893
20
-124.602
11
137.321
21
-124.602
0
LINE
8
Black
10
137.321
20
-124.602
11
137.607
21
-124.745
0
LINE
8
Black
10
137.607
20
-124.745
11
137.75
21
-125.031
0
LINE
8
Black
10
137.75
20
-125.031
11
137.75
21
-126.602
0
LINE
8
Black
10
137.75
20
-125.031
11
137.893
21
-124.745
0
LINE
8
Black
10
137.893
20
-124.745
11
138.179
21
-124.602
0
LINE
8
Black
10
138.179
20
-124.602
11
138.607
21
-124.602
0
LINE
8
Black
10
138.607
20
-124.602
11
138.893
21
-124.745
0
LINE
8
Black
10
138.893
20
-124.745
11
139.036
21
-125.031
0
LINE
8
Black
10
139.036
20
-125.031
11
139.036
21
-126.602
0
LINE
8
Black
10
140.464
20
-126.602
11
140.464
21
-124.602
0
LINE
8
Black
10
140.464
20
-124.888
11
140.607
21
-124.745
0
LINE
8
Black
10
140.607
20
-124.745
11
140.893
21
-124.602
0
LINE
8
Black
10
140.893
20
-124.602
11
141.321
21
-124.602
0
LINE
8
Black
10
141.321
20
-124.602
11
141.607
21
-124.745
0
LINE
8
Black
10
141.607
20
-124.745
11
141.75
21
-125.031
0
LINE
8
Black
10
141.75
20
-125.031
11
141.75
21
-126.602
0
LINE
8
Black
10
141.75
20
-125.031
11
141.893
21
-124.745
0
LINE
8
Black
10
141.893
20
-124.745
11
142.179
21
-124.602
0
LINE
8
Black
10
142.179
20
-124.602
11
142.607
21
-124.602
0
LINE
8
Black
10
142.607
20
-124.602
11
142.893
21
-124.745
0
LINE
8
Black
10
142.893
20
-124.745
11
143.036
21
-125.031
0
LINE
8
Black
10
143.036
20
-125.031
11
143.036
21
-126.602
0
LINE
8
Black
10
148.893
20
-123.459
11
146.321
21
-127.316
0
LINE
8
Black
10
152.75
20
-123.602
11
153.036
21
-123.602
0
LINE
8
Black
10
153.036
20
-123.602
11
153.321
21
-123.745
0
LINE
8
Black
10
153.321
20
-123.745
11
153.464
21
-123.888
0
LINE
8
Black
10
153.464
20
-123.888
11
153.607
21
-124.174
0
LINE
8
Black
10
153.607
20
-124.174
11
153.75
21
-124.745
0
LINE
8
Black
10
153.75
20
-124.745
11
153.75
21
-125.459
0
LINE
8
Black
10
153.75
20
-125.459
11
153.607
21
-126.031
0
LINE
8
Black
10
153.607
20
-126.031
11
153.464
21
-126.316
0
LINE
8
Black
10
153.464
20
-126.316
11
153.321
21
-126.459
0
LINE
8
Black
10
153.321
20
-126.459
11
153.036
21
-126.602
0
LINE
8
Black
10
153.036
20
-126.602
11
152.75
21
-126.602
0
LINE
8
Black
10
152.75
20
-126.602
11
152.464
21
-126.459
0
LINE
8
Black
10
152.464
20
-126.459
11
152.321
21
-126.316
0
LINE
8
Black
10
152.321
20
-126.316
11
152.179
21
-126.031
0
LINE
8
Black
10
152.179
20
-126.031
11
152.036
21
-125.459
0
LINE
8
Black
10
152.036
20
-125.459
11
152.036
21
-124.745
0
LINE
8
Black
10
152.036
20
-124.745
11
152.179
21
-124.174
0
LINE
8
Black
10
152.179
20
-124.174
11
152.321
21
-123.888
0
LINE
8
Black
10
152.321
20
-123.888
11
152.464
21
-123.745
0
LINE
8
Black
10
152.464
20
-123.745
11
152.75
21
-123.602
0
LINE
8
Black
10
155.036
20
-126.316
11
155.179
21
-126.459
0
LINE
8
Black
10
155.179
20
-126.459
11
155.036
21
-126.602
0
LINE
8
Black
10
155.036
20
-126.602
11
154.893
21
-126.459
0
LINE
8
Black
10
154.893
20
-126.459
11
155.036
21
-126.316
0
LINE
8
Black
10
155.036
20
-126.316
11
155.036
21
-126.602
0
LINE
8
Black
10
157.036
20
-123.602
11
157.321
21
-123.602
0
LINE
8
Black
10
157.321
20
-123.602
11
157.607
21
-123.745
0
LINE
8
Black
10
157.607
20
-123.745
11
157.75
21
-123.888
0
LINE
8
Black
10
157.75
20
-123.888
11
157.893
21
-124.174
0
LINE
8
Black
10
157.893
20
-124.174
11
158.036
21
-124.745
0
LINE
8
Black
10
158.036
20
-124.745
11
158.036
21
-125.459
0
LINE
8
Black
10
158.036
20
-125.459
11
157.893
21
-126.031
0
LINE
8
Black
10
157.893
20
-126.031
11
157.75
21
-126.316
0
LINE
8
Black
10
157.75
20
-126.316
11
157.607
21
-126.459
0
LINE
8
Black
10
157.607
20
-126.459
11
157.321
21
-126.602
0
LINE
8
Black
10
157.321
20
-126.602
11
157.036
21
-126.602
0
LINE
8
Black
10
157.036
20
-126.602
11
156.75
21
-126.459
0
LINE
8
Black
10
156.75
20
-126.459
11
156.607
21
-126.316
0
LINE
8
Black
10
156.607
20
-126.316
11
156.464
21
-126.031
0
LINE
8
Black
10
156.464
20
-126.031
11
156.321
21
-125.459
0
LINE
8
Black
10
156.321
20
-125.459
11
156.321
21
-124.745
0
LINE
8
Black
10
156.321
20
-124.745
11
156.464
21
-124.174
0
LINE
8
Black
10
156.464
20
-124.174
11
156.607
21
-123.888
0
LINE
8
Black
10
156.607
20
-123.888
11
156.75
21
-123.745
0
LINE
8
Black
10
156.75
20
-123.745
11
157.036
21
-123.602
0
LINE
8
Black
10
160.75
20
-123.602
11
159.321
21
-123.602
0
LINE
8
Black
10
159.321
20
-123.602
11
159.179
21
-125.031
0
LINE
8
Black
10
159.179
20
-125.031
11
159.321
21
-124.888
0
LINE
8
Black
10
159.321
20
-124.888
11
159.607
21
-124.745
0
LINE
8
Black
10
159.607
20
-124.745
11
160.321
21
-124.745
0
LINE
8
Black
10
160.321
20
-124.745
11
160.607
21
-124.888
0
LINE
8
Black
10
160.607
20
-124.888
11
160.75
21
-125.031
0
LINE
8
Black
10
160.75
20
-125.031
11
160.893
21
-125.316
0
LINE
8
Black
10
160.893
20
-125.316
11
160.893
21
-126.031
0
LINE
8
Black
10
160.893
20
-126.031
11
160.75
21
-126.316
0
LINE
8
Black
10
160.75
20
-126.316
11
160.607
21
-126.459
0
LINE
8
Black
10
160.607
20
-126.459
11
160.321
21
-126.602
0
LINE
8
Black
10
160.321
20
-126.602
11
159.607
21
-126.602
0
LINE
8
Black
10
159.607
20
-126.602
11
159.321
21
-126.459
0
LINE
8
Black
10
159.321
20
-126.459
11
159.179
21
-126.316
0
LINE
8
Black
10
163.75
20
-126.602
11
162.036
21
-126.602
0
LINE
8
Black
10
162.893
20
-126.602
11
162.893
21
-123.602
0
LINE
8
Black
10
162.893
20
-123.602
11
162.607
21
-124.031
0
LINE
8
Black
10
162.607
20
-124.031
11
162.321
21
-124.316
0
LINE
8
Black
10
162.321
20
-124.316
11
162.036
21
-124.459
0
LINE
8
Black
10
164.893
20
-123.602
11
164.893
21
-124.174
0
LINE
8
Black
10
166.036
20
-123.602
11
166.036
21
-124.174
0
LINE
8
Black
10
170.464
20
-127.745
11
170.321
21
-127.602
0
LINE
8
Black
10
170.321
20
-127.602
11
170.036
21
-127.174
0
LINE
8
Black
10
170.036
20
-127.174
11
169.893
21
-126.888
0
LINE
8
Black
10
169.893
20
-126.888
11
169.75
21
-126.459
0
LINE
8
Black
10
169.75
20
-126.459
11
169.607
21
-125.745
0
LINE
8
Black
10
169.607
20
-125.745
11
169.607
21
-125.174
0
LINE
8
Black
10
169.607
20
-125.174
11
169.75
21
-124.459
0
LINE
8
Black
10
169.75
20
-124.459
11
169.893
21
-124.031
0
LINE
8
Black
10
169.893
20
-124.031
11
170.036
21
-123.745
0
LINE
8
Black
10
170.036
20
-123.745
11
170.321
21
-123.316
0
LINE
8
Black
10
170.321
20
-123.316
11
170.464
21
-123.174
0
LINE
8
Black
10
171.464
20
-123.888
11
171.607
21
-123.745
0
LINE
8
Black
10
171.607
20
-123.745
11
171.893
21
-123.602
0
LINE
8
Black
10
171.893
20
-123.602
11
172.607
21
-123.602
0
LINE
8
Black
10
172.607
20
-123.602
11
172.893
21
-123.745
0
LINE
8
Black
10
172.893
20
-123.745
11
173.036
21
-123.888
0
LINE
8
Black
10
173.036
20
-123.888
11
173.179
21
-124.174
0
LINE
8
Black
10
173.179
20
-124.174
11
173.179
21
-124.459
0
LINE
8
Black
10
173.179
20
-124.459
11
173.036
21
-124.888
0
LINE
8
Black
10
173.036
20
-124.888
11
171.321
21
-126.602
0
LINE
8
Black
10
171.321
20
-126.602
11
173.179
21
-126.602
0
LINE
8
Black
10
176.75
20
-126.602
11
176.75
21
-123.602
0
LINE
8
Black
10
178.036
20
-126.602
11
178.036
21
-125.031
0
LINE
8
Black
10
178.036
20
-125.031
11
177.893
21
-124.745
0
LINE
8
Black
10
177.893
20
-124.745
11
177.607
21
-124.602
0
LINE
8
Black
10
177.607
20
-124.602
11
177.179
21
-124.602
0
LINE
8
Black
10
177.179
20
-124.602
11
176.893
21
-124.745
0
LINE
8
Black
10
176.893
20
-124.745
11
176.75
21
-124.888
0
LINE
8
Black
10
179.893
20
-126.602
11
179.607
21
-126.459
0
LINE
8
Black
10
179.607
20
-126.459
11
179.464
21
-126.316
0
LINE
8
Black
10
179.464
20
-126.316
11
179.321
21
-126.031
0
LINE
8
Black
10
179.321
20
-126.031
11
179.321
21
-125.174
0
LINE
8
Black
10
179.321
20
-125.174
11
179.464
21
-124.888
0
LINE
8
Black
10
179.464
20
-124.888
11
179.607
21
-124.745
0
LINE
8
Black
10
179.607
20
-124.745
11
179.893
21
-124.602
0
LINE
8
Black
10
179.893
20
-124.602
11
180.321
21
-124.602
0
LINE
8
Black
10
180.321
20
-124.602
11
180.607
21
-124.745
0
LINE
8
Black
10
180.607
20
-124.745
11
180.75
21
-124.888
0
LINE
8
Black
10
180.75
20
-124.888
11
180.893
21
-125.174
0
LINE
8
Black
10
180.893
20
-125.174
11
180.893
21
-126.031
0
LINE
8
Black
10
180.893
20
-126.031
11
180.75
21
-126.316
0
LINE
8
Black
10
180.75
20
-126.316
11
180.607
21
-126.459
0
LINE
8
Black
10
180.607
20
-126.459
11
180.321
21
-126.602
0
LINE
8
Black
10
180.321
20
-126.602
11
179.893
21
-126.602
0
LINE
8
Black
10
182.607
20
-126.602
11
182.321
21
-126.459
0
LINE
8
Black
10
182.321
20
-126.459
11
182.179
21
-126.174
0
LINE
8
Black
10
182.179
20
-126.174
11
182.179
21
-123.602
0
LINE
8
Black
10
184.893
20
-126.459
11
184.607
21
-126.602
0
LINE
8
Black
10
184.607
20
-126.602
11
184.036
21
-126.602
0
LINE
8
Black
10
184.036
20
-126.602
11
183.75
21
-126.459
0
LINE
8
Black
10
183.75
20
-126.459
11
183.607
21
-126.174
0
LINE
8
Black
10
183.607
20
-126.174
11
183.607
21
-125.031
0
LINE
8
Black
10
183.607
20
-125.031
11
183.75
21
-124.745
0
LINE
8
Black
10
183.75
20
-124.745
11
184.036
21
-124.602
0
LINE
8
Black
10
184.036
20
-124.602
11
184.607
21
-124.602
0
LINE
8
Black
10
184.607
20
-124.602
11
184.893
21
-124.745
0
LINE
8
Black
10
184.893
20
-124.745
11
185.036
21
-125.031
0
LINE
8
Black
10
185.036
20
-125.031
11
185.036
21
-125.316
0
LINE
8
Black
10
185.036
20
-125.316
11
183.607
21
-125.602
0
LINE
8
Black
10
186.179
20
-126.459
11
186.464
21
-126.602
0
LINE
8
Black
10
186.464
20
-126.602
11
187.036
21
-126.602
0
LINE
8
Black
10
187.036
20
-126.602
11
187.321
21
-126.459
0
LINE
8
Black
10
187.321
20
-126.459
11
187.464
21
-126.174
0
LINE
8
Black
10
187.464
20
-126.174
11
187.464
21
-126.031
0
LINE
8
Black
10
187.464
20
-126.031
11
187.321
21
-125.745
0
LINE
8
Black
10
187.321
20
-125.745
11
187.036
21
-125.602
0
LINE
8
Black
10
187.036
20
-125.602
11
186.607
21
-125.602
0
LINE
8
Black
10
186.607
20
-125.602
11
186.321
21
-125.459
0
LINE
8
Black
10
186.321
20
-125.459
11
186.179
21
-125.174
0
LINE
8
Black
10
186.179
20
-125.174
11
186.179
21
-125.031
0
LINE
8
Black
10
186.179
20
-125.031
11
186.321
21
-124.745
0
LINE
8
Black
10
186.321
20
-124.745
11
186.607
21
-124.602
0
LINE
8
Black
10
186.607
20
-124.602
11
187.036
21
-124.602
0
LINE
8
Black
10
187.036
20
-124.602
11
187.321
21
-124.745
0
LINE
8
Black
10
188.464
20
-127.745
11
188.607
21
-127.602
0
LINE
8
Black
10
188.607
20
-127.602
11
188.893
21
-127.174
0
LINE
8
Black
10
188.893
20
-127.174
11
189.036
21
-126.888
0
LINE
8
Black
10
189.036
20
-126.888
11
189.179
21
-126.459
0
LINE
8
Black
10
189.179
20
-126.459
11
189.321
21
-125.745
0
LINE
8
Black
10
189.321
20
-125.745
11
189.321
21
-125.174
0
LINE
8
Black
10
189.321
20
-125.174
11
189.179
21
-124.459
0
LINE
8
Black
10
189.179
20
-124.459
11
189.036
21
-124.031
0
LINE
8
Black
10
189.036
20
-124.031
11
188.893
21
-123.745
0
LINE
8
Black
10
188.893
20
-123.745
11
188.607
21
-123.316
0
LINE
8
Black
10
188.607
20
-123.316
11
188.464
21
-123.174
0
LINE
8
Black
10
193.893
20
-127.745
11
193.75
21
-127.602
0
LINE
8
Black
10
193.75
20
-127.602
11
193.464
21
-127.174
0
LINE
8
Black
10
193.464
20
-127.174
11
193.321
21
-126.888
0
LINE
8
Black
10
193.321
20
-126.888
11
193.179
21
-126.459
0
LINE
8
Black
10
193.179
20
-126.459
11
193.036
21
-125.745
0
LINE
8
Black
10
193.036
20
-125.745
11
193.036
21
-125.174
0
LINE
8
Black
10
193.036
20
-125.174
11
193.179
21
-124.459
0
LINE
8
Black
10
193.179
20
-124.459
11
193.321
21
-124.031
0
LINE
8
Black
10
193.321
20
-124.031
11
193.464
21
-123.745
0
LINE
8
Black
10
193.464
20
-123.745
11
193.75
21
-123.316
0
LINE
8
Black
10
193.75
20
-123.316
11
193.893
21
-123.174
0
LINE
8
Black
10
195.036
20
-124.602
11
195.036
21
-126.602
0
LINE
8
Black
10
195.036
20
-124.888
11
195.179
21
-124.745
0
LINE
8
Black
10
195.179
20
-124.745
11
195.464
21
-124.602
0
LINE
8
Black
10
195.464
20
-124.602
11
195.893
21
-124.602
0
LINE
8
Black
10
195.893
20
-124.602
11
196.179
21
-124.745
0
LINE
8
Black
10
196.179
20
-124.745
11
196.321
21
-125.031
0
LINE
8
Black
10
196.321
20
-125.031
11
196.321
21
-126.602
0
LINE
8
Black
10
198.179
20
-126.602
11
197.893
21
-126.459
0
LINE
8
Black
10
197.893
20
-126.459
11
197.75
21
-126.316
0
LINE
8
Black
10
197.75
20
-126.316
11
197.607
21
-126.031
0
LINE
8
Black
10
197.607
20
-126.031
11
197.607
21
-125.174
0
LINE
8
Black
10
197.607
20
-125.174
11
197.75
21
-124.888
0
LINE
8
Black
10
197.75
20
-124.888
11
197.893
21
-124.745
0
LINE
8
Black
10
197.893
20
-124.745
11
198.179
21
-124.602
0
LINE
8
Black
10
198.179
20
-124.602
11
198.607
21
-124.602
0
LINE
8
Black
10
198.607
20
-124.602
11
198.893
21
-124.745
0
LINE
8
Black
10
198.893
20
-124.745
11
199.036
21
-124.888
0
LINE
8
Black
10
199.036
20
-124.888
11
199.179
21
-125.174
0
LINE
8
Black
10
199.179
20
-125.174
11
199.179
21
-126.031
0
LINE
8
Black
10
199.179
20
-126.031
11
199.036
21
-126.316
0
LINE
8
Black
10
199.036
20
-126.316
11
198.893
21
-126.459
0
LINE
8
Black
10
198.893
20
-126.459
11
198.607
21
-126.602
0
LINE
8
Black
10
198.607
20
-126.602
11
198.179
21
-126.602
0
LINE
8
Black
10
200.036
20
-124.602
11
201.179
21
-124.602
0
LINE
8
Black
10
200.464
20
-123.602
11
200.464
21
-126.174
0
LINE
8
Black
10
200.464
20
-126.174
11
200.607
21
-126.459
0
LINE
8
Black
10
200.607
20
-126.459
11
200.893
21
-126.602
0
LINE
8
Black
10
200.893
20
-126.602
11
201.179
21
-126.602
0
LINE
8
Black
10
204.464
20
-124.602
11
204.464
21
-127.602
0
LINE
8
Black
10
204.464
20
-124.745
11
204.75
21
-124.602
0
LINE
8
Black
10
204.75
20
-124.602
11
205.321
21
-124.602
0
LINE
8
Black
10
205.321
20
-124.602
11
205.607
21
-124.745
0
LINE
8
Black
10
205.607
20
-124.745
11
205.75
21
-124.888
0
LINE
8
Black
10
205.75
20
-124.888
11
205.893
21
-125.174
0
LINE
8
Black
10
205.893
20
-125.174
11
205.893
21
-126.031
0
LINE
8
Black
10
205.893
20
-126.031
11
205.75
21
-126.316
0
LINE
8
Black
10
205.75
20
-126.316
11
205.607
21
-126.459
0
LINE
8
Black
10
205.607
20
-126.459
11
205.321
21
-126.602
0
LINE
8
Black
10
205.321
20
-126.602
11
204.75
21
-126.602
0
LINE
8
Black
10
204.75
20
-126.602
11
204.464
21
-126.459
0
LINE
8
Black
10
207.607
20
-126.602
11
207.321
21
-126.459
0
LINE
8
Black
10
207.321
20
-126.459
11
207.179
21
-126.174
0
LINE
8
Black
10
207.179
20
-126.174
11
207.179
21
-123.602
0
LINE
8
Black
10
210.036
20
-126.602
11
210.036
21
-125.031
0
LINE
8
Black
10
210.036
20
-125.031
11
209.893
21
-124.745
0
LINE
8
Black
10
209.893
20
-124.745
11
209.607
21
-124.602
0
LINE
8
Black
10
209.607
20
-124.602
11
209.036
21
-124.602
0
LINE
8
Black
10
209.036
20
-124.602
11
208.75
21
-124.745
0
LINE
8
Black
10
210.036
20
-126.459
11
209.75
21
-126.602
0
LINE
8
Black
10
209.75
20
-126.602
11
209.036
21
-126.602
0
LINE
8
Black
10
209.036
20
-126.602
11
208.75
21
-126.459
0
LINE
8
Black
10
208.75
20
-126.459
11
208.607
21
-126.174
0
LINE
8
Black
10
208.607
20
-126.174
11
208.607
21
-125.888
0
LINE
8
Black
10
208.607
20
-125.888
11
208.75
21
-125.602
0
LINE
8
Black
10
208.75
20
-125.602
11
209.036
21
-125.459
0
LINE
8
Black
10
209.036
20
-125.459
11
209.75
21
-125.459
0
LINE
8
Black
10
209.75
20
-125.459
11
210.036
21
-125.316
0
LINE
8
Black
10
211.036
20
-124.602
11
212.179
21
-124.602
0
LINE
8
Black
10
211.464
20
-123.602
11
211.464
21
-126.174
0
LINE
8
Black
10
211.464
20
-126.174
11
211.607
21
-126.459
0
LINE
8
Black
10
211.607
20
-126.459
11
211.893
21
-126.602
0
LINE
8
Black
10
211.893
20
-126.602
11
212.179
21
-126.602
0
LINE
8
Black
10
214.321
20
-126.459
11
214.036
21
-126.602
0
LINE
8
Black
10
214.036
20
-126.602
11
213.464
21
-126.602
0
LINE
8
Black
10
213.464
20
-126.602
11
213.179
21
-126.459
0
LINE
8
Black
10
213.179
20
-126.459
11
213.036
21
-126.174
0
LINE
8
Black
10
213.036
20
-126.174
11
213.036
21
-125.031
0
LINE
8
Black
10
213.036
20
-125.031
11
213.179
21
-124.745
0
LINE
8
Black
10
213.179
20
-124.745
11
213.464
21
-124.602
0
LINE
8
Black
10
213.464
20
-124.602
11
214.036
21
-124.602
0
LINE
8
Black
10
214.036
20
-124.602
11
214.321
21
-124.745
0
LINE
8
Black
10
214.321
20
-124.745
11
214.464
21
-125.031
0
LINE
8
Black
10
214.464
20
-125.031
11
214.464
21
-125.316
0
LINE
8
Black
10
214.464
20
-125.316
11
213.036
21
-125.602
0
LINE
8
Black
10
217.036
20
-126.602
11
217.036
21
-123.602
0
LINE
8
Black
10
217.036
20
-126.459
11
216.75
21
-126.602
0
LINE
8
Black
10
216.75
20
-126.602
11
216.179
21
-126.602
0
LINE
8
Black
10
216.179
20
-126.602
11
215.893
21
-126.459
0
LINE
8
Black
10
215.893
20
-126.459
11
215.75
21
-126.316
0
LINE
8
Black
10
215.75
20
-126.316
11
215.607
21
-126.031
0
LINE
8
Black
10
215.607
20
-126.031
11
215.607
21
-125.174
0
LINE
8
Black
10
215.607
20
-125.174
11
215.75
21
-124.888
0
LINE
8
Black
10
215.75
20
-124.888
11
215.893
21
-124.745
0
LINE
8
Black
10
215.893
20
-124.745
11
216.179
21
-124.602
0
LINE
8
Black
10
216.179
20
-124.602
11
216.75
21
-124.602
0
LINE
8
Black
10
216.75
20
-124.602
11
217.036
21
-124.745
0
LINE
8
Black
10
218.179
20
-127.745
11
218.321
21
-127.602
0
LINE
8
Black
10
218.321
20
-127.602
11
218.607
21
-127.174
0
LINE
8
Black
10
218.607
20
-127.174
11
218.75
21
-126.888
0
LINE
8
Black
10
218.75
20
-126.888
11
218.893
21
-126.459
0
LINE
8
Black
10
218.893
20
-126.459
11
219.036
21
-125.745
0
LINE
8
Black
10
219.036
20
-125.745
11
219.036
21
-125.174
0
LINE
8
Black
10
219.036
20
-125.174
11
218.893
21
-124.459
0
LINE
8
Black
10
218.893
20
-124.459
11
218.75
21
-124.031
0
LINE
8
Black
10
218.75
20
-124.031
11
218.607
21
-123.745
0
LINE
8
Black
10
218.607
20
-123.745
11
218.321
21
-123.316
0
LINE
8
Black
10
218.321
20
-123.316
11
218.179
21
-123.174
0
CIRCLE
8
Black
10
122.65
20
-129.205
40
1.1
0
LINE
8
Black
10
126.321
20
-127.848
11
126.464
21
-127.705
0
LINE
8
Black
10
126.464
20
-127.705
11
126.75
21
-127.562
0
LINE
8
Black
10
126.75
20
-127.562
11
127.464
21
-127.562
0
LINE
8
Black
10
127.464
20
-127.562
11
127.75
21
-127.705
0
LINE
8
Black
10
127.75
20
-127.705
11
127.893
21
-127.848
0
LINE
8
Black
10
127.893
20
-127.848
11
128.036
21
-128.134
0
LINE
8
Black
10
128.036
20
-128.134
11
128.036
21
-128.419
0
LINE
8
Black
10
128.036
20
-128.419
11
127.893
21
-128.848
0
LINE
8
Black
10
127.893
20
-128.848
11
126.179
21
-130.562
0
LINE
8
Black
10
126.179
20
-130.562
11
128.036
21
-130.562
0
LINE
8
Black
10
129.321
20
-130.276
11
129.464
21
-130.419
0
LINE
8
Black
10
129.464
20
-130.419
11
129.321
21
-130.562
0
LINE
8
Black
10
129.321
20
-130.562
11
129.179
21
-130.419
0
LINE
8
Black
10
129.179
20
-130.419
11
129.321
21
-130.276
0
LINE
8
Black
10
129.321
20
-130.276
11
129.321
21
-130.562
0
LINE
8
Black
10
130.607
20
-127.848
11
130.75
21
-127.705
0
LINE
8
Black
10
130.75
20
-127.705
11
131.036
21
-127.562
0
LINE
8
Black
10
131.036
20
-127.562
11
131.75
21
-127.562
0
LINE
8
Black
10
131.75
20
-127.562
11
132.036
21
-127.705
0
LINE
8
Black
10
132.036
20
-127.705
11
132.179
21
-127.848
0
LINE
8
Black
10
132.179
20
-127.848
11
132.321
21
-128.134
0
LINE
8
Black
10
132.321
20
-128.134
11
132.321
21
-128.419
0
LINE
8
Black
10
132.321
20
-128.419
11
132.179
21
-128.848
0
LINE
8
Black
10
132.179
20
-128.848
11
130.464
21
-130.562
0
LINE
8
Black
10
130.464
20
-130.562
11
132.321
21
-130.562
0
LINE
8
Black
10
134.179
20
-127.562
11
134.464
21
-127.562
0
LINE
8
Black
10
134.464
20
-127.562
11
134.75
21
-127.705
0
LINE
8
Black
10
134.75
20
-127.705
11
134.893
21
-127.848
0
LINE
8
Black
10
134.893
20
-127.848
11
135.036
21
-128.134
0
LINE
8
Black
10
135.036
20
-128.134
11
135.179
21
-128.705
0
LINE
8
Black
10
135.179
20
-128.705
11
135.179
21
-129.419
0
LINE
8
Black
10
135.179
20
-129.419
11
135.036
21
-129.991
0
LINE
8
Black
10
135.036
20
-129.991
11
134.893
21
-130.276
0
LINE
8
Black
10
134.893
20
-130.276
11
134.75
21
-130.419
0
LINE
8
Black
10
134.75
20
-130.419
11
134.464
21
-130.562
0
LINE
8
Black
10
134.464
20
-130.562
11
134.179
21
-130.562
0
LINE
8
Black
10
134.179
20
-130.562
11
133.893
21
-130.419
0
LINE
8
Black
10
133.893
20
-130.419
11
133.75
21
-130.276
0
LINE
8
Black
10
133.75
20
-130.276
11
133.607
21
-129.991
0
LINE
8
Black
10
133.607
20
-129.991
11
133.464
21
-129.419
0
LINE
8
Black
10
133.464
20
-129.419
11
133.464
21
-128.705
0
LINE
8
Black
10
133.464
20
-128.705
11
133.607
21
-128.134
0
LINE
8
Black
10
133.607
20
-128.134
11
133.75
21
-127.848
0
LINE
8
Black
10
133.75
20
-127.848
11
133.893
21
-127.705
0
LINE
8
Black
10
133.893
20
-127.705
11
134.179
21
-127.562
0
LINE
8
Black
10
136.464
20
-130.562
11
136.464
21
-128.562
0
LINE
8
Black
10
136.464
20
-128.848
11
136.607
21
-128.705
0
LINE
8
Black
10
136.607
20
-128.705
11
136.893
21
-128.562
0
LINE
8
Black
10
136.893
20
-128.562
11
137.321
21
-128.562
0
LINE
8
Black
10
137.321
20
-128.562
11
137.607
21
-128.705
0
LINE
8
Black
10
137.607
20
-128.705
11
137.75
21
-128.991
0
LINE
8
Black
10
137.75
20
-128.991
11
137.75
21
-130.562
0
LINE
8
Black
10
137.75
20
-128.991
11
137.893
21
-128.705
0
LINE
8
Black
10
137.893
20
-128.705
11
138.179
21
-128.562
0
LINE
8
Black
10
138.179
20
-128.562
11
138.607
21
-128.562
0
LINE
8
Black
10
138.607
20
-128.562
11
138.893
21
-128.705
0
LINE
8
Black
10
138.893
20
-128.705
11
139.036
21
-128.991
0
LINE
8
Black
10
139.036
20
-128.991
11
139.036
21
-130.562
0
LINE
8
Black
10
140.464
20
-130.562
11
140.464
21
-128.562
0
LINE
8
Black
10
140.464
20
-128.848
11
140.607
21
-128.705
0
LINE
8
Black
10
140.607
20
-128.705
11
140.893
21
-128.562
0
LINE
8
Black
10
140.893
20
-128.562
11
141.321
21
-128.562
0
LINE
8
Black
10
141.321
20
-128.562
11
141.607
21
-128.705
0
LINE
8
Black
10
141.607
20
-128.705
11
141.75
21
-128.991
0
LINE
8
Black
10
141.75
20
-128.991
11
141.75
21
-130.562
0
LINE
8
Black
10
141.75
20
-128.991
11
141.893
21
-128.705
0
LINE
8
Black
10
141.893
20
-128.705
11
142.179
21
-128.562
0
LINE
8
Black
10
142.179
20
-128.562
11
142.607
21
-128.562
0
LINE
8
Black
10
142.607
20
-128.562
11
142.893
21
-128.705
0
LINE
8
Black
10
142.893
20
-128.705
11
143.036
21
-128.991
0
LINE
8
Black
10
143.036
20
-128.991
11
143.036
21
-130.562
0
LINE
8
Black
10
148.893
20
-127.419
11
146.321
21
-131.276
0
LINE
8
Black
10
152.75
20
-127.562
11
153.036
21
-127.562
0
LINE
8
Black
10
153.036
20
-127.562
11
153.321
21
-127.705
0
LINE
8
Black
10
153.321
20
-127.705
11
153.464
21
-127.848
0
LINE
8
Black
10
153.464
20
-127.848
11
153.607
21
-128.134
0
LINE
8
Black
10
153.607
20
-128.134
11
153.75
21
-128.705
0
LINE
8
Black
10
153.75
20
-128.705
11
153.75
21
-129.419
0
LINE
8
Black
10
153.75
20
-129.419
11
153.607
21
-129.991
0
LINE
8
Black
10
153.607
20
-129.991
11
153.464
21
-130.276
0
LINE
8
Black
10
153.464
20
-130.276
11
153.321
21
-130.419
0
LINE
8
Black
10
153.321
20
-130.419
11
153.036
21
-130.562
0
LINE
8
Black
10
153.036
20
-130.562
11
152.75
21
-130.562
0
LINE
8
Black
10
152.75
20
-130.562
11
152.464
21
-130.419
0
LINE
8
Black
10
152.464
20
-130.419
11
152.321
21
-130.276
0
LINE
8
Black
10
152.321
20
-130.276
11
152.179
21
-129.991
0
LINE
8
Black
10
152.179
20
-129.991
11
152.036
21
-129.419
0
LINE
8
Black
10
152.036
20
-129.419
11
152.036
21
-128.705
0
LINE
8
Black
10
152.036
20
-128.705
11
152.179
21
-128.134
0
LINE
8
Black
10
152.179
20
-128.134
11
152.321
21
-127.848
0
LINE
8
Black
10
152.321
20
-127.848
11
152.464
21
-127.705
0
LINE
8
Black
10
152.464
20
-127.705
11
152.75
21
-127.562
0
LINE
8
Black
10
155.036
20
-130.276
11
155.179
21
-130.419
0
LINE
8
Black
10
155.179
20
-130.419
11
155.036
21
-130.562
0
LINE
8
Black
10
155.036
20
-130.562
11
154.893
21
-130.419
0
LINE
8
Black
10
154.893
20
-130.419
11
155.036
21
-130.276
0
LINE
8
Black
10
155.036
20
-130.276
11
155.036
21
-130.562
0
LINE
8
Black
10
157.036
20
-127.562
11
157.321
21
-127.562
0
LINE
8
Black
10
157.321
20
-127.562
11
157.607
21
-127.705
0
LINE
8
Black
10
157.607
20
-127.705
11
157.75
21
-127.848
0
LINE
8
Black
10
157.75
20
-127.848
11
157.893
21
-128.134
0
LINE
8
Black
10
157.893
20
-128.134
11
158.036
21
-128.705
0
LINE
8
Black
10
158.036
20
-128.705
11
158.036
21
-129.419
0
LINE
8
Black
10
158.036
20
-129.419
11
157.893
21
-129.991
0
LINE
8
Black
10
157.893
20
-129.991
11
157.75
21
-130.276
0
LINE
8
Black
10
157.75
20
-130.276
11
157.607
21
-130.419
0
LINE
8
Black
10
157.607
20
-130.419
11
157.321
21
-130.562
0
LINE
8
Black
10
157.321
20
-130.562
11
157.036
21
-130.562
0
LINE
8
Black
10
157.036
20
-130.562
11
156.75
21
-130.419
0
LINE
8
Black
10
156.75
20
-130.419
11
156.607
21
-130.276
0
LINE
8
Black
10
156.607
20
-130.276
11
156.464
21
-129.991
0
LINE
8
Black
10
156.464
20
-129.991
11
156.321
21
-129.419
0
LINE
8
Black
10
156.321
20
-129.419
11
156.321
21
-128.705
0
LINE
8
Black
10
156.321
20
-128.705
11
156.464
21
-128.134
0
LINE
8
Black
10
156.464
20
-128.134
11
156.607
21
-127.848
0
LINE
8
Black
10
156.607
20
-127.848
11
156.75
21
-127.705
0
LINE
8
Black
10
156.75
20
-127.705
11
157.036
21
-127.562
0
LINE
8
Black
10
159.75
20
-128.848
11
159.464
21
-128.705
0
LINE
8
Black
10
159.464
20
-128.705
11
159.321
21
-128.562
0
LINE
8
Black
10
159.321
20
-128.562
11
159.179
21
-128.276
0
LINE
8
Black
10
159.179
20
-128.276
11
159.179
21
-128.134
0
LINE
8
Black
10
159.179
20
-128.134
11
159.321
21
-127.848
0
LINE
8
Black
10
159.321
20
-127.848
11
159.464
21
-127.705
0
LINE
8
Black
10
159.464
20
-127.705
11
159.75
21
-127.562
0
LINE
8
Black
10
159.75
20
-127.562
11
160.321
21
-127.562
0
LINE
8
Black
10
160.321
20
-127.562
11
160.607
21
-127.705
0
LINE
8
Black
10
160.607
20
-127.705
11
160.75
21
-127.848
0
LINE
8
Black
10
160.75
20
-127.848
11
160.893
21
-128.134
0
LINE
8
Black
10
160.893
20
-128.134
11
160.893
21
-128.276
0
LINE
8
Black
10
160.893
20
-128.276
11
160.75
21
-128.562
0
LINE
8
Black
10
160.75
20
-128.562
11
160.607
21
-128.705
0
LINE
8
Black
10
160.607
20
-128.705
11
160.321
21
-128.848
0
LINE
8
Black
10
160.321
20
-128.848
11
159.75
21
-128.848
0
LINE
8
Black
10
159.75
20
-128.848
11
159.464
21
-128.991
0
LINE
8
Black
10
159.464
20
-128.991
11
159.321
21
-129.134
0
LINE
8
Black
10
159.321
20
-129.134
11
159.179
21
-129.419
0
LINE
8
Black
10
159.179
20
-129.419
11
159.179
21
-129.991
0
LINE
8
Black
10
159.179
20
-129.991
11
159.321
21
-130.276
0
LINE
8
Black
10
159.321
20
-130.276
11
159.464
21
-130.419
0
LINE
8
Black
10
159.464
20
-130.419
11
159.75
21
-130.562
0
LINE
8
Black
10
159.75
20
-130.562
11
160.321
21
-130.562
0
LINE
8
Black
10
160.321
20
-130.562
11
160.607
21
-130.419
0
LINE
8
Black
10
160.607
20
-130.419
11
160.75
21
-130.276
0
LINE
8
Black
10
160.75
20
-130.276
11
160.893
21
-129.991
0
LINE
8
Black
10
160.893
20
-129.991
11
160.893
21
-129.419
0
LINE
8
Black
10
160.893
20
-129.419
11
160.75
21
-129.134
0
LINE
8
Black
10
160.75
20
-129.134
11
160.607
21
-128.991
0
LINE
8
Black
10
160.607
20
-128.991
11
160.321
21
-128.848
0
LINE
8
Black
10
161.893
20
-127.562
11
163.893
21
-127.562
0
LINE
8
Black
10
163.893
20
-127.562
11
162.607
21
-130.562
0
LINE
8
Black
10
164.893
20
-127.562
11
164.893
21
-128.134
0
LINE
8
Black
10
166.036
20
-127.562
11
166.036
21
-128.134
0
LINE
8
Black
10
170.464
20
-131.705
11
170.321
21
-131.562
0
LINE
8
Black
10
170.321
20
-131.562
11
170.036
21
-131.134
0
LINE
8
Black
10
170.036
20
-131.134
11
169.893
21
-130.848
0
LINE
8
Black
10
169.893
20
-130.848
11
169.75
21
-130.419
0
LINE
8
Black
10
169.75
20
-130.419
11
169.607
21
-129.705
0
LINE
8
Black
10
169.607
20
-129.705
11
169.607
21
-129.134
0
LINE
8
Black
10
169.607
20
-129.134
11
169.75
21
-128.419
0
LINE
8
Black
10
169.75
20
-128.419
11
169.893
21
-127.991
0
LINE
8
Black
10
169.893
20
-127.991
11
170.036
21
-127.705
0
LINE
8
Black
10
170.036
20
-127.705
11
170.321
21
-127.276
0
LINE
8
Black
10
170.321
20
-127.276
11
170.464
21
-127.134
0
LINE
8
Black
10
171.321
20
-127.562
11
173.179
21
-127.562
0
LINE
8
Black
10
173.179
20
-127.562
11
172.179
21
-128.705
0
LINE
8
Black
10
172.179
20
-128.705
11
172.607
21
-128.705
0
LINE
8
Black
10
172.607
20
-128.705
11
172.893
21
-128.848
0
LINE
8
Black
10
172.893
20
-128.848
11
173.036
21
-128.991
0
LINE
8
Black
10
173.036
20
-128.991
11
173.179
21
-129.276
0
LINE
8
Black
10
173.179
20
-129.276
11
173.179
21
-129.991
0
LINE
8
Black
10
173.179
20
-129.991
11
173.036
21
-130.276
0
LINE
8
Black
10
173.036
20
-130.276
11
172.893
21
-130.419
0
LINE
8
Black
10
172.893
20
-130.419
11
172.607
21
-130.562
0
LINE
8
Black
10
172.607
20
-130.562
11
171.75
21
-130.562
0
LINE
8
Black
10
171.75
20
-130.562
11
171.464
21
-130.419
0
LINE
8
Black
10
171.464
20
-130.419
11
171.321
21
-130.276
0
LINE
8
Black
10
176.75
20
-130.562
11
176.75
21
-127.562
0
LINE
8
Black
10
178.036
20
-130.562
11
178.036
21
-128.991
0
LINE
8
Black
10
178.036
20
-128.991
11
177.893
21
-128.705
0
LINE
8
Black
10
177.893
20
-128.705
11
177.607
21
-128.562
0
LINE
8
Black
10
177.607
20
-128.562
11
177.179
21
-128.562
0
LINE
8
Black
10
177.179
20
-128.562
11
176.893
21
-128.705
0
LINE
8
Black
10
176.893
20
-128.705
11
176.75
21
-128.848
0
LINE
8
Black
10
179.893
20
-130.562
11
179.607
21
-130.419
0
LINE
8
Black
10
179.607
20
-130.419
11
179.464
21
-130.276
0
LINE
8
Black
10
179.464
20
-130.276
11
179.321
21
-129.991
0
LINE
8
Black
10
179.321
20
-129.991
11
179.321
21
-129.134
0
LINE
8
Black
10
179.321
20
-129.134
11
179.464
21
-128.848
0
LINE
8
Black
10
179.464
20
-128.848
11
179.607
21
-128.705
0
LINE
8
Black
10
179.607
20
-128.705
11
179.893
21
-128.562
0
LINE
8
Black
10
179.893
20
-128.562
11
180.321
21
-128.562
0
LINE
8
Black
10
180.321
20
-128.562
11
180.607
21
-128.705
0
LINE
8
Black
10
180.607
20
-128.705
11
180.75
21
-128.848
0
LINE
8
Black
10
180.75
20
-128.848
11
180.893
21
-129.134
0
LINE
8
Black
10
180.893
20
-129.134
11
180.893
21
-129.991
0
LINE
8
Black
10
180.893
20
-129.991
11
180.75
21
-130.276
0
LINE
8
Black
10
180.75
20
-130.276
11
180.607
21
-130.419
0
LINE
8
Black
10
180.607
20
-130.419
11
180.321
21
-130.562
0
LINE
8
Black
10
180.321
20
-130.562
11
179.893
21
-130.562
0
LINE
8
Black
10
182.607
20
-130.562
11
182.321
21
-130.419
0
LINE
8
Black
10
182.321
20
-130.419
11
182.179
21
-130.134
0
LINE
8
Black
10
182.179
20
-130.134
11
182.179
21
-127.562
0
LINE
8
Black
10
184.893
20
-130.419
11
184.607
21
-130.562
0
LINE
8
Black
10
184.607
20
-130.562
11
184.036
21
-130.562
0
LINE
8
Black
10
184.036
20
-130.562
11
183.75
21
-130.419
0
LINE
8
Black
10
183.75
20
-130.419
11
183.607
21
-130.134
0
LINE
8
Black
10
183.607
20
-130.134
11
183.607
21
-128.991
0
LINE
8
Black
10
183.607
20
-128.991
11
183.75
21
-128.705
0
LINE
8
Black
10
183.75
20
-128.705
11
184.036
21
-128.562
0
LINE
8
Black
10
184.036
20
-128.562
11
184.607
21
-128.562
0
LINE
8
Black
10
184.607
20
-128.562
11
184.893
21
-128.705
0
LINE
8
Black
10
184.893
20
-128.705
11
185.036
21
-128.991
0
LINE
8
Black
10
185.036
20
-128.991
11
185.036
21
-129.276
0
LINE
8
Black
10
185.036
20
-129.276
11
183.607
21
-129.562
0
LINE
8
Black
10
186.179
20
-130.419
11
186.464
21
-130.562
0
LINE
8
Black
10
186.464
20
-130.562
11
187.036
21
-130.562
0
LINE
8
Black
10
187.036
20
-130.562
11
187.321
21
-130.419
0
LINE
8
Black
10
187.321
20
-130.419
11
187.464
21
-130.134
0
LINE
8
Black
10
187.464
20
-130.134
11
187.464
21
-129.991
0
LINE
8
Black
10
187.464
20
-129.991
11
187.321
21
-129.705
0
LINE
8
Black
10
187.321
20
-129.705
11
187.036
21
-129.562
0
LINE
8
Black
10
187.036
20
-129.562
11
186.607
21
-129.562
0
LINE
8
Black
10
186.607
20
-129.562
11
186.321
21
-129.419
0
LINE
8
Black
10
186.321
20
-129.419
11
186.179
21
-129.134
0
LINE
8
Black
10
186.179
20
-129.134
11
186.179
21
-128.991
0
LINE
8
Black
10
186.179
20
-128.991
11
186.321
21
-128.705
0
LINE
8
Black
10
186.321
20
-128.705
11
186.607
21
-128.562
0
LINE
8
Black
10
186.607
20
-128.562
11
187.036
21
-128.562
0
LINE
8
Black
10
187.036
20
-128.562
11
187.321
21
-128.705
0
LINE
8
Black
10
188.464
20
-131.705
11
188.607
21
-131.562
0
LINE
8
Black
10
188.607
20
-131.562
11
188.893
21
-131.134
0
LINE
8
Black
10
188.893
20
-131.134
11
189.036
21
-130.848
0
LINE
8
Black
10
189.036
20
-130.848
11
189.179
21
-130.419
0
LINE
8
Black
10
189.179
20
-130.419
11
189.321
21
-129.705
0
LINE
8
Black
10
189.321
20
-129.705
11
189.321
21
-129.134
0
LINE
8
Black
10
189.321
20
-129.134
11
189.179
21
-128.419
0
LINE
8
Black
10
189.179
20
-128.419
11
189.036
21
-127.991
0
LINE
8
Black
10
189.036
20
-127.991
11
188.893
21
-127.705
0
LINE
8
Black
10
188.893
20
-127.705
11
188.607
21
-127.276
0
LINE
8
Black
10
188.607
20
-127.276
11
188.464
21
-127.134
0
LINE
8
Black
10
193.893
20
-131.705
11
193.75
21
-131.562
0
LINE
8
Black
10
193.75
20
-131.562
11
193.464
21
-131.134
0
LINE
8
Black
10
193.464
20
-131.134
11
193.321
21
-130.848
0
LINE
8
Black
10
193.321
20
-130.848
11
193.179
21
-130.419
0
LINE
8
Black
10
193.179
20
-130.419
11
193.036
21
-129.705
0
LINE
8
Black
10
193.036
20
-129.705
11
193.036
21
-129.134
0
LINE
8
Black
10
193.036
20
-129.134
11
193.179
21
-128.419
0
LINE
8
Black
10
193.179
20
-128.419
11
193.321
21
-127.991
0
LINE
8
Black
10
193.321
20
-127.991
11
193.464
21
-127.705
0
LINE
8
Black
10
193.464
20
-127.705
11
193.75
21
-127.276
0
LINE
8
Black
10
193.75
20
-127.276
11
193.893
21
-127.134
0
LINE
8
Black
10
195.036
20
-128.562
11
195.036
21
-130.562
0
LINE
8
Black
10
195.036
20
-128.848
11
195.179
21
-128.705
0
LINE
8
Black
10
195.179
20
-128.705
11
195.464
21
-128.562
0
LINE
8
Black
10
195.464
20
-128.562
11
195.893
21
-128.562
0
LINE
8
Black
10
195.893
20
-128.562
11
196.179
21
-128.705
0
LINE
8
Black
10
196.179
20
-128.705
11
196.321
21
-128.991
0
LINE
8
Black
10
196.321
20
-128.991
11
196.321
21
-130.562
0
LINE
8
Black
10
198.179
20
-130.562
11
197.893
21
-130.419
0
LINE
8
Black
10
197.893
20
-130.419
11
197.75
21
-130.276
0
LINE
8
Black
10
197.75
20
-130.276
11
197.607
21
-129.991
0
LINE
8
Black
10
197.607
20
-129.991
11
197.607
21
-129.134
0
LINE
8
Black
10
197.607
20
-129.134
11
197.75
21
-128.848
0
LINE
8
Black
10
197.75
20
-128.848
11
197.893
21
-128.705
0
LINE
8
Black
10
197.893
20
-128.705
11
198.179
21
-128.562
0
LINE
8
Black
10
198.179
20
-128.562
11
198.607
21
-128.562
0
LINE
8
Black
10
198.607
20
-128.562
11
198.893
21
-128.705
0
LINE
8
Black
10
198.893
20
-128.705
11
199.036
21
-128.848
0
LINE
8
Black
10
199.036
20
-128.848
11
199.179
21
-129.134
0
LINE
8
Black
10
199.179
20
-129.134
11
199.179
21
-129.991
0
LINE
8
Black
10
199.179
20
-129.991
11
199.036
21
-130.276
0
LINE
8
Black
10
199.036
20
-130.276
11
198.893
21
-130.419
0
LINE
8
Black
10
198.893
20
-130.419
11
198.607
21
-130.562
0
LINE
8
Black
10
198.607
20
-130.562
11
198.179
21
-130.562
0
LINE
8
Black
10
200.036
20
-128.562
11
201.179
21
-128.562
0
LINE
8
Black
10
200.464
20
-127.562
11
200.464
21
-130.134
0
LINE
8
Black
10
200.464
20
-130.134
11
200.607
21
-130.419
0
LINE
8
Black
10
200.607
20
-130.419
11
200.893
21
-130.562
0
LINE
8
Black
10
200.893
20
-130.562
11
201.179
21
-130.562
0
LINE
8
Black
10
204.464
20
-128.562
11
204.464
21
-131.562
0
LINE
8
Black
10
204.464
20
-128.705
11
204.75
21
-128.562
0
LINE
8
Black
10
204.75
20
-128.562
11
205.321
21
-128.562
0
LINE
8
Black
10
205.321
20
-128.562
11
205.607
21
-128.705
0
LINE
8
Black
10
205.607
20
-128.705
11
205.75
21
-128.848
0
LINE
8
Black
10
205.75
20
-128.848
11
205.893
21
-129.134
0
LINE
8
Black
10
205.893
20
-129.134
11
205.893
21
-129.991
0
LINE
8
Black
10
205.893
20
-129.991
11
205.75
21
-130.276
0
LINE
8
Black
10
205.75
20
-130.276
11
205.607
21
-130.419
0
LINE
8
Black
10
205.607
20
-130.419
11
205.321
21
-130.562
0
LINE
8
Black
10
205.321
20
-130.562
11
204.75
21
-130.562
0
LINE
8
Black
10
204.75
20
-130.562
11
204.464
21
-130.419
0
LINE
8
Black
10
207.607
20
-130.562
11
207.321
21
-130.419
0
LINE
8
Black
10
207.321
20
-130.419
11
207.179
21
-130.134
0
LINE
8
Black
10
207.179
20
-130.134
11
207.179
21
-127.562
0
LINE
8
Black
10
210.036
20
-130.562
11
210.036
21
-128.991
0
LINE
8
Black
10
210.036
20
-128.991
11
209.893
21
-128.705
0
LINE
8
Black
10
209.893
20
-128.705
11
209.607
21
-128.562
0
LINE
8
Black
10
209.607
20
-128.562
11
209.036
21
-128.562
0
LINE
8
Black
10
209.036
20
-128.562
11
208.75
21
-128.705
0
LINE
8
Black
10
210.036
20
-130.419
11
209.75
21
-130.562
0
LINE
8
Black
10
209.75
20
-130.562
11
209.036
21
-130.562
0
LINE
8
Black
10
209.036
20
-130.562
11
208.75
21
-130.419
0
LINE
8
Black
10
208.75
20
-130.419
11
208.607
21
-130.134
0
LINE
8
Black
10
208.607
20
-130.134
11
208.607
21
-129.848
0
LINE
8
Black
10
208.607
20
-129.848
11
208.75
21
-129.562
0
LINE
8
Black
10
208.75
20
-129.562
11
209.036
21
-129.419
0
LINE
8
Black
10
209.036
20
-129.419
11
209.75
21
-129.419
0
LINE
8
Black
10
209.75
20
-129.419
11
210.036
21
-129.276
0
LINE
8
Black
10
211.036
20
-128.562
11
212.179
21
-128.562
0
LINE
8
Black
10
211.464
20
-127.562
11
211.464
21
-130.134
0
LINE
8
Black
10
211.464
20
-130.134
11
211.607
21
-130.419
0
LINE
8
Black
10
211.607
20
-130.419
11
211.893
21
-130.562
0
LINE
8
Black
10
211.893
20
-130.562
11
212.179
21
-130.562
0
LINE
8
Black
10
214.321
20
-130.419
11
214.036
21
-130.562
0
LINE
8
Black
10
214.036
20
-130.562
11
213.464
21
-130.562
0
LINE
8
Black
10
213.464
20
-130.562
11
213.179
21
-130.419
0
LINE
8
Black
10
213.179
20
-130.419
11
213.036
21
-130.134
0
LINE
8
Black
10
213.036
20
-130.134
11
213.036
21
-128.991
0
LINE
8
Black
10
213.036
20
-128.991
11
213.179
21
-128.705
0
LINE
8
Black
10
213.179
20
-128.705
11
213.464
21
-128.562
0
LINE
8
Black
10
213.464
20
-128.562
11
214.036
21
-128.562
0
LINE
8
Black
10
214.036
20
-128.562
11
214.321
21
-128.705
0
LINE
8
Black
10
214.321
20
-128.705
11
214.464
21
-128.991
0
LINE
8
Black
10
214.464
20
-128.991
11
214.464
21
-129.276
0
LINE
8
Black
10
214.464
20
-129.276
11
213.036
21
-129.562
0
LINE
8
Black
10
217.036
20
-130.562
11
217.036
21
-127.562
0
LINE
8
Black
10
217.036
20
-130.419
11
216.75
21
-130.562
0
LINE
8
Black
10
216.75
20
-130.562
11
216.179
21
-130.562
0
LINE
8
Black
10
216.179
20
-130.562
11
215.893
21
-130.419
0
LINE
8
Black
10
215.893
20
-130.419
11
215.75
21
-130.276
0
LINE
8
Black
10
215.75
20
-130.276
11
215.607
21
-129.991
0
LINE
8
Black
10
215.607
20
-129.991
11
215.607
21
-129.134
0
LINE
8
Black
10
215.607
20
-129.134
11
215.75
21
-128.848
0
LINE
8
Black
10
215.75
20
-128.848
11
215.893
21
-128.705
0
LINE
8
Black
10
215.893
20
-128.705
11
216.179
21
-128.562
0
LINE
8
Black
10
216.179
20
-128.562
11
216.75
21
-128.562
0
LINE
8
Black
10
216.75
20
-128.562
11
217.036
21
-128.705
0
LINE
8
Black
10
218.179
20
-131.705
11
218.321
21
-131.562
0
LINE
8
Black
10
218.321
20
-131.562
11
218.607
21
-131.134
0
LINE
8
Black
10
218.607
20
-131.134
11
218.75
21
-130.848
0
LINE
8
Black
10
218.75
20
-130.848
11
218.893
21
-130.419
0
LINE
8
Black
10
218.893
20
-130.419
11
219.036
21
-129.705
0
LINE
8
Black
10
219.036
20
-129.705
11
219.036
21
-129.134
0
LINE
8
Black
10
219.036
20
-129.134
11
218.893
21
-128.419
0
LINE
8
Black
10
218.893
20
-128.419
11
218.75
21
-127.991
0
LINE
8
Black
10
218.75
20
-127.991
11
218.607
21
-127.705
0
LINE
8
Black
10
218.607
20
-127.705
11
218.321
21
-127.276
0
LINE
8
Black
10
218.321
20
-127.276
11
218.179
21
-127.134
  0
ENDSEC
  0
EOF
