  0
SECTION
  2
HEADER
  9
$ANGBASE
  50
0.0
  9
$ANGDIR
  70
  1
  9
$MEASUREMENT
  70
0
  0
ENDSEC
  0
SECTION
  2
TABLES
  0
TABLE
  2
LTYPE
  70
1
  0
LTYPE
  2
CONTINUOUS
  70
0
  3
Solid line
  72
65
  73
0
  40
0.0
  0
ENDTAB
  0
TABLE
  2
STYLE
  70
4
  0
STYLE
  2
KICAD
  70
0
  40
0
  41
1
  42
1
  50
0
  71
0
  3
isocp.shx
  0
STYLE
  2
KICADB
  70
0
  40
0
  41
1
  42
1
  50
0
  71
0
  3
isocp.shx
  0
STYLE
  2
KICADI
  70
0
  40
0
  41
1
  42
1
  50
15
  71
0
  3
isocp.shx
  0
STYLE
  2
KICADBI
  70
0
  40
0
  41
1
  42
1
  50
15
  71
0
  3
isocp.shx
  0
ENDTAB
  0
TABLE
  2
LAYER
  70
30
  0
LAYER
  2
BLACK
  70
0
  62
7
  6
CONTINUOUS
  0
LAYER
  2
GRAY1
  70
0
  62
251
  6
CONTINUOUS
  0
LAYER
  2
GRAY2
  70
0
  62
8
  6
CONTINUOUS
  0
LAYER
  2
GRAY3
  70
0
  62
9
  6
CONTINUOUS
  0
LAYER
  2
WHITE
  70
0
  62
7
  6
CONTINUOUS
  0
LAYER
  2
LYELLOW
  70
0
  62
51
  6
CONTINUOUS
  0
LAYER
  2
BLUE1
  70
0
  62
178
  6
CONTINUOUS
  0
LAYER
  2
GREEN1
  70
0
  62
98
  6
CONTINUOUS
  0
LAYER
  2
CYAN1
  70
0
  62
138
  6
CONTINUOUS
  0
LAYER
  2
RED1
  70
0
  62
18
  6
CONTINUOUS
  0
LAYER
  2
MAGENTA1
  70
0
  62
228
  6
CONTINUOUS
  0
LAYER
  2
BROWN1
  70
0
  62
58
  6
CONTINUOUS
  0
LAYER
  2
BLUE2
  70
0
  62
5
  6
CONTINUOUS
  0
LAYER
  2
GREEN2
  70
0
  62
3
  6
CONTINUOUS
  0
LAYER
  2
CYAN2
  70
0
  62
4
  6
CONTINUOUS
  0
LAYER
  2
RED2
  70
0
  62
1
  6
CONTINUOUS
  0
LAYER
  2
MAGENTA2
  70
0
  62
6
  6
CONTINUOUS
  0
LAYER
  2
BROWN2
  70
0
  62
54
  6
CONTINUOUS
  0
LAYER
  2
BLUE3
  70
0
  62
171
  6
CONTINUOUS
  0
LAYER
  2
GREEN3
  70
0
  62
91
  6
CONTINUOUS
  0
LAYER
  2
CYAN3
  70
0
  62
131
  6
CONTINUOUS
  0
LAYER
  2
RED3
  70
0
  62
11
  6
CONTINUOUS
  0
LAYER
  2
MAGENTA3
  70
0
  62
221
  6
CONTINUOUS
  0
LAYER
  2
YELLOW3
  70
0
  62
2
  6
CONTINUOUS
  0
LAYER
  2
BLUE4
  70
0
  62
5
  6
CONTINUOUS
  0
LAYER
  2
GREEN4
  70
0
  62
3
  6
CONTINUOUS
  0
LAYER
  2
CYAN4
  70
0
  62
4
  6
CONTINUOUS
  0
LAYER
  2
RED4
  70
0
  62
1
  6
CONTINUOUS
  0
LAYER
  2
MAGENTA4
  70
0
  62
6
  6
CONTINUOUS
  0
LAYER
  2
YELLOW4
  70
0
  62
2
  6
CONTINUOUS
  0
ENDTAB
  0
ENDSEC
  0
SECTION
  2
ENTITIES
0
LINE
8
Black
10
129.991
20
-115.007
11
129.172
21
-115.693
0
LINE
8
Black
10
129.172
20
-115.693
11
128.169
21
-116.058
0
LINE
8
Black
10
128.169
20
-116.058
11
127.101
21
-116.058
0
LINE
8
Black
10
127.101
20
-116.058
11
126.097
21
-115.693
0
LINE
8
Black
10
126.097
20
-115.693
11
125.279
21
-115.007
0
LINE
8
Black
10
125.279
20
-115.007
11
124.745
21
-114.082
0
LINE
8
Black
10
124.745
20
-114.082
11
124.56
21
-113.03
0
LINE
8
Black
10
124.56
20
-113.03
11
124.745
21
-111.978
0
LINE
8
Black
10
124.745
20
-111.978
11
125.279
21
-111.053
0
LINE
8
Black
10
125.279
20
-111.053
11
126.097
21
-110.367
0
LINE
8
Black
10
126.097
20
-110.367
11
127.101
21
-110.002
0
LINE
8
Black
10
127.101
20
-110.002
11
128.169
21
-110.002
0
LINE
8
Black
10
128.169
20
-110.002
11
129.172
21
-110.367
0
LINE
8
Black
10
129.172
20
-110.367
11
129.991
21
-111.053
0
LINE
8
Black
10
129.991
20
-111.053
11
130.525
21
-111.978
0
LINE
8
Black
10
130.525
20
-111.978
11
130.71
21
-113.03
0
LINE
8
Black
10
130.71
20
-113.03
11
130.525
21
-114.082
0
LINE
8
Black
10
130.525
20
-114.082
11
129.991
21
-115.007
0
LINE
8
Black
10
129.876
20
-111.15
11
129.097
21
-110.497
0
LINE
8
Black
10
129.097
20
-110.497
11
128.143
21
-110.149
0
LINE
8
Black
10
128.143
20
-110.149
11
127.127
21
-110.149
0
LINE
8
Black
10
127.127
20
-110.149
11
126.172
21
-110.497
0
LINE
8
Black
10
126.172
20
-110.497
11
125.394
21
-111.15
0
LINE
8
Black
10
125.394
20
-111.15
11
124.886
21
-112.03
0
LINE
8
Black
10
124.886
20
-112.03
11
124.71
21
-113.03
0
LINE
8
Black
10
124.71
20
-113.03
11
124.886
21
-114.03
0
LINE
8
Black
10
124.886
20
-114.03
11
125.394
21
-114.91
0
LINE
8
Black
10
125.394
20
-114.91
11
126.172
21
-115.563
0
LINE
8
Black
10
126.172
20
-115.563
11
127.127
21
-115.911
0
LINE
8
Black
10
127.127
20
-115.911
11
128.143
21
-115.911
0
LINE
8
Black
10
128.143
20
-115.911
11
129.097
21
-115.563
0
LINE
8
Black
10
129.097
20
-115.563
11
129.876
21
-114.91
0
LINE
8
Black
10
129.876
20
-114.91
11
130.384
21
-114.03
0
LINE
8
Black
10
130.384
20
-114.03
11
130.56
21
-113.03
0
LINE
8
Black
10
130.56
20
-113.03
11
130.384
21
-112.03
0
LINE
8
Black
10
130.384
20
-112.03
11
129.876
21
-111.15
0
LINE
8
Black
10
171.266
20
-115.007
11
170.447
21
-115.693
0
LINE
8
Black
10
170.447
20
-115.693
11
169.444
21
-116.058
0
LINE
8
Black
10
169.444
20
-116.058
11
168.376
21
-116.058
0
LINE
8
Black
10
168.376
20
-116.058
11
167.373
21
-115.693
0
LINE
8
Black
10
167.373
20
-115.693
11
166.554
21
-115.007
0
LINE
8
Black
10
166.554
20
-115.007
11
166.02
21
-114.082
0
LINE
8
Black
10
166.02
20
-114.082
11
165.835
21
-113.03
0
LINE
8
Black
10
165.835
20
-113.03
11
166.02
21
-111.978
0
LINE
8
Black
10
166.02
20
-111.978
11
166.554
21
-111.053
0
LINE
8
Black
10
166.554
20
-111.053
11
167.373
21
-110.367
0
LINE
8
Black
10
167.373
20
-110.367
11
168.376
21
-110.002
0
LINE
8
Black
10
168.376
20
-110.002
11
169.444
21
-110.002
0
LINE
8
Black
10
169.444
20
-110.002
11
170.447
21
-110.367
0
LINE
8
Black
10
170.447
20
-110.367
11
171.266
21
-111.053
0
LINE
8
Black
10
171.266
20
-111.053
11
171.8
21
-111.978
0
LINE
8
Black
10
171.8
20
-111.978
11
171.985
21
-113.03
0
LINE
8
Black
10
171.985
20
-113.03
11
171.8
21
-114.082
0
LINE
8
Black
10
171.8
20
-114.082
11
171.266
21
-115.007
0
LINE
8
Black
10
171.151
20
-111.15
11
170.373
21
-110.497
0
LINE
8
Black
10
170.373
20
-110.497
11
169.418
21
-110.149
0
LINE
8
Black
10
169.418
20
-110.149
11
168.402
21
-110.149
0
LINE
8
Black
10
168.402
20
-110.149
11
167.447
21
-110.497
0
LINE
8
Black
10
167.447
20
-110.497
11
166.669
21
-111.15
0
LINE
8
Black
10
166.669
20
-111.15
11
166.161
21
-112.03
0
LINE
8
Black
10
166.161
20
-112.03
11
165.985
21
-113.03
0
LINE
8
Black
10
165.985
20
-113.03
11
166.161
21
-114.03
0
LINE
8
Black
10
166.161
20
-114.03
11
166.669
21
-114.91
0
LINE
8
Black
10
166.669
20
-114.91
11
167.447
21
-115.563
0
LINE
8
Black
10
167.447
20
-115.563
11
168.402
21
-115.911
0
LINE
8
Black
10
168.402
20
-115.911
11
169.418
21
-115.911
0
LINE
8
Black
10
169.418
20
-115.911
11
170.373
21
-115.563
0
LINE
8
Black
10
170.373
20
-115.563
11
171.151
21
-114.91
0
LINE
8
Black
10
171.151
20
-114.91
11
171.659
21
-114.03
0
LINE
8
Black
10
171.659
20
-114.03
11
171.835
21
-113.03
0
LINE
8
Black
10
171.835
20
-113.03
11
171.659
21
-112.03
0
LINE
8
Black
10
171.659
20
-112.03
11
171.151
21
-111.15
0
LINE
8
Black
10
165.106
20
-97.0811
11
165.113
21
-97.0811
0
LINE
8
Black
10
165.113
20
-97.0811
11
165.119
21
-97.0834
0
LINE
8
Black
10
165.119
20
-97.0834
11
165.126
21
-97.0845
0
LINE
8
Black
10
165.126
20
-97.0845
11
165.131
21
-97.0878
0
LINE
8
Black
10
165.131
20
-97.0878
11
165.137
21
-97.09
0
LINE
8
Black
10
165.137
20
-97.09
11
165.143
21
-97.0943
0
LINE
8
Black
10
165.143
20
-97.0943
11
165.148
21
-97.0975
0
LINE
8
Black
10
165.148
20
-97.0975
11
165.152
21
-97.1026
0
LINE
8
Black
10
165.152
20
-97.1026
11
165.157
21
-97.1068
0
LINE
8
Black
10
165.157
20
-97.1068
11
165.161
21
-97.1125
0
LINE
8
Black
10
165.161
20
-97.1125
11
165.165
21
-97.1175
0
LINE
8
Black
10
165.165
20
-97.1175
11
165.167
21
-97.1237
0
LINE
8
Black
10
165.167
20
-97.1237
11
165.17
21
-97.1293
0
LINE
8
Black
10
165.17
20
-97.1293
11
165.172
21
-97.1358
0
LINE
8
Black
10
165.172
20
-97.1358
11
165.174
21
-97.142
0
LINE
8
Black
10
165.174
20
-97.142
11
165.174
21
-97.1485
0
LINE
8
Black
10
165.174
20
-97.1485
11
165.175
21
-97.155
0
LINE
8
Black
10
165.175
20
-97.155
11
165.175
21
-114.935
0
LINE
8
Black
10
165.175
20
-114.935
11
165.174
21
-114.941
0
LINE
8
Black
10
165.174
20
-114.941
11
165.174
21
-114.948
0
LINE
8
Black
10
165.174
20
-114.948
11
165.172
21
-114.954
0
LINE
8
Black
10
165.172
20
-114.954
11
165.17
21
-114.961
0
LINE
8
Black
10
165.17
20
-114.961
11
165.167
21
-114.966
0
LINE
8
Black
10
165.167
20
-114.966
11
165.165
21
-114.972
0
LINE
8
Black
10
165.165
20
-114.972
11
165.161
21
-114.978
0
LINE
8
Black
10
165.161
20
-114.978
11
165.157
21
-114.983
0
LINE
8
Black
10
165.157
20
-114.983
11
165.152
21
-114.987
0
LINE
8
Black
10
165.152
20
-114.987
11
165.148
21
-114.992
0
LINE
8
Black
10
165.148
20
-114.992
11
165.143
21
-114.996
0
LINE
8
Black
10
165.143
20
-114.996
11
165.137
21
-115
0
LINE
8
Black
10
165.137
20
-115
11
165.131
21
-115.002
0
LINE
8
Black
10
165.131
20
-115.002
11
165.126
21
-115.005
0
LINE
8
Black
10
165.126
20
-115.005
11
165.119
21
-115.007
0
LINE
8
Black
10
165.119
20
-115.007
11
165.113
21
-115.009
0
LINE
8
Black
10
165.113
20
-115.009
11
165.106
21
-115.009
0
LINE
8
Black
10
165.106
20
-115.009
11
165.1
21
-115.01
0
LINE
8
Black
10
165.1
20
-115.01
11
132.08
21
-115.01
0
LINE
8
Black
10
132.08
20
-115.01
11
132.074
21
-115.009
0
LINE
8
Black
10
132.074
20
-115.009
11
132.067
21
-115.009
0
LINE
8
Black
10
132.067
20
-115.009
11
132.061
21
-115.007
0
LINE
8
Black
10
132.061
20
-115.007
11
132.054
21
-115.005
0
LINE
8
Black
10
132.054
20
-115.005
11
132.049
21
-115.002
0
LINE
8
Black
10
132.049
20
-115.002
11
132.042
21
-115
0
LINE
8
Black
10
132.042
20
-115
11
132.037
21
-114.996
0
LINE
8
Black
10
132.037
20
-114.996
11
132.032
21
-114.992
0
LINE
8
Black
10
132.032
20
-114.992
11
132.028
21
-114.987
0
LINE
8
Black
10
132.028
20
-114.987
11
132.023
21
-114.983
0
LINE
8
Black
10
132.023
20
-114.983
11
132.019
21
-114.978
0
LINE
8
Black
10
132.019
20
-114.978
11
132.015
21
-114.972
0
LINE
8
Black
10
132.015
20
-114.972
11
132.013
21
-114.966
0
LINE
8
Black
10
132.013
20
-114.966
11
132.01
21
-114.961
0
LINE
8
Black
10
132.01
20
-114.961
11
132.008
21
-114.954
0
LINE
8
Black
10
132.008
20
-114.954
11
132.006
21
-114.948
0
LINE
8
Black
10
132.006
20
-114.948
11
132.006
21
-114.941
0
LINE
8
Black
10
132.006
20
-114.941
11
132.005
21
-114.935
0
LINE
8
Black
10
132.005
20
-114.935
11
132.005
21
-97.155
0
LINE
8
Black
10
132.005
20
-97.155
11
132.006
21
-97.1485
0
LINE
8
Black
10
132.006
20
-97.1485
11
132.006
21
-97.142
0
LINE
8
Black
10
132.006
20
-97.142
11
132.008
21
-97.1358
0
LINE
8
Black
10
132.008
20
-97.1358
11
132.01
21
-97.1293
0
LINE
8
Black
10
132.01
20
-97.1293
11
132.013
21
-97.1237
0
LINE
8
Black
10
132.013
20
-97.1237
11
132.015
21
-97.1175
0
LINE
8
Black
10
132.015
20
-97.1175
11
132.019
21
-97.1125
0
LINE
8
Black
10
132.019
20
-97.1125
11
132.023
21
-97.1068
0
LINE
8
Black
10
132.023
20
-97.1068
11
132.028
21
-97.1026
0
LINE
8
Black
10
132.028
20
-97.1026
11
132.032
21
-97.0975
0
LINE
8
Black
10
132.032
20
-97.0975
11
132.037
21
-97.0943
0
LINE
8
Black
10
132.037
20
-97.0943
11
132.042
21
-97.09
0
LINE
8
Black
10
132.042
20
-97.09
11
132.049
21
-97.0878
0
LINE
8
Black
10
132.049
20
-97.0878
11
132.054
21
-97.0845
0
LINE
8
Black
10
132.054
20
-97.0845
11
132.061
21
-97.0834
0
LINE
8
Black
10
132.061
20
-97.0834
11
132.067
21
-97.0811
0
LINE
8
Black
10
132.067
20
-97.0811
11
132.074
21
-97.0811
0
LINE
8
Black
10
132.074
20
-97.0811
11
132.08
21
-97.08
0
LINE
8
Black
10
132.08
20
-97.08
11
165.1
21
-97.08
0
LINE
8
Black
10
165.1
20
-97.08
11
165.106
21
-97.0811
0
LINE
8
Black
10
132.155
20
-97.23
11
132.155
21
-114.86
0
LINE
8
Black
10
132.155
20
-114.86
11
165.025
21
-114.86
0
LINE
8
Black
10
165.025
20
-114.86
11
165.025
21
-97.23
0
LINE
8
Black
10
165.025
20
-97.23
11
132.155
21
-97.23
0
LINE
8
Black
10
133.991
20
-98.9861
11
133.998
21
-98.9861
0
LINE
8
Black
10
133.998
20
-98.9861
11
134.004
21
-98.9884
0
LINE
8
Black
10
134.004
20
-98.9884
11
134.011
21
-98.9895
0
LINE
8
Black
10
134.011
20
-98.9895
11
134.016
21
-98.9928
0
LINE
8
Black
10
134.016
20
-98.9928
11
134.023
21
-98.995
0
LINE
8
Black
10
134.023
20
-98.995
11
134.028
21
-98.9993
0
LINE
8
Black
10
134.028
20
-98.9993
11
134.033
21
-99.0025
0
LINE
8
Black
10
134.033
20
-99.0025
11
134.037
21
-99.0076
0
LINE
8
Black
10
134.037
20
-99.0076
11
134.042
21
-99.0118
0
LINE
8
Black
10
134.042
20
-99.0118
11
134.046
21
-99.0175
0
LINE
8
Black
10
134.046
20
-99.0175
11
134.05
21
-99.0225
0
LINE
8
Black
10
134.05
20
-99.0225
11
134.052
21
-99.0287
0
LINE
8
Black
10
134.052
20
-99.0287
11
134.055
21
-99.0343
0
LINE
8
Black
10
134.055
20
-99.0343
11
134.057
21
-99.0408
0
LINE
8
Black
10
134.057
20
-99.0408
11
134.059
21
-99.047
0
LINE
8
Black
10
134.059
20
-99.047
11
134.059
21
-99.0535
0
LINE
8
Black
10
134.059
20
-99.0535
11
134.06
21
-99.06
0
LINE
8
Black
10
134.06
20
-99.06
11
134.06
21
-113.03
0
LINE
8
Black
10
134.06
20
-113.03
11
134.059
21
-113.036
0
LINE
8
Black
10
134.059
20
-113.036
11
134.059
21
-113.043
0
LINE
8
Black
10
134.059
20
-113.043
11
134.057
21
-113.049
0
LINE
8
Black
10
134.057
20
-113.049
11
134.055
21
-113.056
0
LINE
8
Black
10
134.055
20
-113.056
11
134.052
21
-113.061
0
LINE
8
Black
10
134.052
20
-113.061
11
134.05
21
-113.067
0
LINE
8
Black
10
134.05
20
-113.067
11
134.046
21
-113.073
0
LINE
8
Black
10
134.046
20
-113.073
11
134.042
21
-113.078
0
LINE
8
Black
10
134.042
20
-113.078
11
134.037
21
-113.082
0
LINE
8
Black
10
134.037
20
-113.082
11
134.033
21
-113.087
0
LINE
8
Black
10
134.033
20
-113.087
11
134.028
21
-113.091
0
LINE
8
Black
10
134.028
20
-113.091
11
134.023
21
-113.095
0
LINE
8
Black
10
134.023
20
-113.095
11
134.016
21
-113.097
0
LINE
8
Black
10
134.016
20
-113.097
11
134.011
21
-113.1
0
LINE
8
Black
10
134.011
20
-113.1
11
134.004
21
-113.102
0
LINE
8
Black
10
134.004
20
-113.102
11
133.998
21
-113.104
0
LINE
8
Black
10
133.998
20
-113.104
11
133.991
21
-113.104
0
LINE
8
Black
10
133.991
20
-113.104
11
133.985
21
-113.105
0
LINE
8
Black
10
133.985
20
-113.105
11
132.715
21
-113.105
0
LINE
8
Black
10
132.715
20
-113.105
11
132.709
21
-113.104
0
LINE
8
Black
10
132.709
20
-113.104
11
132.702
21
-113.104
0
LINE
8
Black
10
132.702
20
-113.104
11
132.696
21
-113.102
0
LINE
8
Black
10
132.696
20
-113.102
11
132.689
21
-113.1
0
LINE
8
Black
10
132.689
20
-113.1
11
132.684
21
-113.097
0
LINE
8
Black
10
132.684
20
-113.097
11
132.677
21
-113.095
0
LINE
8
Black
10
132.677
20
-113.095
11
132.672
21
-113.091
0
LINE
8
Black
10
132.672
20
-113.091
11
132.667
21
-113.087
0
LINE
8
Black
10
132.667
20
-113.087
11
132.663
21
-113.082
0
LINE
8
Black
10
132.663
20
-113.082
11
132.658
21
-113.078
0
LINE
8
Black
10
132.658
20
-113.078
11
132.654
21
-113.073
0
LINE
8
Black
10
132.654
20
-113.073
11
132.65
21
-113.067
0
LINE
8
Black
10
132.65
20
-113.067
11
132.648
21
-113.061
0
LINE
8
Black
10
132.648
20
-113.061
11
132.645
21
-113.056
0
LINE
8
Black
10
132.645
20
-113.056
11
132.643
21
-113.049
0
LINE
8
Black
10
132.643
20
-113.049
11
132.641
21
-113.043
0
LINE
8
Black
10
132.641
20
-113.043
11
132.641
21
-113.036
0
LINE
8
Black
10
132.641
20
-113.036
11
132.64
21
-113.03
0
LINE
8
Black
10
132.64
20
-113.03
11
132.64
21
-99.06
0
LINE
8
Black
10
132.64
20
-99.06
11
132.641
21
-99.0535
0
LINE
8
Black
10
132.641
20
-99.0535
11
132.641
21
-99.047
0
LINE
8
Black
10
132.641
20
-99.047
11
132.643
21
-99.0408
0
LINE
8
Black
10
132.643
20
-99.0408
11
132.645
21
-99.0343
0
LINE
8
Black
10
132.645
20
-99.0343
11
132.648
21
-99.0287
0
LINE
8
Black
10
132.648
20
-99.0287
11
132.65
21
-99.0225
0
LINE
8
Black
10
132.65
20
-99.0225
11
132.654
21
-99.0175
0
LINE
8
Black
10
132.654
20
-99.0175
11
132.658
21
-99.0118
0
LINE
8
Black
10
132.658
20
-99.0118
11
132.663
21
-99.0076
0
LINE
8
Black
10
132.663
20
-99.0076
11
132.667
21
-99.0025
0
LINE
8
Black
10
132.667
20
-99.0025
11
132.672
21
-98.9993
0
LINE
8
Black
10
132.672
20
-98.9993
11
132.677
21
-98.995
0
LINE
8
Black
10
132.677
20
-98.995
11
132.684
21
-98.9928
0
LINE
8
Black
10
132.684
20
-98.9928
11
132.689
21
-98.9895
0
LINE
8
Black
10
132.689
20
-98.9895
11
132.696
21
-98.9884
0
LINE
8
Black
10
132.696
20
-98.9884
11
132.702
21
-98.9861
0
LINE
8
Black
10
132.702
20
-98.9861
11
132.709
21
-98.9861
0
LINE
8
Black
10
132.709
20
-98.9861
11
132.715
21
-98.985
0
LINE
8
Black
10
132.715
20
-98.985
11
133.985
21
-98.985
0
LINE
8
Black
10
133.985
20
-98.985
11
133.991
21
-98.9861
0
LINE
8
Black
10
132.79
20
-99.135
11
132.79
21
-112.955
0
LINE
8
Black
10
132.79
20
-112.955
11
133.91
21
-112.955
0
LINE
8
Black
10
133.91
20
-112.955
11
133.91
21
-99.135
0
LINE
8
Black
10
133.91
20
-99.135
11
132.79
21
-99.135
0
LINE
8
Black
10
162.826
20
-106.161
11
162.83
21
-106.161
0
LINE
8
Black
10
162.83
20
-106.161
11
162.839
21
-106.163
0
LINE
8
Black
10
162.839
20
-106.163
11
162.848
21
-106.165
0
LINE
8
Black
10
162.848
20
-106.165
11
162.851
21
-106.167
0
LINE
8
Black
10
162.851
20
-106.167
11
162.855
21
-106.168
0
LINE
8
Black
10
162.855
20
-106.168
11
162.951
21
-106.216
0
LINE
8
Black
10
162.951
20
-106.216
11
162.96
21
-106.223
0
LINE
8
Black
10
162.96
20
-106.223
11
162.97
21
-106.23
0
LINE
8
Black
10
162.97
20
-106.23
11
163.018
21
-106.278
0
LINE
8
Black
10
163.018
20
-106.278
11
163.025
21
-106.288
0
LINE
8
Black
10
163.025
20
-106.288
11
163.032
21
-106.297
0
LINE
8
Black
10
163.032
20
-106.297
11
163.079
21
-106.392
0
LINE
8
Black
10
163.079
20
-106.392
11
163.081
21
-106.397
0
LINE
8
Black
10
163.081
20
-106.397
11
163.083
21
-106.4
0
LINE
8
Black
10
163.083
20
-106.4
11
163.084
21
-106.409
0
LINE
8
Black
10
163.084
20
-106.409
11
163.087
21
-106.417
0
LINE
8
Black
10
163.087
20
-106.417
11
163.087
21
-106.422
0
LINE
8
Black
10
163.087
20
-106.422
11
163.087
21
-106.426
0
LINE
8
Black
10
163.087
20
-106.426
11
163.087
21
-106.616
0
LINE
8
Black
10
163.087
20
-106.616
11
163.087
21
-106.621
0
LINE
8
Black
10
163.087
20
-106.621
11
163.087
21
-106.625
0
LINE
8
Black
10
163.087
20
-106.625
11
163.084
21
-106.633
0
LINE
8
Black
10
163.084
20
-106.633
11
163.083
21
-106.642
0
LINE
8
Black
10
163.083
20
-106.642
11
163.081
21
-106.646
0
LINE
8
Black
10
163.081
20
-106.646
11
163.079
21
-106.65
0
LINE
8
Black
10
163.079
20
-106.65
11
163.032
21
-106.745
0
LINE
8
Black
10
163.032
20
-106.745
11
163.025
21
-106.755
0
LINE
8
Black
10
163.025
20
-106.755
11
163.018
21
-106.765
0
LINE
8
Black
10
163.018
20
-106.765
11
162.97
21
-106.812
0
LINE
8
Black
10
162.97
20
-106.812
11
162.96
21
-106.819
0
LINE
8
Black
10
162.96
20
-106.819
11
162.951
21
-106.826
0
LINE
8
Black
10
162.951
20
-106.826
11
162.855
21
-106.874
0
LINE
8
Black
10
162.855
20
-106.874
11
162.851
21
-106.875
0
LINE
8
Black
10
162.851
20
-106.875
11
162.848
21
-106.877
0
LINE
8
Black
10
162.848
20
-106.877
11
162.839
21
-106.879
0
LINE
8
Black
10
162.839
20
-106.879
11
162.83
21
-106.881
0
LINE
8
Black
10
162.83
20
-106.881
11
162.826
21
-106.881
0
LINE
8
Black
10
162.826
20
-106.881
11
162.822
21
-106.882
0
LINE
8
Black
10
162.822
20
-106.882
11
162.012
21
-106.882
0
LINE
8
Black
10
162.012
20
-106.882
11
161.987
21
-106.877
0
LINE
8
Black
10
161.987
20
-106.877
11
161.964
21
-106.864
0
LINE
8
Black
10
161.964
20
-106.864
11
161.947
21
-106.844
0
LINE
8
Black
10
161.947
20
-106.844
11
161.939
21
-106.82
0
LINE
8
Black
10
161.939
20
-106.82
11
161.939
21
-106.794
0
LINE
8
Black
10
161.939
20
-106.794
11
161.947
21
-106.769
0
LINE
8
Black
10
161.947
20
-106.769
11
161.964
21
-106.749
0
LINE
8
Black
10
161.964
20
-106.749
11
161.987
21
-106.736
0
LINE
8
Black
10
161.987
20
-106.736
11
162.012
21
-106.732
0
LINE
8
Black
10
162.012
20
-106.732
11
162.804
21
-106.732
0
LINE
8
Black
10
162.804
20
-106.732
11
162.873
21
-106.698
0
LINE
8
Black
10
162.873
20
-106.698
11
162.903
21
-106.667
0
LINE
8
Black
10
162.903
20
-106.667
11
162.937
21
-106.599
0
LINE
8
Black
10
162.937
20
-106.599
11
162.937
21
-106.444
0
LINE
8
Black
10
162.937
20
-106.444
11
162.903
21
-106.375
0
LINE
8
Black
10
162.903
20
-106.375
11
162.873
21
-106.345
0
LINE
8
Black
10
162.873
20
-106.345
11
162.804
21
-106.31
0
LINE
8
Black
10
162.804
20
-106.31
11
162.012
21
-106.31
0
LINE
8
Black
10
162.012
20
-106.31
11
161.987
21
-106.306
0
LINE
8
Black
10
161.987
20
-106.306
11
161.964
21
-106.293
0
LINE
8
Black
10
161.964
20
-106.293
11
161.947
21
-106.273
0
LINE
8
Black
10
161.947
20
-106.273
11
161.939
21
-106.248
0
LINE
8
Black
10
161.939
20
-106.248
11
161.939
21
-106.222
0
LINE
8
Black
10
161.939
20
-106.222
11
161.947
21
-106.198
0
LINE
8
Black
10
161.947
20
-106.198
11
161.964
21
-106.178
0
LINE
8
Black
10
161.964
20
-106.178
11
161.987
21
-106.165
0
LINE
8
Black
10
161.987
20
-106.165
11
162.012
21
-106.16
0
LINE
8
Black
10
162.012
20
-106.16
11
162.822
21
-106.16
0
LINE
8
Black
10
162.822
20
-106.16
11
162.826
21
-106.161
0
LINE
8
Black
10
162.826
20
-105.161
11
162.83
21
-105.161
0
LINE
8
Black
10
162.83
20
-105.161
11
162.839
21
-105.163
0
LINE
8
Black
10
162.839
20
-105.163
11
162.848
21
-105.165
0
LINE
8
Black
10
162.848
20
-105.165
11
162.851
21
-105.167
0
LINE
8
Black
10
162.851
20
-105.167
11
162.855
21
-105.168
0
LINE
8
Black
10
162.855
20
-105.168
11
162.951
21
-105.216
0
LINE
8
Black
10
162.951
20
-105.216
11
162.96
21
-105.223
0
LINE
8
Black
10
162.96
20
-105.223
11
162.97
21
-105.23
0
LINE
8
Black
10
162.97
20
-105.23
11
163.018
21
-105.278
0
LINE
8
Black
10
163.018
20
-105.278
11
163.025
21
-105.288
0
LINE
8
Black
10
163.025
20
-105.288
11
163.032
21
-105.297
0
LINE
8
Black
10
163.032
20
-105.297
11
163.079
21
-105.392
0
LINE
8
Black
10
163.079
20
-105.392
11
163.081
21
-105.397
0
LINE
8
Black
10
163.081
20
-105.397
11
163.083
21
-105.4
0
LINE
8
Black
10
163.083
20
-105.4
11
163.084
21
-105.409
0
LINE
8
Black
10
163.084
20
-105.409
11
163.087
21
-105.417
0
LINE
8
Black
10
163.087
20
-105.417
11
163.087
21
-105.422
0
LINE
8
Black
10
163.087
20
-105.422
11
163.087
21
-105.426
0
LINE
8
Black
10
163.087
20
-105.426
11
163.087
21
-105.712
0
LINE
8
Black
10
163.087
20
-105.712
11
163.087
21
-105.716
0
LINE
8
Black
10
163.087
20
-105.716
11
163.087
21
-105.72
0
LINE
8
Black
10
163.087
20
-105.72
11
163.084
21
-105.729
0
LINE
8
Black
10
163.084
20
-105.729
11
163.083
21
-105.737
0
LINE
8
Black
10
163.083
20
-105.737
11
163.081
21
-105.741
0
LINE
8
Black
10
163.081
20
-105.741
11
163.079
21
-105.745
0
LINE
8
Black
10
163.079
20
-105.745
11
163.032
21
-105.84
0
LINE
8
Black
10
163.032
20
-105.84
11
163.025
21
-105.85
0
LINE
8
Black
10
163.025
20
-105.85
11
163.018
21
-105.86
0
LINE
8
Black
10
163.018
20
-105.86
11
162.97
21
-105.908
0
LINE
8
Black
10
162.97
20
-105.908
11
162.949
21
-105.922
0
LINE
8
Black
10
162.949
20
-105.922
11
162.924
21
-105.929
0
LINE
8
Black
10
162.924
20
-105.929
11
162.898
21
-105.927
0
LINE
8
Black
10
162.898
20
-105.927
11
162.874
21
-105.916
0
LINE
8
Black
10
162.874
20
-105.916
11
162.856
21
-105.898
0
LINE
8
Black
10
162.856
20
-105.898
11
162.845
21
-105.874
0
LINE
8
Black
10
162.845
20
-105.874
11
162.842
21
-105.848
0
LINE
8
Black
10
162.842
20
-105.848
11
162.849
21
-105.823
0
LINE
8
Black
10
162.849
20
-105.823
11
162.864
21
-105.801
0
LINE
8
Black
10
162.864
20
-105.801
11
162.903
21
-105.762
0
LINE
8
Black
10
162.903
20
-105.762
11
162.937
21
-105.694
0
LINE
8
Black
10
162.937
20
-105.694
11
162.937
21
-105.444
0
LINE
8
Black
10
162.937
20
-105.444
11
162.903
21
-105.375
0
LINE
8
Black
10
162.903
20
-105.375
11
162.873
21
-105.345
0
LINE
8
Black
10
162.873
20
-105.345
11
162.804
21
-105.31
0
LINE
8
Black
10
162.804
20
-105.31
11
162.602
21
-105.31
0
LINE
8
Black
10
162.602
20
-105.31
11
162.533
21
-105.345
0
LINE
8
Black
10
162.533
20
-105.345
11
162.503
21
-105.375
0
LINE
8
Black
10
162.503
20
-105.375
11
162.468
21
-105.444
0
LINE
8
Black
10
162.468
20
-105.444
11
162.468
21
-105.569
0
LINE
8
Black
10
162.468
20
-105.569
11
162.467
21
-105.576
0
LINE
8
Black
10
162.467
20
-105.576
11
162.467
21
-105.583
0
LINE
8
Black
10
162.467
20
-105.583
11
162.465
21
-105.589
0
LINE
8
Black
10
162.465
20
-105.589
11
162.464
21
-105.594
0
LINE
8
Black
10
162.464
20
-105.594
11
162.46
21
-105.601
0
LINE
8
Black
10
162.46
20
-105.601
11
162.457
21
-105.608
0
LINE
8
Black
10
162.457
20
-105.608
11
162.454
21
-105.612
0
LINE
8
Black
10
162.454
20
-105.612
11
162.451
21
-105.617
0
LINE
8
Black
10
162.451
20
-105.617
11
162.445
21
-105.622
0
LINE
8
Black
10
162.445
20
-105.622
11
162.44
21
-105.627
0
LINE
8
Black
10
162.44
20
-105.627
11
162.435
21
-105.63
0
LINE
8
Black
10
162.435
20
-105.63
11
162.431
21
-105.634
0
LINE
8
Black
10
162.431
20
-105.634
11
162.424
21
-105.636
0
LINE
8
Black
10
162.424
20
-105.636
11
162.418
21
-105.64
0
LINE
8
Black
10
162.418
20
-105.64
11
162.412
21
-105.641
0
LINE
8
Black
10
162.412
20
-105.641
11
162.406
21
-105.643
0
LINE
8
Black
10
162.406
20
-105.643
11
162.399
21
-105.643
0
LINE
8
Black
10
162.399
20
-105.643
11
162.392
21
-105.644
0
LINE
8
Black
10
162.392
20
-105.644
11
162.386
21
-105.643
0
LINE
8
Black
10
162.386
20
-105.643
11
162.38
21
-105.643
0
LINE
8
Black
10
162.38
20
-105.643
11
162.373
21
-105.64
0
LINE
8
Black
10
162.373
20
-105.64
11
162.366
21
-105.639
0
LINE
8
Black
10
162.366
20
-105.639
11
162.361
21
-105.636
0
LINE
8
Black
10
162.361
20
-105.636
11
162.356
21
-105.634
0
LINE
8
Black
10
162.356
20
-105.634
11
162.35
21
-105.629
0
LINE
8
Black
10
162.35
20
-105.629
11
162.344
21
-105.625
0
LINE
8
Black
10
162.344
20
-105.625
11
162.087
21
-105.401
0
LINE
8
Black
10
162.087
20
-105.401
11
162.087
21
-105.855
0
LINE
8
Black
10
162.087
20
-105.855
11
162.083
21
-105.88
0
LINE
8
Black
10
162.083
20
-105.88
11
162.07
21
-105.903
0
LINE
8
Black
10
162.07
20
-105.903
11
162.05
21
-105.919
0
LINE
8
Black
10
162.05
20
-105.919
11
162.025
21
-105.928
0
LINE
8
Black
10
162.025
20
-105.928
11
161.999
21
-105.928
0
LINE
8
Black
10
161.999
20
-105.928
11
161.975
21
-105.919
0
LINE
8
Black
10
161.975
20
-105.919
11
161.955
21
-105.903
0
LINE
8
Black
10
161.955
20
-105.903
11
161.942
21
-105.88
0
LINE
8
Black
10
161.942
20
-105.88
11
161.937
21
-105.855
0
LINE
8
Black
10
161.937
20
-105.855
11
161.937
21
-105.235
0
LINE
8
Black
10
161.937
20
-105.235
11
161.939
21
-105.228
0
LINE
8
Black
10
161.939
20
-105.228
11
161.939
21
-105.221
0
LINE
8
Black
10
161.939
20
-105.221
11
161.941
21
-105.216
0
LINE
8
Black
10
161.941
20
-105.216
11
161.942
21
-105.21
0
LINE
8
Black
10
161.942
20
-105.21
11
161.946
21
-105.203
0
LINE
8
Black
10
161.946
20
-105.203
11
161.948
21
-105.197
0
LINE
8
Black
10
161.948
20
-105.197
11
161.952
21
-105.192
0
LINE
8
Black
10
161.952
20
-105.192
11
161.955
21
-105.187
0
LINE
8
Black
10
161.955
20
-105.187
11
161.961
21
-105.183
0
LINE
8
Black
10
161.961
20
-105.183
11
161.965
21
-105.177
0
LINE
8
Black
10
161.965
20
-105.177
11
161.97
21
-105.174
0
LINE
8
Black
10
161.97
20
-105.174
11
161.975
21
-105.171
0
LINE
8
Black
10
161.975
20
-105.171
11
161.982
21
-105.168
0
LINE
8
Black
10
161.982
20
-105.168
11
161.988
21
-105.164
0
LINE
8
Black
10
161.988
20
-105.164
11
161.994
21
-105.164
0
LINE
8
Black
10
161.994
20
-105.164
11
161.999
21
-105.162
0
LINE
8
Black
10
161.999
20
-105.162
11
162.007
21
-105.162
0
LINE
8
Black
10
162.007
20
-105.162
11
162.014
21
-105.16
0
LINE
8
Black
10
162.014
20
-105.16
11
162.02
21
-105.162
0
LINE
8
Black
10
162.02
20
-105.162
11
162.025
21
-105.162
0
LINE
8
Black
10
162.025
20
-105.162
11
162.032
21
-105.164
0
LINE
8
Black
10
162.032
20
-105.164
11
162.039
21
-105.166
0
LINE
8
Black
10
162.039
20
-105.166
11
162.044
21
-105.169
0
LINE
8
Black
10
162.044
20
-105.169
11
162.05
21
-105.171
0
LINE
8
Black
10
162.05
20
-105.171
11
162.055
21
-105.175
0
LINE
8
Black
10
162.055
20
-105.175
11
162.062
21
-105.179
0
LINE
8
Black
10
162.062
20
-105.179
11
162.322
21
-105.407
0
LINE
8
Black
10
162.322
20
-105.407
11
162.323
21
-105.4
0
LINE
8
Black
10
162.323
20
-105.4
11
162.325
21
-105.397
0
LINE
8
Black
10
162.325
20
-105.397
11
162.326
21
-105.392
0
LINE
8
Black
10
162.326
20
-105.392
11
162.374
21
-105.297
0
LINE
8
Black
10
162.374
20
-105.297
11
162.381
21
-105.288
0
LINE
8
Black
10
162.381
20
-105.288
11
162.388
21
-105.278
0
LINE
8
Black
10
162.388
20
-105.278
11
162.436
21
-105.23
0
LINE
8
Black
10
162.436
20
-105.23
11
162.445
21
-105.223
0
LINE
8
Black
10
162.445
20
-105.223
11
162.455
21
-105.216
0
LINE
8
Black
10
162.455
20
-105.216
11
162.55
21
-105.168
0
LINE
8
Black
10
162.55
20
-105.168
11
162.554
21
-105.167
0
LINE
8
Black
10
162.554
20
-105.167
11
162.558
21
-105.165
0
LINE
8
Black
10
162.558
20
-105.165
11
162.567
21
-105.163
0
LINE
8
Black
10
162.567
20
-105.163
11
162.575
21
-105.161
0
LINE
8
Black
10
162.575
20
-105.161
11
162.58
21
-105.161
0
LINE
8
Black
10
162.58
20
-105.161
11
162.584
21
-105.16
0
LINE
8
Black
10
162.584
20
-105.16
11
162.822
21
-105.16
0
LINE
8
Black
10
162.822
20
-105.16
11
162.826
21
-105.161
0
LINE
8
Black
10
169.396
20
-108.765
11
169.418
21
-108.778
0
LINE
8
Black
10
169.418
20
-108.778
11
169.435
21
-108.797
0
LINE
8
Black
10
169.435
20
-108.797
11
169.444
21
-108.822
0
LINE
8
Black
10
169.444
20
-108.822
11
169.444
21
-108.848
0
LINE
8
Black
10
169.444
20
-108.848
11
169.435
21
-108.872
0
LINE
8
Black
10
169.435
20
-108.872
11
169.418
21
-108.892
0
LINE
8
Black
10
169.418
20
-108.892
11
169.396
21
-108.905
0
LINE
8
Black
10
169.396
20
-108.905
11
169.37
21
-108.91
0
LINE
8
Black
10
169.37
20
-108.91
11
167.87
21
-108.91
0
LINE
8
Black
10
167.87
20
-108.91
11
167.844
21
-108.905
0
LINE
8
Black
10
167.844
20
-108.905
11
167.822
21
-108.892
0
LINE
8
Black
10
167.822
20
-108.892
11
167.805
21
-108.872
0
LINE
8
Black
10
167.805
20
-108.872
11
167.796
21
-108.848
0
LINE
8
Black
10
167.796
20
-108.848
11
167.796
21
-108.822
0
LINE
8
Black
10
167.796
20
-108.822
11
167.805
21
-108.797
0
LINE
8
Black
10
167.805
20
-108.797
11
167.822
21
-108.778
0
LINE
8
Black
10
167.822
20
-108.778
11
167.844
21
-108.765
0
LINE
8
Black
10
167.844
20
-108.765
11
167.87
21
-108.76
0
LINE
8
Black
10
167.87
20
-108.76
11
169.37
21
-108.76
0
LINE
8
Black
10
169.37
20
-108.76
11
169.396
21
-108.765
0
LINE
8
Black
10
128.756
20
-108.765
11
128.778
21
-108.778
0
LINE
8
Black
10
128.778
20
-108.778
11
128.795
21
-108.797
0
LINE
8
Black
10
128.795
20
-108.797
11
128.804
21
-108.822
0
LINE
8
Black
10
128.804
20
-108.822
11
128.804
21
-108.848
0
LINE
8
Black
10
128.804
20
-108.848
11
128.795
21
-108.872
0
LINE
8
Black
10
128.795
20
-108.872
11
128.778
21
-108.892
0
LINE
8
Black
10
128.778
20
-108.892
11
128.756
21
-108.905
0
LINE
8
Black
10
128.756
20
-108.905
11
128.73
21
-108.91
0
LINE
8
Black
10
128.73
20
-108.91
11
127.23
21
-108.91
0
LINE
8
Black
10
127.23
20
-108.91
11
127.204
21
-108.905
0
LINE
8
Black
10
127.204
20
-108.905
11
127.182
21
-108.892
0
LINE
8
Black
10
127.182
20
-108.892
11
127.165
21
-108.872
0
LINE
8
Black
10
127.165
20
-108.872
11
127.156
21
-108.848
0
LINE
8
Black
10
127.156
20
-108.848
11
127.156
21
-108.822
0
LINE
8
Black
10
127.156
20
-108.822
11
127.165
21
-108.797
0
LINE
8
Black
10
127.165
20
-108.797
11
127.182
21
-108.778
0
LINE
8
Black
10
127.182
20
-108.778
11
127.204
21
-108.765
0
LINE
8
Black
10
127.204
20
-108.765
11
127.23
21
-108.76
0
LINE
8
Black
10
127.23
20
-108.76
11
128.73
21
-108.76
0
LINE
8
Black
10
128.73
20
-108.76
11
128.756
21
-108.765
0
LINE
8
Black
10
171.907
20
-103.02
11
171.927
21
-103.037
0
LINE
8
Black
10
171.927
20
-103.037
11
171.94
21
-103.059
0
LINE
8
Black
10
171.94
20
-103.059
11
171.945
21
-103.085
0
LINE
8
Black
10
171.945
20
-103.085
11
171.945
21
-107.585
0
LINE
8
Black
10
171.945
20
-107.585
11
171.94
21
-107.611
0
LINE
8
Black
10
171.94
20
-107.611
11
171.927
21
-107.633
0
LINE
8
Black
10
171.927
20
-107.633
11
171.907
21
-107.65
0
LINE
8
Black
10
171.907
20
-107.65
11
171.883
21
-107.659
0
LINE
8
Black
10
171.883
20
-107.659
11
171.857
21
-107.659
0
LINE
8
Black
10
171.857
20
-107.659
11
171.832
21
-107.65
0
LINE
8
Black
10
171.832
20
-107.65
11
171.813
21
-107.633
0
LINE
8
Black
10
171.813
20
-107.633
11
171.8
21
-107.611
0
LINE
8
Black
10
171.8
20
-107.611
11
171.795
21
-107.585
0
LINE
8
Black
10
171.795
20
-107.585
11
171.795
21
-103.085
0
LINE
8
Black
10
171.795
20
-103.085
11
171.8
21
-103.059
0
LINE
8
Black
10
171.8
20
-103.059
11
171.813
21
-103.037
0
LINE
8
Black
10
171.813
20
-103.037
11
171.832
21
-103.02
0
LINE
8
Black
10
171.832
20
-103.02
11
171.857
21
-103.011
0
LINE
8
Black
10
171.857
20
-103.011
11
171.883
21
-103.011
0
LINE
8
Black
10
171.883
20
-103.011
11
171.907
21
-103.02
0
LINE
8
Black
10
165.407
20
-103.02
11
165.427
21
-103.037
0
LINE
8
Black
10
165.427
20
-103.037
11
165.44
21
-103.059
0
LINE
8
Black
10
165.44
20
-103.059
11
165.445
21
-103.085
0
LINE
8
Black
10
165.445
20
-103.085
11
165.445
21
-107.585
0
LINE
8
Black
10
165.445
20
-107.585
11
165.44
21
-107.611
0
LINE
8
Black
10
165.44
20
-107.611
11
165.427
21
-107.633
0
LINE
8
Black
10
165.427
20
-107.633
11
165.407
21
-107.65
0
LINE
8
Black
10
165.407
20
-107.65
11
165.383
21
-107.659
0
LINE
8
Black
10
165.383
20
-107.659
11
165.357
21
-107.659
0
LINE
8
Black
10
165.357
20
-107.659
11
165.332
21
-107.65
0
LINE
8
Black
10
165.332
20
-107.65
11
165.313
21
-107.633
0
LINE
8
Black
10
165.313
20
-107.633
11
165.3
21
-107.611
0
LINE
8
Black
10
165.3
20
-107.611
11
165.295
21
-107.585
0
LINE
8
Black
10
165.295
20
-107.585
11
165.295
21
-103.085
0
LINE
8
Black
10
165.295
20
-103.085
11
165.3
21
-103.059
0
LINE
8
Black
10
165.3
20
-103.059
11
165.313
21
-103.037
0
LINE
8
Black
10
165.313
20
-103.037
11
165.332
21
-103.02
0
LINE
8
Black
10
165.332
20
-103.02
11
165.357
21
-103.011
0
LINE
8
Black
10
165.357
20
-103.011
11
165.383
21
-103.011
0
LINE
8
Black
10
165.383
20
-103.011
11
165.407
21
-103.02
0
LINE
8
Black
10
124.767
20
-103.02
11
124.787
21
-103.037
0
LINE
8
Black
10
124.787
20
-103.037
11
124.8
21
-103.059
0
LINE
8
Black
10
124.8
20
-103.059
11
124.805
21
-103.085
0
LINE
8
Black
10
124.805
20
-103.085
11
124.805
21
-107.585
0
LINE
8
Black
10
124.805
20
-107.585
11
124.8
21
-107.611
0
LINE
8
Black
10
124.8
20
-107.611
11
124.787
21
-107.633
0
LINE
8
Black
10
124.787
20
-107.633
11
124.767
21
-107.65
0
LINE
8
Black
10
124.767
20
-107.65
11
124.743
21
-107.659
0
LINE
8
Black
10
124.743
20
-107.659
11
124.717
21
-107.659
0
LINE
8
Black
10
124.717
20
-107.659
11
124.692
21
-107.65
0
LINE
8
Black
10
124.692
20
-107.65
11
124.673
21
-107.633
0
LINE
8
Black
10
124.673
20
-107.633
11
124.66
21
-107.611
0
LINE
8
Black
10
124.66
20
-107.611
11
124.655
21
-107.585
0
LINE
8
Black
10
124.655
20
-107.585
11
124.655
21
-103.085
0
LINE
8
Black
10
124.655
20
-103.085
11
124.66
21
-103.059
0
LINE
8
Black
10
124.66
20
-103.059
11
124.673
21
-103.037
0
LINE
8
Black
10
124.673
20
-103.037
11
124.692
21
-103.02
0
LINE
8
Black
10
124.692
20
-103.02
11
124.717
21
-103.011
0
LINE
8
Black
10
124.717
20
-103.011
11
124.743
21
-103.011
0
LINE
8
Black
10
124.743
20
-103.011
11
124.767
21
-103.02
0
LINE
8
Black
10
131.267
20
-103.02
11
131.287
21
-103.037
0
LINE
8
Black
10
131.287
20
-103.037
11
131.3
21
-103.059
0
LINE
8
Black
10
131.3
20
-103.059
11
131.305
21
-103.085
0
LINE
8
Black
10
131.305
20
-103.085
11
131.305
21
-107.585
0
LINE
8
Black
10
131.305
20
-107.585
11
131.3
21
-107.611
0
LINE
8
Black
10
131.3
20
-107.611
11
131.287
21
-107.633
0
LINE
8
Black
10
131.287
20
-107.633
11
131.267
21
-107.65
0
LINE
8
Black
10
131.267
20
-107.65
11
131.243
21
-107.659
0
LINE
8
Black
10
131.243
20
-107.659
11
131.217
21
-107.659
0
LINE
8
Black
10
131.217
20
-107.659
11
131.192
21
-107.65
0
LINE
8
Black
10
131.192
20
-107.65
11
131.173
21
-107.633
0
LINE
8
Black
10
131.173
20
-107.633
11
131.16
21
-107.611
0
LINE
8
Black
10
131.16
20
-107.611
11
131.155
21
-107.585
0
LINE
8
Black
10
131.155
20
-107.585
11
131.155
21
-103.085
0
LINE
8
Black
10
131.155
20
-103.085
11
131.16
21
-103.059
0
LINE
8
Black
10
131.16
20
-103.059
11
131.173
21
-103.037
0
LINE
8
Black
10
131.173
20
-103.037
11
131.192
21
-103.02
0
LINE
8
Black
10
131.192
20
-103.02
11
131.217
21
-103.011
0
LINE
8
Black
10
131.217
20
-103.011
11
131.243
21
-103.011
0
LINE
8
Black
10
131.243
20
-103.011
11
131.267
21
-103.02
0
LINE
8
Black
10
169.396
20
-101.765
11
169.418
21
-101.778
0
LINE
8
Black
10
169.418
20
-101.778
11
169.435
21
-101.797
0
LINE
8
Black
10
169.435
20
-101.797
11
169.444
21
-101.822
0
LINE
8
Black
10
169.444
20
-101.822
11
169.444
21
-101.848
0
LINE
8
Black
10
169.444
20
-101.848
11
169.435
21
-101.873
0
LINE
8
Black
10
169.435
20
-101.873
11
169.418
21
-101.892
0
LINE
8
Black
10
169.418
20
-101.892
11
169.396
21
-101.905
0
LINE
8
Black
10
169.396
20
-101.905
11
169.37
21
-101.91
0
LINE
8
Black
10
169.37
20
-101.91
11
167.87
21
-101.91
0
LINE
8
Black
10
167.87
20
-101.91
11
167.844
21
-101.905
0
LINE
8
Black
10
167.844
20
-101.905
11
167.822
21
-101.892
0
LINE
8
Black
10
167.822
20
-101.892
11
167.805
21
-101.873
0
LINE
8
Black
10
167.805
20
-101.873
11
167.796
21
-101.848
0
LINE
8
Black
10
167.796
20
-101.848
11
167.796
21
-101.822
0
LINE
8
Black
10
167.796
20
-101.822
11
167.805
21
-101.797
0
LINE
8
Black
10
167.805
20
-101.797
11
167.822
21
-101.778
0
LINE
8
Black
10
167.822
20
-101.778
11
167.844
21
-101.765
0
LINE
8
Black
10
167.844
20
-101.765
11
167.87
21
-101.76
0
LINE
8
Black
10
167.87
20
-101.76
11
169.37
21
-101.76
0
LINE
8
Black
10
169.37
20
-101.76
11
169.396
21
-101.765
0
LINE
8
Black
10
128.756
20
-101.765
11
128.778
21
-101.778
0
LINE
8
Black
10
128.778
20
-101.778
11
128.795
21
-101.797
0
LINE
8
Black
10
128.795
20
-101.797
11
128.804
21
-101.822
0
LINE
8
Black
10
128.804
20
-101.822
11
128.804
21
-101.848
0
LINE
8
Black
10
128.804
20
-101.848
11
128.795
21
-101.873
0
LINE
8
Black
10
128.795
20
-101.873
11
128.778
21
-101.892
0
LINE
8
Black
10
128.778
20
-101.892
11
128.756
21
-101.905
0
LINE
8
Black
10
128.756
20
-101.905
11
128.73
21
-101.91
0
LINE
8
Black
10
128.73
20
-101.91
11
127.23
21
-101.91
0
LINE
8
Black
10
127.23
20
-101.91
11
127.204
21
-101.905
0
LINE
8
Black
10
127.204
20
-101.905
11
127.182
21
-101.892
0
LINE
8
Black
10
127.182
20
-101.892
11
127.165
21
-101.873
0
LINE
8
Black
10
127.165
20
-101.873
11
127.156
21
-101.848
0
LINE
8
Black
10
127.156
20
-101.848
11
127.156
21
-101.822
0
LINE
8
Black
10
127.156
20
-101.822
11
127.165
21
-101.797
0
LINE
8
Black
10
127.165
20
-101.797
11
127.182
21
-101.778
0
LINE
8
Black
10
127.182
20
-101.778
11
127.204
21
-101.765
0
LINE
8
Black
10
127.204
20
-101.765
11
127.23
21
-101.76
0
LINE
8
Black
10
127.23
20
-101.76
11
128.73
21
-101.76
0
LINE
8
Black
10
128.73
20
-101.76
11
128.756
21
-101.765
0
LINE
8
Black
10
166.636
20
-99.5174
11
166.64
21
-99.5172
0
LINE
8
Black
10
166.64
20
-99.5172
11
166.649
21
-99.5197
0
LINE
8
Black
10
166.649
20
-99.5197
11
166.658
21
-99.5212
0
LINE
8
Black
10
166.658
20
-99.5212
11
166.661
21
-99.5234
0
LINE
8
Black
10
166.661
20
-99.5234
11
166.665
21
-99.5246
0
LINE
8
Black
10
166.665
20
-99.5246
11
166.761
21
-99.5722
0
LINE
8
Black
10
166.761
20
-99.5722
11
166.77
21
-99.5794
0
LINE
8
Black
10
166.77
20
-99.5794
11
166.78
21
-99.5863
0
LINE
8
Black
10
166.78
20
-99.5863
11
166.828
21
-99.6339
0
LINE
8
Black
10
166.828
20
-99.6339
11
166.835
21
-99.6437
0
LINE
8
Black
10
166.835
20
-99.6437
11
166.842
21
-99.6534
0
LINE
8
Black
10
166.842
20
-99.6534
11
166.889
21
-99.7486
0
LINE
8
Black
10
166.889
20
-99.7486
11
166.891
21
-99.7527
0
LINE
8
Black
10
166.891
20
-99.7527
11
166.893
21
-99.7565
0
LINE
8
Black
10
166.893
20
-99.7565
11
166.894
21
-99.7651
0
LINE
8
Black
10
166.894
20
-99.7651
11
166.897
21
-99.7736
0
LINE
8
Black
10
166.897
20
-99.7736
11
166.897
21
-99.7779
0
LINE
8
Black
10
166.897
20
-99.7779
11
166.897
21
-99.7821
0
LINE
8
Black
10
166.897
20
-99.7821
11
166.897
21
-100.02
0
LINE
8
Black
10
166.897
20
-100.02
11
166.895
21
-100.032
0
LINE
8
Black
10
166.895
20
-100.032
11
166.894
21
-100.044
0
LINE
8
Black
10
166.894
20
-100.044
11
166.846
21
-100.187
0
LINE
8
Black
10
166.846
20
-100.187
11
166.834
21
-100.21
0
LINE
8
Black
10
166.834
20
-100.21
11
166.814
21
-100.227
0
LINE
8
Black
10
166.814
20
-100.227
11
166.79
21
-100.237
0
LINE
8
Black
10
166.79
20
-100.237
11
166.764
21
-100.237
0
LINE
8
Black
10
166.764
20
-100.237
11
166.739
21
-100.229
0
LINE
8
Black
10
166.739
20
-100.229
11
166.719
21
-100.213
0
LINE
8
Black
10
166.719
20
-100.213
11
166.705
21
-100.191
0
LINE
8
Black
10
166.705
20
-100.191
11
166.7
21
-100.165
0
LINE
8
Black
10
166.7
20
-100.165
11
166.704
21
-100.139
0
LINE
8
Black
10
166.704
20
-100.139
11
166.747
21
-100.008
0
LINE
8
Black
10
166.747
20
-100.008
11
166.747
21
-99.7998
0
LINE
8
Black
10
166.747
20
-99.7998
11
166.713
21
-99.7313
0
LINE
8
Black
10
166.713
20
-99.7313
11
166.683
21
-99.7009
0
LINE
8
Black
10
166.683
20
-99.7009
11
166.614
21
-99.6667
0
LINE
8
Black
10
166.614
20
-99.6667
11
166.554
21
-99.6667
0
LINE
8
Black
10
166.554
20
-99.6667
11
166.486
21
-99.7009
0
LINE
8
Black
10
166.486
20
-99.7009
11
166.455
21
-99.7313
0
LINE
8
Black
10
166.455
20
-99.7313
11
166.417
21
-99.8083
0
LINE
8
Black
10
166.417
20
-99.8083
11
166.371
21
-99.9908
0
LINE
8
Black
10
166.371
20
-99.9908
11
166.368
21
-99.9983
0
LINE
8
Black
10
166.368
20
-99.9983
11
166.366
21
-100.006
0
LINE
8
Black
10
166.366
20
-100.006
11
166.318
21
-100.101
0
LINE
8
Black
10
166.318
20
-100.101
11
166.311
21
-100.111
0
LINE
8
Black
10
166.311
20
-100.111
11
166.304
21
-100.121
0
LINE
8
Black
10
166.304
20
-100.121
11
166.256
21
-100.169
0
LINE
8
Black
10
166.256
20
-100.169
11
166.247
21
-100.175
0
LINE
8
Black
10
166.247
20
-100.175
11
166.237
21
-100.183
0
LINE
8
Black
10
166.237
20
-100.183
11
166.142
21
-100.23
0
LINE
8
Black
10
166.142
20
-100.23
11
166.137
21
-100.231
0
LINE
8
Black
10
166.137
20
-100.231
11
166.134
21
-100.234
0
LINE
8
Black
10
166.134
20
-100.234
11
166.125
21
-100.235
0
LINE
8
Black
10
166.125
20
-100.235
11
166.117
21
-100.238
0
LINE
8
Black
10
166.117
20
-100.238
11
166.112
21
-100.237
0
LINE
8
Black
10
166.112
20
-100.237
11
166.108
21
-100.238
0
LINE
8
Black
10
166.108
20
-100.238
11
166.013
21
-100.238
0
LINE
8
Black
10
166.013
20
-100.238
11
166.009
21
-100.237
0
LINE
8
Black
10
166.009
20
-100.237
11
166.004
21
-100.238
0
LINE
8
Black
10
166.004
20
-100.238
11
165.996
21
-100.235
0
LINE
8
Black
10
165.996
20
-100.235
11
165.987
21
-100.234
0
LINE
8
Black
10
165.987
20
-100.234
11
165.983
21
-100.231
0
LINE
8
Black
10
165.983
20
-100.231
11
165.979
21
-100.23
0
LINE
8
Black
10
165.979
20
-100.23
11
165.884
21
-100.183
0
LINE
8
Black
10
165.884
20
-100.183
11
165.874
21
-100.175
0
LINE
8
Black
10
165.874
20
-100.175
11
165.865
21
-100.169
0
LINE
8
Black
10
165.865
20
-100.169
11
165.817
21
-100.121
0
LINE
8
Black
10
165.817
20
-100.121
11
165.81
21
-100.111
0
LINE
8
Black
10
165.81
20
-100.111
11
165.803
21
-100.101
0
LINE
8
Black
10
165.803
20
-100.101
11
165.755
21
-100.006
0
LINE
8
Black
10
165.755
20
-100.006
11
165.754
21
-100.002
0
LINE
8
Black
10
165.754
20
-100.002
11
165.752
21
-99.9983
0
LINE
8
Black
10
165.752
20
-99.9983
11
165.75
21
-99.9896
0
LINE
8
Black
10
165.75
20
-99.9896
11
165.748
21
-99.9812
0
LINE
8
Black
10
165.748
20
-99.9812
11
165.748
21
-99.9769
0
LINE
8
Black
10
165.748
20
-99.9769
11
165.747
21
-99.9726
0
LINE
8
Black
10
165.747
20
-99.9726
11
165.747
21
-99.7345
0
LINE
8
Black
10
165.747
20
-99.7345
11
165.749
21
-99.7227
0
LINE
8
Black
10
165.749
20
-99.7227
11
165.751
21
-99.7108
0
LINE
8
Black
10
165.751
20
-99.7108
11
165.799
21
-99.5679
0
LINE
8
Black
10
165.799
20
-99.5679
11
165.811
21
-99.545
0
LINE
8
Black
10
165.811
20
-99.545
11
165.831
21
-99.5278
0
LINE
8
Black
10
165.831
20
-99.5278
11
165.855
21
-99.5182
0
LINE
8
Black
10
165.855
20
-99.5182
11
165.881
21
-99.5175
0
LINE
8
Black
10
165.881
20
-99.5175
11
165.906
21
-99.5257
0
LINE
8
Black
10
165.906
20
-99.5257
11
165.926
21
-99.5419
0
LINE
8
Black
10
165.926
20
-99.5419
11
165.94
21
-99.5641
0
LINE
8
Black
10
165.94
20
-99.5641
11
165.945
21
-99.5896
0
LINE
8
Black
10
165.945
20
-99.5896
11
165.941
21
-99.6154
0
LINE
8
Black
10
165.941
20
-99.6154
11
165.897
21
-99.7467
0
LINE
8
Black
10
165.897
20
-99.7467
11
165.897
21
-99.9549
0
LINE
8
Black
10
165.897
20
-99.9549
11
165.932
21
-100.023
0
LINE
8
Black
10
165.932
20
-100.023
11
165.962
21
-100.054
0
LINE
8
Black
10
165.962
20
-100.054
11
166.031
21
-100.088
0
LINE
8
Black
10
166.031
20
-100.088
11
166.09
21
-100.088
0
LINE
8
Black
10
166.09
20
-100.088
11
166.159
21
-100.054
0
LINE
8
Black
10
166.159
20
-100.054
11
166.189
21
-100.023
0
LINE
8
Black
10
166.189
20
-100.023
11
166.228
21
-99.9464
0
LINE
8
Black
10
166.228
20
-99.9464
11
166.273
21
-99.764
0
LINE
8
Black
10
166.273
20
-99.764
11
166.277
21
-99.7565
0
LINE
8
Black
10
166.277
20
-99.7565
11
166.279
21
-99.7486
0
LINE
8
Black
10
166.279
20
-99.7486
11
166.327
21
-99.6534
0
LINE
8
Black
10
166.327
20
-99.6534
11
166.334
21
-99.6437
0
LINE
8
Black
10
166.334
20
-99.6437
11
166.341
21
-99.6339
0
LINE
8
Black
10
166.341
20
-99.6339
11
166.388
21
-99.5863
0
LINE
8
Black
10
166.388
20
-99.5863
11
166.398
21
-99.5794
0
LINE
8
Black
10
166.398
20
-99.5794
11
166.408
21
-99.5722
0
LINE
8
Black
10
166.408
20
-99.5722
11
166.503
21
-99.5246
0
LINE
8
Black
10
166.503
20
-99.5246
11
166.507
21
-99.5234
0
LINE
8
Black
10
166.507
20
-99.5234
11
166.511
21
-99.5212
0
LINE
8
Black
10
166.511
20
-99.5212
11
166.52
21
-99.5197
0
LINE
8
Black
10
166.52
20
-99.5197
11
166.528
21
-99.5172
0
LINE
8
Black
10
166.528
20
-99.5172
11
166.532
21
-99.5174
0
LINE
8
Black
10
166.532
20
-99.5174
11
166.537
21
-99.5167
0
LINE
8
Black
10
166.537
20
-99.5167
11
166.632
21
-99.5167
0
LINE
8
Black
10
166.632
20
-99.5167
11
166.636
21
-99.5174
0
LINE
8
Black
10
131.076
20
-99.4222
11
131.08
21
-99.4219
0
LINE
8
Black
10
131.08
20
-99.4219
11
131.089
21
-99.4244
0
LINE
8
Black
10
131.089
20
-99.4244
11
131.098
21
-99.426
0
LINE
8
Black
10
131.098
20
-99.426
11
131.101
21
-99.4281
0
LINE
8
Black
10
131.101
20
-99.4281
11
131.105
21
-99.4293
0
LINE
8
Black
10
131.105
20
-99.4293
11
131.201
21
-99.477
0
LINE
8
Black
10
131.201
20
-99.477
11
131.21
21
-99.4841
0
LINE
8
Black
10
131.21
20
-99.4841
11
131.22
21
-99.491
0
LINE
8
Black
10
131.22
20
-99.491
11
131.268
21
-99.5386
0
LINE
8
Black
10
131.268
20
-99.5386
11
131.275
21
-99.5485
0
LINE
8
Black
10
131.275
20
-99.5485
11
131.282
21
-99.5581
0
LINE
8
Black
10
131.282
20
-99.5581
11
131.329
21
-99.6534
0
LINE
8
Black
10
131.329
20
-99.6534
11
131.331
21
-99.6575
0
LINE
8
Black
10
131.331
20
-99.6575
11
131.333
21
-99.6613
0
LINE
8
Black
10
131.333
20
-99.6613
11
131.334
21
-99.6699
0
LINE
8
Black
10
131.334
20
-99.6699
11
131.337
21
-99.6783
0
LINE
8
Black
10
131.337
20
-99.6783
11
131.337
21
-99.6826
0
LINE
8
Black
10
131.337
20
-99.6826
11
131.337
21
-99.6869
0
LINE
8
Black
10
131.337
20
-99.6869
11
131.337
21
-99.925
0
LINE
8
Black
10
131.337
20
-99.925
11
131.335
21
-99.9368
0
LINE
8
Black
10
131.335
20
-99.9368
11
131.334
21
-99.9487
0
LINE
8
Black
10
131.334
20
-99.9487
11
131.286
21
-100.092
0
LINE
8
Black
10
131.286
20
-100.092
11
131.274
21
-100.114
0
LINE
8
Black
10
131.274
20
-100.114
11
131.254
21
-100.132
0
LINE
8
Black
10
131.254
20
-100.132
11
131.23
21
-100.141
0
LINE
8
Black
10
131.23
20
-100.141
11
131.204
21
-100.142
0
LINE
8
Black
10
131.204
20
-100.142
11
131.179
21
-100.134
0
LINE
8
Black
10
131.179
20
-100.134
11
131.159
21
-100.118
0
LINE
8
Black
10
131.159
20
-100.118
11
131.145
21
-100.095
0
LINE
8
Black
10
131.145
20
-100.095
11
131.14
21
-100.07
0
LINE
8
Black
10
131.14
20
-100.07
11
131.144
21
-100.044
0
LINE
8
Black
10
131.144
20
-100.044
11
131.187
21
-99.9128
0
LINE
8
Black
10
131.187
20
-99.9128
11
131.187
21
-99.7046
0
LINE
8
Black
10
131.187
20
-99.7046
11
131.153
21
-99.6361
0
LINE
8
Black
10
131.153
20
-99.6361
11
131.123
21
-99.6057
0
LINE
8
Black
10
131.123
20
-99.6057
11
131.054
21
-99.5714
0
LINE
8
Black
10
131.054
20
-99.5714
11
130.994
21
-99.5714
0
LINE
8
Black
10
130.994
20
-99.5714
11
130.926
21
-99.6057
0
LINE
8
Black
10
130.926
20
-99.6057
11
130.895
21
-99.6361
0
LINE
8
Black
10
130.895
20
-99.6361
11
130.857
21
-99.7131
0
LINE
8
Black
10
130.857
20
-99.7131
11
130.811
21
-99.8956
0
LINE
8
Black
10
130.811
20
-99.8956
11
130.808
21
-99.9031
0
LINE
8
Black
10
130.808
20
-99.9031
11
130.806
21
-99.9109
0
LINE
8
Black
10
130.806
20
-99.9109
11
130.758
21
-100.006
0
LINE
8
Black
10
130.758
20
-100.006
11
130.751
21
-100.016
0
LINE
8
Black
10
130.751
20
-100.016
11
130.744
21
-100.026
0
LINE
8
Black
10
130.744
20
-100.026
11
130.696
21
-100.073
0
LINE
8
Black
10
130.696
20
-100.073
11
130.687
21
-100.08
0
LINE
8
Black
10
130.687
20
-100.08
11
130.677
21
-100.087
0
LINE
8
Black
10
130.677
20
-100.087
11
130.582
21
-100.135
0
LINE
8
Black
10
130.582
20
-100.135
11
130.577
21
-100.136
0
LINE
8
Black
10
130.577
20
-100.136
11
130.574
21
-100.138
0
LINE
8
Black
10
130.574
20
-100.138
11
130.565
21
-100.14
0
LINE
8
Black
10
130.565
20
-100.14
11
130.557
21
-100.142
0
LINE
8
Black
10
130.557
20
-100.142
11
130.552
21
-100.142
0
LINE
8
Black
10
130.552
20
-100.142
11
130.548
21
-100.143
0
LINE
8
Black
10
130.548
20
-100.143
11
130.453
21
-100.143
0
LINE
8
Black
10
130.453
20
-100.143
11
130.449
21
-100.142
0
LINE
8
Black
10
130.449
20
-100.142
11
130.444
21
-100.142
0
LINE
8
Black
10
130.444
20
-100.142
11
130.436
21
-100.14
0
LINE
8
Black
10
130.436
20
-100.14
11
130.427
21
-100.138
0
LINE
8
Black
10
130.427
20
-100.138
11
130.423
21
-100.136
0
LINE
8
Black
10
130.423
20
-100.136
11
130.419
21
-100.135
0
LINE
8
Black
10
130.419
20
-100.135
11
130.324
21
-100.087
0
LINE
8
Black
10
130.324
20
-100.087
11
130.314
21
-100.08
0
LINE
8
Black
10
130.314
20
-100.08
11
130.305
21
-100.073
0
LINE
8
Black
10
130.305
20
-100.073
11
130.257
21
-100.026
0
LINE
8
Black
10
130.257
20
-100.026
11
130.25
21
-100.016
0
LINE
8
Black
10
130.25
20
-100.016
11
130.243
21
-100.006
0
LINE
8
Black
10
130.243
20
-100.006
11
130.195
21
-99.9109
0
LINE
8
Black
10
130.195
20
-99.9109
11
130.194
21
-99.9068
0
LINE
8
Black
10
130.194
20
-99.9068
11
130.192
21
-99.903
0
LINE
8
Black
10
130.192
20
-99.903
11
130.19
21
-99.8944
0
LINE
8
Black
10
130.19
20
-99.8944
11
130.188
21
-99.886
0
LINE
8
Black
10
130.188
20
-99.886
11
130.188
21
-99.8816
0
LINE
8
Black
10
130.188
20
-99.8816
11
130.187
21
-99.8774
0
LINE
8
Black
10
130.187
20
-99.8774
11
130.187
21
-99.6393
0
LINE
8
Black
10
130.187
20
-99.6393
11
130.189
21
-99.6274
0
LINE
8
Black
10
130.189
20
-99.6274
11
130.191
21
-99.6156
0
LINE
8
Black
10
130.191
20
-99.6156
11
130.239
21
-99.4727
0
LINE
8
Black
10
130.239
20
-99.4727
11
130.251
21
-99.4498
0
LINE
8
Black
10
130.251
20
-99.4498
11
130.271
21
-99.4325
0
LINE
8
Black
10
130.271
20
-99.4325
11
130.295
21
-99.423
0
LINE
8
Black
10
130.295
20
-99.423
11
130.321
21
-99.4222
0
LINE
8
Black
10
130.321
20
-99.4222
11
130.346
21
-99.4305
0
LINE
8
Black
10
130.346
20
-99.4305
11
130.366
21
-99.4467
0
LINE
8
Black
10
130.366
20
-99.4467
11
130.38
21
-99.4689
0
LINE
8
Black
10
130.38
20
-99.4689
11
130.385
21
-99.4944
0
LINE
8
Black
10
130.385
20
-99.4944
11
130.381
21
-99.5201
0
LINE
8
Black
10
130.381
20
-99.5201
11
130.337
21
-99.6515
0
LINE
8
Black
10
130.337
20
-99.6515
11
130.337
21
-99.8597
0
LINE
8
Black
10
130.337
20
-99.8597
11
130.372
21
-99.9282
0
LINE
8
Black
10
130.372
20
-99.9282
11
130.402
21
-99.9586
0
LINE
8
Black
10
130.402
20
-99.9586
11
130.471
21
-99.9929
0
LINE
8
Black
10
130.471
20
-99.9929
11
130.53
21
-99.9929
0
LINE
8
Black
10
130.53
20
-99.9929
11
130.599
21
-99.9586
0
LINE
8
Black
10
130.599
20
-99.9586
11
130.629
21
-99.9282
0
LINE
8
Black
10
130.629
20
-99.9282
11
130.668
21
-99.8512
0
LINE
8
Black
10
130.668
20
-99.8512
11
130.713
21
-99.6687
0
LINE
8
Black
10
130.713
20
-99.6687
11
130.717
21
-99.6612
0
LINE
8
Black
10
130.717
20
-99.6612
11
130.719
21
-99.6534
0
LINE
8
Black
10
130.719
20
-99.6534
11
130.767
21
-99.5581
0
LINE
8
Black
10
130.767
20
-99.5581
11
130.774
21
-99.5485
0
LINE
8
Black
10
130.774
20
-99.5485
11
130.781
21
-99.5386
0
LINE
8
Black
10
130.781
20
-99.5386
11
130.828
21
-99.491
0
LINE
8
Black
10
130.828
20
-99.491
11
130.838
21
-99.4841
0
LINE
8
Black
10
130.838
20
-99.4841
11
130.848
21
-99.477
0
LINE
8
Black
10
130.848
20
-99.477
11
130.943
21
-99.4293
0
LINE
8
Black
10
130.943
20
-99.4293
11
130.947
21
-99.4281
0
LINE
8
Black
10
130.947
20
-99.4281
11
130.951
21
-99.426
0
LINE
8
Black
10
130.951
20
-99.426
11
130.96
21
-99.4244
0
LINE
8
Black
10
130.96
20
-99.4244
11
130.968
21
-99.4219
0
LINE
8
Black
10
130.968
20
-99.4219
11
130.972
21
-99.4222
0
LINE
8
Black
10
130.972
20
-99.4222
11
130.977
21
-99.4214
0
LINE
8
Black
10
130.977
20
-99.4214
11
131.072
21
-99.4214
0
LINE
8
Black
10
131.072
20
-99.4214
11
131.076
21
-99.4222
0
LINE
8
Black
10
165.84
20
-98.3282
11
166.84
21
-98.5663
0
LINE
8
Black
10
166.84
20
-98.5663
11
166.847
21
-98.5694
0
LINE
8
Black
10
166.847
20
-98.5694
11
166.854
21
-98.5713
0
LINE
8
Black
10
166.854
20
-98.5713
11
166.859
21
-98.5745
0
LINE
8
Black
10
166.859
20
-98.5745
11
166.864
21
-98.5767
0
LINE
8
Black
10
166.864
20
-98.5767
11
166.869
21
-98.5819
0
LINE
8
Black
10
166.869
20
-98.5819
11
166.875
21
-98.5863
0
LINE
8
Black
10
166.875
20
-98.5863
11
166.879
21
-98.5908
0
LINE
8
Black
10
166.879
20
-98.5908
11
166.883
21
-98.5946
0
LINE
8
Black
10
166.883
20
-98.5946
11
166.886
21
-98.6014
0
LINE
8
Black
10
166.886
20
-98.6014
11
166.89
21
-98.6077
0
LINE
8
Black
10
166.89
20
-98.6077
11
166.892
21
-98.613
0
LINE
8
Black
10
166.892
20
-98.613
11
166.894
21
-98.6178
0
LINE
8
Black
10
166.894
20
-98.6178
11
166.895
21
-98.6254
0
LINE
8
Black
10
166.895
20
-98.6254
11
166.897
21
-98.6328
0
LINE
8
Black
10
166.897
20
-98.6328
11
166.897
21
-98.6383
0
LINE
8
Black
10
166.897
20
-98.6383
11
166.897
21
-98.6437
0
LINE
8
Black
10
166.897
20
-98.6437
11
166.895
21
-98.6512
0
LINE
8
Black
10
166.895
20
-98.6512
11
166.895
21
-98.6588
0
LINE
8
Black
10
166.895
20
-98.6588
11
166.892
21
-98.6637
0
LINE
8
Black
10
166.892
20
-98.6637
11
166.891
21
-98.6691
0
LINE
8
Black
10
166.891
20
-98.6691
11
166.887
21
-98.6755
0
LINE
8
Black
10
166.887
20
-98.6755
11
166.884
21
-98.6824
0
LINE
8
Black
10
166.884
20
-98.6824
11
166.88
21
-98.6862
0
LINE
8
Black
10
166.88
20
-98.6862
11
166.877
21
-98.6908
0
LINE
8
Black
10
166.877
20
-98.6908
11
166.871
21
-98.6954
0
LINE
8
Black
10
166.871
20
-98.6954
11
166.865
21
-98.7008
0
LINE
8
Black
10
166.865
20
-98.7008
11
166.86
21
-98.7031
0
LINE
8
Black
10
166.86
20
-98.7031
11
166.856
21
-98.7063
0
LINE
8
Black
10
166.856
20
-98.7063
11
166.849
21
-98.7085
0
LINE
8
Black
10
166.849
20
-98.7085
11
166.842
21
-98.7118
0
LINE
8
Black
10
166.842
20
-98.7118
11
166.399
21
-98.8298
0
LINE
8
Black
10
166.399
20
-98.8298
11
166.842
21
-98.9478
0
LINE
8
Black
10
166.842
20
-98.9478
11
166.849
21
-98.951
0
LINE
8
Black
10
166.849
20
-98.951
11
166.856
21
-98.9532
0
LINE
8
Black
10
166.856
20
-98.9532
11
166.86
21
-98.9564
0
LINE
8
Black
10
166.86
20
-98.9564
11
166.865
21
-98.9587
0
LINE
8
Black
10
166.865
20
-98.9587
11
166.871
21
-98.9642
0
LINE
8
Black
10
166.871
20
-98.9642
11
166.877
21
-98.9687
0
LINE
8
Black
10
166.877
20
-98.9687
11
166.88
21
-98.9733
0
LINE
8
Black
10
166.88
20
-98.9733
11
166.884
21
-98.9771
0
LINE
8
Black
10
166.884
20
-98.9771
11
166.887
21
-98.9841
0
LINE
8
Black
10
166.887
20
-98.9841
11
166.891
21
-98.9905
0
LINE
8
Black
10
166.891
20
-98.9905
11
166.892
21
-98.9958
0
LINE
8
Black
10
166.892
20
-98.9958
11
166.895
21
-99.0007
0
LINE
8
Black
10
166.895
20
-99.0007
11
166.895
21
-99.0084
0
LINE
8
Black
10
166.895
20
-99.0084
11
166.897
21
-99.0158
0
LINE
8
Black
10
166.897
20
-99.0158
11
166.897
21
-99.0212
0
LINE
8
Black
10
166.897
20
-99.0212
11
166.897
21
-99.0267
0
LINE
8
Black
10
166.897
20
-99.0267
11
166.895
21
-99.0341
0
LINE
8
Black
10
166.895
20
-99.0341
11
166.894
21
-99.0417
0
LINE
8
Black
10
166.894
20
-99.0417
11
166.892
21
-99.0466
0
LINE
8
Black
10
166.892
20
-99.0466
11
166.89
21
-99.0519
0
LINE
8
Black
10
166.89
20
-99.0519
11
166.886
21
-99.0581
0
LINE
8
Black
10
166.886
20
-99.0581
11
166.883
21
-99.065
0
LINE
8
Black
10
166.883
20
-99.065
11
166.879
21
-99.0687
0
LINE
8
Black
10
166.879
20
-99.0687
11
166.875
21
-99.0732
0
LINE
8
Black
10
166.875
20
-99.0732
11
166.869
21
-99.0776
0
LINE
8
Black
10
166.869
20
-99.0776
11
166.864
21
-99.0829
0
LINE
8
Black
10
166.864
20
-99.0829
11
166.859
21
-99.085
0
LINE
8
Black
10
166.859
20
-99.085
11
166.854
21
-99.0882
0
LINE
8
Black
10
166.854
20
-99.0882
11
166.847
21
-99.0902
0
LINE
8
Black
10
166.847
20
-99.0902
11
166.84
21
-99.0932
0
LINE
8
Black
10
166.84
20
-99.0932
11
165.84
21
-99.3313
0
LINE
8
Black
10
165.84
20
-99.3313
11
165.814
21
-99.3328
0
LINE
8
Black
10
165.814
20
-99.3328
11
165.789
21
-99.3254
0
LINE
8
Black
10
165.789
20
-99.3254
11
165.768
21
-99.3099
0
LINE
8
Black
10
165.768
20
-99.3099
11
165.754
21
-99.2881
0
LINE
8
Black
10
165.754
20
-99.2881
11
165.748
21
-99.2628
0
LINE
8
Black
10
165.748
20
-99.2628
11
165.751
21
-99.2369
0
LINE
8
Black
10
165.751
20
-99.2369
11
165.762
21
-99.2136
0
LINE
8
Black
10
165.762
20
-99.2136
11
165.781
21
-99.1957
0
LINE
8
Black
10
165.781
20
-99.1957
11
165.805
21
-99.1854
0
LINE
8
Black
10
165.805
20
-99.1854
11
166.516
21
-99.0161
0
LINE
8
Black
10
166.516
20
-99.0161
11
166.089
21
-98.9022
0
LINE
8
Black
10
166.089
20
-98.9022
11
166.083
21
-98.8994
0
LINE
8
Black
10
166.083
20
-98.8994
11
166.076
21
-98.8977
0
LINE
8
Black
10
166.076
20
-98.8977
11
166.071
21
-98.894
0
LINE
8
Black
10
166.071
20
-98.894
11
166.065
21
-98.8912
0
LINE
8
Black
10
166.065
20
-98.8912
11
166.06
21
-98.8866
0
LINE
8
Black
10
166.06
20
-98.8866
11
166.055
21
-98.8827
0
LINE
8
Black
10
166.055
20
-98.8827
11
166.051
21
-98.8774
0
LINE
8
Black
10
166.051
20
-98.8774
11
166.047
21
-98.8729
0
LINE
8
Black
10
166.047
20
-98.8729
11
166.044
21
-98.8668
0
LINE
8
Black
10
166.044
20
-98.8668
11
166.04
21
-98.8614
0
LINE
8
Black
10
166.04
20
-98.8614
11
166.038
21
-98.8551
0
LINE
8
Black
10
166.038
20
-98.8551
11
166.036
21
-98.8493
0
LINE
8
Black
10
166.036
20
-98.8493
11
166.035
21
-98.8426
0
LINE
8
Black
10
166.035
20
-98.8426
11
166.033
21
-98.8362
0
LINE
8
Black
10
166.033
20
-98.8362
11
166.034
21
-98.8298
0
LINE
8
Black
10
166.034
20
-98.8298
11
166.033
21
-98.8233
0
LINE
8
Black
10
166.033
20
-98.8233
11
166.035
21
-98.8169
0
LINE
8
Black
10
166.035
20
-98.8169
11
166.036
21
-98.8103
0
LINE
8
Black
10
166.036
20
-98.8103
11
166.038
21
-98.8044
0
LINE
8
Black
10
166.038
20
-98.8044
11
166.04
21
-98.7981
0
LINE
8
Black
10
166.04
20
-98.7981
11
166.044
21
-98.7927
0
LINE
8
Black
10
166.044
20
-98.7927
11
166.047
21
-98.7867
0
LINE
8
Black
10
166.047
20
-98.7867
11
166.051
21
-98.7821
0
LINE
8
Black
10
166.051
20
-98.7821
11
166.055
21
-98.7768
0
LINE
8
Black
10
166.055
20
-98.7768
11
166.06
21
-98.773
0
LINE
8
Black
10
166.06
20
-98.773
11
166.065
21
-98.7683
0
LINE
8
Black
10
166.065
20
-98.7683
11
166.071
21
-98.7655
0
LINE
8
Black
10
166.071
20
-98.7655
11
166.076
21
-98.7618
0
LINE
8
Black
10
166.076
20
-98.7618
11
166.083
21
-98.7601
0
LINE
8
Black
10
166.083
20
-98.7601
11
166.089
21
-98.7573
0
LINE
8
Black
10
166.089
20
-98.7573
11
166.516
21
-98.6434
0
LINE
8
Black
10
166.516
20
-98.6434
11
165.805
21
-98.4741
0
LINE
8
Black
10
165.805
20
-98.4741
11
165.781
21
-98.4638
0
LINE
8
Black
10
165.781
20
-98.4638
11
165.762
21
-98.4459
0
LINE
8
Black
10
165.762
20
-98.4459
11
165.751
21
-98.4226
0
LINE
8
Black
10
165.751
20
-98.4226
11
165.748
21
-98.3968
0
LINE
8
Black
10
165.748
20
-98.3968
11
165.754
21
-98.3714
0
LINE
8
Black
10
165.754
20
-98.3714
11
165.768
21
-98.3497
0
LINE
8
Black
10
165.768
20
-98.3497
11
165.789
21
-98.3341
0
LINE
8
Black
10
165.789
20
-98.3341
11
165.814
21
-98.3267
0
LINE
8
Black
10
165.814
20
-98.3267
11
165.84
21
-98.3282
0
LINE
8
Black
10
130.28
20
-98.233
11
131.28
21
-98.4711
0
LINE
8
Black
10
131.28
20
-98.4711
11
131.287
21
-98.4741
0
LINE
8
Black
10
131.287
20
-98.4741
11
131.294
21
-98.4761
0
LINE
8
Black
10
131.294
20
-98.4761
11
131.299
21
-98.4793
0
LINE
8
Black
10
131.299
20
-98.4793
11
131.304
21
-98.4814
0
LINE
8
Black
10
131.304
20
-98.4814
11
131.309
21
-98.4867
0
LINE
8
Black
10
131.309
20
-98.4867
11
131.315
21
-98.4911
0
LINE
8
Black
10
131.315
20
-98.4911
11
131.319
21
-98.4956
0
LINE
8
Black
10
131.319
20
-98.4956
11
131.323
21
-98.4993
0
LINE
8
Black
10
131.323
20
-98.4993
11
131.326
21
-98.5062
0
LINE
8
Black
10
131.326
20
-98.5062
11
131.33
21
-98.5124
0
LINE
8
Black
10
131.33
20
-98.5124
11
131.332
21
-98.5177
0
LINE
8
Black
10
131.332
20
-98.5177
11
131.334
21
-98.5226
0
LINE
8
Black
10
131.334
20
-98.5226
11
131.335
21
-98.5302
0
LINE
8
Black
10
131.335
20
-98.5302
11
131.337
21
-98.5376
0
LINE
8
Black
10
131.337
20
-98.5376
11
131.337
21
-98.5431
0
LINE
8
Black
10
131.337
20
-98.5431
11
131.337
21
-98.5485
0
LINE
8
Black
10
131.337
20
-98.5485
11
131.335
21
-98.5559
0
LINE
8
Black
10
131.335
20
-98.5559
11
131.335
21
-98.5635
0
LINE
8
Black
10
131.335
20
-98.5635
11
131.332
21
-98.5685
0
LINE
8
Black
10
131.332
20
-98.5685
11
131.331
21
-98.5738
0
LINE
8
Black
10
131.331
20
-98.5738
11
131.327
21
-98.5802
0
LINE
8
Black
10
131.327
20
-98.5802
11
131.324
21
-98.5871
0
LINE
8
Black
10
131.324
20
-98.5871
11
131.32
21
-98.591
0
LINE
8
Black
10
131.32
20
-98.591
11
131.317
21
-98.5956
0
LINE
8
Black
10
131.317
20
-98.5956
11
131.311
21
-98.6001
0
LINE
8
Black
10
131.311
20
-98.6001
11
131.305
21
-98.6055
0
LINE
8
Black
10
131.305
20
-98.6055
11
131.3
21
-98.6078
0
LINE
8
Black
10
131.3
20
-98.6078
11
131.296
21
-98.6111
0
LINE
8
Black
10
131.296
20
-98.6111
11
131.289
21
-98.6133
0
LINE
8
Black
10
131.289
20
-98.6133
11
131.282
21
-98.6165
0
LINE
8
Black
10
131.282
20
-98.6165
11
130.839
21
-98.7345
0
LINE
8
Black
10
130.839
20
-98.7345
11
131.282
21
-98.8525
0
LINE
8
Black
10
131.282
20
-98.8525
11
131.289
21
-98.8558
0
LINE
8
Black
10
131.289
20
-98.8558
11
131.296
21
-98.8579
0
LINE
8
Black
10
131.296
20
-98.8579
11
131.3
21
-98.8612
0
LINE
8
Black
10
131.3
20
-98.8612
11
131.305
21
-98.8635
0
LINE
8
Black
10
131.305
20
-98.8635
11
131.311
21
-98.8689
0
LINE
8
Black
10
131.311
20
-98.8689
11
131.317
21
-98.8735
0
LINE
8
Black
10
131.317
20
-98.8735
11
131.32
21
-98.878
0
LINE
8
Black
10
131.32
20
-98.878
11
131.324
21
-98.8819
0
LINE
8
Black
10
131.324
20
-98.8819
11
131.327
21
-98.8888
0
LINE
8
Black
10
131.327
20
-98.8888
11
131.331
21
-98.8952
0
LINE
8
Black
10
131.331
20
-98.8952
11
131.332
21
-98.9005
0
LINE
8
Black
10
131.332
20
-98.9005
11
131.335
21
-98.9055
0
LINE
8
Black
10
131.335
20
-98.9055
11
131.335
21
-98.9131
0
LINE
8
Black
10
131.335
20
-98.9131
11
131.337
21
-98.9206
0
LINE
8
Black
10
131.337
20
-98.9206
11
131.337
21
-98.926
0
LINE
8
Black
10
131.337
20
-98.926
11
131.337
21
-98.9314
0
LINE
8
Black
10
131.337
20
-98.9314
11
131.335
21
-98.9388
0
LINE
8
Black
10
131.335
20
-98.9388
11
131.334
21
-98.9464
0
LINE
8
Black
10
131.334
20
-98.9464
11
131.332
21
-98.9513
0
LINE
8
Black
10
131.332
20
-98.9513
11
131.33
21
-98.9566
0
LINE
8
Black
10
131.33
20
-98.9566
11
131.326
21
-98.9629
0
LINE
8
Black
10
131.326
20
-98.9629
11
131.323
21
-98.9697
0
LINE
8
Black
10
131.323
20
-98.9697
11
131.319
21
-98.9735
0
LINE
8
Black
10
131.319
20
-98.9735
11
131.315
21
-98.978
0
LINE
8
Black
10
131.315
20
-98.978
11
131.309
21
-98.9824
0
LINE
8
Black
10
131.309
20
-98.9824
11
131.304
21
-98.9876
0
LINE
8
Black
10
131.304
20
-98.9876
11
131.299
21
-98.9898
0
LINE
8
Black
10
131.299
20
-98.9898
11
131.294
21
-98.9929
0
LINE
8
Black
10
131.294
20
-98.9929
11
131.287
21
-98.9949
0
LINE
8
Black
10
131.287
20
-98.9949
11
131.28
21
-98.998
0
LINE
8
Black
10
131.28
20
-98.998
11
130.28
21
-99.2361
0
LINE
8
Black
10
130.28
20
-99.2361
11
130.254
21
-99.2376
0
LINE
8
Black
10
130.254
20
-99.2376
11
130.229
21
-99.2302
0
LINE
8
Black
10
130.229
20
-99.2302
11
130.208
21
-99.2146
0
LINE
8
Black
10
130.208
20
-99.2146
11
130.194
21
-99.1929
0
LINE
8
Black
10
130.194
20
-99.1929
11
130.188
21
-99.1675
0
LINE
8
Black
10
130.188
20
-99.1675
11
130.191
21
-99.1417
0
LINE
8
Black
10
130.191
20
-99.1417
11
130.202
21
-99.1184
0
LINE
8
Black
10
130.202
20
-99.1184
11
130.221
21
-99.1005
0
LINE
8
Black
10
130.221
20
-99.1005
11
130.245
21
-99.0901
0
LINE
8
Black
10
130.245
20
-99.0901
11
130.956
21
-98.9209
0
LINE
8
Black
10
130.956
20
-98.9209
11
130.529
21
-98.807
0
LINE
8
Black
10
130.529
20
-98.807
11
130.523
21
-98.8042
0
LINE
8
Black
10
130.523
20
-98.8042
11
130.516
21
-98.8025
0
LINE
8
Black
10
130.516
20
-98.8025
11
130.511
21
-98.7987
0
LINE
8
Black
10
130.511
20
-98.7987
11
130.505
21
-98.796
0
LINE
8
Black
10
130.505
20
-98.796
11
130.5
21
-98.7913
0
LINE
8
Black
10
130.5
20
-98.7913
11
130.495
21
-98.7875
0
LINE
8
Black
10
130.495
20
-98.7875
11
130.491
21
-98.7822
0
LINE
8
Black
10
130.491
20
-98.7822
11
130.487
21
-98.7776
0
LINE
8
Black
10
130.487
20
-98.7776
11
130.484
21
-98.7716
0
LINE
8
Black
10
130.484
20
-98.7716
11
130.48
21
-98.7661
0
LINE
8
Black
10
130.48
20
-98.7661
11
130.478
21
-98.7599
0
LINE
8
Black
10
130.478
20
-98.7599
11
130.476
21
-98.754
0
LINE
8
Black
10
130.476
20
-98.754
11
130.475
21
-98.7474
0
LINE
8
Black
10
130.475
20
-98.7474
11
130.473
21
-98.741
0
LINE
8
Black
10
130.473
20
-98.741
11
130.474
21
-98.7345
0
LINE
8
Black
10
130.474
20
-98.7345
11
130.473
21
-98.7281
0
LINE
8
Black
10
130.473
20
-98.7281
11
130.475
21
-98.7216
0
LINE
8
Black
10
130.475
20
-98.7216
11
130.476
21
-98.715
0
LINE
8
Black
10
130.476
20
-98.715
11
130.478
21
-98.7092
0
LINE
8
Black
10
130.478
20
-98.7092
11
130.48
21
-98.7029
0
LINE
8
Black
10
130.48
20
-98.7029
11
130.484
21
-98.6975
0
LINE
8
Black
10
130.484
20
-98.6975
11
130.487
21
-98.6914
0
LINE
8
Black
10
130.487
20
-98.6914
11
130.491
21
-98.6869
0
LINE
8
Black
10
130.491
20
-98.6869
11
130.495
21
-98.6816
0
LINE
8
Black
10
130.495
20
-98.6816
11
130.5
21
-98.6777
0
LINE
8
Black
10
130.5
20
-98.6777
11
130.505
21
-98.673
0
LINE
8
Black
10
130.505
20
-98.673
11
130.511
21
-98.6703
0
LINE
8
Black
10
130.511
20
-98.6703
11
130.516
21
-98.6666
0
LINE
8
Black
10
130.516
20
-98.6666
11
130.523
21
-98.6649
0
LINE
8
Black
10
130.523
20
-98.6649
11
130.529
21
-98.6621
0
LINE
8
Black
10
130.529
20
-98.6621
11
130.956
21
-98.5482
0
LINE
8
Black
10
130.956
20
-98.5482
11
130.245
21
-98.3789
0
LINE
8
Black
10
130.245
20
-98.3789
11
130.221
21
-98.3686
0
LINE
8
Black
10
130.221
20
-98.3686
11
130.202
21
-98.3507
0
LINE
8
Black
10
130.202
20
-98.3507
11
130.191
21
-98.3274
0
LINE
8
Black
10
130.191
20
-98.3274
11
130.188
21
-98.3015
0
LINE
8
Black
10
130.188
20
-98.3015
11
130.194
21
-98.2762
0
LINE
8
Black
10
130.194
20
-98.2762
11
130.208
21
-98.2544
0
LINE
8
Black
10
130.208
20
-98.2544
11
130.229
21
-98.2389
0
LINE
8
Black
10
130.229
20
-98.2389
11
130.254
21
-98.2314
0
LINE
8
Black
10
130.254
20
-98.2314
11
130.28
21
-98.233
0
LINE
8
Black
10
172.726
20
-90.1911
11
172.733
21
-90.1911
0
LINE
8
Black
10
172.733
20
-90.1911
11
172.739
21
-90.1934
0
LINE
8
Black
10
172.739
20
-90.1934
11
172.746
21
-90.1945
0
LINE
8
Black
10
172.746
20
-90.1945
11
172.751
21
-90.1978
0
LINE
8
Black
10
172.751
20
-90.1978
11
172.757
21
-90.2
0
LINE
8
Black
10
172.757
20
-90.2
11
172.763
21
-90.2043
0
LINE
8
Black
10
172.763
20
-90.2043
11
172.768
21
-90.2075
0
LINE
8
Black
10
172.768
20
-90.2075
11
172.772
21
-90.2126
0
LINE
8
Black
10
172.772
20
-90.2126
11
172.777
21
-90.2168
0
LINE
8
Black
10
172.777
20
-90.2168
11
172.781
21
-90.2225
0
LINE
8
Black
10
172.781
20
-90.2225
11
172.785
21
-90.2275
0
LINE
8
Black
10
172.785
20
-90.2275
11
172.787
21
-90.2337
0
LINE
8
Black
10
172.787
20
-90.2337
11
172.79
21
-90.2393
0
LINE
8
Black
10
172.79
20
-90.2393
11
172.792
21
-90.2458
0
LINE
8
Black
10
172.792
20
-90.2458
11
172.794
21
-90.252
0
LINE
8
Black
10
172.794
20
-90.252
11
172.794
21
-90.2585
0
LINE
8
Black
10
172.794
20
-90.2585
11
172.795
21
-90.265
0
LINE
8
Black
10
172.795
20
-90.265
11
172.795
21
-98.965
0
LINE
8
Black
10
172.795
20
-98.965
11
172.794
21
-98.9715
0
LINE
8
Black
10
172.794
20
-98.9715
11
172.794
21
-98.978
0
LINE
8
Black
10
172.794
20
-98.978
11
172.792
21
-98.9842
0
LINE
8
Black
10
172.792
20
-98.9842
11
172.79
21
-98.9907
0
LINE
8
Black
10
172.79
20
-98.9907
11
172.787
21
-98.9963
0
LINE
8
Black
10
172.787
20
-98.9963
11
172.785
21
-99.0025
0
LINE
8
Black
10
172.785
20
-99.0025
11
172.781
21
-99.0075
0
LINE
8
Black
10
172.781
20
-99.0075
11
172.777
21
-99.0132
0
LINE
8
Black
10
172.777
20
-99.0132
11
172.772
21
-99.0174
0
LINE
8
Black
10
172.772
20
-99.0174
11
172.768
21
-99.0225
0
LINE
8
Black
10
172.768
20
-99.0225
11
172.763
21
-99.0257
0
LINE
8
Black
10
172.763
20
-99.0257
11
172.757
21
-99.03
0
LINE
8
Black
10
172.757
20
-99.03
11
172.751
21
-99.0322
0
LINE
8
Black
10
172.751
20
-99.0322
11
172.746
21
-99.0355
0
LINE
8
Black
10
172.746
20
-99.0355
11
172.739
21
-99.0366
0
LINE
8
Black
10
172.739
20
-99.0366
11
172.733
21
-99.0389
0
LINE
8
Black
10
172.733
20
-99.0389
11
172.726
21
-99.0389
0
LINE
8
Black
10
172.726
20
-99.0389
11
172.72
21
-99.04
0
LINE
8
Black
10
172.72
20
-99.04
11
168.32
21
-99.04
0
LINE
8
Black
10
168.32
20
-99.04
11
168.314
21
-99.0389
0
LINE
8
Black
10
168.314
20
-99.0389
11
168.307
21
-99.0389
0
LINE
8
Black
10
168.307
20
-99.0389
11
168.301
21
-99.0366
0
LINE
8
Black
10
168.301
20
-99.0366
11
168.294
21
-99.0355
0
LINE
8
Black
10
168.294
20
-99.0355
11
168.289
21
-99.0322
0
LINE
8
Black
10
168.289
20
-99.0322
11
168.282
21
-99.03
0
LINE
8
Black
10
168.282
20
-99.03
11
168.277
21
-99.0257
0
LINE
8
Black
10
168.277
20
-99.0257
11
168.272
21
-99.0225
0
LINE
8
Black
10
168.272
20
-99.0225
11
168.268
21
-99.0174
0
LINE
8
Black
10
168.268
20
-99.0174
11
168.263
21
-99.0132
0
LINE
8
Black
10
168.263
20
-99.0132
11
168.259
21
-99.0075
0
LINE
8
Black
10
168.259
20
-99.0075
11
168.255
21
-99.0025
0
LINE
8
Black
10
168.255
20
-99.0025
11
168.253
21
-98.9963
0
LINE
8
Black
10
168.253
20
-98.9963
11
168.25
21
-98.9907
0
LINE
8
Black
10
168.25
20
-98.9907
11
168.248
21
-98.9842
0
LINE
8
Black
10
168.248
20
-98.9842
11
168.246
21
-98.978
0
LINE
8
Black
10
168.246
20
-98.978
11
168.246
21
-98.9715
0
LINE
8
Black
10
168.246
20
-98.9715
11
168.245
21
-98.965
0
LINE
8
Black
10
168.245
20
-98.965
11
168.245
21
-90.265
0
LINE
8
Black
10
168.245
20
-90.265
11
168.246
21
-90.2585
0
LINE
8
Black
10
168.246
20
-90.2585
11
168.246
21
-90.252
0
LINE
8
Black
10
168.246
20
-90.252
11
168.248
21
-90.2458
0
LINE
8
Black
10
168.248
20
-90.2458
11
168.25
21
-90.2393
0
LINE
8
Black
10
168.25
20
-90.2393
11
168.253
21
-90.2337
0
LINE
8
Black
10
168.253
20
-90.2337
11
168.255
21
-90.2275
0
LINE
8
Black
10
168.255
20
-90.2275
11
168.259
21
-90.2225
0
LINE
8
Black
10
168.259
20
-90.2225
11
168.263
21
-90.2168
0
LINE
8
Black
10
168.263
20
-90.2168
11
168.268
21
-90.2126
0
LINE
8
Black
10
168.268
20
-90.2126
11
168.272
21
-90.2075
0
LINE
8
Black
10
168.272
20
-90.2075
11
168.277
21
-90.2043
0
LINE
8
Black
10
168.277
20
-90.2043
11
168.282
21
-90.2
0
LINE
8
Black
10
168.282
20
-90.2
11
168.289
21
-90.1978
0
LINE
8
Black
10
168.289
20
-90.1978
11
168.294
21
-90.1945
0
LINE
8
Black
10
168.294
20
-90.1945
11
168.301
21
-90.1934
0
LINE
8
Black
10
168.301
20
-90.1934
11
168.307
21
-90.1911
0
LINE
8
Black
10
168.307
20
-90.1911
11
168.314
21
-90.1911
0
LINE
8
Black
10
168.314
20
-90.1911
11
168.32
21
-90.19
0
LINE
8
Black
10
168.32
20
-90.19
11
172.72
21
-90.19
0
LINE
8
Black
10
172.72
20
-90.19
11
172.726
21
-90.1911
0
LINE
8
Black
10
168.395
20
-90.34
11
168.395
21
-98.89
0
LINE
8
Black
10
168.395
20
-98.89
11
172.645
21
-98.89
0
LINE
8
Black
10
172.645
20
-98.89
11
172.645
21
-90.34
0
LINE
8
Black
10
172.645
20
-90.34
11
168.395
21
-90.34
0
LINE
8
Black
10
166.955
20
-97.4315
11
166.975
21
-97.4482
0
LINE
8
Black
10
166.975
20
-97.4482
11
166.988
21
-97.4708
0
LINE
8
Black
10
166.988
20
-97.4708
11
166.993
21
-97.4964
0
LINE
8
Black
10
166.993
20
-97.4964
11
166.993
21
-98.2583
0
LINE
8
Black
10
166.993
20
-98.2583
11
166.988
21
-98.284
0
LINE
8
Black
10
166.988
20
-98.284
11
166.975
21
-98.3065
0
LINE
8
Black
10
166.975
20
-98.3065
11
166.955
21
-98.3233
0
LINE
8
Black
10
166.955
20
-98.3233
11
166.931
21
-98.3322
0
LINE
8
Black
10
166.931
20
-98.3322
11
166.905
21
-98.3322
0
LINE
8
Black
10
166.905
20
-98.3322
11
166.88
21
-98.3233
0
LINE
8
Black
10
166.88
20
-98.3233
11
166.86
21
-98.3065
0
LINE
8
Black
10
166.86
20
-98.3065
11
166.847
21
-98.284
0
LINE
8
Black
10
166.847
20
-98.284
11
166.843
21
-98.2583
0
LINE
8
Black
10
166.843
20
-98.2583
11
166.843
21
-97.4964
0
LINE
8
Black
10
166.843
20
-97.4964
11
166.847
21
-97.4708
0
LINE
8
Black
10
166.847
20
-97.4708
11
166.86
21
-97.4482
0
LINE
8
Black
10
166.86
20
-97.4482
11
166.88
21
-97.4315
0
LINE
8
Black
10
166.88
20
-97.4315
11
166.905
21
-97.4226
0
LINE
8
Black
10
166.905
20
-97.4226
11
166.931
21
-97.4226
0
LINE
8
Black
10
166.931
20
-97.4226
11
166.955
21
-97.4315
0
LINE
8
Black
10
131.395
20
-97.3362
11
131.415
21
-97.353
0
LINE
8
Black
10
131.415
20
-97.353
11
131.428
21
-97.3755
0
LINE
8
Black
10
131.428
20
-97.3755
11
131.433
21
-97.4012
0
LINE
8
Black
10
131.433
20
-97.4012
11
131.433
21
-98.1631
0
LINE
8
Black
10
131.433
20
-98.1631
11
131.428
21
-98.1887
0
LINE
8
Black
10
131.428
20
-98.1887
11
131.415
21
-98.2113
0
LINE
8
Black
10
131.415
20
-98.2113
11
131.395
21
-98.228
0
LINE
8
Black
10
131.395
20
-98.228
11
131.371
21
-98.237
0
LINE
8
Black
10
131.371
20
-98.237
11
131.345
21
-98.237
0
LINE
8
Black
10
131.345
20
-98.237
11
131.32
21
-98.228
0
LINE
8
Black
10
131.32
20
-98.228
11
131.3
21
-98.2113
0
LINE
8
Black
10
131.3
20
-98.2113
11
131.287
21
-98.1887
0
LINE
8
Black
10
131.287
20
-98.1887
11
131.283
21
-98.1631
0
LINE
8
Black
10
131.283
20
-98.1631
11
131.283
21
-97.4012
0
LINE
8
Black
10
131.283
20
-97.4012
11
131.287
21
-97.3755
0
LINE
8
Black
10
131.287
20
-97.3755
11
131.3
21
-97.353
0
LINE
8
Black
10
131.3
20
-97.353
11
131.32
21
-97.3362
0
LINE
8
Black
10
131.32
20
-97.3362
11
131.345
21
-97.3273
0
LINE
8
Black
10
131.345
20
-97.3273
11
131.371
21
-97.3273
0
LINE
8
Black
10
131.371
20
-97.3273
11
131.395
21
-97.3362
0
LINE
8
Black
10
166.16
20
-96.6127
11
166.164
21
-96.6124
0
LINE
8
Black
10
166.164
20
-96.6124
11
166.173
21
-96.6149
0
LINE
8
Black
10
166.173
20
-96.6149
11
166.181
21
-96.6164
0
LINE
8
Black
10
166.181
20
-96.6164
11
166.185
21
-96.6186
0
LINE
8
Black
10
166.185
20
-96.6186
11
166.189
21
-96.6198
0
LINE
8
Black
10
166.189
20
-96.6198
11
166.284
21
-96.6674
0
LINE
8
Black
10
166.284
20
-96.6674
11
166.294
21
-96.6746
0
LINE
8
Black
10
166.294
20
-96.6746
11
166.304
21
-96.6815
0
LINE
8
Black
10
166.304
20
-96.6815
11
166.352
21
-96.7291
0
LINE
8
Black
10
166.352
20
-96.7291
11
166.358
21
-96.7389
0
LINE
8
Black
10
166.358
20
-96.7389
11
166.366
21
-96.7486
0
LINE
8
Black
10
166.366
20
-96.7486
11
166.413
21
-96.8438
0
LINE
8
Black
10
166.413
20
-96.8438
11
166.415
21
-96.848
0
LINE
8
Black
10
166.415
20
-96.848
11
166.417
21
-96.8517
0
LINE
8
Black
10
166.417
20
-96.8517
11
166.418
21
-96.8604
0
LINE
8
Black
10
166.418
20
-96.8604
11
166.421
21
-96.8688
0
LINE
8
Black
10
166.421
20
-96.8688
11
166.42
21
-96.8731
0
LINE
8
Black
10
166.42
20
-96.8731
11
166.421
21
-96.8763
0
LINE
8
Black
10
166.421
20
-96.8763
11
166.779
21
-96.6255
0
LINE
8
Black
10
166.779
20
-96.6255
11
166.803
21
-96.6145
0
LINE
8
Black
10
166.803
20
-96.6145
11
166.829
21
-96.6122
0
LINE
8
Black
10
166.829
20
-96.6122
11
166.854
21
-96.6189
0
LINE
8
Black
10
166.854
20
-96.6189
11
166.875
21
-96.6339
0
LINE
8
Black
10
166.875
20
-96.6339
11
166.89
21
-96.6552
0
LINE
8
Black
10
166.89
20
-96.6552
11
166.897
21
-96.6804
0
LINE
8
Black
10
166.897
20
-96.6804
11
166.895
21
-96.7063
0
LINE
8
Black
10
166.895
20
-96.7063
11
166.884
21
-96.7299
0
LINE
8
Black
10
166.884
20
-96.7299
11
166.865
21
-96.7483
0
LINE
8
Black
10
166.865
20
-96.7483
11
166.421
21
-97.0593
0
LINE
8
Black
10
166.421
20
-97.0593
11
166.421
21
-97.1833
0
LINE
8
Black
10
166.421
20
-97.1833
11
166.822
21
-97.1833
0
LINE
8
Black
10
166.822
20
-97.1833
11
166.848
21
-97.1879
0
LINE
8
Black
10
166.848
20
-97.1879
11
166.871
21
-97.2009
0
LINE
8
Black
10
166.871
20
-97.2009
11
166.887
21
-97.2208
0
LINE
8
Black
10
166.887
20
-97.2208
11
166.896
21
-97.2453
0
LINE
8
Black
10
166.896
20
-97.2453
11
166.896
21
-97.2714
0
LINE
8
Black
10
166.896
20
-97.2714
11
166.887
21
-97.2958
0
LINE
8
Black
10
166.887
20
-97.2958
11
166.871
21
-97.3158
0
LINE
8
Black
10
166.871
20
-97.3158
11
166.848
21
-97.3288
0
LINE
8
Black
10
166.848
20
-97.3288
11
166.822
21
-97.3333
0
LINE
8
Black
10
166.822
20
-97.3333
11
165.822
21
-97.3333
0
LINE
8
Black
10
165.822
20
-97.3333
11
165.816
21
-97.3322
0
LINE
8
Black
10
165.816
20
-97.3322
11
165.809
21
-97.3322
0
LINE
8
Black
10
165.809
20
-97.3322
11
165.803
21
-97.3299
0
LINE
8
Black
10
165.803
20
-97.3299
11
165.797
21
-97.3288
0
LINE
8
Black
10
165.797
20
-97.3288
11
165.791
21
-97.3255
0
LINE
8
Black
10
165.791
20
-97.3255
11
165.785
21
-97.3233
0
LINE
8
Black
10
165.785
20
-97.3233
11
165.78
21
-97.3191
0
LINE
8
Black
10
165.78
20
-97.3191
11
165.774
21
-97.3158
0
LINE
8
Black
10
165.774
20
-97.3158
11
165.77
21
-97.3108
0
LINE
8
Black
10
165.77
20
-97.3108
11
165.765
21
-97.3065
0
LINE
8
Black
10
165.765
20
-97.3065
11
165.762
21
-97.3009
0
LINE
8
Black
10
165.762
20
-97.3009
11
165.757
21
-97.2958
0
LINE
8
Black
10
165.757
20
-97.2958
11
165.755
21
-97.2897
0
LINE
8
Black
10
165.755
20
-97.2897
11
165.752
21
-97.284
0
LINE
8
Black
10
165.752
20
-97.284
11
165.751
21
-97.2775
0
LINE
8
Black
10
165.751
20
-97.2775
11
165.749
21
-97.2714
0
LINE
8
Black
10
165.749
20
-97.2714
11
165.749
21
-97.2648
0
LINE
8
Black
10
165.749
20
-97.2648
11
165.747
21
-97.2583
0
LINE
8
Black
10
165.747
20
-97.2583
11
165.747
21
-96.8774
0
LINE
8
Black
10
165.747
20
-96.8774
11
165.748
21
-96.8731
0
LINE
8
Black
10
165.748
20
-96.8731
11
165.748
21
-96.8688
0
LINE
8
Black
10
165.748
20
-96.8688
11
165.75
21
-96.8604
0
LINE
8
Black
10
165.75
20
-96.8604
11
165.752
21
-96.8517
0
LINE
8
Black
10
165.752
20
-96.8517
11
165.754
21
-96.848
0
LINE
8
Black
10
165.754
20
-96.848
11
165.755
21
-96.8438
0
LINE
8
Black
10
165.755
20
-96.8438
11
165.803
21
-96.7486
0
LINE
8
Black
10
165.803
20
-96.7486
11
165.81
21
-96.7389
0
LINE
8
Black
10
165.81
20
-96.7389
11
165.817
21
-96.7291
0
LINE
8
Black
10
165.817
20
-96.7291
11
165.865
21
-96.6815
0
LINE
8
Black
10
165.865
20
-96.6815
11
165.874
21
-96.6746
0
LINE
8
Black
10
165.874
20
-96.6746
11
165.884
21
-96.6674
0
LINE
8
Black
10
165.884
20
-96.6674
11
165.979
21
-96.6198
0
LINE
8
Black
10
165.979
20
-96.6198
11
165.983
21
-96.6186
0
LINE
8
Black
10
165.983
20
-96.6186
11
165.987
21
-96.6164
0
LINE
8
Black
10
165.987
20
-96.6164
11
165.996
21
-96.6149
0
LINE
8
Black
10
165.996
20
-96.6149
11
166.004
21
-96.6124
0
LINE
8
Black
10
166.004
20
-96.6124
11
166.009
21
-96.6127
0
LINE
8
Black
10
166.009
20
-96.6127
11
166.013
21
-96.6119
0
LINE
8
Black
10
166.013
20
-96.6119
11
166.156
21
-96.6119
0
LINE
8
Black
10
166.156
20
-96.6119
11
166.16
21
-96.6127
0
LINE
8
Black
10
166.031
20
-96.7619
11
165.962
21
-96.7962
0
LINE
8
Black
10
165.962
20
-96.7962
11
165.932
21
-96.8266
0
LINE
8
Black
10
165.932
20
-96.8266
11
165.897
21
-96.8951
0
LINE
8
Black
10
165.897
20
-96.8951
11
165.897
21
-97.1833
0
LINE
8
Black
10
165.897
20
-97.1833
11
166.271
21
-97.1833
0
LINE
8
Black
10
166.271
20
-97.1833
11
166.271
21
-96.8951
0
LINE
8
Black
10
166.271
20
-96.8951
11
166.237
21
-96.8266
0
LINE
8
Black
10
166.237
20
-96.8266
11
166.207
21
-96.7962
0
LINE
8
Black
10
166.207
20
-96.7962
11
166.138
21
-96.7619
0
LINE
8
Black
10
166.138
20
-96.7619
11
166.031
21
-96.7619
0
LINE
8
Black
10
131.3
20
-96.622
11
131.32
21
-96.6387
0
LINE
8
Black
10
131.32
20
-96.6387
11
131.333
21
-96.6613
0
LINE
8
Black
10
131.333
20
-96.6613
11
131.337
21
-96.6869
0
LINE
8
Black
10
131.337
20
-96.6869
11
131.337
21
-97.1631
0
LINE
8
Black
10
131.337
20
-97.1631
11
131.336
21
-97.1696
0
LINE
8
Black
10
131.336
20
-97.1696
11
131.336
21
-97.1761
0
LINE
8
Black
10
131.336
20
-97.1761
11
131.334
21
-97.1823
0
LINE
8
Black
10
131.334
20
-97.1823
11
131.333
21
-97.1887
0
LINE
8
Black
10
131.333
20
-97.1887
11
131.33
21
-97.1944
0
LINE
8
Black
10
131.33
20
-97.1944
11
131.327
21
-97.2006
0
LINE
8
Black
10
131.327
20
-97.2006
11
131.323
21
-97.2056
0
LINE
8
Black
10
131.323
20
-97.2056
11
131.32
21
-97.2113
0
LINE
8
Black
10
131.32
20
-97.2113
11
131.315
21
-97.2155
0
LINE
8
Black
10
131.315
20
-97.2155
11
131.311
21
-97.2205
0
LINE
8
Black
10
131.311
20
-97.2205
11
131.305
21
-97.2238
0
LINE
8
Black
10
131.305
20
-97.2238
11
131.3
21
-97.228
0
LINE
8
Black
10
131.3
20
-97.228
11
131.294
21
-97.2303
0
LINE
8
Black
10
131.294
20
-97.2303
11
131.288
21
-97.2336
0
LINE
8
Black
10
131.288
20
-97.2336
11
131.282
21
-97.2347
0
LINE
8
Black
10
131.282
20
-97.2347
11
131.275
21
-97.237
0
LINE
8
Black
10
131.275
20
-97.237
11
131.269
21
-97.237
0
LINE
8
Black
10
131.269
20
-97.237
11
131.262
21
-97.2381
0
LINE
8
Black
10
131.262
20
-97.2381
11
130.262
21
-97.2381
0
LINE
8
Black
10
130.262
20
-97.2381
11
130.237
21
-97.2336
0
LINE
8
Black
10
130.237
20
-97.2336
11
130.214
21
-97.2205
0
LINE
8
Black
10
130.214
20
-97.2205
11
130.197
21
-97.2006
0
LINE
8
Black
10
130.197
20
-97.2006
11
130.189
21
-97.1761
0
LINE
8
Black
10
130.189
20
-97.1761
11
130.189
21
-97.1501
0
LINE
8
Black
10
130.189
20
-97.1501
11
130.197
21
-97.1256
0
LINE
8
Black
10
130.197
20
-97.1256
11
130.214
21
-97.1056
0
LINE
8
Black
10
130.214
20
-97.1056
11
130.237
21
-97.0926
0
LINE
8
Black
10
130.237
20
-97.0926
11
130.262
21
-97.0881
0
LINE
8
Black
10
130.262
20
-97.0881
11
131.187
21
-97.0881
0
LINE
8
Black
10
131.187
20
-97.0881
11
131.187
21
-96.6869
0
LINE
8
Black
10
131.187
20
-96.6869
11
131.192
21
-96.6613
0
LINE
8
Black
10
131.192
20
-96.6613
11
131.205
21
-96.6387
0
LINE
8
Black
10
131.205
20
-96.6387
11
131.225
21
-96.622
0
LINE
8
Black
10
131.225
20
-96.622
11
131.249
21
-96.613
0
LINE
8
Black
10
131.249
20
-96.613
11
131.275
21
-96.613
0
LINE
8
Black
10
131.275
20
-96.613
11
131.3
21
-96.622
0
LINE
8
Black
10
129.991
20
-95.3216
11
129.172
21
-96.008
0
LINE
8
Black
10
129.172
20
-96.008
11
128.169
21
-96.3733
0
LINE
8
Black
10
128.169
20
-96.3733
11
127.101
21
-96.3733
0
LINE
8
Black
10
127.101
20
-96.3733
11
126.097
21
-96.008
0
LINE
8
Black
10
126.097
20
-96.008
11
125.279
21
-95.3216
0
LINE
8
Black
10
125.279
20
-95.3216
11
124.745
21
-94.3967
0
LINE
8
Black
10
124.745
20
-94.3967
11
124.56
21
-93.345
0
LINE
8
Black
10
124.56
20
-93.345
11
124.745
21
-92.2933
0
LINE
8
Black
10
124.745
20
-92.2933
11
125.279
21
-91.3684
0
LINE
8
Black
10
125.279
20
-91.3684
11
126.097
21
-90.682
0
LINE
8
Black
10
126.097
20
-90.682
11
127.101
21
-90.3167
0
LINE
8
Black
10
127.101
20
-90.3167
11
128.169
21
-90.3167
0
LINE
8
Black
10
128.169
20
-90.3167
11
129.172
21
-90.682
0
LINE
8
Black
10
129.172
20
-90.682
11
129.991
21
-91.3684
0
LINE
8
Black
10
129.991
20
-91.3684
11
130.525
21
-92.2933
0
LINE
8
Black
10
130.525
20
-92.2933
11
130.71
21
-93.345
0
LINE
8
Black
10
130.71
20
-93.345
11
130.525
21
-94.3967
0
LINE
8
Black
10
130.525
20
-94.3967
11
129.991
21
-95.3216
0
LINE
8
Black
10
129.876
20
-91.4648
11
129.097
21
-90.8119
0
LINE
8
Black
10
129.097
20
-90.8119
11
128.143
21
-90.4644
0
LINE
8
Black
10
128.143
20
-90.4644
11
127.127
21
-90.4644
0
LINE
8
Black
10
127.127
20
-90.4644
11
126.172
21
-90.8119
0
LINE
8
Black
10
126.172
20
-90.8119
11
125.394
21
-91.4648
0
LINE
8
Black
10
125.394
20
-91.4648
11
124.886
21
-92.3446
0
LINE
8
Black
10
124.886
20
-92.3446
11
124.71
21
-93.345
0
LINE
8
Black
10
124.71
20
-93.345
11
124.886
21
-94.3454
0
LINE
8
Black
10
124.886
20
-94.3454
11
125.394
21
-95.2252
0
LINE
8
Black
10
125.394
20
-95.2252
11
126.172
21
-95.8781
0
LINE
8
Black
10
126.172
20
-95.8781
11
127.127
21
-96.2256
0
LINE
8
Black
10
127.127
20
-96.2256
11
128.143
21
-96.2256
0
LINE
8
Black
10
128.143
20
-96.2256
11
129.097
21
-95.8781
0
LINE
8
Black
10
129.097
20
-95.8781
11
129.876
21
-95.2252
0
LINE
8
Black
10
129.876
20
-95.2252
11
130.384
21
-94.3454
0
LINE
8
Black
10
130.384
20
-94.3454
11
130.56
21
-93.345
0
LINE
8
Black
10
130.56
20
-93.345
11
130.384
21
-92.3446
0
LINE
8
Black
10
130.384
20
-92.3446
11
129.876
21
-91.4648
0
LINE
8
Black
10
164.579
20
-90.2111
11
164.586
21
-90.2111
0
LINE
8
Black
10
164.586
20
-90.2111
11
164.592
21
-90.2134
0
LINE
8
Black
10
164.592
20
-90.2134
11
164.599
21
-90.2145
0
LINE
8
Black
10
164.599
20
-90.2145
11
164.604
21
-90.2178
0
LINE
8
Black
10
164.604
20
-90.2178
11
164.611
21
-90.22
0
LINE
8
Black
10
164.611
20
-90.22
11
164.616
21
-90.2243
0
LINE
8
Black
10
164.616
20
-90.2243
11
164.621
21
-90.2275
0
LINE
8
Black
10
164.621
20
-90.2275
11
164.625
21
-90.2326
0
LINE
8
Black
10
164.625
20
-90.2326
11
164.63
21
-90.2368
0
LINE
8
Black
10
164.63
20
-90.2368
11
164.634
21
-90.2425
0
LINE
8
Black
10
164.634
20
-90.2425
11
164.638
21
-90.2475
0
LINE
8
Black
10
164.638
20
-90.2475
11
164.64
21
-90.2537
0
LINE
8
Black
10
164.64
20
-90.2537
11
164.643
21
-90.2593
0
LINE
8
Black
10
164.643
20
-90.2593
11
164.645
21
-90.2658
0
LINE
8
Black
10
164.645
20
-90.2658
11
164.647
21
-90.272
0
LINE
8
Black
10
164.647
20
-90.272
11
164.647
21
-90.2785
0
LINE
8
Black
10
164.647
20
-90.2785
11
164.648
21
-90.285
0
LINE
8
Black
10
164.648
20
-90.285
11
164.648
21
-95.885
0
LINE
8
Black
10
164.648
20
-95.885
11
164.647
21
-95.8915
0
LINE
8
Black
10
164.647
20
-95.8915
11
164.647
21
-95.898
0
LINE
8
Black
10
164.647
20
-95.898
11
164.645
21
-95.9042
0
LINE
8
Black
10
164.645
20
-95.9042
11
164.643
21
-95.9107
0
LINE
8
Black
10
164.643
20
-95.9107
11
164.64
21
-95.9163
0
LINE
8
Black
10
164.64
20
-95.9163
11
164.638
21
-95.9225
0
LINE
8
Black
10
164.638
20
-95.9225
11
164.634
21
-95.9275
0
LINE
8
Black
10
164.634
20
-95.9275
11
164.63
21
-95.9332
0
LINE
8
Black
10
164.63
20
-95.9332
11
164.625
21
-95.9374
0
LINE
8
Black
10
164.625
20
-95.9374
11
164.621
21
-95.9425
0
LINE
8
Black
10
164.621
20
-95.9425
11
164.616
21
-95.9457
0
LINE
8
Black
10
164.616
20
-95.9457
11
164.611
21
-95.95
0
LINE
8
Black
10
164.611
20
-95.95
11
164.604
21
-95.9522
0
LINE
8
Black
10
164.604
20
-95.9522
11
164.599
21
-95.9555
0
LINE
8
Black
10
164.599
20
-95.9555
11
164.592
21
-95.9566
0
LINE
8
Black
10
164.592
20
-95.9566
11
164.586
21
-95.9589
0
LINE
8
Black
10
164.586
20
-95.9589
11
164.579
21
-95.9589
0
LINE
8
Black
10
164.579
20
-95.9589
11
164.573
21
-95.96
0
LINE
8
Black
10
164.573
20
-95.96
11
131.973
21
-95.96
0
LINE
8
Black
10
131.973
20
-95.96
11
131.967
21
-95.9589
0
LINE
8
Black
10
131.967
20
-95.9589
11
131.96
21
-95.9589
0
LINE
8
Black
10
131.96
20
-95.9589
11
131.954
21
-95.9566
0
LINE
8
Black
10
131.954
20
-95.9566
11
131.947
21
-95.9555
0
LINE
8
Black
10
131.947
20
-95.9555
11
131.942
21
-95.9522
0
LINE
8
Black
10
131.942
20
-95.9522
11
131.935
21
-95.95
0
LINE
8
Black
10
131.935
20
-95.95
11
131.93
21
-95.9457
0
LINE
8
Black
10
131.93
20
-95.9457
11
131.925
21
-95.9425
0
LINE
8
Black
10
131.925
20
-95.9425
11
131.921
21
-95.9374
0
LINE
8
Black
10
131.921
20
-95.9374
11
131.916
21
-95.9332
0
LINE
8
Black
10
131.916
20
-95.9332
11
131.912
21
-95.9275
0
LINE
8
Black
10
131.912
20
-95.9275
11
131.908
21
-95.9225
0
LINE
8
Black
10
131.908
20
-95.9225
11
131.906
21
-95.9163
0
LINE
8
Black
10
131.906
20
-95.9163
11
131.903
21
-95.9107
0
LINE
8
Black
10
131.903
20
-95.9107
11
131.901
21
-95.9042
0
LINE
8
Black
10
131.901
20
-95.9042
11
131.899
21
-95.898
0
LINE
8
Black
10
131.899
20
-95.898
11
131.899
21
-95.8915
0
LINE
8
Black
10
131.899
20
-95.8915
11
131.898
21
-95.885
0
LINE
8
Black
10
131.898
20
-95.885
11
131.898
21
-90.285
0
LINE
8
Black
10
131.898
20
-90.285
11
131.899
21
-90.2785
0
LINE
8
Black
10
131.899
20
-90.2785
11
131.899
21
-90.272
0
LINE
8
Black
10
131.899
20
-90.272
11
131.901
21
-90.2658
0
LINE
8
Black
10
131.901
20
-90.2658
11
131.903
21
-90.2593
0
LINE
8
Black
10
131.903
20
-90.2593
11
131.906
21
-90.2537
0
LINE
8
Black
10
131.906
20
-90.2537
11
131.908
21
-90.2475
0
LINE
8
Black
10
131.908
20
-90.2475
11
131.912
21
-90.2425
0
LINE
8
Black
10
131.912
20
-90.2425
11
131.916
21
-90.2368
0
LINE
8
Black
10
131.916
20
-90.2368
11
131.921
21
-90.2326
0
LINE
8
Black
10
131.921
20
-90.2326
11
131.925
21
-90.2275
0
LINE
8
Black
10
131.925
20
-90.2275
11
131.93
21
-90.2243
0
LINE
8
Black
10
131.93
20
-90.2243
11
131.935
21
-90.22
0
LINE
8
Black
10
131.935
20
-90.22
11
131.942
21
-90.2178
0
LINE
8
Black
10
131.942
20
-90.2178
11
131.947
21
-90.2145
0
LINE
8
Black
10
131.947
20
-90.2145
11
131.954
21
-90.2134
0
LINE
8
Black
10
131.954
20
-90.2134
11
131.96
21
-90.2111
0
LINE
8
Black
10
131.96
20
-90.2111
11
131.967
21
-90.2111
0
LINE
8
Black
10
131.967
20
-90.2111
11
131.973
21
-90.21
0
LINE
8
Black
10
131.973
20
-90.21
11
164.573
21
-90.21
0
LINE
8
Black
10
164.573
20
-90.21
11
164.579
21
-90.2111
0
LINE
8
Black
10
132.048
20
-90.36
11
132.048
21
-95.81
0
LINE
8
Black
10
132.048
20
-95.81
11
164.498
21
-95.81
0
LINE
8
Black
10
164.498
20
-95.81
11
164.498
21
-90.36
0
LINE
8
Black
10
164.498
20
-90.36
11
132.048
21
-90.36
0
LINE
8
Black
10
147.231
20
-94.6374
11
147.251
21
-94.6542
0
LINE
8
Black
10
147.251
20
-94.6542
11
147.264
21
-94.6767
0
LINE
8
Black
10
147.264
20
-94.6767
11
147.268
21
-94.7024
0
LINE
8
Black
10
147.268
20
-94.7024
11
147.268
21
-95.4942
0
LINE
8
Black
10
147.268
20
-95.4942
11
147.302
21
-95.5627
0
LINE
8
Black
10
147.302
20
-95.5627
11
147.333
21
-95.5931
0
LINE
8
Black
10
147.333
20
-95.5931
11
147.401
21
-95.6274
0
LINE
8
Black
10
147.401
20
-95.6274
11
147.556
21
-95.6274
0
LINE
8
Black
10
147.556
20
-95.6274
11
147.625
21
-95.5931
0
LINE
8
Black
10
147.625
20
-95.5931
11
147.655
21
-95.5627
0
LINE
8
Black
10
147.655
20
-95.5627
11
147.69
21
-95.4942
0
LINE
8
Black
10
147.69
20
-95.4942
11
147.69
21
-94.7024
0
LINE
8
Black
10
147.69
20
-94.7024
11
147.694
21
-94.6767
0
LINE
8
Black
10
147.694
20
-94.6767
11
147.707
21
-94.6542
0
LINE
8
Black
10
147.707
20
-94.6542
11
147.727
21
-94.6374
0
LINE
8
Black
10
147.727
20
-94.6374
11
147.751
21
-94.6285
0
LINE
8
Black
10
147.751
20
-94.6285
11
147.778
21
-94.6285
0
LINE
8
Black
10
147.778
20
-94.6285
11
147.802
21
-94.6374
0
LINE
8
Black
10
147.802
20
-94.6374
11
147.822
21
-94.6542
0
LINE
8
Black
10
147.822
20
-94.6542
11
147.835
21
-94.6767
0
LINE
8
Black
10
147.835
20
-94.6767
11
147.84
21
-94.7024
0
LINE
8
Black
10
147.84
20
-94.7024
11
147.84
21
-95.5119
0
LINE
8
Black
10
147.84
20
-95.5119
11
147.839
21
-95.5162
0
LINE
8
Black
10
147.839
20
-95.5162
11
147.839
21
-95.5205
0
LINE
8
Black
10
147.839
20
-95.5205
11
147.837
21
-95.5289
0
LINE
8
Black
10
147.837
20
-95.5289
11
147.835
21
-95.5376
0
LINE
8
Black
10
147.835
20
-95.5376
11
147.833
21
-95.5413
0
LINE
8
Black
10
147.833
20
-95.5413
11
147.832
21
-95.5454
0
LINE
8
Black
10
147.832
20
-95.5454
11
147.784
21
-95.6407
0
LINE
8
Black
10
147.784
20
-95.6407
11
147.777
21
-95.6503
0
LINE
8
Black
10
147.777
20
-95.6503
11
147.77
21
-95.6602
0
LINE
8
Black
10
147.77
20
-95.6602
11
147.722
21
-95.7078
0
LINE
8
Black
10
147.722
20
-95.7078
11
147.712
21
-95.7147
0
LINE
8
Black
10
147.712
20
-95.7147
11
147.703
21
-95.7218
0
LINE
8
Black
10
147.703
20
-95.7218
11
147.608
21
-95.7695
0
LINE
8
Black
10
147.608
20
-95.7695
11
147.603
21
-95.7707
0
LINE
8
Black
10
147.603
20
-95.7707
11
147.6
21
-95.7729
0
LINE
8
Black
10
147.6
20
-95.7729
11
147.591
21
-95.7744
0
LINE
8
Black
10
147.591
20
-95.7744
11
147.583
21
-95.7769
0
LINE
8
Black
10
147.583
20
-95.7769
11
147.578
21
-95.7766
0
LINE
8
Black
10
147.578
20
-95.7766
11
147.574
21
-95.7774
0
LINE
8
Black
10
147.574
20
-95.7774
11
147.384
21
-95.7774
0
LINE
8
Black
10
147.384
20
-95.7774
11
147.379
21
-95.7766
0
LINE
8
Black
10
147.379
20
-95.7766
11
147.375
21
-95.7769
0
LINE
8
Black
10
147.375
20
-95.7769
11
147.367
21
-95.7744
0
LINE
8
Black
10
147.367
20
-95.7744
11
147.358
21
-95.7729
0
LINE
8
Black
10
147.358
20
-95.7729
11
147.354
21
-95.7707
0
LINE
8
Black
10
147.354
20
-95.7707
11
147.35
21
-95.7695
0
LINE
8
Black
10
147.35
20
-95.7695
11
147.255
21
-95.7218
0
LINE
8
Black
10
147.255
20
-95.7218
11
147.245
21
-95.7147
0
LINE
8
Black
10
147.245
20
-95.7147
11
147.235
21
-95.7078
0
LINE
8
Black
10
147.235
20
-95.7078
11
147.188
21
-95.6602
0
LINE
8
Black
10
147.188
20
-95.6602
11
147.181
21
-95.6503
0
LINE
8
Black
10
147.181
20
-95.6503
11
147.174
21
-95.6407
0
LINE
8
Black
10
147.174
20
-95.6407
11
147.126
21
-95.5454
0
LINE
8
Black
10
147.126
20
-95.5454
11
147.125
21
-95.5413
0
LINE
8
Black
10
147.125
20
-95.5413
11
147.123
21
-95.5376
0
LINE
8
Black
10
147.123
20
-95.5376
11
147.121
21
-95.5289
0
LINE
8
Black
10
147.121
20
-95.5289
11
147.119
21
-95.5205
0
LINE
8
Black
10
147.119
20
-95.5205
11
147.119
21
-95.5162
0
LINE
8
Black
10
147.119
20
-95.5162
11
147.118
21
-95.5119
0
LINE
8
Black
10
147.118
20
-95.5119
11
147.118
21
-94.7024
0
LINE
8
Black
10
147.118
20
-94.7024
11
147.123
21
-94.6767
0
LINE
8
Black
10
147.123
20
-94.6767
11
147.136
21
-94.6542
0
LINE
8
Black
10
147.136
20
-94.6542
11
147.156
21
-94.6374
0
LINE
8
Black
10
147.156
20
-94.6374
11
147.18
21
-94.6285
0
LINE
8
Black
10
147.18
20
-94.6285
11
147.206
21
-94.6285
0
LINE
8
Black
10
147.206
20
-94.6285
11
147.231
21
-94.6374
0
LINE
8
Black
10
148.467
20
-94.5888
11
148.487
21
-94.605
0
LINE
8
Black
10
148.487
20
-94.605
11
148.501
21
-94.6272
0
LINE
8
Black
10
148.501
20
-94.6272
11
148.506
21
-94.6527
0
LINE
8
Black
10
148.506
20
-94.6527
11
148.502
21
-94.6785
0
LINE
8
Black
10
148.502
20
-94.6785
11
148.297
21
-95.294
0
LINE
8
Black
10
148.297
20
-95.294
11
148.594
21
-95.294
0
LINE
8
Black
10
148.594
20
-95.294
11
148.594
21
-95.0357
0
LINE
8
Black
10
148.594
20
-95.0357
11
148.599
21
-95.0101
0
LINE
8
Black
10
148.599
20
-95.0101
11
148.612
21
-94.9875
0
LINE
8
Black
10
148.612
20
-94.9875
11
148.632
21
-94.9708
0
LINE
8
Black
10
148.632
20
-94.9708
11
148.656
21
-94.9619
0
LINE
8
Black
10
148.656
20
-94.9619
11
148.682
21
-94.9619
0
LINE
8
Black
10
148.682
20
-94.9619
11
148.707
21
-94.9708
0
LINE
8
Black
10
148.707
20
-94.9708
11
148.727
21
-94.9875
0
LINE
8
Black
10
148.727
20
-94.9875
11
148.74
21
-95.0101
0
LINE
8
Black
10
148.74
20
-95.0101
11
148.744
21
-95.0357
0
LINE
8
Black
10
148.744
20
-95.0357
11
148.744
21
-95.294
0
LINE
8
Black
10
148.744
20
-95.294
11
148.812
21
-95.294
0
LINE
8
Black
10
148.812
20
-95.294
11
148.838
21
-95.2986
0
LINE
8
Black
10
148.838
20
-95.2986
11
148.86
21
-95.3116
0
LINE
8
Black
10
148.86
20
-95.3116
11
148.877
21
-95.3315
0
LINE
8
Black
10
148.877
20
-95.3315
11
148.886
21
-95.356
0
LINE
8
Black
10
148.886
20
-95.356
11
148.886
21
-95.3821
0
LINE
8
Black
10
148.886
20
-95.3821
11
148.877
21
-95.4065
0
LINE
8
Black
10
148.877
20
-95.4065
11
148.86
21
-95.4265
0
LINE
8
Black
10
148.86
20
-95.4265
11
148.838
21
-95.4395
0
LINE
8
Black
10
148.838
20
-95.4395
11
148.812
21
-95.444
0
LINE
8
Black
10
148.812
20
-95.444
11
148.744
21
-95.444
0
LINE
8
Black
10
148.744
20
-95.444
11
148.744
21
-95.7024
0
LINE
8
Black
10
148.744
20
-95.7024
11
148.74
21
-95.728
0
LINE
8
Black
10
148.74
20
-95.728
11
148.727
21
-95.7506
0
LINE
8
Black
10
148.727
20
-95.7506
11
148.707
21
-95.7673
0
LINE
8
Black
10
148.707
20
-95.7673
11
148.682
21
-95.7762
0
LINE
8
Black
10
148.682
20
-95.7762
11
148.656
21
-95.7762
0
LINE
8
Black
10
148.656
20
-95.7762
11
148.632
21
-95.7673
0
LINE
8
Black
10
148.632
20
-95.7673
11
148.612
21
-95.7506
0
LINE
8
Black
10
148.612
20
-95.7506
11
148.599
21
-95.728
0
LINE
8
Black
10
148.599
20
-95.728
11
148.594
21
-95.7024
0
LINE
8
Black
10
148.594
20
-95.7024
11
148.594
21
-95.444
0
LINE
8
Black
10
148.594
20
-95.444
11
148.193
21
-95.444
0
LINE
8
Black
10
148.193
20
-95.444
11
148.188
21
-95.4431
0
LINE
8
Black
10
148.188
20
-95.4431
11
148.182
21
-95.4432
0
LINE
8
Black
10
148.182
20
-95.4432
11
148.175
21
-95.4408
0
LINE
8
Black
10
148.175
20
-95.4408
11
148.167
21
-95.4395
0
LINE
8
Black
10
148.167
20
-95.4395
11
148.163
21
-95.4368
0
LINE
8
Black
10
148.163
20
-95.4368
11
148.157
21
-95.435
0
LINE
8
Black
10
148.157
20
-95.435
11
148.151
21
-95.4303
0
LINE
8
Black
10
148.151
20
-95.4303
11
148.145
21
-95.4265
0
LINE
8
Black
10
148.145
20
-95.4265
11
148.141
21
-95.4223
0
LINE
8
Black
10
148.141
20
-95.4223
11
148.137
21
-95.4188
0
LINE
8
Black
10
148.137
20
-95.4188
11
148.133
21
-95.4124
0
LINE
8
Black
10
148.133
20
-95.4124
11
148.128
21
-95.4065
0
LINE
8
Black
10
148.128
20
-95.4065
11
148.126
21
-95.4013
0
LINE
8
Black
10
148.126
20
-95.4013
11
148.123
21
-95.3966
0
LINE
8
Black
10
148.123
20
-95.3966
11
148.122
21
-95.3892
0
LINE
8
Black
10
148.122
20
-95.3892
11
148.119
21
-95.3821
0
LINE
8
Black
10
148.119
20
-95.3821
11
148.119
21
-95.3765
0
LINE
8
Black
10
148.119
20
-95.3765
11
148.118
21
-95.3711
0
LINE
8
Black
10
148.118
20
-95.3711
11
148.119
21
-95.3636
0
LINE
8
Black
10
148.119
20
-95.3636
11
148.119
21
-95.356
0
LINE
8
Black
10
148.119
20
-95.356
11
148.121
21
-95.3508
0
LINE
8
Black
10
148.121
20
-95.3508
11
148.122
21
-95.3453
0
LINE
8
Black
10
148.122
20
-95.3453
11
148.36
21
-94.631
0
LINE
8
Black
10
148.36
20
-94.631
11
148.372
21
-94.6081
0
LINE
8
Black
10
148.372
20
-94.6081
11
148.392
21
-94.5909
0
LINE
8
Black
10
148.392
20
-94.5909
11
148.416
21
-94.5813
0
LINE
8
Black
10
148.416
20
-94.5813
11
148.442
21
-94.5806
0
LINE
8
Black
10
148.442
20
-94.5806
11
148.467
21
-94.5888
0
LINE
8
Black
10
167.906
20
-94.0962
11
167.91
21
-94.096
0
LINE
8
Black
10
167.91
20
-94.096
11
167.919
21
-94.0985
0
LINE
8
Black
10
167.919
20
-94.0985
11
167.928
21
-94.1
0
LINE
8
Black
10
167.928
20
-94.1
11
167.931
21
-94.1022
0
LINE
8
Black
10
167.931
20
-94.1022
11
167.935
21
-94.1034
0
LINE
8
Black
10
167.935
20
-94.1034
11
168.031
21
-94.151
0
LINE
8
Black
10
168.031
20
-94.151
11
168.04
21
-94.1582
0
LINE
8
Black
10
168.04
20
-94.1582
11
168.05
21
-94.1651
0
LINE
8
Black
10
168.05
20
-94.1651
11
168.098
21
-94.2127
0
LINE
8
Black
10
168.098
20
-94.2127
11
168.105
21
-94.2225
0
LINE
8
Black
10
168.105
20
-94.2225
11
168.112
21
-94.2322
0
LINE
8
Black
10
168.112
20
-94.2322
11
168.159
21
-94.3274
0
LINE
8
Black
10
168.159
20
-94.3274
11
168.161
21
-94.3316
0
LINE
8
Black
10
168.161
20
-94.3316
11
168.163
21
-94.3353
0
LINE
8
Black
10
168.163
20
-94.3353
11
168.164
21
-94.344
0
LINE
8
Black
10
168.164
20
-94.344
11
168.167
21
-94.3524
0
LINE
8
Black
10
168.167
20
-94.3524
11
168.167
21
-94.3567
0
LINE
8
Black
10
168.167
20
-94.3567
11
168.167
21
-94.361
0
LINE
8
Black
10
168.167
20
-94.361
11
168.167
21
-94.5514
0
LINE
8
Black
10
168.167
20
-94.5514
11
168.167
21
-94.5557
0
LINE
8
Black
10
168.167
20
-94.5557
11
168.167
21
-94.56
0
LINE
8
Black
10
168.167
20
-94.56
11
168.164
21
-94.5684
0
LINE
8
Black
10
168.164
20
-94.5684
11
168.163
21
-94.5771
0
LINE
8
Black
10
168.163
20
-94.5771
11
168.161
21
-94.5808
0
LINE
8
Black
10
168.161
20
-94.5808
11
168.159
21
-94.585
0
LINE
8
Black
10
168.159
20
-94.585
11
168.112
21
-94.6802
0
LINE
8
Black
10
168.112
20
-94.6802
11
168.105
21
-94.6899
0
LINE
8
Black
10
168.105
20
-94.6899
11
168.098
21
-94.6997
0
LINE
8
Black
10
168.098
20
-94.6997
11
168.05
21
-94.7473
0
LINE
8
Black
10
168.05
20
-94.7473
11
168.04
21
-94.7542
0
LINE
8
Black
10
168.04
20
-94.7542
11
168.031
21
-94.7614
0
LINE
8
Black
10
168.031
20
-94.7614
11
167.935
21
-94.809
0
LINE
8
Black
10
167.935
20
-94.809
11
167.931
21
-94.8102
0
LINE
8
Black
10
167.931
20
-94.8102
11
167.928
21
-94.8124
0
LINE
8
Black
10
167.928
20
-94.8124
11
167.919
21
-94.8139
0
LINE
8
Black
10
167.919
20
-94.8139
11
167.91
21
-94.8164
0
LINE
8
Black
10
167.91
20
-94.8164
11
167.906
21
-94.8162
0
LINE
8
Black
10
167.906
20
-94.8162
11
167.902
21
-94.8169
0
LINE
8
Black
10
167.902
20
-94.8169
11
167.092
21
-94.8169
0
LINE
8
Black
10
167.092
20
-94.8169
11
167.067
21
-94.8124
0
LINE
8
Black
10
167.067
20
-94.8124
11
167.044
21
-94.7994
0
LINE
8
Black
10
167.044
20
-94.7994
11
167.027
21
-94.7794
0
LINE
8
Black
10
167.027
20
-94.7794
11
167.019
21
-94.7549
0
LINE
8
Black
10
167.019
20
-94.7549
11
167.019
21
-94.7289
0
LINE
8
Black
10
167.019
20
-94.7289
11
167.027
21
-94.7044
0
LINE
8
Black
10
167.027
20
-94.7044
11
167.044
21
-94.6845
0
LINE
8
Black
10
167.044
20
-94.6845
11
167.067
21
-94.6714
0
LINE
8
Black
10
167.067
20
-94.6714
11
167.092
21
-94.6669
0
LINE
8
Black
10
167.092
20
-94.6669
11
167.884
21
-94.6669
0
LINE
8
Black
10
167.884
20
-94.6669
11
167.953
21
-94.6326
0
LINE
8
Black
10
167.953
20
-94.6326
11
167.983
21
-94.6022
0
LINE
8
Black
10
167.983
20
-94.6022
11
168.017
21
-94.5337
0
LINE
8
Black
10
168.017
20
-94.5337
11
168.017
21
-94.3787
0
LINE
8
Black
10
168.017
20
-94.3787
11
167.983
21
-94.3101
0
LINE
8
Black
10
167.983
20
-94.3101
11
167.953
21
-94.2797
0
LINE
8
Black
10
167.953
20
-94.2797
11
167.884
21
-94.2455
0
LINE
8
Black
10
167.884
20
-94.2455
11
167.092
21
-94.2455
0
LINE
8
Black
10
167.092
20
-94.2455
11
167.067
21
-94.241
0
LINE
8
Black
10
167.067
20
-94.241
11
167.044
21
-94.2279
0
LINE
8
Black
10
167.044
20
-94.2279
11
167.027
21
-94.208
0
LINE
8
Black
10
167.027
20
-94.208
11
167.019
21
-94.1835
0
LINE
8
Black
10
167.019
20
-94.1835
11
167.019
21
-94.1575
0
LINE
8
Black
10
167.019
20
-94.1575
11
167.027
21
-94.133
0
LINE
8
Black
10
167.027
20
-94.133
11
167.044
21
-94.113
0
LINE
8
Black
10
167.044
20
-94.113
11
167.067
21
-94.1
0
LINE
8
Black
10
167.067
20
-94.1
11
167.092
21
-94.0955
0
LINE
8
Black
10
167.092
20
-94.0955
11
167.902
21
-94.0955
0
LINE
8
Black
10
167.902
20
-94.0955
11
167.906
21
-94.0962
0
LINE
8
Black
10
168.13
20
-93.1055
11
168.15
21
-93.1223
0
LINE
8
Black
10
168.15
20
-93.1223
11
168.163
21
-93.1448
0
LINE
8
Black
10
168.163
20
-93.1448
11
168.167
21
-93.1705
0
LINE
8
Black
10
168.167
20
-93.1705
11
168.167
21
-93.7419
0
LINE
8
Black
10
168.167
20
-93.7419
11
168.163
21
-93.7676
0
LINE
8
Black
10
168.163
20
-93.7676
11
168.15
21
-93.7901
0
LINE
8
Black
10
168.15
20
-93.7901
11
168.13
21
-93.8069
0
LINE
8
Black
10
168.13
20
-93.8069
11
168.105
21
-93.8158
0
LINE
8
Black
10
168.105
20
-93.8158
11
168.079
21
-93.8158
0
LINE
8
Black
10
168.079
20
-93.8158
11
168.055
21
-93.8069
0
LINE
8
Black
10
168.055
20
-93.8069
11
168.035
21
-93.7901
0
LINE
8
Black
10
168.035
20
-93.7901
11
168.022
21
-93.7676
0
LINE
8
Black
10
168.022
20
-93.7676
11
168.017
21
-93.7419
0
LINE
8
Black
10
168.017
20
-93.7419
11
168.017
21
-93.5312
0
LINE
8
Black
10
168.017
20
-93.5312
11
167.321
21
-93.5312
0
LINE
8
Black
10
167.321
20
-93.5312
11
167.384
21
-93.5936
0
LINE
8
Black
10
167.384
20
-93.5936
11
167.39
21
-93.6035
0
LINE
8
Black
10
167.39
20
-93.6035
11
167.398
21
-93.6131
0
LINE
8
Black
10
167.398
20
-93.6131
11
167.445
21
-93.7084
0
LINE
8
Black
10
167.445
20
-93.7084
11
167.453
21
-93.7333
0
LINE
8
Black
10
167.453
20
-93.7333
11
167.451
21
-93.7593
0
LINE
8
Black
10
167.451
20
-93.7593
11
167.441
21
-93.7832
0
LINE
8
Black
10
167.441
20
-93.7832
11
167.423
21
-93.8021
0
LINE
8
Black
10
167.423
20
-93.8021
11
167.399
21
-93.8138
0
LINE
8
Black
10
167.399
20
-93.8138
11
167.374
21
-93.8168
0
LINE
8
Black
10
167.374
20
-93.8168
11
167.348
21
-93.8107
0
LINE
8
Black
10
167.348
20
-93.8107
11
167.327
21
-93.7964
0
LINE
8
Black
10
167.327
20
-93.7964
11
167.311
21
-93.7754
0
LINE
8
Black
10
167.311
20
-93.7754
11
167.269
21
-93.6911
0
LINE
8
Black
10
167.269
20
-93.6911
11
167.187
21
-93.6097
0
LINE
8
Black
10
167.187
20
-93.6097
11
167.051
21
-93.5186
0
LINE
8
Black
10
167.051
20
-93.5186
11
167.048
21
-93.5157
0
LINE
8
Black
10
167.048
20
-93.5157
11
167.044
21
-93.5136
0
LINE
8
Black
10
167.044
20
-93.5136
11
167.038
21
-93.5068
0
LINE
8
Black
10
167.038
20
-93.5068
11
167.032
21
-93.5006
0
LINE
8
Black
10
167.032
20
-93.5006
11
167.03
21
-93.4969
0
LINE
8
Black
10
167.03
20
-93.4969
11
167.027
21
-93.4937
0
LINE
8
Black
10
167.027
20
-93.4937
11
167.024
21
-93.4853
0
LINE
8
Black
10
167.024
20
-93.4853
11
167.02
21
-93.4773
0
LINE
8
Black
10
167.02
20
-93.4773
11
167.02
21
-93.4731
0
LINE
8
Black
10
167.02
20
-93.4731
11
167.019
21
-93.4692
0
LINE
8
Black
10
167.019
20
-93.4692
11
167.019
21
-93.4603
0
LINE
8
Black
10
167.019
20
-93.4603
11
167.018
21
-93.4514
0
LINE
8
Black
10
167.018
20
-93.4514
11
167.019
21
-93.4473
0
LINE
8
Black
10
167.019
20
-93.4473
11
167.019
21
-93.4432
0
LINE
8
Black
10
167.019
20
-93.4432
11
167.022
21
-93.4348
0
LINE
8
Black
10
167.022
20
-93.4348
11
167.024
21
-93.4261
0
LINE
8
Black
10
167.024
20
-93.4261
11
167.026
21
-93.4226
0
LINE
8
Black
10
167.026
20
-93.4226
11
167.027
21
-93.4187
0
LINE
8
Black
10
167.027
20
-93.4187
11
167.033
21
-93.4118
0
LINE
8
Black
10
167.033
20
-93.4118
11
167.038
21
-93.4044
0
LINE
8
Black
10
167.038
20
-93.4044
11
167.042
21
-93.4019
0
LINE
8
Black
10
167.042
20
-93.4019
11
167.044
21
-93.3987
0
LINE
8
Black
10
167.044
20
-93.3987
11
167.052
21
-93.3943
0
LINE
8
Black
10
167.052
20
-93.3943
11
167.059
21
-93.389
0
LINE
8
Black
10
167.059
20
-93.389
11
167.063
21
-93.3878
0
LINE
8
Black
10
167.063
20
-93.3878
11
167.067
21
-93.3857
0
LINE
8
Black
10
167.067
20
-93.3857
11
167.076
21
-93.3842
0
LINE
8
Black
10
167.076
20
-93.3842
11
167.084
21
-93.3816
0
LINE
8
Black
10
167.084
20
-93.3816
11
167.088
21
-93.3819
0
LINE
8
Black
10
167.088
20
-93.3819
11
167.092
21
-93.3812
0
LINE
8
Black
10
167.092
20
-93.3812
11
168.017
21
-93.3812
0
LINE
8
Black
10
168.017
20
-93.3812
11
168.017
21
-93.1705
0
LINE
8
Black
10
168.017
20
-93.1705
11
168.022
21
-93.1448
0
LINE
8
Black
10
168.022
20
-93.1448
11
168.035
21
-93.1223
0
LINE
8
Black
10
168.035
20
-93.1223
11
168.055
21
-93.1055
0
LINE
8
Black
10
168.055
20
-93.1055
11
168.079
21
-93.0966
0
LINE
8
Black
10
168.079
20
-93.0966
11
168.105
21
-93.0966
0
LINE
8
Black
10
168.105
20
-93.0966
11
168.13
21
-93.1055
  0
ENDSEC
  0
EOF
