  0
SECTION
  2
HEADER
  9
$ANGBASE
  50
0.0
  9
$ANGDIR
  70
  1
  9
$MEASUREMENT
  70
0
  0
ENDSEC
  0
SECTION
  2
TABLES
  0
TABLE
  2
LTYPE
  70
1
  0
LTYPE
  2
CONTINUOUS
  70
0
  3
Solid line
  72
65
  73
0
  40
0.0
  0
ENDTAB
  0
TABLE
  2
STYLE
  70
4
  0
STYLE
  2
KICAD
  70
0
  40
0
  41
1
  42
1
  50
0
  71
0
  3
isocp.shx
  0
STYLE
  2
KICADB
  70
0
  40
0
  41
1
  42
1
  50
0
  71
0
  3
isocp.shx
  0
STYLE
  2
KICADI
  70
0
  40
0
  41
1
  42
1
  50
15
  71
0
  3
isocp.shx
  0
STYLE
  2
KICADBI
  70
0
  40
0
  41
1
  42
1
  50
15
  71
0
  3
isocp.shx
  0
ENDTAB
  0
TABLE
  2
LAYER
  70
30
  0
LAYER
  2
BLACK
  70
0
  62
7
  6
CONTINUOUS
  0
LAYER
  2
GRAY1
  70
0
  62
251
  6
CONTINUOUS
  0
LAYER
  2
GRAY2
  70
0
  62
8
  6
CONTINUOUS
  0
LAYER
  2
GRAY3
  70
0
  62
9
  6
CONTINUOUS
  0
LAYER
  2
WHITE
  70
0
  62
7
  6
CONTINUOUS
  0
LAYER
  2
LYELLOW
  70
0
  62
51
  6
CONTINUOUS
  0
LAYER
  2
BLUE1
  70
0
  62
178
  6
CONTINUOUS
  0
LAYER
  2
GREEN1
  70
0
  62
98
  6
CONTINUOUS
  0
LAYER
  2
CYAN1
  70
0
  62
138
  6
CONTINUOUS
  0
LAYER
  2
RED1
  70
0
  62
18
  6
CONTINUOUS
  0
LAYER
  2
MAGENTA1
  70
0
  62
228
  6
CONTINUOUS
  0
LAYER
  2
BROWN1
  70
0
  62
58
  6
CONTINUOUS
  0
LAYER
  2
BLUE2
  70
0
  62
5
  6
CONTINUOUS
  0
LAYER
  2
GREEN2
  70
0
  62
3
  6
CONTINUOUS
  0
LAYER
  2
CYAN2
  70
0
  62
4
  6
CONTINUOUS
  0
LAYER
  2
RED2
  70
0
  62
1
  6
CONTINUOUS
  0
LAYER
  2
MAGENTA2
  70
0
  62
6
  6
CONTINUOUS
  0
LAYER
  2
BROWN2
  70
0
  62
54
  6
CONTINUOUS
  0
LAYER
  2
BLUE3
  70
0
  62
171
  6
CONTINUOUS
  0
LAYER
  2
GREEN3
  70
0
  62
91
  6
CONTINUOUS
  0
LAYER
  2
CYAN3
  70
0
  62
131
  6
CONTINUOUS
  0
LAYER
  2
RED3
  70
0
  62
11
  6
CONTINUOUS
  0
LAYER
  2
MAGENTA3
  70
0
  62
221
  6
CONTINUOUS
  0
LAYER
  2
YELLOW3
  70
0
  62
2
  6
CONTINUOUS
  0
LAYER
  2
BLUE4
  70
0
  62
5
  6
CONTINUOUS
  0
LAYER
  2
GREEN4
  70
0
  62
3
  6
CONTINUOUS
  0
LAYER
  2
CYAN4
  70
0
  62
4
  6
CONTINUOUS
  0
LAYER
  2
RED4
  70
0
  62
1
  6
CONTINUOUS
  0
LAYER
  2
MAGENTA4
  70
0
  62
6
  6
CONTINUOUS
  0
LAYER
  2
YELLOW4
  70
0
  62
2
  6
CONTINUOUS
  0
ENDTAB
  0
ENDSEC
  0
SECTION
  2
ENTITIES
0
LINE
8
Black
10
172.726
20
-90.0961
11
172.733
21
-90.0961
0
LINE
8
Black
10
172.733
20
-90.0961
11
172.739
21
-90.0984
0
LINE
8
Black
10
172.739
20
-90.0984
11
172.746
21
-90.0995
0
LINE
8
Black
10
172.746
20
-90.0995
11
172.751
21
-90.1028
0
LINE
8
Black
10
172.751
20
-90.1028
11
172.757
21
-90.105
0
LINE
8
Black
10
172.757
20
-90.105
11
172.763
21
-90.1093
0
LINE
8
Black
10
172.763
20
-90.1093
11
172.768
21
-90.1125
0
LINE
8
Black
10
172.768
20
-90.1125
11
172.772
21
-90.1176
0
LINE
8
Black
10
172.772
20
-90.1176
11
172.777
21
-90.1218
0
LINE
8
Black
10
172.777
20
-90.1218
11
172.781
21
-90.1275
0
LINE
8
Black
10
172.781
20
-90.1275
11
172.785
21
-90.1325
0
LINE
8
Black
10
172.785
20
-90.1325
11
172.787
21
-90.1387
0
LINE
8
Black
10
172.787
20
-90.1387
11
172.79
21
-90.1443
0
LINE
8
Black
10
172.79
20
-90.1443
11
172.792
21
-90.1508
0
LINE
8
Black
10
172.792
20
-90.1508
11
172.794
21
-90.157
0
LINE
8
Black
10
172.794
20
-90.157
11
172.794
21
-90.1635
0
LINE
8
Black
10
172.794
20
-90.1635
11
172.795
21
-90.17
0
LINE
8
Black
10
172.795
20
-90.17
11
172.795
21
-115.57
0
LINE
8
Black
10
172.795
20
-115.57
11
172.794
21
-115.576
0
LINE
8
Black
10
172.794
20
-115.576
11
172.794
21
-115.583
0
LINE
8
Black
10
172.794
20
-115.583
11
172.792
21
-115.589
0
LINE
8
Black
10
172.792
20
-115.589
11
172.79
21
-115.596
0
LINE
8
Black
10
172.79
20
-115.596
11
172.787
21
-115.601
0
LINE
8
Black
10
172.787
20
-115.601
11
172.785
21
-115.608
0
LINE
8
Black
10
172.785
20
-115.608
11
172.781
21
-115.613
0
LINE
8
Black
10
172.781
20
-115.613
11
172.777
21
-115.618
0
LINE
8
Black
10
172.777
20
-115.618
11
172.772
21
-115.622
0
LINE
8
Black
10
172.772
20
-115.622
11
172.768
21
-115.627
0
LINE
8
Black
10
172.768
20
-115.627
11
172.763
21
-115.631
0
LINE
8
Black
10
172.763
20
-115.631
11
172.757
21
-115.635
0
LINE
8
Black
10
172.757
20
-115.635
11
172.751
21
-115.637
0
LINE
8
Black
10
172.751
20
-115.637
11
172.746
21
-115.64
0
LINE
8
Black
10
172.746
20
-115.64
11
172.739
21
-115.642
0
LINE
8
Black
10
172.739
20
-115.642
11
172.733
21
-115.644
0
LINE
8
Black
10
172.733
20
-115.644
11
172.726
21
-115.644
0
LINE
8
Black
10
172.726
20
-115.644
11
172.72
21
-115.645
0
LINE
8
Black
10
172.72
20
-115.645
11
123.825
21
-115.645
0
LINE
8
Black
10
123.825
20
-115.645
11
123.819
21
-115.644
0
LINE
8
Black
10
123.819
20
-115.644
11
123.812
21
-115.644
0
LINE
8
Black
10
123.812
20
-115.644
11
123.806
21
-115.642
0
LINE
8
Black
10
123.806
20
-115.642
11
123.799
21
-115.64
0
LINE
8
Black
10
123.799
20
-115.64
11
123.794
21
-115.637
0
LINE
8
Black
10
123.794
20
-115.637
11
123.787
21
-115.635
0
LINE
8
Black
10
123.787
20
-115.635
11
123.782
21
-115.631
0
LINE
8
Black
10
123.782
20
-115.631
11
123.777
21
-115.627
0
LINE
8
Black
10
123.777
20
-115.627
11
123.773
21
-115.622
0
LINE
8
Black
10
123.773
20
-115.622
11
123.768
21
-115.618
0
LINE
8
Black
10
123.768
20
-115.618
11
123.764
21
-115.613
0
LINE
8
Black
10
123.764
20
-115.613
11
123.76
21
-115.608
0
LINE
8
Black
10
123.76
20
-115.608
11
123.758
21
-115.601
0
LINE
8
Black
10
123.758
20
-115.601
11
123.755
21
-115.596
0
LINE
8
Black
10
123.755
20
-115.596
11
123.753
21
-115.589
0
LINE
8
Black
10
123.753
20
-115.589
11
123.751
21
-115.583
0
LINE
8
Black
10
123.751
20
-115.583
11
123.751
21
-115.576
0
LINE
8
Black
10
123.751
20
-115.576
11
123.75
21
-115.57
0
LINE
8
Black
10
123.75
20
-115.57
11
123.75
21
-90.17
0
LINE
8
Black
10
123.75
20
-90.17
11
123.751
21
-90.1635
0
LINE
8
Black
10
123.751
20
-90.1635
11
123.751
21
-90.157
0
LINE
8
Black
10
123.751
20
-90.157
11
123.753
21
-90.1508
0
LINE
8
Black
10
123.753
20
-90.1508
11
123.755
21
-90.1443
0
LINE
8
Black
10
123.755
20
-90.1443
11
123.758
21
-90.1387
0
LINE
8
Black
10
123.758
20
-90.1387
11
123.76
21
-90.1325
0
LINE
8
Black
10
123.76
20
-90.1325
11
123.764
21
-90.1275
0
LINE
8
Black
10
123.764
20
-90.1275
11
123.768
21
-90.1218
0
LINE
8
Black
10
123.768
20
-90.1218
11
123.773
21
-90.1176
0
LINE
8
Black
10
123.773
20
-90.1176
11
123.777
21
-90.1125
0
LINE
8
Black
10
123.777
20
-90.1125
11
123.782
21
-90.1093
0
LINE
8
Black
10
123.782
20
-90.1093
11
123.787
21
-90.105
0
LINE
8
Black
10
123.787
20
-90.105
11
123.794
21
-90.1028
0
LINE
8
Black
10
123.794
20
-90.1028
11
123.799
21
-90.0995
0
LINE
8
Black
10
123.799
20
-90.0995
11
123.806
21
-90.0984
0
LINE
8
Black
10
123.806
20
-90.0984
11
123.812
21
-90.0961
0
LINE
8
Black
10
123.812
20
-90.0961
11
123.819
21
-90.0961
0
LINE
8
Black
10
123.819
20
-90.0961
11
123.825
21
-90.095
0
LINE
8
Black
10
123.825
20
-90.095
11
172.72
21
-90.095
0
LINE
8
Black
10
172.72
20
-90.095
11
172.726
21
-90.0961
0
LINE
8
Black
10
123.9
20
-90.245
11
123.9
21
-115.495
0
LINE
8
Black
10
123.9
20
-115.495
11
172.645
21
-115.495
0
LINE
8
Black
10
172.645
20
-115.495
11
172.645
21
-90.245
0
LINE
8
Black
10
172.645
20
-90.245
11
123.9
21
-90.245
  0
ENDSEC
  0
EOF
